<svg width="60" height="40" viewBox="0 0 60 40" fill="none" xmlns="http://www.w3.org/2000/svg">
<rect x="9.625" y="11.625" width="34.75" height="10.75" rx="1.375" fill="white" stroke="#73CFB5" stroke-width="1.25"/>
<rect x="9.625" y="24.625" width="34.75" height="10.75" rx="1.375" fill="white" stroke="#264887" stroke-width="1.25"/>
<circle cx="15" cy="17" r="1" fill="#264887"/>
<circle cx="19" cy="17" r="1" fill="#264887"/>
<circle cx="23" cy="17" r="1" fill="#264887"/>
<circle cx="27" cy="17" r="1" fill="#264887"/>
<circle cx="31" cy="17" r="1" fill="#264887"/>
<circle cx="35" cy="17" r="1" fill="#264887"/>
<circle cx="39" cy="17" r="1" fill="#264887"/>
<path d="M13.3721 32H14.1279V30.166H16.1846V32H16.9375V27.7725H16.1846V29.5303H14.1279V27.7725H13.3721V32Z" fill="#264887"/>
<path d="M17.998 28.4492C18.2266 28.4492 18.4023 28.2676 18.4023 28.0508C18.4023 27.8281 18.2266 27.6494 17.998 27.6494C17.7695 27.6494 17.5908 27.8281 17.5908 28.0508C17.5908 28.2676 17.7695 28.4492 17.998 28.4492ZM17.6318 32H18.3613V28.8945H17.6318V32Z" fill="#264887"/>
<path d="M18.9824 33.0254H19.7119V31.4756H19.7266C19.9023 31.8389 20.2568 32.0615 20.6992 32.0615C21.4785 32.0615 21.9766 31.4463 21.9766 30.4502V30.4473C21.9766 29.4453 21.4785 28.8301 20.6904 28.8301C20.2451 28.8301 19.9053 29.0586 19.7266 29.4307H19.7119V28.8945H18.9824V33.0254ZM20.4736 31.4463C20.0225 31.4463 19.7061 31.0566 19.7061 30.4502V30.4473C19.7061 29.8379 20.0225 29.4453 20.4736 29.4453C20.9395 29.4453 21.2324 29.8262 21.2324 30.4473V30.4502C21.2324 31.0625 20.9395 31.4463 20.4736 31.4463Z" fill="#264887"/>
<path d="M22.4453 33.0254H23.1748V31.4756H23.1895C23.3652 31.8389 23.7197 32.0615 24.1621 32.0615C24.9414 32.0615 25.4395 31.4463 25.4395 30.4502V30.4473C25.4395 29.4453 24.9414 28.8301 24.1533 28.8301C23.708 28.8301 23.3682 29.0586 23.1895 29.4307H23.1748V28.8945H22.4453V33.0254ZM23.9365 31.4463C23.4854 31.4463 23.1689 31.0566 23.1689 30.4502V30.4473C23.1689 29.8379 23.4854 29.4453 23.9365 29.4453C24.4023 29.4453 24.6953 29.8262 24.6953 30.4473V30.4502C24.6953 31.0625 24.4023 31.4463 23.9365 31.4463Z" fill="#264887"/>
<path d="M27.2822 32.0615C28.1934 32.0615 28.7852 31.4551 28.7852 30.4473V30.4414C28.7852 29.4395 28.1846 28.8301 27.2793 28.8301C26.377 28.8301 25.7793 29.4453 25.7793 30.4414V30.4473C25.7793 31.4521 26.3682 32.0615 27.2822 32.0615ZM27.2852 31.4727C26.8193 31.4727 26.5234 31.1006 26.5234 30.4473V30.4414C26.5234 29.7969 26.8252 29.4219 27.2793 29.4219C27.7422 29.4219 28.041 29.7939 28.041 30.4414V30.4473C28.041 31.0977 27.7451 31.4727 27.2852 31.4727Z" fill="#264887"/>
<path d="M30.0068 29.832H30.4902L30.458 29.1729L30.9854 29.5186L31.2344 29.1377L30.6338 28.8184L31.2344 28.502L30.9883 28.1211L30.458 28.4668L30.4902 27.8105H30.0068L30.0391 28.4668L29.5117 28.1211L29.2627 28.502L29.8662 28.8213L29.2627 29.1406L29.5117 29.5215L30.0391 29.1758L30.0068 29.832Z" fill="#264887"/>
<path d="M33.4199 32.0732C34.3545 32.0732 35.0078 31.4756 35.0078 30.6055V30.5996C35.0078 29.7969 34.4277 29.2139 33.6221 29.2139C33.1973 29.2139 32.8486 29.3809 32.6641 29.665H32.6494L32.7666 28.3906H34.7588V27.7725H32.1631L31.9609 30.2305H32.6201C32.6699 30.1367 32.7402 30.0547 32.8193 29.9902C32.9805 29.8555 33.1885 29.7822 33.4287 29.7822C33.9238 29.7822 34.2783 30.1279 34.2783 30.6113V30.6172C34.2783 31.1123 33.9297 31.458 33.4258 31.458C32.9805 31.458 32.6582 31.1855 32.5967 30.8311L32.5938 30.8105H31.8848L31.8877 30.8486C31.9434 31.5488 32.541 32.0732 33.4199 32.0732Z" fill="#264887"/>
<path d="M38.002 32.7031C38.3799 32.7031 38.7314 32.6504 39.0186 32.5537V32.0996C38.7871 32.1904 38.4062 32.2461 38.0312 32.2461C36.8242 32.2461 35.9746 31.5283 35.9746 30.2393V30.2363C35.9746 29.0439 36.7715 28.2236 37.8994 28.2236C39.0332 28.2236 39.7803 28.9209 39.7803 30.0371V30.04C39.7803 30.6816 39.5957 31.0273 39.3203 31.0273C39.1094 31.0273 38.9717 30.8398 38.9717 30.4678V29.0791H38.4326V29.4424H38.4092C38.2949 29.1816 38.0195 29.0176 37.6973 29.0176C37.1084 29.0176 36.6865 29.5186 36.6865 30.2363V30.2393C36.6865 30.9951 37.0967 31.4961 37.6973 31.4961C38.0693 31.4961 38.3652 31.3203 38.5117 30.9688H38.5352L38.5557 31.0127C38.6699 31.2969 38.9277 31.5049 39.291 31.5049C39.8711 31.5049 40.293 30.9717 40.293 30.0225V30.0195C40.293 28.6455 39.3203 27.7725 37.9258 27.7725C36.4756 27.7725 35.4619 28.7715 35.4619 30.2334V30.2363C35.4619 31.7979 36.5166 32.7031 38.002 32.7031ZM37.8232 31.0039C37.4863 31.0039 37.2783 30.7197 37.2783 30.248V30.2451C37.2783 29.7793 37.4863 29.5039 37.8291 29.5039C38.1719 29.5039 38.3975 29.7881 38.3975 30.2451V30.251C38.3975 30.7139 38.1719 31.0039 37.8232 31.0039Z" fill="#264887"/>
<path d="M46.7679 18.2763C46.5669 18.1078 46.5304 17.8125 46.6842 17.6L47.311 16.7342C47.4648 16.5217 47.7567 16.4642 47.9796 16.6025L57.8113 22.702C58.7297 23.2718 58.9718 24.501 58.3381 25.3765C57.7043 26.2519 56.461 26.4058 55.6329 25.7113L46.7679 18.2763Z" fill="#264887"/>
<path d="M40.6746 4.74064C40.6091 4.33164 40.2244 4.05319 39.8154 4.11869C39.4064 4.1842 39.1279 4.56887 39.1934 4.97787L39.5888 7.44641C39.6543 7.85541 40.039 8.13386 40.448 8.06836C40.857 8.00285 41.1354 7.61818 41.0699 7.20918L40.6746 4.74064Z" fill="#73CFB5"/>
<path d="M33.3597 14.8449C32.9507 14.9104 32.5661 14.632 32.5006 14.223C32.4351 13.814 32.7135 13.4293 33.1225 13.3638L35.5911 12.9684C36.0001 12.9029 36.3847 13.1814 36.4502 13.5904C36.5157 13.9994 36.2373 14.3841 35.8283 14.4496L33.3597 14.8449Z" fill="#73CFB5"/>
<path d="M35.5122 8.08637C35.8477 8.32926 35.9228 8.79816 35.6799 9.13368C35.437 9.46921 34.9681 9.54431 34.6326 9.30143L32.6075 7.83547C32.272 7.59259 32.1969 7.12369 32.4398 6.78816C32.6826 6.45263 33.1515 6.37753 33.4871 6.62042L35.5122 8.08637Z" fill="#73CFB5"/>
<path d="M49.4679 15.0611C49.7127 14.9599 49.9192 14.7838 50.0579 14.5582C50.1966 14.3325 50.2604 14.0688 50.2402 13.8047C50.2241 13.5446 50.1255 13.2965 49.9586 13.0965C49.7917 12.8964 49.5652 12.7549 49.3123 12.6926L46.6586 12.0138C46.5566 11.9878 46.4653 11.9301 46.3979 11.8491C46.3305 11.7681 46.2905 11.6679 46.2834 11.5628L46.1063 8.9318C46.0813 8.68815 45.9841 8.45752 45.8272 8.26949C45.6702 8.08146 45.4607 7.94461 45.2254 7.8765C44.9913 7.81166 44.7429 7.81943 44.5133 7.89879C44.2836 7.97815 44.0835 8.12536 43.9393 8.32093L42.5823 10.0678C42.5226 10.1448 42.4418 10.2027 42.3497 10.2344C42.2576 10.2661 42.1582 10.2702 42.0638 10.2462L39.0922 9.47623C39.0824 9.47308 39.0723 9.47077 39.0621 9.46932C38.8316 9.4257 38.5934 9.44726 38.3745 9.53159C38.1555 9.61593 37.9644 9.75968 37.8227 9.94669C37.681 10.1337 37.5942 10.3565 37.5722 10.5901C37.5502 10.8238 37.5939 11.0589 37.6982 11.269L39.1776 13.9581C39.2242 14.0437 39.2448 14.141 39.2368 14.2381C39.2289 14.3352 39.1928 14.4278 39.1329 14.5046L37.7758 16.2515C37.6225 16.4392 37.5297 16.669 37.5095 16.9106C37.4893 17.1522 37.5428 17.3942 37.6628 17.6047C37.7907 17.819 37.98 17.9899 38.2063 18.0952C38.4325 18.2005 38.6851 18.2353 38.9314 18.1952L41.4996 17.7223C41.6032 17.7031 41.7102 17.7172 41.8054 17.7624C41.9005 17.8077 41.9789 17.8818 42.0294 17.9743L43.343 20.3764C43.4665 20.6059 43.6599 20.7902 43.8951 20.9024C44.1304 21.0146 44.3953 21.0488 44.6514 21.0002C44.9127 20.9552 45.1528 20.8283 45.3372 20.6378C45.5216 20.4474 45.6406 20.2033 45.6772 19.9407L46.1584 16.7132C46.1711 16.6283 46.2054 16.5481 46.2581 16.4804C46.3107 16.4126 46.3799 16.3595 46.459 16.3263L49.4679 15.0611Z" fill="#264887"/>
<path d="M47.6761 6.70086H48.4237C48.5559 6.70086 48.6827 6.75361 48.7762 6.8475C48.8697 6.94139 48.9222 7.06873 48.9222 7.20151V7.95249C48.9222 8.15166 49.0009 8.34268 49.1412 8.48351C49.2814 8.62435 49.4715 8.70347 49.6698 8.70347C49.8681 8.70347 50.0583 8.62435 50.1985 8.48351C50.3387 8.34268 50.4175 8.15166 50.4175 7.95249V7.20151C50.4175 7.06873 50.47 6.94139 50.5634 6.8475C50.6569 6.75361 50.7837 6.70086 50.9159 6.70086H51.6635C51.8618 6.70086 52.052 6.62174 52.1922 6.4809C52.3324 6.34007 52.4112 6.14905 52.4112 5.94988C52.4112 5.75071 52.3324 5.55969 52.1922 5.41886C52.052 5.27802 51.8618 5.1989 51.6635 5.1989H50.9159C50.7837 5.1989 50.6569 5.14615 50.5634 5.05226C50.47 4.95837 50.4175 4.83103 50.4175 4.69825V3.94727C50.4175 3.7481 50.3387 3.55708 50.1985 3.41625C50.0583 3.27541 49.8681 3.19629 49.6698 3.19629C49.4715 3.19629 49.2814 3.27541 49.1412 3.41625C49.0009 3.55708 48.9222 3.7481 48.9222 3.94727V4.69825C48.9222 4.83103 48.8697 4.95837 48.7762 5.05226C48.6827 5.14615 48.5559 5.1989 48.4237 5.1989H47.6761C47.4778 5.1989 47.2877 5.27802 47.1474 5.41886C47.0072 5.55969 46.9285 5.75071 46.9285 5.94988C46.9285 6.14905 47.0072 6.34007 47.1474 6.4809C47.2877 6.62174 47.4778 6.70086 47.6761 6.70086Z" fill="#73CFB5"/>
<path d="M5.41484 12.9209L3.76489 13.9863L4.85164 15.6575L6.50158 14.5921L5.41484 12.9209Z" stroke="#73CFB5" stroke-width="0.765269" stroke-linecap="round" stroke-linejoin="round"/>
<path d="M54.9915 33.7657L53.303 32.2422L51.786 33.9241L53.4745 35.4476L54.9915 33.7657Z" stroke="#73CFB5" stroke-width="0.877741" stroke-linecap="round" stroke-linejoin="round"/>
<path d="M14.3979 5.5823L14.2651 3L11.6828 3.13279L11.8156 5.71509L14.3979 5.5823Z" stroke="#73CFB5" stroke-linecap="round" stroke-linejoin="round"/>
<path d="M4.07104 34.2871L7.37883 35.0192L4.07104 34.2871Z" fill="#73CFB5"/>
<path d="M4.07104 34.2871L7.37883 35.0192" stroke="#73CFB5" stroke-linecap="round"/>
<path d="M5.99428 33.0462L5.31353 36.3539L5.99428 33.0462Z" fill="#73CFB5"/>
<path d="M5.99428 33.0462L5.31353 36.3539" stroke="#73CFB5" stroke-linecap="round"/>
<path d="M46 25.2422L49.3078 25.9743" stroke="#73CFB5" stroke-linecap="round"/>
<path d="M47.9231 24L47.2424 27.3078" stroke="#73CFB5" stroke-linecap="round"/>
</svg>
