<svg width="48" height="48" viewBox="0 0 48 48" fill="none" xmlns="http://www.w3.org/2000/svg">
<circle cx="24" cy="24" r="24" fill="#DBE5F7"/>
<path d="M32.3467 32.0561C32.3467 28.2853 29.7306 27.3497 27.4167 26.5096L26.68 26.2614C26.6139 26.2614 26.5195 26.1277 26.4533 25.8795C26.2952 25.2652 26.3215 24.6172 26.5289 24.018C27.4261 23.0633 28.295 21.7936 28.295 18.7387C28.295 15.407 26.0472 13.9655 23.8089 13.9655C21.5706 13.9655 19.3606 15.407 19.3606 18.7387C19.3606 21.7936 20.2295 23.0251 21.1267 24.0084C21.3408 24.6228 21.3672 25.288 21.2022 25.9177C21.1361 26.1659 21.0417 26.2709 20.9756 26.2996L20.2578 26.5573C17.9533 27.3402 15.3467 28.2757 15.3467 32.0561V33.4881C15.3467 33.6147 15.3964 33.7361 15.485 33.8256C15.5735 33.9152 15.6937 33.9655 15.8189 33.9655H31.8745C31.9997 33.9655 32.1198 33.9152 32.2084 33.8256C32.2969 33.7361 32.3467 33.6147 32.3467 33.4881V32.0561Z" fill="#264887"/>
</svg>
