<svg width="56" height="56" viewBox="0 0 56 56" fill="none" xmlns="http://www.w3.org/2000/svg">
<path d="M5.14991 0.547619H50.8501C53.3919 0.547619 55.4524 2.60813 55.4524 5.14991V50.8501C55.4524 53.3919 53.3919 55.4524 50.8501 55.4524H5.14991C2.60813 55.4524 0.547619 53.3919 0.547619 50.8501V5.14991C0.547619 2.60813 2.60813 0.547619 5.14991 0.547619Z" fill="#E7F7F2" stroke="#D0EFE6" stroke-width="1.09524"/>
<g clip-path="url(#clip0_4244_282369)">
<path d="M39.41 16.8562C39.2522 16.824 39.1102 16.7383 39.0082 16.6135C38.9062 16.4888 38.8503 16.3327 38.85 16.1716V14.0002C38.85 13.2576 38.555 12.5454 38.0299 12.0203C37.5048 11.4952 36.7926 11.2002 36.05 11.2002H18.55C17.4361 11.2002 16.3678 11.6427 15.5802 12.4303C14.7925 13.218 14.35 14.2863 14.35 15.4002V40.6002C14.35 41.7141 14.7925 42.7824 15.5802 43.57C16.3678 44.3577 17.4361 44.8002 18.55 44.8002H38.85C39.5926 44.8002 40.3048 44.5052 40.8299 43.9801C41.355 43.455 41.65 42.7428 41.65 42.0002V19.6002C41.6502 18.9547 41.4273 18.329 41.0191 17.829C40.6109 17.3289 40.0425 16.9853 39.41 16.8562ZM17.15 15.4002C17.15 15.0289 17.2975 14.6728 17.5601 14.4102C17.8226 14.1477 18.1787 14.0002 18.55 14.0002H35.7C35.7929 14.0002 35.8819 14.0371 35.9475 14.1027C36.0132 14.1683 36.05 14.2574 36.05 14.3502V16.4502C36.05 16.543 36.0132 16.632 35.9475 16.6977C35.8819 16.7633 35.7929 16.8002 35.7 16.8002H18.55C18.1787 16.8002 17.8226 16.6527 17.5601 16.3901C17.2975 16.1276 17.15 15.7715 17.15 15.4002ZM36.1536 39.1778C36.088 39.2566 36.0058 39.3201 35.9129 39.3636C35.82 39.4072 35.7186 39.4298 35.616 39.4298H20.384C20.2816 39.43 20.1803 39.4076 20.0875 39.3644C19.9946 39.3212 19.9123 39.258 19.8465 39.1795C19.7807 39.101 19.7329 39.009 19.7065 38.91C19.6801 38.811 19.6758 38.7075 19.6938 38.6066C19.8195 37.8778 20.0487 37.1706 20.3742 36.5066C21 35.2522 22.575 34.4822 25.4534 33.4154C25.5744 33.0756 25.5705 32.7039 25.4422 32.3668C24.3156 30.9517 23.7588 29.1665 23.8812 27.3618C23.8521 26.8028 23.937 26.2438 24.1308 25.7187C24.3246 25.1936 24.6233 24.7135 25.0086 24.3075C25.394 23.9016 25.8579 23.5783 26.3722 23.3574C26.8865 23.1365 27.4403 23.0225 28 23.0225C28.5598 23.0225 29.1136 23.1365 29.6279 23.3574C30.1422 23.5783 30.6061 23.9016 30.9914 24.3075C31.3768 24.7135 31.6754 25.1936 31.8693 25.7187C32.0631 26.2438 32.148 26.8028 32.1188 27.3618C32.2403 29.181 31.6748 30.9795 30.534 32.4018C30.42 32.7387 30.4329 33.1056 30.5704 33.4336C33.425 34.485 35 35.2536 35.6258 36.5136C35.9514 37.1776 36.1805 37.8848 36.3062 38.6136C36.323 38.7131 36.318 38.815 36.2916 38.9124C36.2653 39.0098 36.2182 39.1003 36.1536 39.1778Z" fill="#008A63"/>
</g>
<defs>
<clipPath id="clip0_4244_282369">
<rect width="33.6" height="33.6" fill="white" transform="translate(11.2 11.2002)"/>
</clipPath>
</defs>
</svg>
