<svg width="14" height="14" viewBox="0 0 14 14" fill="none" xmlns="http://www.w3.org/2000/svg">
<g clip-path="url(#clip0_9574_3603)">
<path d="M13.1528 6.16058H3.17136C3.14183 6.1603 3.11308 6.1511 3.08888 6.13418C3.06468 6.11726 3.04616 6.09342 3.03575 6.06579C3.02534 6.03816 3.02353 6.00802 3.03055 5.97934C3.03758 5.95066 3.05311 5.92478 3.07511 5.90508L8.11336 1.47175C8.27175 1.32241 8.36598 1.11741 8.37619 0.899962C8.3864 0.682509 8.31179 0.469585 8.16808 0.306064C8.02438 0.142544 7.82281 0.0411985 7.60584 0.0233871C7.38888 0.00557568 7.17348 0.0726894 7.00503 0.210584L0.482776 5.95C0.333807 6.08138 0.214498 6.24295 0.132776 6.42399C0.051054 6.60502 0.00878906 6.80137 0.00878906 7C0.00878906 7.19863 0.051054 7.39498 0.132776 7.57601C0.214498 7.75705 0.333807 7.91862 0.482776 8.05L7.00386 13.7882C7.17244 13.9244 7.38713 13.9902 7.60305 13.9717C7.81897 13.9533 8.01942 13.8522 8.16251 13.6894C8.3056 13.5267 8.38026 13.3149 8.37088 13.0984C8.36151 12.8819 8.26882 12.6774 8.11219 12.5277L3.07394 8.09433C3.05194 8.07464 3.03641 8.04875 3.02939 8.02007C3.02236 7.99139 3.02418 7.96126 3.03458 7.93363C3.04499 7.906 3.06351 7.88216 3.08772 7.86524C3.11192 7.84832 3.14067 7.83912 3.17019 7.83883H13.1528C13.3716 7.83306 13.5796 7.74206 13.7324 7.58522C13.8852 7.42837 13.9706 7.21807 13.9706 6.99913C13.9706 6.78018 13.8852 6.56988 13.7324 6.41303C13.5796 6.25619 13.3716 6.16519 13.1528 6.15942V6.16058Z" fill="#40526D"/>
</g>
<defs>
<clipPath id="clip0_9574_3603">
<rect width="14" height="14" fill="white"/>
</clipPath>
</defs>
</svg>