<svg width="19" height="21" viewBox="0 0 19 21" fill="none" xmlns="http://www.w3.org/2000/svg">
<path d="M3 9C2.44772 9 2 9.44772 2 10V15C2 15.5523 2.44772 16 3 16H4C4.55228 16 5 15.5523 5 15V10C5 9.44771 4.55228 9 4 9H3ZM9 9C8.44771 9 8 9.44772 8 10V15C8 15.5523 8.44772 16 9 16H10C10.5523 16 11 15.5523 11 15V10C11 9.44771 10.5523 9 10 9H9ZM0 20C0 20.5523 0.447715 21 1 21H18C18.5523 21 19 20.5523 19 20V19C19 18.4477 18.5523 18 18 18H1C0.447715 18 0 18.4477 0 19V20ZM15 9C14.4477 9 14 9.44772 14 10V15C14 15.5523 14.4477 16 15 16H16C16.5523 16 17 15.5523 17 15V10C17 9.44771 16.5523 9 16 9H15ZM9.96575 0.24513C9.67421 0.0916877 9.32579 0.0916873 9.03425 0.24513L0.534254 4.71881C0.205702 4.89174 0 5.23245 0 5.60373V6C0 6.55228 0.447715 7 1 7H18C18.5523 7 19 6.55228 19 6V5.60373C19 5.23245 18.7943 4.89174 18.4657 4.71881L9.96575 0.24513Z" fill="#40526D"/>
</svg>
