<svg width="126" height="125" viewBox="0 0 126 125" fill="none" xmlns="http://www.w3.org/2000/svg">
<path fill-rule="evenodd" clip-rule="evenodd" d="M63 125C97.5178 125 125.5 97.0178 125.5 62.5C125.5 27.9822 97.5178 0 63 0C28.4822 0 0.5 27.9822 0.5 62.5C0.5 97.0178 28.4822 125 63 125Z" fill="#DBE5F7"/>
<g filter="url(#filter0_i_220_5301)">
<path fill-rule="evenodd" clip-rule="evenodd" d="M67.1875 35.0625C67.1875 34.1996 67.8871 33.5 68.75 33.5H98.4375C99.3004 33.5 100 34.1996 100 35.0625V88.1875C100 89.0504 99.3004 89.75 98.4375 89.75H85.9375V76.4688C85.9375 76.0373 85.5877 75.6875 85.1562 75.6875H77.3438C76.9123 75.6875 76.5625 76.0373 76.5625 76.4688V89.75H68.75C67.8871 89.75 67.1875 89.0504 67.1875 88.1875V35.0625Z" fill="white"/>
<path fill-rule="evenodd" clip-rule="evenodd" d="M25 53.8125C25 52.9496 25.6996 52.25 26.5625 52.25H56.25C57.1129 52.25 57.8125 52.9496 57.8125 53.8125V88.1875C57.8125 89.0504 57.1129 89.75 56.25 89.75H48.4375V76.4688C48.4375 76.0373 48.0877 75.6875 47.6562 75.6875H39.8438C39.4123 75.6875 39.0625 76.0373 39.0625 76.4688V89.75H26.5625C25.6996 89.75 25 89.0504 25 88.1875V53.8125Z" fill="white"/>
</g>
<path fill-rule="evenodd" clip-rule="evenodd" d="M67.1875 35.0625C67.1875 34.1996 67.8871 33.5 68.75 33.5H98.4375C99.3004 33.5 100 34.1996 100 35.0625V88.1875C100 89.0504 99.3004 89.75 98.4375 89.75H85.9375V76.4688C85.9375 76.0373 85.5877 75.6875 85.1562 75.6875H77.3438C76.9123 75.6875 76.5625 76.0373 76.5625 76.4688V89.75H68.75C67.8871 89.75 67.1875 89.0504 67.1875 88.1875V35.0625Z" stroke="#264887" stroke-width="2" stroke-linecap="round" stroke-linejoin="round" stroke-dasharray="100 7 1 5"/>
<path fill-rule="evenodd" clip-rule="evenodd" d="M25 53.8125C25 52.9496 25.6996 52.25 26.5625 52.25H56.25C57.1129 52.25 57.8125 52.9496 57.8125 53.8125V88.1875C57.8125 89.0504 57.1129 89.75 56.25 89.75H48.4375V76.4688C48.4375 76.0373 48.0877 75.6875 47.6562 75.6875H39.8438C39.4123 75.6875 39.0625 76.0373 39.0625 76.4688V89.75H26.5625C25.6996 89.75 25 89.0504 25 88.1875V53.8125Z" stroke="#264887" stroke-width="2" stroke-linecap="round" stroke-linejoin="round" stroke-dasharray="100 7 1 5"/>
<path d="M90.625 62.4062C90.625 61.9748 90.9748 61.625 91.4062 61.625H94.5312C94.9627 61.625 95.3125 61.9748 95.3125 62.4062V65.5312C95.3125 65.9627 94.9627 66.3125 94.5312 66.3125H91.4062C90.9748 66.3125 90.625 65.9627 90.625 65.5312V62.4062Z" fill="#3B70D4"/>
<path d="M82.0312 61.625C81.5998 61.625 81.25 61.9748 81.25 62.4062V65.5312C81.25 65.9627 81.5998 66.3125 82.0312 66.3125H85.1562C85.5877 66.3125 85.9375 65.9627 85.9375 65.5312V62.4062C85.9375 61.9748 85.5877 61.625 85.1562 61.625H82.0312Z" fill="#3B70D4"/>
<path d="M81.25 53.0312C81.25 52.5998 81.5998 52.25 82.0312 52.25H85.1562C85.5877 52.25 85.9375 52.5998 85.9375 53.0312V56.1562C85.9375 56.5877 85.5877 56.9375 85.1562 56.9375H82.0312C81.5998 56.9375 81.25 56.5877 81.25 56.1562V53.0312Z" fill="#3B70D4"/>
<path d="M91.4062 52.25C90.9748 52.25 90.625 52.5998 90.625 53.0312V56.1562C90.625 56.5877 90.9748 56.9375 91.4062 56.9375H94.5312C94.9627 56.9375 95.3125 56.5877 95.3125 56.1562V53.0312C95.3125 52.5998 94.9627 52.25 94.5312 52.25H91.4062Z" fill="#3B70D4"/>
<path d="M81.25 43.6562C81.25 43.2248 81.5998 42.875 82.0312 42.875H85.1562C85.5877 42.875 85.9375 43.2248 85.9375 43.6562V46.7812C85.9375 47.2127 85.5877 47.5625 85.1562 47.5625H82.0312C81.5998 47.5625 81.25 47.2127 81.25 46.7812V43.6562Z" fill="#3B70D4"/>
<path d="M72.6562 61.625C72.2248 61.625 71.875 61.9748 71.875 62.4062V65.5312C71.875 65.9627 72.2248 66.3125 72.6562 66.3125H75.7812C76.2127 66.3125 76.5625 65.9627 76.5625 65.5312V62.4062C76.5625 61.9748 76.2127 61.625 75.7812 61.625H72.6562Z" fill="#3B70D4"/>
<path d="M71.875 53.0312C71.875 52.5998 72.2248 52.25 72.6562 52.25H75.7812C76.2127 52.25 76.5625 52.5998 76.5625 53.0312V56.1562C76.5625 56.5877 76.2127 56.9375 75.7812 56.9375H72.6562C72.2248 56.9375 71.875 56.5877 71.875 56.1562V53.0312Z" fill="#3B70D4"/>
<path d="M72.6562 42.875C72.2248 42.875 71.875 43.2248 71.875 43.6562V46.7812C71.875 47.2127 72.2248 47.5625 72.6562 47.5625H75.7812C76.2127 47.5625 76.5625 47.2127 76.5625 46.7812V43.6562C76.5625 43.2248 76.2127 42.875 75.7812 42.875H72.6562Z" fill="#3B70D4"/>
<path d="M90.625 43.6562C90.625 43.2248 90.9748 42.875 91.4062 42.875H94.5312C94.9627 42.875 95.3125 43.2248 95.3125 43.6562V46.7812C95.3125 47.2127 94.9627 47.5625 94.5312 47.5625H91.4062C90.9748 47.5625 90.625 47.2127 90.625 46.7812V43.6562Z" fill="#3B70D4"/>
<path d="M39.0649 62.4113C39.0649 61.9798 39.4147 61.63 39.8462 61.63H42.9712C43.4027 61.63 43.7524 61.9798 43.7524 62.4113V65.5363C43.7524 65.9677 43.4027 66.3175 42.9712 66.3175H39.8462C39.4147 66.3175 39.0649 65.9677 39.0649 65.5363V62.4113Z" fill="#3B70D4"/>
<path d="M30.4712 61.63C30.0397 61.63 29.6899 61.9798 29.6899 62.4113V65.5363C29.6899 65.9677 30.0397 66.3175 30.4712 66.3175H33.5962C34.0277 66.3175 34.3774 65.9677 34.3774 65.5363V62.4113C34.3774 61.9798 34.0277 61.63 33.5962 61.63H30.4712Z" fill="#3B70D4"/>
<path d="M48.4399 62.4113C48.4399 61.9798 48.7897 61.63 49.2212 61.63H52.3462C52.7777 61.63 53.1274 61.9798 53.1274 62.4113V65.5363C53.1274 65.9677 52.7777 66.3175 52.3462 66.3175H49.2212C48.7897 66.3175 48.4399 65.9677 48.4399 65.5363V62.4113Z" fill="#3B70D4"/>
<path d="M32.5 100H92.5" stroke="#94B1E7" stroke-width="2" stroke-linecap="round" stroke-dasharray="1 6 164 5"/>
<path fill-rule="evenodd" clip-rule="evenodd" d="M50.389 46.1389C51.5396 46.1389 52.4723 45.2061 52.4723 44.0555C52.4723 42.9049 51.5396 41.9722 50.389 41.9722C49.2384 41.9722 48.3057 42.9049 48.3057 44.0555C48.3057 45.2061 49.2384 46.1389 50.389 46.1389Z" stroke="#94B1E7" stroke-width="2"/>
<rect x="26.415" y="27.9167" width="4.16667" height="4.16667" transform="rotate(-45 26.415 27.9167)" stroke="#94B1E7" stroke-width="2" stroke-linecap="round" stroke-linejoin="round"/>
<path d="M105.504 37.6423L108.749 40.8873" stroke="#94B1E7" stroke-width="1.6" stroke-linecap="round"/>
<path d="M108.634 37.6423L105.389 40.8873" stroke="#94B1E7" stroke-width="1.6" stroke-linecap="round"/>
<defs>
<filter id="filter0_i_220_5301" x="25" y="33.5" width="75" height="56.25" filterUnits="userSpaceOnUse" color-interpolation-filters="sRGB">
<feFlood flood-opacity="0" result="BackgroundImageFix"/>
<feBlend mode="normal" in="SourceGraphic" in2="BackgroundImageFix" result="shape"/>
<feColorMatrix in="SourceAlpha" type="matrix" values="0 0 0 0 0 0 0 0 0 0 0 0 0 0 0 0 0 0 127 0" result="hardAlpha"/>
<feOffset dx="3" dy="6"/>
<feComposite in2="hardAlpha" operator="arithmetic" k2="-1" k3="1"/>
<feColorMatrix type="matrix" values="0 0 0 0 0.580392 0 0 0 0 0.694118 0 0 0 0 0.905882 0 0 0 1 0"/>
<feBlend mode="normal" in2="shape" result="effect1_innerShadow_220_5301"/>
</filter>
</defs>
</svg>
