<svg width="40" height="40" viewBox="0 0 40 40" fill="none" xmlns="http://www.w3.org/2000/svg">
<path d="M33.3334 10.8333H17.5C17.3883 10.8331 17.2777 10.8104 17.1749 10.7666C17.0722 10.7228 16.9792 10.6588 16.9017 10.5783L14.6667 8.265C14.4327 8.02311 14.1525 7.83074 13.8427 7.69932C13.5329 7.5679 13.1999 7.50011 12.8634 7.5H7.14335C6.35445 7.50088 5.59809 7.81455 5.04009 8.37223C4.4821 8.92991 4.16801 9.6861 4.16669 10.475V29.525C4.16801 30.3139 4.4821 31.0701 5.04009 31.6278C5.59809 32.1855 6.35445 32.4991 7.14335 32.5H32.8567C33.6456 32.4991 34.402 32.1855 34.9599 31.6278C35.5179 31.0701 35.832 30.3139 35.8334 29.525V13.3333C35.8334 12.6703 35.57 12.0344 35.1011 11.5656C34.6323 11.0967 33.9964 10.8333 33.3334 10.8333Z" fill="#47A1DE"/>
<path d="M25.5555 22.4935C25.554 22.1556 25.48 21.8214 25.3379 21.5108C25.1958 21.2001 24.9885 20.9193 24.7282 20.685C24.2956 20.2942 23.7338 20.0525 23.1351 19.9996C23.117 19.997 23.0997 19.991 23.0842 19.9819C23.0688 19.9727 23.0555 19.9607 23.0452 19.9465C22.6785 19.3766 22.1376 18.9225 21.4924 18.6427C20.8471 18.363 20.127 18.2704 19.425 18.377C18.723 18.4836 18.0712 18.7844 17.5537 19.2407C17.0362 19.697 16.6766 20.2878 16.5214 20.937C16.5161 20.9604 16.5025 20.9815 16.4827 20.9967C16.463 21.012 16.4383 21.0206 16.4127 21.021C15.8805 21.0598 15.3831 21.2839 15.019 21.649C14.6549 22.0142 14.4504 22.4938 14.4461 22.9932C14.4347 23.2495 14.4796 23.5054 14.578 23.745C14.6764 23.9845 14.8262 24.2027 15.0181 24.386C15.4752 24.7779 16.0716 24.9969 16.6916 25.0007H23.154C23.8151 24.935 24.4266 24.6422 24.8702 24.1791C25.3139 23.7159 25.558 23.1153 25.5555 22.4935Z" fill="white"/>
</svg>