<svg width="40" height="40" viewBox="0 0 40 40" fill="none" xmlns="http://www.w3.org/2000/svg">
<rect width="40" height="40" rx="8" fill="#E8F3FF"/>
<path d="M26.7668 17.1211H26.0901V14.543C26.0901 12.8646 25.4485 11.2551 24.3063 10.0683C23.1642 8.88155 21.6151 8.21484 19.9999 8.21484C18.3847 8.21484 16.8356 8.88155 15.6935 10.0683C14.5513 11.2551 13.9097 12.8646 13.9097 14.543V17.1211H13.233C12.7544 17.1211 12.2954 17.3186 11.957 17.6703C11.6186 18.0219 11.4285 18.4988 11.4285 18.9961V28.8398C11.4285 29.3371 11.6186 29.814 11.957 30.1657C12.2954 30.5173 12.7544 30.7148 13.233 30.7148H26.7668C27.2454 30.7148 27.7044 30.5173 28.0428 30.1657C28.3812 29.814 28.5713 29.3371 28.5713 28.8398V18.9961C28.5713 18.4988 28.3812 18.0219 28.0428 17.6703C27.7044 17.3186 27.2454 17.1211 26.7668 17.1211ZM19.9999 25.5586C19.643 25.5586 19.2941 25.4486 18.9974 25.2426C18.7006 25.0366 18.4693 24.7437 18.3327 24.4011C18.1962 24.0585 18.1604 23.6815 18.2301 23.3178C18.2997 22.9541 18.4715 22.62 18.7239 22.3578C18.9763 22.0955 19.2978 21.917 19.6479 21.8446C19.9979 21.7723 20.3607 21.8094 20.6905 21.9513C21.0202 22.0932 21.302 22.3336 21.5003 22.6419C21.6986 22.9502 21.8044 23.3128 21.8044 23.6836C21.8044 24.1809 21.6143 24.6578 21.2759 25.0094C20.9375 25.361 20.4785 25.5586 19.9999 25.5586ZM23.8345 16.6523C23.8345 16.7767 23.787 16.8959 23.7023 16.9838C23.6177 17.0717 23.503 17.1211 23.3834 17.1211H16.6164C16.4968 17.1211 16.382 17.0717 16.2974 16.9838C16.2128 16.8959 16.1653 16.7767 16.1653 16.6523V14.543C16.1653 13.4862 16.5693 12.4728 17.2884 11.7256C18.0076 10.9784 18.9829 10.5586 19.9999 10.5586C21.0169 10.5586 21.9922 10.9784 22.7114 11.7256C23.4305 12.4728 23.8345 13.4862 23.8345 14.543V16.6523Z" fill="#007AFF"/>
</svg>