<svg width="24" height="24" viewBox="0 0 24 24" fill="none" xmlns="http://www.w3.org/2000/svg">
<circle cx="12" cy="12" r="12" fill="#FBEBEB"/>
<path d="M18.5393 16.4794L12.9856 5.92755C12.8915 5.74832 12.7502 5.59823 12.5769 5.4935C12.4037 5.38877 12.2051 5.33338 12.0026 5.33331C11.8002 5.33338 11.6016 5.38877 11.4284 5.4935C11.2551 5.59823 11.1138 5.74832 11.0197 5.92755L5.46604 16.4794C5.37357 16.6512 5.32796 16.8443 5.33381 17.0393C5.33966 17.2342 5.39676 17.4242 5.49936 17.5902C5.60057 17.75 5.74092 17.8813 5.90712 17.9717C6.07332 18.0621 6.25985 18.1086 6.44903 18.1066H17.5563C17.7474 18.1066 17.9354 18.0572 18.1019 17.9632C18.2684 17.8692 18.4078 17.7339 18.5066 17.5702C18.6055 17.4066 18.6604 17.2202 18.6662 17.0291C18.6719 16.838 18.6282 16.6487 18.5393 16.4794ZM11.4473 9.77621C11.4473 9.62892 11.5058 9.48766 11.6099 9.38351C11.7141 9.27936 11.8554 9.22085 12.0026 9.22085C12.1499 9.22085 12.2912 9.27936 12.3953 9.38351C12.4995 9.48766 12.558 9.62892 12.558 9.77621V13.1084C12.558 13.2557 12.4995 13.3969 12.3953 13.5011C12.2912 13.6052 12.1499 13.6637 12.0026 13.6637C11.8554 13.6637 11.7141 13.6052 11.6099 13.5011C11.5058 13.3969 11.4473 13.2557 11.4473 13.1084V9.77621ZM12.0304 16.1629C11.8117 16.1616 11.6019 16.076 11.4446 15.924C11.2874 15.7719 11.1948 15.5651 11.1863 15.3465C11.1826 15.2367 11.2009 15.1273 11.2402 15.0247C11.2795 14.9221 11.3389 14.8285 11.415 14.7492C11.4911 14.67 11.5823 14.6069 11.6833 14.5635C11.7842 14.5202 11.8928 14.4975 12.0026 14.4968C12.2214 14.498 12.4312 14.5836 12.5884 14.7357C12.7457 14.8877 12.8382 15.0946 12.8468 15.3132C12.8505 15.423 12.8322 15.5324 12.7929 15.635C12.7536 15.7375 12.6941 15.8312 12.618 15.9104C12.5419 15.9896 12.4507 16.0528 12.3498 16.0961C12.2489 16.1395 12.1403 16.1622 12.0304 16.1629Z" fill="#D32D27"/>
</svg>
