<svg width="25" height="25" viewBox="0 0 25 25" fill="none" xmlns="http://www.w3.org/2000/svg">
<path d="M11.2502 2.5L20.2502 2.5C21.3548 2.5 22.2502 3.39543 22.2502 4.5L22.2502 13.5C22.2502 14.6046 21.3548 15.5 20.2502 15.5L11.2502 15.5C10.1457 15.5 9.25025 14.6046 9.25025 13.5L9.25024 4.5C9.25024 3.39543 10.1457 2.5 11.2502 2.5Z" fill="#007AFF"/>
<path d="M2.25024 11.5C2.25024 10.3954 3.14567 9.5 4.25024 9.5L7.25024 9.5L7.25024 14.5C7.25024 16.1569 8.59339 17.5 10.2502 17.5L15.2502 17.5L15.2502 20.5C15.2502 21.6046 14.3548 22.5 13.2502 22.5L4.25025 22.5C3.14568 22.5 2.25025 21.6046 2.25025 20.5L2.25024 11.5Z" fill="#007AFF"/>
</svg>
