<svg width="56" height="56" viewBox="0 0 56 56" fill="none" xmlns="http://www.w3.org/2000/svg">
<path d="M5.14991 0.547619H50.8501C53.3919 0.547619 55.4524 2.60813 55.4524 5.14991V50.8501C55.4524 53.3919 53.3919 55.4524 50.8501 55.4524H5.14991C2.60813 55.4524 0.547619 53.3919 0.547619 50.8501V5.14991C0.547619 2.60813 2.60813 0.547619 5.14991 0.547619Z" fill="#FAF4DE" stroke="#FBEFC3" stroke-width="1.09524"/>
<g clip-path="url(#clip0_4244_282370)">
<path d="M11.9 36.4004C11.9 37.143 12.195 37.8552 12.7201 38.3803C13.2452 38.9054 13.9574 39.2004 14.7 39.2004H41.3C42.0426 39.2004 42.7548 38.9054 43.2799 38.3803C43.805 37.8552 44.1 37.143 44.1 36.4004V24.5004C44.1 24.4076 44.0632 24.3185 43.9975 24.2529C43.9319 24.1873 43.8429 24.1504 43.75 24.1504H12.25C12.1572 24.1504 12.0682 24.1873 12.0025 24.2529C11.9369 24.3185 11.9 24.4076 11.9 24.5004V36.4004ZM35 33.2504H39.2C39.4785 33.2504 39.7456 33.361 39.9425 33.5579C40.1394 33.7548 40.25 34.0219 40.25 34.3004C40.25 34.5789 40.1394 34.8459 39.9425 35.0429C39.7456 35.2398 39.4785 35.3504 39.2 35.3504H35C34.7215 35.3504 34.4545 35.2398 34.2576 35.0429C34.0607 34.8459 33.95 34.5789 33.95 34.3004C33.95 34.0219 34.0607 33.7548 34.2576 33.5579C34.4545 33.361 34.7215 33.2504 35 33.2504ZM17.5 27.6504H28.7C28.9785 27.6504 29.2456 27.761 29.4425 27.9579C29.6394 28.1548 29.75 28.4219 29.75 28.7004C29.75 28.9789 29.6394 29.2459 29.4425 29.4429C29.2456 29.6398 28.9785 29.7504 28.7 29.7504H17.5C17.2215 29.7504 16.9545 29.6398 16.7576 29.4429C16.5606 29.2459 16.45 28.9789 16.45 28.7004C16.45 28.4219 16.5606 28.1548 16.7576 27.9579C16.9545 27.761 17.2215 27.6504 17.5 27.6504ZM17.5 33.2504H21.7C21.9785 33.2504 22.2456 33.361 22.4425 33.5579C22.6394 33.7548 22.75 34.0219 22.75 34.3004C22.75 34.5789 22.6394 34.8459 22.4425 35.0429C22.2456 35.2398 21.9785 35.3504 21.7 35.3504H17.5C17.2215 35.3504 16.9545 35.2398 16.7576 35.0429C16.5606 34.8459 16.45 34.5789 16.45 34.3004C16.45 34.0219 16.5606 33.7548 16.7576 33.5579C16.9545 33.361 17.2215 33.2504 17.5 33.2504Z" fill="#C79F0C"/>
<path d="M44.1 19.6003C44.1 18.8577 43.805 18.1455 43.2799 17.6204C42.7548 17.0953 42.0426 16.8003 41.3 16.8003H14.7C13.9574 16.8003 13.2452 17.0953 12.7201 17.6204C12.195 18.1455 11.9 18.8577 11.9 19.6003V21.7003C11.9 21.7931 11.9369 21.8821 12.0025 21.9478C12.0682 22.0134 12.1572 22.0503 12.25 22.0503H43.75C43.8429 22.0503 43.9319 22.0134 43.9975 21.9478C44.0632 21.8821 44.1 21.7931 44.1 21.7003V19.6003Z" fill="#C79F0C"/>
</g>
<defs>
<clipPath id="clip0_4244_282370">
<rect width="33.6" height="33.6" fill="white" transform="translate(11.2 11.2002)"/>
</clipPath>
</defs>
</svg>
