<svg width="56" height="56" viewBox="0 0 56 56" fill="none" xmlns="http://www.w3.org/2000/svg">
<g clip-path="url(#clip0_4244_282377)">
<rect width="56" height="56" rx="3" fill="#EBEEEF"/>
<g clip-path="url(#clip1_4244_282377)">
<rect width="37.3333" height="37.3333" transform="translate(9.33334 9.3335)" fill="#EBEEEF"/>
<path d="M30.3333 23.3335C30.3352 21.062 29.5051 18.8685 28 17.1673V13.2224C28 12.191 27.5903 11.2018 26.861 10.4725C26.1317 9.74322 25.1425 9.3335 24.1111 9.3335C23.0797 9.3335 22.0906 9.74322 21.3613 10.4725C20.6319 11.2018 20.2222 12.191 20.2222 13.2224V14.0328C18.0983 14.2145 16.1005 15.1178 14.5612 16.5924C13.0218 18.0671 12.0336 20.0242 11.761 22.1384C11.4883 24.2526 11.9476 26.3964 13.0625 28.2134C14.1773 30.0303 15.8805 31.4109 17.8889 32.1255V33.1226L16.5604 34.4495C16.4883 34.5219 16.4311 34.6077 16.3921 34.7022C16.3531 34.7967 16.3332 34.898 16.3333 35.0002C16.3338 35.2064 16.4154 35.4042 16.5604 35.5508L17.8889 36.8793V37.7908L16.5604 39.1193C16.4146 39.2651 16.3327 39.4629 16.3327 39.6692C16.3327 39.8754 16.4146 40.0732 16.5604 40.2191L17.8889 41.5459V43.5557C17.8887 43.6579 17.9087 43.7592 17.9476 43.8537C17.9866 43.9481 18.0438 44.034 18.116 44.1064L20.4493 46.4397C20.5216 46.5122 20.6074 46.5696 20.7019 46.6088C20.7964 46.648 20.8977 46.6682 21 46.6682C21.1023 46.6682 21.2036 46.648 21.2981 46.6088C21.3926 46.5696 21.4784 46.5122 21.5507 46.4397L23.884 44.1064C23.9562 44.034 24.0134 43.9481 24.0524 43.8537C24.0913 43.7592 24.1113 43.6579 24.1111 43.5557V32.1255C25.9272 31.4789 27.4994 30.2874 28.6131 28.7138C29.7267 27.1402 30.3275 25.2613 30.3333 23.3335V23.3335ZM21 18.6668C21.3077 18.6668 21.6084 18.7581 21.8642 18.929C22.12 19.0999 22.3194 19.3429 22.4371 19.6271C22.5549 19.9113 22.5857 20.2241 22.5257 20.5259C22.4656 20.8276 22.3175 21.1048 22.0999 21.3223C21.8824 21.5399 21.6052 21.688 21.3035 21.7481C21.0017 21.8081 20.689 21.7773 20.4047 21.6595C20.1205 21.5418 19.8775 21.3424 19.7066 21.0866C19.5357 20.8308 19.4444 20.53 19.4444 20.2224C19.4444 19.8098 19.6083 19.4142 19.9001 19.1224C20.1918 18.8307 20.5874 18.6668 21 18.6668V18.6668ZM24.1111 10.8891C24.73 10.8891 25.3234 11.1349 25.761 11.5725C26.1986 12.0101 26.4444 12.6035 26.4444 13.2224V15.7579C25.5071 15.0817 24.4521 14.5859 23.3333 14.2957V17.1113H21.7778V13.2224C21.7778 12.6035 22.0236 12.0101 22.4612 11.5725C22.8988 11.1349 23.4923 10.8891 24.1111 10.8891Z" fill="#5A6A81"/>
<path d="M44.1062 37.3742L36.0173 29.2853C37.0041 27.2531 37.2129 24.9301 36.6046 22.7545C35.9962 20.5788 34.6126 18.7011 32.7149 17.4755C32.5736 17.3829 32.4059 17.3387 32.2373 17.3498C32.0687 17.3609 31.9083 17.4266 31.7804 17.537C31.6524 17.6474 31.5639 17.7964 31.5282 17.9616C31.4925 18.1267 31.5115 18.299 31.5824 18.4524C32.7679 21.0093 32.9839 23.9099 32.19 26.6141C31.3962 29.3183 29.6468 31.642 27.2673 33.1524C27.1258 33.2431 27.0175 33.3771 26.9586 33.5345C26.8996 33.6918 26.8932 33.864 26.9403 34.0254C26.9875 34.1867 27.0855 34.3284 27.2199 34.4293C27.3543 34.5302 27.5177 34.5848 27.6858 34.5851H27.6951C29.0638 34.5721 30.413 34.2593 31.6478 33.6688L32.6589 34.5664V36.556C32.6589 36.7622 32.7408 36.9601 32.8867 37.1059C33.0326 37.2518 33.2304 37.3337 33.4367 37.3337H35.4371L35.77 37.6822V39.6671C35.77 39.8734 35.8519 40.0712 35.9978 40.217C36.1437 40.3629 36.3415 40.4448 36.5478 40.4448H38.2884L39.7149 41.7888C39.8593 41.9248 40.0501 42.0005 40.2484 42.0004H43.5556C43.7618 42.0004 43.9597 41.9185 44.1055 41.7726C44.2514 41.6267 44.3333 41.4289 44.3333 41.2226V37.9233C44.3333 37.7174 44.2516 37.5199 44.1062 37.3742Z" fill="#5A6A81"/>
</g>
</g>
<rect x="0.5" y="0.5" width="55" height="55" rx="3.5" stroke="#D7DBE0"/>
<defs>
<clipPath id="clip0_4244_282377">
<rect width="56" height="56" rx="4" fill="white"/>
</clipPath>
<clipPath id="clip1_4244_282377">
<rect width="37.3333" height="37.3333" fill="white" transform="translate(9.33334 9.3335)"/>
</clipPath>
</defs>
</svg>
