<svg width="24" height="24" viewBox="0 0 24 24" fill="none" xmlns="http://www.w3.org/2000/svg">
<path d="M9.13502 21.6536C9.17233 21.6574 9.21 21.6526 9.24524 21.6399C9.28049 21.6271 9.31239 21.6066 9.33859 21.5799C9.35388 21.5449 9.36177 21.5073 9.36177 21.4692C9.36177 21.4311 9.35388 21.3934 9.33859 21.3585C9.07483 20.4946 9.02717 19.5796 9.19979 18.6931C9.21361 18.666 9.22081 18.636 9.22081 18.6055C9.22081 18.5751 9.21361 18.5451 9.19979 18.5179C9.18212 18.491 9.15899 18.4681 9.1319 18.4506C9.10481 18.4331 9.07435 18.4215 9.04248 18.4165C7.00575 18.2416 5.05029 17.5389 3.37014 16.3782C3.33577 16.3526 3.2949 16.3369 3.25211 16.3331C3.20932 16.3292 3.16631 16.3373 3.12788 16.3565C3.08945 16.3756 3.05714 16.4051 3.03455 16.4415C3.01196 16.4779 3 16.5199 3 16.5627V18.1398C3.00925 19.7906 5.5817 21.1833 9.13502 21.6536Z" fill="#40526D"/>
<path d="M3.00904 13.9895C3.00904 15.7141 5.72029 17.1068 9.42166 17.5587C9.46902 17.5648 9.51711 17.5556 9.55878 17.5323C9.60045 17.509 9.63349 17.473 9.65299 17.4296C9.92403 16.8406 10.2967 16.3037 10.7541 15.8433C11.1299 15.4765 11.5569 15.1658 12.0219 14.921C12.0675 14.8974 12.1035 14.8588 12.1238 14.8117C12.144 14.7646 12.1472 14.7119 12.1329 14.6627C12.1192 14.6139 12.0904 14.5706 12.0505 14.5391C12.0106 14.5076 11.9617 14.4896 11.9108 14.4875H11.7998C8.55183 14.4875 5.17434 13.722 3.37917 12.2648C3.3448 12.2391 3.30394 12.2235 3.26115 12.2197C3.21836 12.2158 3.17534 12.2239 3.13692 12.2431C3.09849 12.2622 3.06617 12.2917 3.04359 12.3281C3.021 12.3645 3.00904 12.4065 3.00904 12.4493V13.9895Z" fill="#40526D"/>
<path fill-rule="evenodd" clip-rule="evenodd" d="M17.9868 17.4446L17.7078 17.7228C18.0841 18.508 18.1699 19.4004 17.95 20.2423C17.7301 21.0842 17.2186 21.8214 16.5059 22.3236C15.7932 22.8258 14.9253 23.0606 14.0555 22.9866C13.1856 22.9126 12.3699 22.5345 11.7525 21.9192C11.1351 21.3038 10.7558 20.4908 10.6815 19.6239C10.6073 18.7569 10.8429 17.8919 11.3468 17.1816C11.8506 16.4713 12.5903 15.9615 13.435 15.7423C14.2797 15.5231 15.1751 15.6086 15.9629 15.9837L19.1678 12.7895C19.196 12.7606 19.23 12.738 19.2676 12.723C19.3051 12.7081 19.3454 12.7011 19.3858 12.7026L20.6942 12.7028C20.7346 12.7016 20.7749 12.7086 20.8125 12.7234C20.8501 12.7383 20.8843 12.7606 20.9129 12.7892C20.9415 12.8177 20.964 12.8517 20.9789 12.8892C20.9938 12.9267 21.0008 12.9669 20.9995 13.0072L20.9998 14.3112C21.0013 14.3515 20.9943 14.3916 20.9793 14.4291C20.9643 14.4665 20.9416 14.5004 20.9126 14.5285L20.3501 15.0892L20.3459 15.8324C20.3472 15.8727 20.3402 15.9129 20.3253 15.9504C20.3104 15.9879 20.288 16.0219 20.2594 16.0504C20.2308 16.0789 20.1966 16.1013 20.159 16.1161C20.1214 16.1309 20.0811 16.1379 20.0407 16.1367L19.2949 16.1409L19.042 16.3929L19.0378 17.1362C19.0391 17.1765 19.0321 17.2167 19.0172 17.2541C19.0023 17.2916 18.9799 17.3257 18.9513 17.3542C18.9227 17.3827 18.8885 17.4051 18.8509 17.4199C18.8133 17.4347 18.773 17.4417 18.7326 17.4404L17.9868 17.4446ZM14.5819 19.0992C14.2206 18.739 13.6347 18.739 13.2733 19.0992C12.9119 19.4593 12.9119 20.0433 13.2733 20.4035C13.6347 20.7636 14.2206 20.7636 14.5819 20.4035C14.9433 20.0433 14.9433 19.4593 14.5819 19.0992Z" fill="#40526D"/>
<path d="M11.7998 10.3005C8.55183 10.3005 5.17434 9.53497 3.37917 8.07778C3.3448 8.05209 3.30394 8.03645 3.26115 8.0326C3.21836 8.02876 3.17534 8.03686 3.13692 8.05601C3.09849 8.07516 3.06617 8.1046 3.04359 8.14102C3.021 8.17745 3.00904 8.21942 3.00904 8.26224V9.83932C3.00904 11.8775 6.94174 13.5284 11.7998 13.5284C13.6371 13.5486 15.4664 13.2841 17.2223 12.7445C17.2578 12.7351 17.2898 12.7159 17.3148 12.6891L19.0822 11.0198C19.4094 10.714 19.8369 10.537 20.2852 10.5218C20.3301 10.5206 20.3736 10.5059 20.41 10.4795C20.4463 10.4532 20.4738 10.4165 20.4887 10.3742C20.6358 9.6802 20.6702 8.96713 20.5905 8.26224C20.5907 8.21724 20.5776 8.17318 20.553 8.13548C20.5283 8.09779 20.4931 8.06812 20.4517 8.05012C20.4155 8.02812 20.3739 8.01649 20.3314 8.01649C20.289 8.01649 20.2474 8.02812 20.2111 8.05012C18.3882 9.53497 15.0385 10.3005 11.7998 10.3005Z" fill="#40526D"/>
<path d="M11.7998 9.37817C16.6548 9.37817 20.5905 7.72651 20.5905 5.68908C20.5905 3.65166 16.6548 2 11.7998 2C6.94479 2 3.00904 3.65166 3.00904 5.68908C3.00904 7.72651 6.94479 9.37817 11.7998 9.37817Z" fill="#40526D"/>
</svg>
