<svg width="48" height="48" viewBox="0 0 48 48" fill="none" xmlns="http://www.w3.org/2000/svg">
<circle cx="24" cy="24" r="24" fill="#FAF4DE"/>
<g clip-path="url(#clip0_76_87980)">
<path d="M31.4539 19.5H16.5489C16.4793 19.4997 16.4104 19.514 16.3466 19.5419C16.2828 19.5698 16.2255 19.6107 16.1784 19.662C16.1314 19.7133 16.0955 19.7739 16.0732 19.8398C16.0509 19.9058 16.0426 19.9757 16.0489 20.045L17.3359 34.181C17.3811 34.6781 17.6105 35.1403 17.9791 35.4769C18.3477 35.8135 18.8288 36.0001 19.3279 36H28.6749C29.174 36.0001 29.6552 35.8135 30.0237 35.4769C30.3923 35.1403 30.6217 34.6781 30.6669 34.181L31.9519 20.045C31.9581 19.9759 31.9498 19.9062 31.9276 19.8404C31.9054 19.7747 31.8697 19.7142 31.8229 19.663C31.7761 19.6117 31.7191 19.5707 31.6556 19.5426C31.592 19.5146 31.5234 19.5001 31.4539 19.5ZM22.2539 32.5C22.2539 32.6989 22.1749 32.8897 22.0342 33.0303C21.8936 33.171 21.7028 33.25 21.5039 33.25C21.305 33.25 21.1142 33.171 20.9736 33.0303C20.8329 32.8897 20.7539 32.6989 20.7539 32.5V23.5C20.7539 23.3011 20.8329 23.1103 20.9736 22.9697C21.1142 22.829 21.305 22.75 21.5039 22.75C21.7028 22.75 21.8936 22.829 22.0342 22.9697C22.1749 23.1103 22.2539 23.3011 22.2539 23.5V32.5ZM27.2539 32.5C27.2539 32.6989 27.1749 32.8897 27.0342 33.0303C26.8936 33.171 26.7028 33.25 26.5039 33.25C26.305 33.25 26.1142 33.171 25.9736 33.0303C25.8329 32.8897 25.7539 32.6989 25.7539 32.5V23.5C25.7539 23.3011 25.8329 23.1103 25.9736 22.9697C26.1142 22.829 26.305 22.75 26.5039 22.75C26.7028 22.75 26.8936 22.829 27.0342 22.9697C27.1749 23.1103 27.2539 23.3011 27.2539 23.5V32.5Z" fill="#9B7C09"/>
<path d="M34 16H29.25C29.1837 16 29.1201 15.9737 29.0732 15.9268C29.0263 15.8799 29 15.8163 29 15.75V14.5C29 13.837 28.7366 13.2011 28.2678 12.7322C27.7989 12.2634 27.163 12 26.5 12H21.5C20.837 12 20.2011 12.2634 19.7322 12.7322C19.2634 13.2011 19 13.837 19 14.5V15.75C19 15.8163 18.9737 15.8799 18.9268 15.9268C18.8799 15.9737 18.8163 16 18.75 16H14C13.7348 16 13.4804 16.1054 13.2929 16.2929C13.1054 16.4804 13 16.7348 13 17C13 17.2652 13.1054 17.5196 13.2929 17.7071C13.4804 17.8946 13.7348 18 14 18H34C34.2652 18 34.5196 17.8946 34.7071 17.7071C34.8946 17.5196 35 17.2652 35 17C35 16.7348 34.8946 16.4804 34.7071 16.2929C34.5196 16.1054 34.2652 16 34 16V16ZM21 15.75V14.5C21 14.3674 21.0527 14.2402 21.1464 14.1464C21.2402 14.0527 21.3674 14 21.5 14H26.5C26.6326 14 26.7598 14.0527 26.8536 14.1464C26.9473 14.2402 27 14.3674 27 14.5V15.75C27 15.8163 26.9737 15.8799 26.9268 15.9268C26.8799 15.9737 26.8163 16 26.75 16H21.25C21.1837 16 21.1201 15.9737 21.0732 15.9268C21.0263 15.8799 21 15.8163 21 15.75Z" fill="#9B7C09"/>
</g>
<defs>
<clipPath id="clip0_76_87980">
<rect width="24" height="24" fill="white" transform="translate(12 12)"/>
</clipPath>
</defs>
</svg>
