<svg width="56" height="56" viewBox="0 0 56 56" fill="none" xmlns="http://www.w3.org/2000/svg">
<g clip-path="url(#clip0_4244_282373)">
<rect width="56" height="56" rx="3" fill="#EBEEEF"/>
<rect width="37.3333" height="37.3333" transform="translate(9.33334 9.3335)" fill="#EBEEEF"/>
<path d="M43.5556 25.4647C43.9681 25.4647 44.3638 25.3009 44.6555 25.0091C44.9472 24.7174 45.1111 24.3217 45.1111 23.9092V22.3536C45.1111 21.9411 44.9472 21.5454 44.6555 21.2537C44.3638 20.962 43.9681 20.7981 43.5556 20.7981H40.2889C40.2067 20.7991 40.1263 20.7741 40.0592 20.7266C39.9921 20.6791 39.9418 20.6115 39.9156 20.5336L38.2044 15.4003C38.0431 14.9439 37.7438 14.549 37.348 14.2703C36.9523 13.9916 36.4796 13.8429 35.9955 13.8447H20.0044C19.5204 13.8429 19.0477 13.9916 18.652 14.2703C18.2562 14.549 17.9569 14.9439 17.7956 15.4003L16.0844 20.5336C16.0581 20.6115 16.0078 20.6791 15.9408 20.7266C15.8737 20.7741 15.7933 20.7991 15.7111 20.7981H12.4444C12.0319 20.7981 11.6362 20.962 11.3445 21.2537C11.0528 21.5454 10.8889 21.9411 10.8889 22.3536V23.9092C10.8889 24.3217 11.0528 24.7174 11.3445 25.0091C11.6362 25.3009 12.0319 25.4647 12.4444 25.4647H13.5178C13.5949 25.4677 13.6697 25.4928 13.7331 25.5369C13.7965 25.581 13.8459 25.6423 13.8756 25.7136C13.9158 25.7763 13.9371 25.8492 13.9371 25.9236C13.9371 25.9981 13.9158 26.071 13.8756 26.1336L11.34 28.5759C11.0557 28.874 10.8946 29.2684 10.8889 29.6803V34.7981C10.8938 35.0964 10.9844 35.3869 11.1499 35.6352C11.3154 35.8834 11.5488 36.0788 11.8222 36.1981C11.8918 36.2284 11.9509 36.2785 11.9924 36.3421C12.0339 36.4056 12.0558 36.48 12.0556 36.5559V40.2581C12.0596 40.7725 12.2658 41.2647 12.6296 41.6285C12.9933 41.9923 13.4856 42.1985 14 42.2025H17.1111C17.6255 42.1985 18.1178 41.9923 18.4815 41.6285C18.8453 41.2647 19.0515 40.7725 19.0556 40.2581V36.7425C19.0556 36.6394 19.0965 36.5405 19.1695 36.4675C19.2424 36.3946 19.3413 36.3536 19.4444 36.3536H36.5556C36.6587 36.3536 36.7576 36.3946 36.8305 36.4675C36.9035 36.5405 36.9444 36.6394 36.9444 36.7425V40.2581C36.9485 40.7725 37.1547 41.2647 37.5184 41.6285C37.8822 41.9923 38.3744 42.1985 38.8889 42.2025H42C42.5144 42.1985 43.0067 41.9923 43.3704 41.6285C43.7342 41.2647 43.9404 40.7725 43.9444 40.2581V36.5559C43.9442 36.48 43.9661 36.4056 44.0076 36.3421C44.0491 36.2785 44.1082 36.2284 44.1778 36.1981C44.4512 36.0788 44.6846 35.8834 44.8501 35.6352C45.0155 35.3869 45.1062 35.0964 45.1111 34.7981V29.6803C45.1054 29.2684 44.9442 28.874 44.66 28.5759L42.2022 26.1336C42.1497 26.0789 42.1143 26.0099 42.1005 25.9353C42.0867 25.8606 42.095 25.7836 42.1244 25.7136C42.1541 25.6423 42.2035 25.581 42.2669 25.5369C42.3303 25.4928 42.405 25.4677 42.4822 25.4647H43.5556ZM35.1556 16.9092C35.2391 16.9116 35.3198 16.9398 35.3867 16.9899C35.4535 17.0401 35.5032 17.1097 35.5289 17.1892L37.3333 22.6336C37.3634 22.6857 37.3792 22.7447 37.3792 22.8047C37.3792 22.8648 37.3634 22.9238 37.3333 22.9759C37.299 23.0261 37.2524 23.0668 37.1979 23.094C37.1435 23.1212 37.083 23.1341 37.0222 23.1314H19.0244C18.9636 23.1341 18.9031 23.1212 18.8487 23.094C18.7943 23.0668 18.7477 23.0261 18.7133 22.9759C18.6833 22.9238 18.6675 22.8648 18.6675 22.8047C18.6675 22.7447 18.6833 22.6857 18.7133 22.6336L20.5178 17.1892C20.5435 17.1097 20.5931 17.0401 20.66 16.9899C20.7268 16.9398 20.8076 16.9116 20.8911 16.9092H35.1556ZM18.6667 32.4647H14C13.7937 32.4647 13.5959 32.3828 13.45 32.2369C13.3042 32.0911 13.2222 31.8932 13.2222 31.687V30.1314C13.2222 29.9251 13.3042 29.7273 13.45 29.5814C13.5959 29.4356 13.7937 29.3536 14 29.3536H18.6667C18.8729 29.3536 19.0708 29.4356 19.2166 29.5814C19.3625 29.7273 19.4444 29.9251 19.4444 30.1314V31.687C19.4444 31.8932 19.3625 32.0911 19.2166 32.2369C19.0708 32.3828 18.8729 32.4647 18.6667 32.4647ZM36.5556 30.1314C36.5556 29.9251 36.6375 29.7273 36.7834 29.5814C36.9292 29.4356 37.127 29.3536 37.3333 29.3536H42C42.2063 29.3536 42.4041 29.4356 42.55 29.5814C42.6958 29.7273 42.7778 29.9251 42.7778 30.1314V31.687C42.7778 31.8932 42.6958 32.0911 42.55 32.2369C42.4041 32.3828 42.2063 32.4647 42 32.4647H37.3333C37.127 32.4647 36.9292 32.3828 36.7834 32.2369C36.6375 32.0911 36.5556 31.8932 36.5556 31.687V30.1314Z" fill="#5A6A81"/>
</g>
<rect x="0.5" y="0.5" width="55" height="55" rx="3.5" stroke="#D7DBE0"/>
<defs>
<clipPath id="clip0_4244_282373">
<rect width="56" height="56" rx="4" fill="white"/>
</clipPath>
</defs>
</svg>
