<svg width="24" height="24" viewBox="0 0 24 24" fill="none" xmlns="http://www.w3.org/2000/svg">
<path d="M21.0909 10.5562C21.332 10.5562 21.5632 10.4638 21.7337 10.2992C21.9042 10.1346 22 9.91133 22 9.67856V8.80088C22 8.56811 21.9042 8.34487 21.7337 8.18028C21.5632 8.01568 21.332 7.92321 21.0909 7.92321H19.1818C19.1338 7.92379 19.0868 7.90967 19.0476 7.88286C19.0084 7.85605 18.979 7.81795 18.9636 7.77401L17.9636 4.87768C17.8693 4.62019 17.6944 4.39738 17.4631 4.24012C17.2318 4.08287 16.9556 3.99896 16.6727 4.00001H7.32727C7.04438 3.99896 6.76816 4.08287 6.53686 4.24012C6.30557 4.39738 6.13066 4.62019 6.03636 4.87768L5.03636 7.77401C5.021 7.81795 4.9916 7.85605 4.9524 7.88286C4.9132 7.90967 4.86621 7.92379 4.81818 7.92321H2.90909C2.66799 7.92321 2.43675 8.01568 2.26627 8.18028C2.09578 8.34487 2 8.56811 2 8.80088V9.67856C2 9.91133 2.09578 10.1346 2.26627 10.2992C2.43675 10.4638 2.66799 10.5562 2.90909 10.5562H3.53636C3.58147 10.5579 3.62512 10.572 3.66218 10.5969C3.69923 10.6218 3.72813 10.6564 3.74545 10.6967C3.76895 10.732 3.78144 10.7731 3.78144 10.8151C3.78144 10.8572 3.76895 10.8983 3.74545 10.9336L2.26364 12.3116C2.09751 12.4798 2.00335 12.7023 2 12.9347V15.8223C2.00289 15.9906 2.05585 16.1545 2.15256 16.2946C2.24927 16.4346 2.38565 16.5449 2.54545 16.6122C2.58611 16.6293 2.62068 16.6575 2.64491 16.6934C2.66914 16.7293 2.68197 16.7712 2.68182 16.814V18.9029C2.68419 19.1932 2.80468 19.4709 3.01728 19.6761C3.22987 19.8814 3.51753 19.9977 3.81818 20H5.63636C5.93701 19.9977 6.22467 19.8814 6.43727 19.6761C6.64986 19.4709 6.77035 19.1932 6.77273 18.9029V16.9194C6.77273 16.8612 6.79667 16.8054 6.83929 16.7642C6.88192 16.7231 6.93972 16.6999 7 16.6999H17C17.0603 16.6999 17.1181 16.7231 17.1607 16.7642C17.2033 16.8054 17.2273 16.8612 17.2273 16.9194V18.9029C17.2296 19.1932 17.3501 19.4709 17.5627 19.6761C17.7753 19.8814 18.063 19.9977 18.3636 20H20.1818C20.4825 19.9977 20.7701 19.8814 20.9827 19.6761C21.1953 19.4709 21.3158 19.1932 21.3182 18.9029V16.814C21.318 16.7712 21.3309 16.7293 21.3551 16.6934C21.3793 16.6575 21.4139 16.6293 21.4545 16.6122C21.6143 16.5449 21.7507 16.4346 21.8474 16.2946C21.9442 16.1545 21.9971 15.9906 22 15.8223V12.9347C21.9967 12.7023 21.9025 12.4798 21.7364 12.3116L20.3 10.9336C20.2693 10.9027 20.2486 10.8638 20.2406 10.8217C20.2325 10.7796 20.2373 10.7361 20.2545 10.6967C20.2719 10.6564 20.3008 10.6218 20.3378 10.5969C20.3749 10.572 20.4185 10.5579 20.4636 10.5562H21.0909ZM16.1818 5.72903C16.2306 5.73037 16.2778 5.74628 16.3169 5.77457C16.356 5.80286 16.385 5.84214 16.4 5.88701L17.4545 8.95887C17.4721 8.98822 17.4813 9.02152 17.4813 9.05541C17.4813 9.0893 17.4721 9.1226 17.4545 9.15195C17.4345 9.18031 17.4072 9.20325 17.3754 9.2186C17.3436 9.23396 17.3083 9.24123 17.2727 9.23972H6.75455C6.71901 9.24123 6.68366 9.23396 6.65185 9.2186C6.62003 9.20325 6.5928 9.18031 6.57273 9.15195C6.55517 9.1226 6.54593 9.0893 6.54593 9.05541C6.54593 9.02152 6.55517 8.98822 6.57273 8.95887L7.62727 5.88701C7.64228 5.84214 7.67131 5.80286 7.71038 5.77457C7.74945 5.74628 7.79664 5.73037 7.84545 5.72903H16.1818ZM6.54545 14.5058H3.81818C3.69763 14.5058 3.58201 14.4595 3.49677 14.3772C3.41153 14.2949 3.36364 14.1833 3.36364 14.0669V13.1893C3.36364 13.0729 3.41153 12.9612 3.49677 12.8789C3.58201 12.7967 3.69763 12.7504 3.81818 12.7504H6.54545C6.66601 12.7504 6.78162 12.7967 6.86687 12.8789C6.95211 12.9612 7 13.0729 7 13.1893V14.0669C7 14.1833 6.95211 14.2949 6.86687 14.3772C6.78162 14.4595 6.66601 14.5058 6.54545 14.5058ZM17 13.1893C17 13.0729 17.0479 12.9612 17.1331 12.8789C17.2184 12.7967 17.334 12.7504 17.4545 12.7504H20.1818C20.3024 12.7504 20.418 12.7967 20.5032 12.8789C20.5885 12.9612 20.6364 13.0729 20.6364 13.1893V14.0669C20.6364 14.1833 20.5885 14.2949 20.5032 14.3772C20.418 14.4595 20.3024 14.5058 20.1818 14.5058H17.4545C17.334 14.5058 17.2184 14.4595 17.1331 14.3772C17.0479 14.2949 17 14.1833 17 14.0669V13.1893Z" fill="#40526D"/>
</svg>
