<svg width="24" height="24" viewBox="0 0 24 24" fill="none" xmlns="http://www.w3.org/2000/svg">
<g clip-path="url(#clip0_3107_135158)">
<path d="M23.89 6.83C23.8604 6.81022 23.8256 6.79967 23.79 6.79967C23.7544 6.79967 23.7196 6.81022 23.69 6.83L13.94 16.58C13.6857 16.8352 13.3833 17.0373 13.0503 17.1746C12.7172 17.312 12.3602 17.3818 12 17.38C11.2704 17.3786 10.5704 17.0914 10.05 16.58L0.31 6.87C0.2804 6.85022 0.2456 6.83967 0.21 6.83967C0.1744 6.83967 0.1396 6.85022 0.11 6.87C0.0823591 6.88091 0.0578479 6.89848 0.038654 6.92117C0.0194601 6.94385 0.00618038 6.97094 0 7V18C0 18.5304 0.210714 19.0391 0.585786 19.4142C0.960859 19.7893 1.46957 20 2 20H22C22.5304 20 23.0391 19.7893 23.4142 19.4142C23.7893 19.0391 24 18.5304 24 18V7C24.0008 6.9639 23.9908 6.92838 23.9712 6.89807C23.9516 6.86775 23.9233 6.84403 23.89 6.83Z" fill="#40526D"/>
<path d="M11.11 14.56C11.347 14.7903 11.6645 14.9191 11.995 14.9191C12.3255 14.9191 12.643 14.7903 12.88 14.56L22.57 4.87C22.6352 4.80441 22.681 4.72201 22.7021 4.63198C22.7233 4.54194 22.7191 4.44779 22.69 4.36C22.58 4 22.27 4 22 4H2C1.72 4 1.42 4 1.31 4.36C1.28087 4.44779 1.27667 4.54194 1.29785 4.63198C1.31904 4.72201 1.36478 4.80441 1.43 4.87L11.11 14.56Z" fill="#40526D"/>
</g>
<defs>
<clipPath id="clip0_3107_135158">
<rect width="24" height="24" fill="white"/>
</clipPath>
</defs>
</svg>
