<svg width="56" height="56" viewBox="0 0 56 56" fill="none" xmlns="http://www.w3.org/2000/svg">
<g clip-path="url(#clip0_4244_282383)">
<rect width="56" height="56" rx="3" fill="#EBEEEF"/>
<g clip-path="url(#clip1_4244_282383)">
<rect width="37.3333" height="37.3333" transform="translate(9.33333 9.3335)" fill="#EBEEEF"/>
<path d="M46.4956 18.4023C46.4495 18.3716 46.3954 18.3551 46.34 18.3551C46.2846 18.3551 46.2305 18.3716 46.1844 18.4023L31.0178 33.569C30.6222 33.9659 30.1518 34.2803 29.6337 34.494C29.1157 34.7076 28.5604 34.8162 28 34.8134C26.8651 34.8112 25.7762 34.3645 24.9667 33.569L9.81555 18.4646C9.76951 18.4338 9.71537 18.4174 9.65999 18.4174C9.60462 18.4174 9.55048 18.4338 9.50444 18.4646C9.46144 18.4815 9.42331 18.5089 9.39346 18.5441C9.3636 18.5794 9.34294 18.6216 9.33333 18.6668V37.3334C9.33333 38.1586 9.66111 38.9499 10.2446 39.5333C10.828 40.1168 11.6193 40.4446 12.4444 40.4446H43.5556C44.3807 40.4446 45.172 40.1168 45.7554 39.5333C46.3389 38.9499 46.6667 38.1586 46.6667 37.3334V18.6668C46.668 18.6106 46.6523 18.5554 46.6218 18.5082C46.5913 18.4611 46.5473 18.4242 46.4956 18.4023Z" fill="#5A6A81"/>
<path d="M26.6156 31.9823C26.9843 32.3406 27.4781 32.541 27.9922 32.541C28.5063 32.541 29.0002 32.3406 29.3689 31.9823L44.4422 16.909C44.5437 16.807 44.6148 16.6788 44.6478 16.5387C44.6807 16.3987 44.6742 16.2522 44.6289 16.1157C44.4578 15.5557 43.9756 15.5557 43.5556 15.5557H12.4444C12.0089 15.5557 11.5422 15.5557 11.3711 16.1157C11.3258 16.2522 11.3193 16.3987 11.3522 16.5387C11.3852 16.6788 11.4563 16.807 11.5578 16.909L26.6156 31.9823Z" fill="#5A6A81"/>
</g>
</g>
<rect x="0.5" y="0.5" width="55" height="55" rx="3.5" stroke="#D7DBE0"/>
<defs>
<clipPath id="clip0_4244_282383">
<rect width="56" height="56" rx="4" fill="white"/>
</clipPath>
<clipPath id="clip1_4244_282383">
<rect width="37.3333" height="37.3333" fill="white" transform="translate(9.33333 9.3335)"/>
</clipPath>
</defs>
</svg>
