<svg width="295" height="125" viewBox="0 0 295 125" fill="none" xmlns="http://www.w3.org/2000/svg">
  <g filter="url(#filter0_d_4528_140014)">
    <rect x="32" y="22.5" width="231" height="55" rx="3.5" fill="white" />
    <rect x="44" y="34.5" width="31" height="31" rx="3.5" fill="#E8F3FF" stroke="#D4E9FF" />
    <path d="M65.3947 47.4927H64.8053V45.2469C64.8053 43.7849 64.2463 42.3827 63.2514 41.3489C62.2564 40.3152 60.907 39.7344 59.5 39.7344C58.0929 39.7344 56.7435 40.3152 55.7486 41.3489C54.7537 42.3827 54.1947 43.7849 54.1947 45.2469V47.4927H53.6053C53.1884 47.4927 52.7885 47.6648 52.4937 47.9711C52.1989 48.2774 52.0333 48.6929 52.0333 49.126V57.701C52.0333 58.1342 52.1989 58.5497 52.4937 58.856C52.7885 59.1623 53.1884 59.3344 53.6053 59.3344H65.3947C65.8116 59.3344 66.2115 59.1623 66.5063 58.856C66.801 58.5497 66.9667 58.1342 66.9667 57.701V49.126C66.9667 48.6929 66.801 48.2774 66.5063 47.9711C66.2115 47.6648 65.8116 47.4927 65.3947 47.4927ZM59.5 54.8427C59.1891 54.8427 58.8852 54.7469 58.6267 54.5674C58.3682 54.388 58.1667 54.1329 58.0477 53.8344C57.9287 53.536 57.8976 53.2076 57.9583 52.8907C58.0189 52.5739 58.1686 52.2829 58.3885 52.0544C58.6083 51.826 58.8884 51.6704 59.1933 51.6074C59.4982 51.5444 59.8143 51.5767 60.1015 51.7004C60.3888 51.824 60.6343 52.0333 60.807 52.3019C60.9797 52.5705 61.0719 52.8863 61.0719 53.2094C61.0719 53.6426 60.9063 54.058 60.6115 54.3643C60.3167 54.6706 59.9169 54.8427 59.5 54.8427ZM62.8403 47.0844C62.8403 47.1927 62.7989 47.2965 62.7252 47.3731C62.6515 47.4497 62.5516 47.4927 62.4474 47.4927H56.5526C56.4484 47.4927 56.3484 47.4497 56.2747 47.3731C56.201 47.2965 56.1596 47.1927 56.1596 47.0844V45.2469C56.1596 44.3264 56.5116 43.4435 57.138 42.7926C57.7644 42.1417 58.6141 41.776 59.5 41.776C60.3859 41.776 61.2355 42.1417 61.862 42.7926C62.4884 43.4435 62.8403 44.3264 62.8403 45.2469V47.0844Z" fill="#004590" />
    <path d="M88.9883 50.2148C88.8535 50.2148 88.6777 50.2031 88.5371 50.1797V49.3418C88.6602 49.3652 88.8184 49.3711 88.959 49.3711C89.5391 49.3711 89.8906 49.1074 90.1191 48.3809L90.2363 48.0059L87.8984 41.6836H88.9883L90.7227 46.8809H90.8164L92.5449 41.6836H93.6172L91.1504 48.3867C90.6289 49.8047 90.1074 50.2148 88.9883 50.2148ZM97.3262 48.1113C95.5273 48.1113 94.4141 46.8691 94.4141 44.8477V44.8359C94.4141 42.8086 95.5273 41.5723 97.3262 41.5723C99.125 41.5723 100.238 42.8086 100.238 44.8359V44.8477C100.238 46.8691 99.125 48.1113 97.3262 48.1113ZM97.3262 47.209C98.5215 47.209 99.1953 46.3359 99.1953 44.8477V44.8359C99.1953 43.3418 98.5215 42.4746 97.3262 42.4746C96.1309 42.4746 95.457 43.3418 95.457 44.8359V44.8477C95.457 46.3359 96.1309 47.209 97.3262 47.209ZM103.936 48.1113C102.5 48.1113 101.762 47.2676 101.762 45.7734V41.6836H102.781V45.5273C102.781 46.6641 103.191 47.209 104.199 47.209C105.312 47.209 105.904 46.5293 105.904 45.4219V41.6836H106.924V48H105.904V47.0566H105.811C105.5 47.7305 104.861 48.1113 103.936 48.1113ZM108.828 48V41.6836H109.848V42.6211H109.941C110.182 41.959 110.773 41.5723 111.629 41.5723C111.822 41.5723 112.039 41.5957 112.139 41.6133V42.6035C111.928 42.5684 111.734 42.5449 111.512 42.5449C110.539 42.5449 109.848 43.1602 109.848 44.0859V48H108.828ZM115.449 48.1113C114.043 48.1113 113.076 47.4316 112.959 46.3887H114.002C114.172 46.916 114.676 47.2617 115.484 47.2617C116.334 47.2617 116.938 46.8574 116.938 46.2832V46.2715C116.938 45.8438 116.615 45.5449 115.836 45.3574L114.857 45.123C113.674 44.8418 113.141 44.3262 113.141 43.418V43.4121C113.141 42.3633 114.148 41.5723 115.49 41.5723C116.814 41.5723 117.734 42.2344 117.875 43.2656H116.873C116.738 42.7676 116.246 42.4219 115.484 42.4219C114.734 42.4219 114.184 42.8086 114.184 43.3652V43.377C114.184 43.8047 114.5 44.0742 115.244 44.2559L116.217 44.4902C117.406 44.7773 117.98 45.293 117.98 46.1953V46.207C117.98 47.332 116.885 48.1113 115.449 48.1113ZM120.102 40.4648C119.715 40.4648 119.398 40.1484 119.398 39.7617C119.398 39.375 119.715 39.0586 120.102 39.0586C120.488 39.0586 120.805 39.375 120.805 39.7617C120.805 40.1484 120.488 40.4648 120.102 40.4648ZM119.586 48V41.6836H120.605V48H119.586ZM124.771 48.0469C123.471 48.0469 122.926 47.5664 122.926 46.3594V42.5273H121.93V41.6836H122.926V40.0488H123.98V41.6836H125.363V42.5273H123.98V46.1016C123.98 46.8457 124.238 47.1445 124.895 47.1445C125.076 47.1445 125.176 47.1387 125.363 47.1211V47.9883C125.164 48.0234 124.971 48.0469 124.771 48.0469ZM129.371 48.1113C127.566 48.1113 126.477 46.8457 126.477 44.8652V44.8594C126.477 42.9082 127.59 41.5723 129.307 41.5723C131.023 41.5723 132.066 42.8496 132.066 44.7363V45.1348H127.52C127.549 46.4414 128.27 47.2031 129.395 47.2031C130.25 47.2031 130.777 46.7988 130.947 46.418L130.971 46.3652H131.99L131.979 46.4121C131.762 47.2676 130.859 48.1113 129.371 48.1113ZM129.301 42.4805C128.363 42.4805 127.648 43.1191 127.537 44.3203H131.029C130.924 43.0723 130.232 42.4805 129.301 42.4805ZM134.48 48.0586C134.064 48.0586 133.719 47.7129 133.719 47.2969C133.719 46.875 134.064 46.5352 134.48 46.5352C134.902 46.5352 135.242 46.875 135.242 47.2969C135.242 47.7129 134.902 48.0586 134.48 48.0586ZM139.561 48.1113C137.791 48.1113 136.66 46.8281 136.66 44.8242V44.8125C136.66 42.8496 137.785 41.5723 139.555 41.5723C141.09 41.5723 142.01 42.457 142.197 43.582L142.203 43.6172H141.189L141.184 43.5996C141.025 42.9785 140.463 42.4746 139.555 42.4746C138.418 42.4746 137.703 43.3887 137.703 44.8125V44.8242C137.703 46.2773 138.43 47.209 139.555 47.209C140.404 47.209 140.943 46.834 141.178 46.1309L141.189 46.0957L142.197 46.0898L142.186 46.1543C141.928 47.2969 141.078 48.1113 139.561 48.1113ZM146.287 48.1113C144.488 48.1113 143.375 46.8691 143.375 44.8477V44.8359C143.375 42.8086 144.488 41.5723 146.287 41.5723C148.086 41.5723 149.199 42.8086 149.199 44.8359V44.8477C149.199 46.8691 148.086 48.1113 146.287 48.1113ZM146.287 47.209C147.482 47.209 148.156 46.3359 148.156 44.8477V44.8359C148.156 43.3418 147.482 42.4746 146.287 42.4746C145.092 42.4746 144.418 43.3418 144.418 44.8359V44.8477C144.418 46.3359 145.092 47.209 146.287 47.209ZM150.781 48V41.6836H151.801V42.6445H151.895C152.176 41.9648 152.773 41.5723 153.6 41.5723C154.455 41.5723 155.053 42.0234 155.346 42.6797H155.439C155.779 42.0117 156.5 41.5723 157.373 41.5723C158.662 41.5723 159.383 42.3105 159.383 43.6348V48H158.363V43.8691C158.363 42.9375 157.936 42.4746 157.045 42.4746C156.166 42.4746 155.586 43.1367 155.586 43.9395V48H154.566V43.7109C154.566 42.9609 154.051 42.4746 153.254 42.4746C152.428 42.4746 151.801 43.1953 151.801 44.0859V48H150.781Z" fill="#40526D" fill-opacity="0.7" />
    <rect x="87.5" y="54" width="120" height="12" rx="6" fill="#EBEEEF" />
    <rect x="219.5" y="34" width="32" height="32" rx="4" fill="#007AFF" fill-opacity="0.3" />
    <g clip-path="url(#clip0_4528_140014)">
      <path d="M229.667 52.1673C230.863 52.1673 231.833 51.1973 231.833 50.0007C231.833 48.804 230.863 47.834 229.667 47.834C228.47 47.834 227.5 48.804 227.5 50.0007C227.5 51.1973 228.47 52.1673 229.667 52.1673Z" fill="#007AFF" />
      <path d="M235.5 52.1673C236.697 52.1673 237.667 51.1973 237.667 50.0007C237.667 48.804 236.697 47.834 235.5 47.834C234.303 47.834 233.333 48.804 233.333 50.0007C233.333 51.1973 234.303 52.1673 235.5 52.1673Z" fill="#007AFF" />
      <path d="M241.333 52.1673C242.53 52.1673 243.5 51.1973 243.5 50.0007C243.5 48.804 242.53 47.834 241.333 47.834C240.137 47.834 239.167 48.804 239.167 50.0007C239.167 51.1973 240.137 52.1673 241.333 52.1673Z" fill="#007AFF" />
    </g>
    <rect x="32" y="22.5" width="231" height="55" rx="3.5" stroke="#C2E0F4" />
  </g>
  <path d="M24.1736 9.17361L28.1326 13.1326" stroke="#C2E0F4" stroke-width="2" stroke-linecap="round" />
  <path d="M27.993 9.17361L24.0341 13.1326" stroke="#C2E0F4" stroke-width="2" stroke-linecap="round" />
  <path fill-rule="evenodd" clip-rule="evenodd" d="M29.0429 88.0956C30.1711 88.0956 31.0858 87.1788 31.0858 86.0478C31.0858 84.9168 30.1711 84 29.0429 84C27.9146 84 27 84.9168 27 86.0478C27 87.1788 27.9146 88.0956 29.0429 88.0956Z" stroke="#B5D9F1" stroke-width="2.20447" stroke-linecap="round" stroke-linejoin="round" />
  <rect x="267" y="15.9453" width="4.16667" height="4.16667" transform="rotate(-45 267 15.9453)" stroke="#C2E0F4" stroke-width="2" stroke-linecap="round" stroke-linejoin="round" />
  <defs>
    <filter id="filter0_d_4528_140014" x="31.5" y="22" width="240" height="89" filterUnits="userSpaceOnUse" color-interpolation-filters="sRGB">
      <feFlood flood-opacity="0" result="BackgroundImageFix" />
      <feColorMatrix in="SourceAlpha" type="matrix" values="0 0 0 0 0 0 0 0 0 0 0 0 0 0 0 0 0 0 127 0" result="hardAlpha" />
      <feOffset dx="8" dy="8" />
      <feComposite in2="hardAlpha" operator="out" />
      <feColorMatrix type="matrix" values="0 0 0 0 0.921569 0 0 0 0 0.960784 0 0 0 0 0.984314 0 0 0 1 0" />
      <feBlend mode="normal" in2="BackgroundImageFix" result="effect1_dropShadow_4528_140014" />
      <feBlend mode="normal" in="SourceGraphic" in2="effect1_dropShadow_4528_140014" result="shape" />
    </filter>
    <clipPath id="clip0_4528_140014">
      <rect width="16" height="16" fill="white" transform="translate(227.5 42)" />
    </clipPath>
    <clipPath id="clip1_4528_140014">
      <rect width="12" height="12" fill="white" transform="translate(170 79)" />
    </clipPath>
    <clipPath id="clip2_4528_140014">
      <rect width="12" height="12" fill="white" transform="translate(170 78.918)" />
    </clipPath>
  </defs>
</svg>
