<svg width="180" height="180" viewBox="0 0 180 180" fill="none" xmlns="http://www.w3.org/2000/svg">
<g clip-path="url(#clip0_3280_5143)">
<path d="M0 90C0 113.869 9.48212 136.761 26.3604 153.64C43.2387 170.518 66.1305 180 90 180C113.869 180 136.761 170.518 153.64 153.64C170.518 136.761 180 113.869 180 90C180 66.1305 170.518 43.2387 153.64 26.3604C136.761 9.48211 113.869 0 90 0C66.1305 0 43.2387 9.48211 26.3604 26.3604C9.48212 43.2387 0 66.1305 0 90Z" fill="#ECF5FB"/>
<path fill-rule="evenodd" clip-rule="evenodd" d="M69 20C70.657 20 72 18.657 72 17C72 15.343 70.657 14 69 14C67.343 14 66 15.343 66 17C66 18.657 67.343 20 69 20Z" stroke="#B5D9F1" stroke-width="2"/>
<path d="M76.4853 116.243L72.2427 112L68 116.243L72.2427 120.485L76.4853 116.243Z" stroke="#B5D9F1" stroke-width="2" stroke-linecap="round" stroke-linejoin="round"/>
<path d="M84.2043 28L90 34" stroke="#B5D9F1" stroke-width="2" stroke-linecap="round"/>
<path d="M89.7956 28L84 34" stroke="#B5D9F1" stroke-width="2" stroke-linecap="round"/>
<path d="M45.2043 132L51 138" stroke="#B5D9F1" stroke-width="2" stroke-linecap="round"/>
<path d="M50.7956 132L45 138" stroke="#B5D9F1" stroke-width="2" stroke-linecap="round"/>
<path d="M51.8848 66.4191V58.8575C51.8848 55.9922 53.023 53.2444 55.049 51.2184C57.075 49.1924 59.8229 48.0542 62.6881 48.0542C65.5533 48.0542 68.3012 49.1924 70.3272 51.2184C72.3532 53.2444 73.4914 55.9922 73.4914 58.8575V66.4191H81.0546V58.8575C81.1193 56.4048 80.6921 53.9639 79.7982 51.679C78.9043 49.3941 77.5618 47.3114 75.8499 45.5538C74.138 43.7961 72.0914 42.3991 69.8309 41.4453C67.5703 40.4914 65.1416 40 62.6881 40C60.2345 40 57.8059 40.4914 55.5453 41.4453C53.2848 42.3991 51.2382 43.7961 49.5263 45.5538C47.8144 47.3114 46.4719 49.3941 45.578 51.679C44.6841 53.9639 44.2569 56.4048 44.3216 58.8575V66.4191H51.8848Z" fill="#DAECF8"/>
<path d="M62.6879 40.4908C57.8151 40.4908 53.1419 42.4266 49.6963 45.8721C46.2507 49.3177 44.315 53.991 44.315 58.8638V63.1854C44.2503 60.7327 44.6775 58.2919 45.5714 56.007C46.4653 53.7221 47.8078 51.6393 49.5197 49.8817C51.2316 48.124 53.2782 46.7271 55.5387 45.7732C57.7993 44.8194 60.228 44.3279 62.6815 44.3279C65.1351 44.3279 67.5637 44.8194 69.8243 45.7732C72.0848 46.7271 74.1314 48.124 75.8433 49.8817C77.5552 51.6393 78.8977 53.7221 79.7916 56.007C80.6855 58.2919 81.1127 60.7327 81.048 63.1854V58.8574C81.0463 53.9879 79.1116 49.3182 75.669 45.8744C72.2263 42.4306 67.5574 40.4942 62.6879 40.4908Z" fill="#ECF5FB"/>
<path d="M81.6857 66.4191H43.6906C41.6523 66.4191 40 68.0714 40 70.1096V95.8493C40 97.8875 41.6523 99.5398 43.6906 99.5398H81.6857C83.724 99.5398 85.3763 97.8875 85.3763 95.8493V70.1096C85.3763 68.0714 83.724 66.4191 81.6857 66.4191Z" fill="#B5D9F1"/>
<path d="M81.6857 66.4191H43.6906C42.7118 66.4191 41.7731 66.8079 41.0809 67.5C40.3888 68.1921 40 69.1308 40 70.1096V76.5737C40 75.5949 40.3888 74.6562 41.0809 73.9641C41.7731 73.272 42.7118 72.8831 43.6906 72.8831H81.6857C82.6645 72.8831 83.6032 73.272 84.2953 73.9641C84.9875 74.6562 85.3763 75.5949 85.3763 76.5737V70.1096C85.3759 69.131 84.9869 68.1925 84.2949 67.5005C83.6029 66.8085 82.6644 66.4195 81.6857 66.4191Z" fill="#ECF5FB"/>
<path d="M67.0097 79.3839C67.0131 78.6245 66.8164 77.8777 66.4393 77.2185C66.0623 76.5593 65.5182 76.0111 64.8619 75.6292C64.2055 75.2472 63.4601 75.0449 62.7007 75.0427C61.9413 75.0405 61.1948 75.2384 60.5362 75.6165C59.8776 75.9946 59.3303 76.5396 58.9494 77.1966C58.5685 77.8535 58.3674 78.5993 58.3665 79.3587C58.3655 80.118 58.5646 80.8643 58.9438 81.5222C59.323 82.1802 59.8689 82.7266 60.5264 83.1064V88.0272C60.5629 88.5744 60.806 89.0872 61.2065 89.4619C61.607 89.8365 62.1349 90.0449 62.6832 90.0449C63.2316 90.0449 63.7595 89.8365 64.16 89.4619C64.5605 89.0872 64.8036 88.5744 64.8401 88.0272V83.1064C65.4963 82.7306 66.0421 82.1888 66.4229 81.5355C66.8037 80.8821 67.0061 80.1401 67.0097 79.3839Z" fill="#F1F7FB" stroke="#004590" stroke-width="2" stroke-linecap="round" stroke-linejoin="round" stroke-dasharray="100 7 1 5"/>
<path d="M81.6857 66.4191H43.6906C41.6523 66.4191 40 68.0714 40 70.1096V95.8493C40 97.8875 41.6523 99.5398 43.6906 99.5398H81.6857C83.724 99.5398 85.3763 97.8875 85.3763 95.8493V70.1096C85.3763 68.0714 83.724 66.4191 81.6857 66.4191Z" stroke="#004590" stroke-width="2" stroke-linecap="round" stroke-linejoin="round" stroke-dasharray="100 7 1 5"/>
<path d="M51.8848 66.4191V58.8575C51.8848 55.9922 53.023 53.2444 55.049 51.2184C57.075 49.1924 59.8229 48.0542 62.6881 48.0542C65.5533 48.0542 68.3012 49.1924 70.3272 51.2184C72.3532 53.2444 73.4914 55.9922 73.4914 58.8575V66.4191H81.0546V58.8575C81.1193 56.4048 80.6921 53.9639 79.7982 51.679C78.9043 49.3941 77.5618 47.3114 75.8499 45.5538C74.138 43.7961 72.0914 42.3991 69.8309 41.4453C67.5703 40.4914 65.1416 40 62.6881 40C60.2345 40 57.8059 40.4914 55.5453 41.4453C53.2848 42.3991 51.2382 43.7961 49.5263 45.5538C47.8144 47.3114 46.4719 49.3941 45.578 51.679C44.6841 53.9639 44.2569 56.4048 44.3216 58.8575V66.4191H51.8848Z" stroke="#004590" stroke-width="2" stroke-linecap="round" stroke-linejoin="round" stroke-dasharray="100 7 1 5"/>
<path d="M114.451 79.7649C114.443 77.6937 113.698 75.6929 112.35 74.1206C111.002 72.5482 109.138 71.5071 107.092 71.1834C105.046 70.8598 102.952 71.2748 101.185 72.3542C99.4167 73.4336 98.0908 75.1068 97.4441 77.0745L64.8521 77.2343C64.1898 77.2374 63.5559 77.5036 63.0899 77.9741C62.6238 78.4447 62.3638 79.0811 62.367 79.7434C62.3702 80.4056 62.6363 81.0395 63.1068 81.5056C63.5774 81.9716 64.2138 82.2317 64.8761 82.2285L68.5507 82.2109L68.5762 87.4544C68.5695 87.7875 68.6296 88.1185 68.7528 88.428C68.876 88.7376 69.0599 89.0193 69.2937 89.2567C69.5275 89.494 69.8064 89.6822 70.114 89.8101C70.4216 89.938 70.7517 90.0031 71.0848 90.0015C71.418 89.9999 71.7474 89.9317 72.0538 89.8008C72.3601 89.6699 72.6372 89.4791 72.8687 89.2395C73.1002 88.9999 73.2814 88.7164 73.4016 88.4057C73.5219 88.095 73.5787 87.7634 73.5689 87.4304L73.5417 82.187L78.21 82.1646L78.2292 84.2943C78.2224 84.6273 78.2823 84.9584 78.4054 85.268C78.5285 85.5776 78.7124 85.8594 78.946 86.0968C79.1797 86.3343 79.4586 86.5226 79.7662 86.6506C80.0737 86.7786 80.4038 86.8438 80.737 86.8423C81.0701 86.8408 81.3996 86.7727 81.706 86.6419C82.0124 86.5111 82.2896 86.3204 82.5211 86.0808C82.7527 85.8413 82.934 85.5578 83.0543 85.2472C83.1747 84.9365 83.2316 84.6049 83.2218 84.2719L83.2122 82.1422L97.3162 82.0751C97.8673 84.1207 99.1441 85.8957 100.908 87.0687C102.672 88.2418 104.803 88.7327 106.902 88.4498C109.002 88.1668 110.927 87.1294 112.317 85.5312C113.708 83.9331 114.469 81.8834 114.459 79.7649H114.451ZM105.749 83.7143C104.976 83.7178 104.219 83.4919 103.574 83.0654C102.93 82.6388 102.426 82.0306 102.127 81.3178C101.828 80.605 101.748 79.8195 101.895 79.0608C102.043 78.302 102.412 77.6041 102.956 77.0551C103.5 76.5062 104.195 76.131 104.952 75.977C105.71 75.823 106.496 75.8971 107.211 76.1899C107.927 76.4827 108.539 76.9811 108.971 77.622C109.403 78.2629 109.636 79.0175 109.639 79.7905C109.641 80.3036 109.542 80.8121 109.348 81.2871C109.154 81.762 108.868 82.194 108.507 82.5583C108.145 82.9227 107.716 83.2124 107.243 83.4107C106.769 83.6091 106.262 83.7122 105.749 83.7143Z" fill="#3598DB" stroke="#004590" stroke-width="2" stroke-linecap="round" stroke-linejoin="round" stroke-dasharray="100 7 1 5"/>
<path d="M134.508 85.7559C135.455 85.7502 136.372 85.4189 137.104 84.8177C137.836 84.2164 138.339 83.3817 138.529 82.4536C140.513 72.7791 140.49 62.8003 138.46 53.1352L138.103 51.4145C137.999 50.8771 137.79 50.3656 137.487 49.9098C137.184 49.4541 136.793 49.0631 136.337 48.7597C135.882 48.4562 135.371 48.2464 134.833 48.1424C134.296 48.0384 133.743 48.0422 133.207 48.1538C132.672 48.2653 132.163 48.4823 131.712 48.792C131.261 49.1018 130.876 49.4982 130.579 49.9582C130.283 50.4182 130.08 50.9325 129.984 51.4714C129.888 52.0102 129.901 52.5627 130.02 53.0969L130.379 54.8207C132.176 63.386 132.194 72.2289 130.434 80.8016C130.326 81.3338 130.324 81.8821 130.428 82.4152C130.532 82.9482 130.74 83.4555 131.04 83.9079C131.341 84.3604 131.727 84.7492 132.178 85.052C132.629 85.3549 133.135 85.5658 133.667 85.6728C133.944 85.7282 134.226 85.756 134.508 85.7559Z" fill="#DAECF8" stroke="#004590" stroke-width="2" stroke-linecap="round" stroke-linejoin="round" stroke-dasharray="100 7 1 5"/>
<path d="M137.272 140.535L137.173 119.765C137.171 119.503 137.119 119.243 137.017 119.002C136.916 118.76 136.767 118.54 136.581 118.356C136.395 118.171 136.174 118.025 135.931 117.926C135.688 117.827 135.428 117.776 135.166 117.778L107.171 117.91C106.641 117.913 106.134 118.126 105.762 118.502C105.389 118.879 105.181 119.387 105.183 119.917L105.282 140.686L137.272 140.535Z" fill="#3598DB"/>
<path d="M135.105 117.773L107.244 117.904C106.973 117.905 106.704 117.96 106.454 118.065C106.205 118.171 105.978 118.324 105.787 118.517C105.596 118.71 105.446 118.938 105.343 119.189C105.241 119.441 105.189 119.71 105.191 119.981L105.215 125.253C105.213 124.982 105.265 124.713 105.368 124.462C105.47 124.21 105.621 123.982 105.812 123.789C106.003 123.596 106.23 123.443 106.48 123.338C106.73 123.232 106.998 123.178 107.269 123.176L135.131 123.045C135.402 123.043 135.671 123.095 135.922 123.197C136.174 123.299 136.402 123.45 136.595 123.641C136.788 123.831 136.942 124.058 137.047 124.308C137.152 124.558 137.206 124.827 137.208 125.098L137.182 119.826C137.181 119.555 137.126 119.286 137.021 119.036C136.916 118.786 136.763 118.559 136.57 118.368C136.377 118.178 136.148 118.027 135.897 117.925C135.645 117.823 135.377 117.771 135.105 117.773Z" fill="#6CB4E4"/>
<path d="M137.272 140.535L137.173 119.765C137.171 119.503 137.119 119.243 137.017 119.002C136.916 118.76 136.767 118.54 136.581 118.356C136.395 118.171 136.174 118.025 135.931 117.926C135.688 117.827 135.428 117.776 135.166 117.778L107.171 117.91C106.641 117.913 106.134 118.126 105.762 118.502C105.389 118.879 105.181 119.387 105.183 119.917L105.282 140.686" stroke="#004590" stroke-width="2" stroke-linecap="round" stroke-linejoin="round" stroke-dasharray="100 7 1 5"/>
<path d="M107.237 117.904L107.218 113.71C107.217 113.448 107.267 113.188 107.366 112.945C107.465 112.702 107.61 112.481 107.795 112.295C107.979 112.108 108.199 111.96 108.441 111.859C108.682 111.757 108.942 111.704 109.204 111.703L133.073 111.59C133.335 111.589 133.595 111.639 133.838 111.738C134.081 111.837 134.302 111.984 134.488 112.168C134.674 112.353 134.822 112.572 134.924 112.814C135.025 113.056 135.078 113.315 135.08 113.577L135.099 117.773L107.237 117.904Z" fill="white" stroke="#004590" stroke-width="2" stroke-linecap="round" stroke-linejoin="round" stroke-dasharray="100 7 1 5"/>
<path d="M109.273 111.703L132.937 111.583V110.532C132.87 96.473 149.495 77.1415 126.218 42.6739C125.617 41.7806 124.691 41.1578 123.637 40.9385C122.584 40.7193 121.486 40.921 120.579 41.5007C119.672 42.0803 119.028 42.9917 118.785 44.0401C118.541 45.0885 118.717 46.1905 119.276 47.1106C118.352 45.6998 117.394 44.3099 116.371 42.9695L115.294 41.5747C114.624 40.7231 113.645 40.1693 112.57 40.0328C111.494 39.8964 110.408 40.1883 109.546 40.8456C108.684 41.5028 108.115 42.4726 107.962 43.5458C107.808 44.619 108.083 45.7094 108.727 46.5817L109.794 47.9813C115.573 55.5936 119.59 64.3944 121.554 73.7481L121.263 73.7832C120.198 71.0958 118.454 68.7299 116.204 66.9157C113.953 65.1014 111.271 63.9005 108.418 63.4298C105.566 62.959 102.64 63.2345 99.9255 64.2293C97.2111 65.2241 94.8002 66.9045 92.9275 69.1069C92.5764 69.5198 92.31 69.9978 92.1436 70.5137C91.9773 71.0295 91.9141 71.573 91.9578 72.1133C92.0461 73.2043 92.5641 74.2156 93.398 74.9247C94.2319 75.6338 95.3133 75.9826 96.4043 75.8944C97.4954 75.8062 98.5067 75.2881 99.2158 74.4542C100.389 73.0787 101.97 72.1126 103.729 71.696C105.488 71.2794 107.334 71.434 108.999 72.1374C110.665 72.8408 112.063 74.0564 112.99 75.6078C113.918 77.1593 114.328 78.9661 114.16 80.766C113.991 82.5659 113.254 84.2655 112.055 85.6182C110.856 86.971 109.257 87.9065 107.49 88.2892C105.723 88.6718 103.88 88.4817 102.229 87.7464C100.577 87.0112 99.203 85.7689 98.3052 84.1999C97.9358 83.5525 97.4007 83.0152 96.7549 82.6432C96.1091 82.2712 95.3759 82.0778 94.6306 82.083C93.9163 82.0887 93.2161 82.2813 92.5994 82.6417C91.9828 83.0021 91.4713 83.5178 91.1158 84.1373C90.7603 84.7568 90.5732 85.4586 90.5732 86.1728C90.5732 86.8871 90.7603 87.5888 91.1158 88.2084C93.0546 91.538 96.0384 94.1343 99.604 95.5943C107.113 98.7065 108.87 102.258 109.172 111.708L109.273 111.703Z" fill="#DAECF8"/>
<path d="M121.575 43.7348C144.851 78.2055 128.226 97.5322 128.285 111.593V111.612L132.928 111.59V110.539C132.862 96.4794 149.487 77.1479 126.218 42.6803C125.915 42.2305 125.526 41.8448 125.074 41.5452C124.622 41.2456 124.116 41.038 123.584 40.9341C123.052 40.8302 122.504 40.8322 121.973 40.94C121.441 41.0477 120.936 41.2591 120.487 41.562C120.208 41.7507 119.953 41.9722 119.726 42.2218C120.477 42.5348 121.12 43.0608 121.575 43.7348Z" fill="#DAECF8"/>
<path d="M109.273 111.703L132.937 111.583V110.532C132.87 96.473 149.495 77.1415 126.218 42.6739C125.617 41.7806 124.691 41.1578 123.637 40.9385C122.584 40.7193 121.486 40.921 120.579 41.5007C119.672 42.0803 119.028 42.9917 118.785 44.0401C118.541 45.0885 118.717 46.1905 119.276 47.1106C118.352 45.6998 117.394 44.3099 116.371 42.9695L115.294 41.5747C114.624 40.7231 113.645 40.1693 112.57 40.0328C111.494 39.8964 110.408 40.1883 109.546 40.8456C108.684 41.5028 108.115 42.4726 107.962 43.5458C107.808 44.619 108.083 45.7094 108.727 46.5817L109.794 47.9813C115.573 55.5936 119.59 64.3944 121.554 73.7481L121.263 73.7832C120.198 71.0958 118.454 68.7299 116.204 66.9157C113.953 65.1014 111.271 63.9005 108.418 63.4298C105.566 62.959 102.64 63.2345 99.9255 64.2293C97.2111 65.2241 94.8002 66.9045 92.9275 69.1069C92.5764 69.5198 92.31 69.9978 92.1436 70.5137C91.9773 71.0295 91.9141 71.573 91.9578 72.1133C92.0461 73.2043 92.5641 74.2156 93.398 74.9247C94.2319 75.6338 95.3133 75.9826 96.4043 75.8944C97.4954 75.8062 98.5067 75.2881 99.2158 74.4542C100.389 73.0787 101.97 72.1126 103.729 71.696C105.488 71.2794 107.334 71.434 108.999 72.1374C110.665 72.8408 112.063 74.0564 112.99 75.6078C113.918 77.1593 114.328 78.9661 114.16 80.766C113.991 82.5659 113.254 84.2655 112.055 85.6182C110.856 86.9709 109.257 87.9065 107.49 88.2892C105.723 88.6718 103.88 88.4817 102.229 87.7464C100.577 87.0112 99.203 85.7689 98.3052 84.1999C97.9358 83.5525 97.4007 83.0152 96.7549 82.6432C96.1091 82.2712 95.3759 82.0778 94.6306 82.083C93.9163 82.0887 93.2161 82.2813 92.5994 82.6417C91.9828 83.0021 91.4713 83.5178 91.1158 84.1373C90.7603 84.7568 90.5732 85.4586 90.5732 86.1728C90.5732 86.8871 90.7603 87.5888 91.1158 88.2084C93.0546 91.538 96.0384 94.1343 99.604 95.5943C107.113 98.7065 108.87 102.258 109.172 111.708L109.273 111.703Z" stroke="#004590" stroke-width="2" stroke-linecap="round" stroke-linejoin="round" stroke-dasharray="100 7 1 5"/>
<path d="M129.884 73.1553C128.074 63.87 124.475 55.0253 119.289 47.1137" stroke="#004590" stroke-width="2" stroke-linecap="round" stroke-linejoin="round" stroke-dasharray="100 7 1 5"/>
<path fill-rule="evenodd" clip-rule="evenodd" d="M163.228 34.9791L160.08 33.895L165.477 15.1625L170.49 16.8884L163.228 34.9791ZM156.935 39.2646C157.243 38.3725 157.711 37.7754 158.342 37.4733C158.972 37.1712 159.721 37.1696 160.59 37.4687C161.446 37.7636 162.021 38.2311 162.313 38.8711C162.606 39.5112 162.604 40.2592 162.31 41.1151C162.015 41.971 161.549 42.5692 160.913 42.9096C160.276 43.2499 159.535 43.2747 158.691 42.984C157.834 42.6891 157.251 42.2185 156.94 41.5722C156.63 40.9259 156.628 40.1567 156.935 39.2646Z" fill="#D32D27"/>
<path fill-rule="evenodd" clip-rule="evenodd" d="M16.1354 40.7862L14.3925 41.599L9.11973 31.6514L11.8944 30.3575L16.1354 40.7862ZM15.2409 45.0908C15.0106 44.597 14.9658 44.1609 15.1064 43.7825C15.247 43.4041 15.5577 43.1028 16.0386 42.8786C16.5127 42.6575 16.9389 42.6213 17.3171 42.7699C17.6954 42.9185 17.9949 43.2297 18.2159 43.7036C18.4368 44.1774 18.4833 44.6127 18.3554 45.0095C18.2274 45.4064 17.9297 45.7138 17.4623 45.9318C16.9881 46.1529 16.5569 46.1914 16.1687 46.0475C15.7804 45.9036 15.4712 45.5847 15.2409 45.0908Z" fill="#D32D27"/>
<path fill-rule="evenodd" clip-rule="evenodd" d="M123.793 25.1089L122.111 24.1766L127.059 14.0638L129.737 15.548L123.793 25.1089ZM119.785 26.9157C120.049 26.4391 120.376 26.1465 120.764 26.0379C121.153 25.9292 121.58 26.0035 122.044 26.2607C122.501 26.5143 122.781 26.8378 122.883 27.2312C122.985 27.6245 122.91 28.0498 122.656 28.5071C122.403 28.9643 122.078 29.2578 121.681 29.3876C121.285 29.5173 120.862 29.4572 120.41 29.2071C119.953 28.9535 119.668 28.6273 119.556 28.2286C119.445 27.8299 119.521 27.3923 119.785 26.9157Z" fill="#D32D27"/>
</g>
<defs>
<clipPath id="clip0_3280_5143">
<rect width="180" height="180" fill="white"/>
</clipPath>
</defs>
</svg>
