<svg width="376" height="100" viewBox="0 0 376 100" fill="none" xmlns="http://www.w3.org/2000/svg">
<mask id="mask0_217_5151" style="mask-type:alpha" maskUnits="userSpaceOnUse" x="0" y="0" width="376" height="100">
<rect width="376" height="100" fill="#C4C4C4"/>
</mask>
<g mask="url(#mask0_217_5151)">
<path d="M0 0.000173569H376V100H0V0.000173569Z" fill="url(#paint0_linear_217_5151)"/>
<g opacity="0.2" clip-path="url(#clip0_217_5151)">
<path fill-rule="evenodd" clip-rule="evenodd" d="M309.084 44.7822C308.32 43.7489 308.539 42.2922 309.572 41.5286L345.119 15.2569C346.152 14.4932 347.609 14.7118 348.372 15.745L395.385 79.3547C396.149 80.388 395.93 81.8447 394.897 82.6083L379.93 93.6701L368.177 77.7677C367.795 77.251 367.066 77.1418 366.55 77.5236L357.195 84.4372C356.679 84.819 356.57 85.5474 356.951 86.064L368.705 101.966L359.35 108.88C358.317 109.644 356.86 109.425 356.097 108.392L309.084 44.7822Z" stroke="white" stroke-width="4" stroke-linecap="round" stroke-linejoin="round"/>
<path fill-rule="evenodd" clip-rule="evenodd" d="M275.163 104.566C274.399 103.533 274.618 102.076 275.651 101.313L311.198 75.0408C312.231 74.2772 313.688 74.4957 314.451 75.529L344.871 116.688C345.635 117.721 345.416 119.178 344.383 119.942L335.029 126.855L323.276 110.953C322.894 110.436 322.166 110.327 321.649 110.709L312.295 117.623C311.778 118.004 311.669 118.733 312.05 119.249L323.804 135.152L308.837 146.213C307.803 146.977 306.347 146.759 305.583 145.725L275.163 104.566Z" stroke="white" stroke-width="4" stroke-linecap="round" stroke-linejoin="round"/>
<path d="M361.345 56.7816C360.963 56.265 361.072 55.5366 361.589 55.1548L365.331 52.3894C365.847 52.0075 366.576 52.1168 366.957 52.6334L369.723 56.3752C370.105 56.8918 369.995 57.6202 369.479 58.002L365.737 60.7674C365.22 61.1493 364.492 61.04 364.11 60.5234L361.345 56.7816Z" fill="white"/>
<path d="M350.364 63.4511C349.847 63.833 349.738 64.5613 350.12 65.0779L352.885 68.8197C353.267 69.3363 353.995 69.4456 354.512 69.0638L358.254 66.2983C358.77 65.9165 358.879 65.1881 358.498 64.6715L355.732 60.9298C355.35 60.4131 354.622 60.3039 354.105 60.6857L350.364 63.4511Z" fill="white"/>
<path d="M341.823 53.8527C341.441 53.3361 341.551 52.6077 342.067 52.2259L345.809 49.4605C346.326 49.0786 347.054 49.1879 347.436 49.7045L350.201 53.4463C350.583 53.9629 350.474 54.6912 349.957 55.0731L346.216 57.8385C345.699 58.2203 344.971 58.1111 344.589 57.5944L341.823 53.8527Z" fill="white"/>
<path d="M353.293 43.9296C352.776 44.3114 352.667 45.0397 353.049 45.5564L355.814 49.2981C356.196 49.8147 356.924 49.924 357.441 49.5422L361.183 46.7767C361.699 46.3949 361.808 45.6666 361.427 45.15L358.661 41.4082C358.279 40.8916 357.551 40.7823 357.034 41.1641L353.293 43.9296Z" fill="white"/>
<path d="M333.527 42.6275C333.145 42.1108 333.254 41.3825 333.771 41.0007L337.513 38.2352C338.029 37.8534 338.758 37.9627 339.14 38.4793L341.905 42.221C342.287 42.7377 342.178 43.466 341.661 43.8478L337.919 46.6133C337.403 46.9951 336.674 46.8858 336.292 46.3692L333.527 42.6275Z" fill="white"/>
<path d="M339.138 71.7475C338.622 72.1293 338.513 72.8576 338.894 73.3743L341.66 77.116C342.042 77.6326 342.77 77.7419 343.287 77.3601L347.028 74.5946C347.545 74.2128 347.654 73.4845 347.272 72.9678L344.507 69.2261C344.125 68.7095 343.397 68.6002 342.88 68.982L339.138 71.7475Z" fill="white"/>
<path d="M330.598 62.149C330.216 61.6324 330.325 60.9041 330.842 60.5222L334.584 57.7568C335.1 57.375 335.829 57.4842 336.211 58.0009L338.976 61.7426C339.358 62.2592 339.249 62.9876 338.732 63.3694L334.99 66.1348C334.474 66.5167 333.745 66.4074 333.363 65.8908L330.598 62.149Z" fill="white"/>
<path d="M322.546 49.297C322.029 49.6788 321.92 50.4072 322.302 50.9238L325.067 54.6655C325.449 55.1822 326.177 55.2914 326.694 54.9096L330.436 52.1442C330.952 51.7623 331.062 51.034 330.68 50.5174L327.914 46.7756C327.533 46.259 326.804 46.1497 326.288 46.5315L322.546 49.297Z" fill="white"/>
<path d="M344.752 34.3311C344.37 33.8145 344.48 33.0862 344.996 32.7043L348.738 29.9389C349.255 29.5571 349.983 29.6663 350.365 30.183L353.13 33.9247C353.512 34.4413 353.403 35.1697 352.886 35.5515L349.144 38.317C348.628 38.6988 347.899 38.5895 347.518 38.0729L344.752 34.3311Z" fill="white"/>
<path d="M299.613 102.415C299.232 101.899 299.341 101.17 299.857 100.788L303.599 98.023C304.116 97.6412 304.844 97.7505 305.226 98.2671L307.991 102.009C308.373 102.525 308.264 103.254 307.747 103.636L304.006 106.401C303.489 106.783 302.761 106.674 302.379 106.157L299.613 102.415Z" fill="white"/>
<path d="M288.632 109.085C288.116 109.467 288.006 110.195 288.388 110.712L291.154 114.453C291.535 114.97 292.264 115.079 292.78 114.697L296.522 111.932C297.039 111.55 297.148 110.822 296.766 110.305L294.001 106.563C293.619 106.047 292.891 105.938 292.374 106.319L288.632 109.085Z" fill="white"/>
<path d="M310.839 94.1189C310.457 93.6023 310.566 92.8739 311.083 92.4921L314.824 89.7267C315.341 89.3449 316.069 89.4541 316.451 89.9708L319.217 93.7125C319.599 94.2291 319.489 94.9575 318.973 95.3393L315.231 98.1047C314.714 98.4866 313.986 98.3773 313.604 97.8607L310.839 94.1189Z" fill="white"/>
</g>
<g opacity="0.2" clip-path="url(#clip1_217_5151)" filter="url(#filter0_f_217_5151)">
<path fill-rule="evenodd" clip-rule="evenodd" d="M254.438 47.4265C254.533 47.2168 254.78 47.1236 254.989 47.2184L262.204 50.4779C262.414 50.5726 262.507 50.8194 262.412 51.0291L256.579 63.9393C256.484 64.149 256.238 64.2422 256.028 64.1475L252.99 62.7751L254.448 59.5475C254.496 59.4427 254.449 59.3193 254.344 59.2719L252.446 58.4141C252.341 58.3667 252.218 58.4133 252.17 58.5182L250.712 61.7457L248.813 60.888C248.604 60.7932 248.511 60.5464 248.605 60.3367L254.438 47.4265Z" stroke="white" stroke-linecap="round" stroke-linejoin="round"/>
<path fill-rule="evenodd" clip-rule="evenodd" d="M242.127 47.3511C242.222 47.1414 242.469 47.0482 242.678 47.143L249.893 50.4025C250.103 50.4972 250.196 50.744 250.101 50.9537L246.327 59.3074C246.232 59.5171 245.985 59.6103 245.776 59.5155L243.877 58.6578L245.335 55.4302C245.383 55.3254 245.336 55.202 245.231 55.1546L243.333 54.2968C243.228 54.2495 243.104 54.2961 243.057 54.4009L241.599 57.6285L238.561 56.256C238.352 56.1613 238.258 55.9145 238.353 55.7048L242.127 47.3511Z" stroke="white" stroke-linecap="round" stroke-linejoin="round"/>
<path d="M257.132 56.6448C257.179 56.5399 257.302 56.4933 257.407 56.5407L258.167 56.8838C258.272 56.9312 258.318 57.0546 258.271 57.1594L257.928 57.9189C257.88 58.0237 257.757 58.0703 257.652 58.0229L256.893 57.6798C256.788 57.6325 256.741 57.509 256.789 57.4042L257.132 56.6448Z" fill="white"/>
<path d="M255.129 55.5114C255.024 55.464 254.901 55.5106 254.853 55.6155L254.51 56.3749C254.463 56.4797 254.509 56.6031 254.614 56.6505L255.374 56.9936C255.479 57.041 255.602 56.9944 255.649 56.8895L255.992 56.1301C256.04 56.0253 255.993 55.9019 255.888 55.8545L255.129 55.5114Z" fill="white"/>
<path d="M255.883 53.3372C255.93 53.2323 256.053 53.1857 256.158 53.2331L256.918 53.5762C257.023 53.6236 257.069 53.747 257.022 53.8518L256.679 54.6113C256.631 54.7161 256.508 54.7627 256.403 54.7153L255.644 54.3722C255.539 54.3249 255.492 54.2015 255.54 54.0966L255.883 53.3372Z" fill="white"/>
<path d="M258.437 54.2624C258.332 54.215 258.208 54.2616 258.161 54.3665L257.818 55.1259C257.77 55.2308 257.817 55.3542 257.922 55.4016L258.681 55.7447C258.786 55.792 258.91 55.7454 258.957 55.6406L259.3 54.8812C259.347 54.7763 259.301 54.6529 259.196 54.6055L258.437 54.2624Z" fill="white"/>
<path d="M256.912 51.0589C256.959 50.9541 257.083 50.9075 257.188 50.9548L257.947 51.2979C258.052 51.3453 258.098 51.4687 258.051 51.5736L257.708 52.333C257.661 52.4379 257.537 52.4844 257.432 52.4371L256.673 52.094C256.568 52.0466 256.521 51.9232 256.569 51.8183L256.912 51.0589Z" fill="white"/>
<path d="M252.851 54.4821C252.746 54.4347 252.622 54.4813 252.575 54.5861L252.232 55.3456C252.185 55.4504 252.231 55.5738 252.336 55.6212L253.095 55.9643C253.2 56.0117 253.324 55.9651 253.371 55.8602L253.714 55.1008C253.762 54.9959 253.715 54.8725 253.61 54.8252L252.851 54.4821Z" fill="white"/>
<path d="M253.604 52.3079C253.652 52.203 253.775 52.1564 253.88 52.2038L254.639 52.5469C254.744 52.5943 254.791 52.7177 254.744 52.8225L254.4 53.5819C254.353 53.6868 254.23 53.7334 254.125 53.686L253.365 53.3429C253.261 53.2955 253.214 53.1721 253.261 53.0673L253.604 52.3079Z" fill="white"/>
<path d="M254.909 49.9255C254.804 49.8781 254.681 49.9247 254.634 50.0296L254.291 50.789C254.243 50.8939 254.29 51.0173 254.395 51.0647L255.154 51.4078C255.259 51.4551 255.382 51.4085 255.43 51.3037L255.773 50.5443C255.82 50.4394 255.774 50.316 255.669 50.2686L254.909 49.9255Z" fill="white"/>
<path d="M259.19 52.0882C259.238 51.9834 259.361 51.9368 259.466 51.9842L260.225 52.3273C260.33 52.3746 260.377 52.498 260.329 52.6029L259.986 53.3623C259.939 53.4672 259.815 53.5138 259.711 53.4664L258.951 53.1233C258.846 53.0759 258.8 52.9525 258.847 52.8477L259.19 52.0882Z" fill="white"/>
<path d="M244.601 50.985C244.649 50.8802 244.772 50.8336 244.877 50.8809L245.636 51.224C245.741 51.2714 245.788 51.3948 245.74 51.4997L245.397 52.2591C245.35 52.3639 245.226 52.4105 245.122 52.3632L244.362 52.0201C244.257 51.9727 244.211 51.8493 244.258 51.7444L244.601 50.985Z" fill="white"/>
<path d="M242.599 49.8516C242.494 49.8042 242.37 49.8508 242.323 49.9557L241.98 50.7151C241.932 50.82 241.979 50.9434 242.084 50.9907L242.843 51.3338C242.948 51.3812 243.072 51.3346 243.119 51.2298L243.462 50.4703C243.509 50.3655 243.463 50.2421 243.358 50.1947L242.599 49.8516Z" fill="white"/>
<path d="M246.879 52.0143C246.927 51.9095 247.05 51.8629 247.155 51.9102L247.915 52.2533C248.019 52.3007 248.066 52.4241 248.019 52.529L247.675 53.2884C247.628 53.3933 247.505 53.4399 247.4 53.3925L246.64 53.0494C246.536 53.002 246.489 52.8786 246.536 52.7737L246.879 52.0143Z" fill="white"/>
</g>
<g opacity="0.2" clip-path="url(#clip2_217_5151)" filter="url(#filter1_f_217_5151)">
<path fill-rule="evenodd" clip-rule="evenodd" d="M289.044 11.0121C289.07 10.8998 289.181 10.8294 289.293 10.8548L293.154 11.7273C293.267 11.7526 293.337 11.8642 293.312 11.9764L291.75 18.8855C291.725 18.9978 291.613 19.0682 291.501 19.0428L289.875 18.6754L290.266 16.9482C290.279 16.892 290.243 16.8363 290.187 16.8236L289.171 16.594C289.115 16.5813 289.059 16.6165 289.047 16.6726L288.656 18.3999L287.64 18.1703C287.528 18.1449 287.458 18.0334 287.483 17.9212L289.044 11.0121Z" stroke="white" stroke-linecap="round" stroke-linejoin="round"/>
<path fill-rule="evenodd" clip-rule="evenodd" d="M283.007 12.2107C283.032 12.0985 283.143 12.028 283.256 12.0534L287.117 12.9259C287.229 12.9513 287.299 13.0628 287.274 13.175L286.264 17.6456C286.238 17.7579 286.127 17.8283 286.015 17.8029L284.998 17.5733L285.389 15.846C285.401 15.7899 285.366 15.7342 285.31 15.7215L284.294 15.4919C284.238 15.4792 284.182 15.5144 284.17 15.5705L283.779 17.2978L282.154 16.9304C282.041 16.9051 281.971 16.7935 281.996 16.6813L283.007 12.2107Z" stroke="white" stroke-linecap="round" stroke-linejoin="round"/>
<path d="M291.289 15.257C291.301 15.2009 291.357 15.1657 291.413 15.1784L291.82 15.2702C291.876 15.2829 291.911 15.3387 291.898 15.3948L291.806 15.8012C291.794 15.8573 291.738 15.8926 291.682 15.8799L291.275 15.788C291.219 15.7753 291.184 15.7196 291.197 15.6635L291.289 15.257Z" fill="white"/>
<path d="M290.194 14.9029C290.138 14.8902 290.082 14.9254 290.069 14.9815L289.977 15.3879C289.965 15.444 290 15.4998 290.056 15.5125L290.463 15.6043C290.519 15.617 290.574 15.5818 290.587 15.5257L290.679 15.1193C290.692 15.0632 290.656 15.0074 290.6 14.9947L290.194 14.9029Z" fill="white"/>
<path d="M290.345 13.7623C290.358 13.7061 290.413 13.6709 290.469 13.6836L290.876 13.7755C290.932 13.7881 290.967 13.8439 290.954 13.9L290.863 14.3064C290.85 14.3626 290.794 14.3978 290.738 14.3851L290.332 14.2932C290.276 14.2806 290.24 14.2248 290.253 14.1687L290.345 13.7623Z" fill="white"/>
<path d="M291.689 13.9591C291.633 13.9465 291.577 13.9817 291.564 14.0378L291.472 14.4442C291.46 14.5003 291.495 14.5561 291.551 14.5688L291.957 14.6606C292.013 14.6733 292.069 14.6381 292.082 14.582L292.174 14.1756C292.186 14.1194 292.151 14.0637 292.095 14.051L291.689 13.9591Z" fill="white"/>
<path d="M290.62 12.543C290.633 12.4869 290.689 12.4517 290.745 12.4644L291.151 12.5562C291.207 12.5689 291.243 12.6247 291.23 12.6808L291.138 13.0872C291.125 13.1433 291.07 13.1785 291.014 13.1658L290.607 13.074C290.551 13.0613 290.516 13.0055 290.529 12.9494L290.62 12.543Z" fill="white"/>
<path d="M288.975 14.6273C288.919 14.6147 288.863 14.6499 288.85 14.706L288.758 15.1124C288.746 15.1685 288.781 15.2243 288.837 15.237L289.243 15.3288C289.299 15.3415 289.355 15.3063 289.368 15.2502L289.46 14.8438C289.472 14.7876 289.437 14.7319 289.381 14.7192L288.975 14.6273Z" fill="white"/>
<path d="M289.126 13.4867C289.138 13.4306 289.194 13.3954 289.25 13.4081L289.657 13.4999C289.713 13.5126 289.748 13.5684 289.735 13.6245L289.643 14.0309C289.631 14.087 289.575 14.1222 289.519 14.1096L289.112 14.0177C289.056 14.005 289.021 13.9493 289.034 13.8931L289.126 13.4867Z" fill="white"/>
<path d="M289.526 12.1888C289.47 12.1762 289.414 12.2114 289.401 12.2675L289.309 12.6739C289.297 12.73 289.332 12.7858 289.388 12.7985L289.794 12.8903C289.85 12.903 289.906 12.8678 289.919 12.8117L290.011 12.4052C290.023 12.3491 289.988 12.2934 289.932 12.2807L289.526 12.1888Z" fill="white"/>
<path d="M291.84 12.8185C291.852 12.7624 291.908 12.7272 291.964 12.7399L292.371 12.8317C292.427 12.8444 292.462 12.9002 292.449 12.9563L292.357 13.3627C292.345 13.4188 292.289 13.454 292.233 13.4414L291.826 13.3495C291.77 13.3368 291.735 13.2811 291.748 13.225L291.84 12.8185Z" fill="white"/>
<path d="M284.583 13.7423C284.596 13.6862 284.651 13.651 284.708 13.6637L285.114 13.7555C285.17 13.7682 285.205 13.824 285.193 13.8801L285.101 14.2865C285.088 14.3426 285.032 14.3779 284.976 14.3652L284.57 14.2733C284.514 14.2607 284.478 14.2049 284.491 14.1488L284.583 13.7423Z" fill="white"/>
<path d="M283.488 13.3882C283.432 13.3755 283.376 13.4107 283.364 13.4668L283.272 13.8732C283.259 13.9294 283.294 13.9851 283.351 13.9978L283.757 14.0896C283.813 14.1023 283.869 14.0671 283.882 14.011L283.973 13.6046C283.986 13.5485 283.951 13.4927 283.895 13.48L283.488 13.3882Z" fill="white"/>
<path d="M285.802 14.0179C285.815 13.9618 285.871 13.9266 285.927 13.9392L286.333 14.0311C286.389 14.0438 286.425 14.0995 286.412 14.1556L286.32 14.5621C286.307 14.6182 286.252 14.6534 286.195 14.6407L285.789 14.5489C285.733 14.5362 285.698 14.4804 285.71 14.4243L285.802 14.0179Z" fill="white"/>
</g>
<g opacity="0.2" clip-path="url(#clip3_217_5151)" filter="url(#filter2_f_217_5151)">
<path fill-rule="evenodd" clip-rule="evenodd" d="M208.312 22.4476C208.254 22.3481 208.287 22.2206 208.387 22.1628L211.808 20.1725C211.908 20.1147 212.035 20.1484 212.093 20.2479L215.655 26.3708C215.713 26.4702 215.679 26.5977 215.579 26.6556L214.139 27.4936L213.248 25.9629C213.219 25.9131 213.156 25.8963 213.106 25.9252L212.206 26.4489C212.156 26.4779 212.139 26.5416 212.168 26.5913L213.058 28.1221L212.158 28.6458C212.058 28.7037 211.931 28.6699 211.873 28.5705L208.312 22.4476Z" stroke="white" stroke-linecap="round" stroke-linejoin="round"/>
<path fill-rule="evenodd" clip-rule="evenodd" d="M204.706 27.4368C204.648 27.3374 204.682 27.2098 204.782 27.152L208.203 25.1618C208.303 25.1039 208.43 25.1376 208.488 25.2371L210.792 29.199C210.85 29.2984 210.817 29.4259 210.717 29.4838L209.817 30.0075L208.926 28.4768C208.897 28.4271 208.834 28.4102 208.784 28.4392L207.883 28.9629C207.834 28.9918 207.817 29.0556 207.846 29.1053L208.736 30.636L207.296 31.474C207.196 31.5319 207.069 31.4981 207.011 31.3987L204.706 27.4368Z" stroke="white" stroke-linecap="round" stroke-linejoin="round"/>
<path d="M212.846 24.0278C212.817 23.9781 212.834 23.9144 212.884 23.8854L213.244 23.6759C213.293 23.647 213.357 23.6639 213.386 23.7136L213.596 24.0738C213.625 24.1235 213.608 24.1873 213.558 24.2162L213.198 24.4257C213.148 24.4546 213.084 24.4377 213.055 24.388L212.846 24.0278Z" fill="white"/>
<path d="M211.803 24.5139C211.753 24.5428 211.736 24.6066 211.765 24.6563L211.975 25.0165C212.004 25.0662 212.068 25.0831 212.117 25.0542L212.477 24.8447C212.527 24.8158 212.544 24.752 212.515 24.7023L212.306 24.3421C212.277 24.2924 212.213 24.2755 212.163 24.3044L211.803 24.5139Z" fill="white"/>
<path d="M211.137 23.5758C211.108 23.5261 211.125 23.4623 211.175 23.4334L211.535 23.2239C211.584 23.195 211.648 23.2119 211.677 23.2616L211.887 23.6218C211.916 23.6715 211.899 23.7352 211.849 23.7642L211.489 23.9737C211.439 24.0026 211.375 23.9857 211.346 23.936L211.137 23.5758Z" fill="white"/>
<path d="M212.255 22.8049C212.205 22.8338 212.188 22.8976 212.217 22.9473L212.427 23.3075C212.456 23.3572 212.52 23.3741 212.569 23.3452L212.929 23.1357C212.979 23.1068 212.996 23.043 212.967 22.9933L212.758 22.6331C212.729 22.5834 212.665 22.5665 212.615 22.5954L212.255 22.8049Z" fill="white"/>
<path d="M210.508 22.4953C210.479 22.4456 210.496 22.3818 210.546 22.3529L210.906 22.1434C210.956 22.1145 211.02 22.1313 211.049 22.1811L211.258 22.5412C211.287 22.591 211.27 22.6547 211.22 22.6837L210.86 22.8932C210.811 22.9221 210.747 22.9052 210.718 22.8555L210.508 22.4953Z" fill="white"/>
<path d="M210.723 25.1424C210.673 25.1713 210.656 25.2351 210.685 25.2848L210.894 25.645C210.923 25.6947 210.987 25.7116 211.037 25.6827L211.397 25.4732C211.447 25.4442 211.464 25.3805 211.435 25.3308L211.225 24.9706C211.196 24.9209 211.132 24.904 211.083 24.9329L210.723 25.1424Z" fill="white"/>
<path d="M210.056 24.2043C210.027 24.1546 210.044 24.0908 210.094 24.0619L210.454 23.8524C210.504 23.8235 210.568 23.8403 210.597 23.8901L210.806 24.2502C210.835 24.3 210.818 24.3637 210.768 24.3927L210.408 24.6022C210.359 24.6311 210.295 24.6142 210.266 24.5645L210.056 24.2043Z" fill="white"/>
<path d="M209.466 22.9814C209.416 23.0103 209.399 23.0741 209.428 23.1238L209.637 23.484C209.666 23.5337 209.73 23.5506 209.78 23.5216L210.14 23.3122C210.19 23.2832 210.207 23.2195 210.178 23.1697L209.968 22.8096C209.939 22.7598 209.875 22.743 209.826 22.7719L209.466 22.9814Z" fill="white"/>
<path d="M211.589 21.8668C211.56 21.8171 211.577 21.7533 211.627 21.7244L211.987 21.5149C212.036 21.486 212.1 21.5029 212.129 21.5526L212.339 21.9128C212.368 21.9625 212.351 22.0262 212.301 22.0552L211.941 22.2647C211.891 22.2936 211.827 22.2767 211.798 22.227L211.589 21.8668Z" fill="white"/>
<path d="M206.904 27.485C206.875 27.4352 206.892 27.3715 206.941 27.3425L207.301 27.133C207.351 27.1041 207.415 27.121 207.444 27.1707L207.653 27.5309C207.682 27.5806 207.665 27.6444 207.616 27.6733L207.256 27.8828C207.206 27.9117 207.142 27.8949 207.113 27.8451L206.904 27.485Z" fill="white"/>
<path d="M205.861 27.971C205.811 28 205.794 28.0637 205.823 28.1134L206.033 28.4736C206.062 28.5233 206.125 28.5402 206.175 28.5113L206.535 28.3018C206.585 28.2729 206.602 28.2091 206.573 28.1594L206.363 27.7992C206.334 27.7495 206.271 27.7326 206.221 27.7615L205.861 27.971Z" fill="white"/>
<path d="M207.984 26.8565C207.955 26.8067 207.972 26.743 208.022 26.7141L208.382 26.5046C208.432 26.4756 208.495 26.4925 208.524 26.5422L208.734 26.9024C208.763 26.9521 208.746 27.0159 208.696 27.0448L208.336 27.2543C208.286 27.2832 208.223 27.2664 208.194 27.2166L207.984 26.8565Z" fill="white"/>
</g>
<g opacity="0.2" clip-path="url(#clip4_217_5151)" filter="url(#filter3_f_217_5151)">
<path fill-rule="evenodd" clip-rule="evenodd" d="M26.3398 0.475819C26.282 0.376361 26.3157 0.248836 26.4152 0.190985L29.8368 -1.79923C29.9362 -1.85708 30.0638 -1.82336 30.1216 -1.7239L33.6831 4.39899C33.7409 4.49845 33.7072 4.62597 33.6077 4.68382L32.1671 5.52181L31.2767 3.99109C31.2478 3.94136 31.184 3.92449 31.1343 3.95342L30.2339 4.47716C30.1841 4.50609 30.1673 4.56985 30.1962 4.61958L31.0865 6.1503L30.1861 6.67404C30.0867 6.73189 29.9591 6.69816 29.9013 6.5987L26.3398 0.475819Z" stroke="white" stroke-linecap="round" stroke-linejoin="round"/>
<path fill-rule="evenodd" clip-rule="evenodd" d="M22.7345 5.46504C22.6767 5.36558 22.7104 5.23806 22.8099 5.18021L26.2315 3.18999C26.3309 3.13214 26.4585 3.16587 26.5163 3.26533L28.8208 7.22719C28.8786 7.32665 28.8449 7.45418 28.7454 7.51203L27.845 8.03577L26.9547 6.50505C26.9257 6.45532 26.862 6.43845 26.8122 6.46738L25.9118 6.99112C25.8621 7.02005 25.8452 7.08381 25.8741 7.13354L26.7645 8.66426L25.3238 9.50225C25.2244 9.5601 25.0968 9.52637 25.039 9.42691L22.7345 5.46504Z" stroke="white" stroke-linecap="round" stroke-linejoin="round"/>
<path d="M30.8742 2.05608C30.8453 2.00635 30.8621 1.94259 30.9118 1.91366L31.272 1.70416C31.3217 1.67524 31.3855 1.6921 31.4144 1.74183L31.6239 2.102C31.6529 2.15173 31.636 2.21549 31.5863 2.24442L31.2261 2.45391C31.1764 2.48284 31.1126 2.46598 31.0837 2.41625L30.8742 2.05608Z" fill="white"/>
<path d="M29.8313 2.54215C29.7816 2.57108 29.7647 2.63484 29.7937 2.68457L30.0032 3.04474C30.0321 3.09447 30.0959 3.11133 30.1456 3.08241L30.5058 2.87291C30.5555 2.84398 30.5723 2.78022 30.5434 2.73049L30.3339 2.37032C30.305 2.32059 30.2412 2.30373 30.1915 2.33265L29.8313 2.54215Z" fill="white"/>
<path d="M29.1652 1.60406C29.1363 1.55433 29.1531 1.49057 29.2029 1.46164L29.563 1.25214C29.6127 1.22322 29.6765 1.24008 29.7054 1.28981L29.9149 1.64998C29.9439 1.69971 29.927 1.76347 29.8773 1.7924L29.5171 2.0019C29.4674 2.03082 29.4036 2.01396 29.3747 1.96423L29.1652 1.60406Z" fill="white"/>
<path d="M30.2834 0.833151C30.2336 0.862077 30.2168 0.925839 30.2457 0.975568L30.4552 1.33574C30.4841 1.38547 30.5479 1.40233 30.5976 1.37341L30.9578 1.16391C31.0075 1.13498 31.0244 1.07122 30.9954 1.02149L30.7859 0.661323C30.757 0.611594 30.6933 0.594729 30.6435 0.623654L30.2834 0.833151Z" fill="white"/>
<path d="M28.5367 0.523549C28.5078 0.47382 28.5246 0.410058 28.5744 0.381132L28.9345 0.171635C28.9843 0.14271 29.048 0.159575 29.0769 0.209304L29.2864 0.569473C29.3154 0.619202 29.2985 0.682965 29.2488 0.71189L28.8886 0.921387C28.8389 0.950312 28.7751 0.933447 28.7462 0.883718L28.5367 0.523549Z" fill="white"/>
<path d="M28.7508 3.17064C28.7011 3.19957 28.6842 3.26333 28.7132 3.31306L28.9227 3.67323C28.9516 3.72296 29.0153 3.73982 29.0651 3.7109L29.4252 3.5014C29.475 3.47247 29.4918 3.40871 29.4629 3.35898L29.2534 2.99881C29.2245 2.94908 29.1607 2.93222 29.111 2.96114L28.7508 3.17064Z" fill="white"/>
<path d="M28.0847 2.23255C28.0557 2.18282 28.0726 2.11906 28.1223 2.09013L28.4825 1.88063C28.5322 1.85171 28.596 1.86857 28.6249 1.9183L28.8344 2.27847C28.8633 2.3282 28.8465 2.39196 28.7968 2.42089L28.4366 2.63039C28.3869 2.65931 28.3231 2.64245 28.2942 2.59272L28.0847 2.23255Z" fill="white"/>
<path d="M27.4939 1.00962C27.4441 1.03855 27.4273 1.10231 27.4562 1.15204L27.6657 1.51221C27.6946 1.56194 27.7584 1.5788 27.8081 1.54988L28.1683 1.34038C28.218 1.31145 28.2349 1.24769 28.2059 1.19796L27.9964 0.837794C27.9675 0.788065 27.9037 0.7712 27.854 0.800126L27.4939 1.00962Z" fill="white"/>
<path d="M29.6172 -0.104942C29.5883 -0.154671 29.6051 -0.218433 29.6549 -0.247358L30.015 -0.456855C30.0648 -0.48578 30.1285 -0.468916 30.1575 -0.419187L30.367 -0.0590169C30.3959 -0.00928783 30.379 0.0544743 30.3293 0.0833998L29.9691 0.292897C29.9194 0.321822 29.8556 0.304957 29.8267 0.255228L29.6172 -0.104942Z" fill="white"/>
<path d="M24.932 5.51319C24.903 5.46346 24.9199 5.39969 24.9696 5.37077L25.3298 5.16127C25.3795 5.13235 25.4433 5.14921 25.4722 5.19894L25.6817 5.55911C25.7106 5.60884 25.6938 5.6726 25.644 5.70153L25.2839 5.91102C25.2341 5.93995 25.1704 5.92308 25.1415 5.87336L24.932 5.51319Z" fill="white"/>
<path d="M23.8891 5.99926C23.8394 6.02819 23.8225 6.09195 23.8514 6.14168L24.0609 6.50185C24.0899 6.55158 24.1536 6.56844 24.2034 6.53951L24.5635 6.33002C24.6133 6.30109 24.6301 6.23733 24.6012 6.1876L24.3917 5.82743C24.3628 5.7777 24.299 5.76084 24.2493 5.78976L23.8891 5.99926Z" fill="white"/>
<path d="M26.0125 4.8847C25.9835 4.83497 26.0004 4.7712 26.0501 4.74228L26.4103 4.53278C26.46 4.50386 26.5238 4.52072 26.5527 4.57045L26.7622 4.93062C26.7911 4.98035 26.7743 5.04411 26.7245 5.07304L26.3644 5.28253C26.3146 5.31146 26.2509 5.29459 26.222 5.24487L26.0125 4.8847Z" fill="white"/>
</g>
</g>
<defs>
<filter id="filter0_f_217_5151" x="234.624" y="35.6236" width="32.7527" height="32.7528" filterUnits="userSpaceOnUse" color-interpolation-filters="sRGB">
<feFlood flood-opacity="0" result="BackgroundImageFix"/>
<feBlend mode="normal" in="SourceGraphic" in2="BackgroundImageFix" result="shape"/>
<feGaussianBlur stdDeviation="0.25" result="effect1_foregroundBlur_217_5151"/>
</filter>
<filter id="filter1_f_217_5151" x="279.144" y="4.92233" width="17.3499" height="17.3499" filterUnits="userSpaceOnUse" color-interpolation-filters="sRGB">
<feFlood flood-opacity="0" result="BackgroundImageFix"/>
<feBlend mode="normal" in="SourceGraphic" in2="BackgroundImageFix" result="shape"/>
<feGaussianBlur stdDeviation="0.75" result="effect1_foregroundBlur_217_5151"/>
</filter>
<filter id="filter2_f_217_5151" x="199.972" y="15.9718" width="18.4065" height="18.4064" filterUnits="userSpaceOnUse" color-interpolation-filters="sRGB">
<feFlood flood-opacity="0" result="BackgroundImageFix"/>
<feBlend mode="normal" in="SourceGraphic" in2="BackgroundImageFix" result="shape"/>
<feGaussianBlur stdDeviation="0.5" result="effect1_foregroundBlur_217_5151"/>
</filter>
<filter id="filter3_f_217_5151" x="18" y="-6" width="18.4065" height="18.4064" filterUnits="userSpaceOnUse" color-interpolation-filters="sRGB">
<feFlood flood-opacity="0" result="BackgroundImageFix"/>
<feBlend mode="normal" in="SourceGraphic" in2="BackgroundImageFix" result="shape"/>
<feGaussianBlur stdDeviation="0.5" result="effect1_foregroundBlur_217_5151"/>
</filter>
<linearGradient id="paint0_linear_217_5151" x1="-132.394" y1="35.2114" x2="-97.4101" y2="166.752" gradientUnits="userSpaceOnUse">
<stop offset="0.1458" stop-color="#264887"/>
<stop offset="1" stop-color="#315CAE"/>
</linearGradient>
<clipPath id="clip0_217_5151">
<rect width="134" height="134" fill="white" transform="translate(228.296 59.9412) rotate(-36.4673)"/>
</clipPath>
<clipPath id="clip1_217_5151">
<rect width="24" height="24" fill="white" transform="translate(245.005 36.1236) rotate(24.3134)"/>
</clipPath>
<clipPath id="clip2_217_5151">
<rect width="12" height="12" fill="white" transform="translate(283.289 6.42233) rotate(12.734)"/>
</clipPath>
<clipPath id="clip3_217_5151">
<rect width="12" height="12" fill="white" transform="translate(200.972 23.0053) rotate(-30.1849)"/>
</clipPath>
<clipPath id="clip4_217_5151">
<rect width="12" height="12" fill="white" transform="translate(19 1.03351) rotate(-30.1849)"/>
</clipPath>
</defs>
</svg>
