<svg width="24" height="24" viewBox="0 0 24 24" fill="none" xmlns="http://www.w3.org/2000/svg">
<g clip-path="url(#clip0_224_7369)">
<path d="M23.894 0.552C23.8109 0.386106 23.6832 0.246613 23.5253 0.149127C23.3675 0.0516407 23.1856 6.22667e-06 23 0L1 0C0.814289 0 0.632245 0.0517146 0.474269 0.149349C0.316293 0.246984 0.188626 0.386681 0.105573 0.552786C0.0225204 0.718892 -0.0126368 0.904844 0.00404116 1.08981C0.0207191 1.27477 0.0885733 1.45143 0.2 1.6L9 13.423V22C9.00393 22.5292 9.2159 23.0356 9.59012 23.4099C9.96435 23.7841 10.4708 23.9961 11 24C11.4328 24.0005 11.854 23.8601 12.2 23.6L14.2 22.1C14.448 21.9133 14.6493 21.6717 14.7881 21.3941C14.9269 21.1164 14.9995 20.8104 15 20.5V13.423L23.8 1.6C23.9115 1.45131 23.9794 1.27448 23.996 1.08936C24.0126 0.904245 23.9773 0.718163 23.894 0.552ZM5.417 2.2L9.356 7.45C9.42091 7.53655 9.456 7.64181 9.456 7.75V9C9.456 9.10494 9.42298 9.20722 9.36162 9.29235C9.30026 9.37749 9.21367 9.44116 9.11411 9.47434C9.01456 9.50753 8.90708 9.50855 8.80692 9.47726C8.70675 9.44597 8.61896 9.38395 8.556 9.3L3.62 2.8C3.56429 2.72571 3.53036 2.63738 3.52202 2.5449C3.51368 2.45242 3.53126 2.35945 3.57279 2.27639C3.61431 2.19334 3.67815 2.12349 3.75713 2.07467C3.83612 2.02586 3.92714 2 4.02 2H5.02C5.09712 2.00046 5.17308 2.01876 5.24195 2.05345C5.31082 2.08815 5.37073 2.13831 5.417 2.2Z" fill="#40526D"/>
</g>
<defs>
<clipPath id="clip0_224_7369">
<rect width="24" height="24" fill="white"/>
</clipPath>
</defs>
</svg>
