<svg width="32" height="26" viewBox="0 0 32 26" fill="none" xmlns="http://www.w3.org/2000/svg">
<path d="M29.3333 3.99697H13.5C13.3882 3.99675 13.2777 3.97406 13.1749 3.93025C13.0721 3.88645 12.9792 3.82241 12.9016 3.74197L10.6666 1.42864C10.4327 1.18675 10.1525 0.994372 9.84267 0.862952C9.53287 0.731531 9.19981 0.663749 8.86329 0.663635H3.14329C2.35439 0.664517 1.59803 0.978183 1.04003 1.53586C0.482039 2.09355 0.167949 2.84973 0.166626 3.63863V22.6886C0.167949 23.4775 0.482039 24.2337 1.04003 24.7914C1.59803 25.3491 2.35439 25.6628 3.14329 25.6636H28.8566C29.6455 25.6628 30.4019 25.3491 30.9599 24.7914C31.5179 24.2337 31.832 23.4775 31.8333 22.6886V6.49697C31.8333 5.83393 31.5699 5.19804 31.1011 4.7292C30.6322 4.26036 29.9963 3.99697 29.3333 3.99697Z" fill="#47A1DE"/>
</svg>
