<svg width="56" height="56" viewBox="0 0 56 56" fill="none" xmlns="http://www.w3.org/2000/svg">
<g clip-path="url(#clip0_4244_282384)">
<rect width="56" height="56" rx="3" fill="#EBEEEF"/>
<g clip-path="url(#clip1_4244_282384)">
<rect width="37.3333" height="37.3333" transform="translate(9.33333 9.3335)" fill="#EBEEEF"/>
<path d="M42.8867 28.2025H34.8911C34.7397 28.2039 34.5919 28.2486 34.4652 28.3313C34.3384 28.414 34.2379 28.5312 34.1756 28.6692L32.3867 32.6669C32.1997 33.0731 31.9021 33.4184 31.5279 33.6633C31.1538 33.9082 30.7182 34.0427 30.2711 34.0514V34.0514C29.8266 34.0491 29.3918 33.9207 29.0173 33.6812C28.6428 33.4416 28.344 33.1007 28.1556 32.698L24.8889 25.7758C24.86 25.7128 24.8142 25.659 24.7565 25.6205C24.6988 25.5821 24.6315 25.5604 24.5622 25.558C24.4946 25.5492 24.4259 25.5608 24.365 25.5913C24.304 25.6218 24.2535 25.6698 24.22 25.7292L23.2556 27.1603C23.0426 27.4809 22.7536 27.7439 22.4143 27.9257C22.075 28.1075 21.696 28.2026 21.3111 28.2025H13.1133C13.0357 28.2035 12.9601 28.2277 12.8963 28.2721C12.8325 28.3165 12.7835 28.3789 12.7556 28.4514C12.7259 28.5225 12.7189 28.601 12.7356 28.6762C12.7523 28.7514 12.7919 28.8196 12.8489 28.8714L26.8489 43.2758C26.9949 43.4413 27.1744 43.5739 27.3755 43.6647C27.5767 43.7555 27.7949 43.8025 28.0156 43.8025C28.2363 43.8025 28.4544 43.7555 28.6556 43.6647C28.8567 43.5739 29.0362 43.4413 29.1822 43.2758L43.1822 28.8714C43.2317 28.8144 43.2642 28.7448 43.2762 28.6703C43.2882 28.5959 43.2791 28.5195 43.25 28.45C43.2209 28.3804 43.1729 28.3204 43.1114 28.2766C43.05 28.2329 42.9775 28.2072 42.9022 28.2025H42.8867Z" fill="#5A6A81"/>
<path d="M45.6711 17.3757C44.9925 16.0533 44.0123 14.9092 42.8097 14.0358C41.6071 13.1624 40.2159 12.5842 38.7485 12.348C37.2811 12.1117 35.7787 12.2241 34.3628 12.6759C32.9469 13.1278 31.6571 13.9064 30.5978 14.949L28.5289 16.8468C28.3819 16.9738 28.1942 17.0436 28 17.0436C27.8058 17.0436 27.6181 16.9738 27.4711 16.8468L25.4022 14.949C24.3429 13.9064 23.0531 13.1278 21.6372 12.6759C20.2213 12.2241 18.7189 12.1117 17.2515 12.348C15.7841 12.5842 14.3929 13.1624 13.1903 14.0358C11.9877 14.9092 11.0075 16.0533 10.3289 17.3757C9.76404 18.4809 9.43126 19.6899 9.35101 20.9285C9.27076 22.1671 9.44473 23.409 9.86222 24.5779C9.91657 24.7282 10.0159 24.8581 10.1467 24.95C10.2775 25.0418 10.4335 25.0912 10.5933 25.0912H20.4556C20.5843 25.0927 20.7113 25.0622 20.8254 25.0025C20.9394 24.9427 21.0368 24.8557 21.1089 24.749L22.7578 22.2757C22.9875 21.9303 23.3051 21.6523 23.678 21.4705C24.0508 21.2887 24.4654 21.2096 24.879 21.2413C25.2926 21.273 25.6902 21.4143 26.031 21.6508C26.3718 21.8873 26.6434 22.2104 26.8178 22.5868L29.9289 29.1201C29.9588 29.1903 30.0086 29.2501 30.0722 29.2921C30.1358 29.3342 30.2104 29.3566 30.2867 29.3566C30.3629 29.3566 30.4375 29.3342 30.5011 29.2921C30.5647 29.2501 30.6146 29.1903 30.6444 29.1201L31.8111 26.4757C31.9945 26.0636 32.2934 25.7136 32.6717 25.4679C33.0499 25.2222 33.4912 25.0913 33.9422 25.0912H45.4689C45.6287 25.0912 45.7847 25.0418 45.9155 24.95C46.0463 24.8581 46.1457 24.7282 46.2 24.5779C46.608 23.4048 46.7715 22.1607 46.6806 20.9221C46.5896 19.6834 46.2461 18.4765 45.6711 17.3757Z" fill="#5A6A81"/>
</g>
</g>
<rect x="0.5" y="0.5" width="55" height="55" rx="3.5" stroke="#D7DBE0"/>
<defs>
<clipPath id="clip0_4244_282384">
<rect width="56" height="56" rx="4" fill="white"/>
</clipPath>
<clipPath id="clip1_4244_282384">
<rect width="37.3333" height="37.3333" fill="white" transform="translate(9.33333 9.3335)"/>
</clipPath>
</defs>
</svg>
