<svg width="24" height="24" viewBox="0 0 24 24" fill="none" xmlns="http://www.w3.org/2000/svg">
<g clip-path="url(#clip0_3107_135162)">
<path d="M16.4302 12.1298C16.3329 12.1307 16.2378 12.1595 16.1563 12.2126C16.0748 12.2658 16.0102 12.3411 15.9702 12.4298L14.8202 14.9998C14.7 15.261 14.5086 15.4829 14.2681 15.6403C14.0276 15.7978 13.7476 15.8842 13.4602 15.8898C13.1744 15.8884 12.8949 15.8058 12.6541 15.6518C12.4134 15.4978 12.2213 15.2787 12.1002 15.0198L10.0002 10.5698C9.98161 10.5293 9.95214 10.4947 9.91505 10.47C9.87796 10.4453 9.83471 10.4314 9.79016 10.4298C9.74671 10.4242 9.70255 10.4316 9.66335 10.4512C9.62416 10.4708 9.59171 10.5017 9.57016 10.5398L8.95016 11.4598C8.81324 11.6659 8.62745 11.835 8.40935 11.9519C8.19125 12.0688 7.94761 12.1299 7.70016 12.1298H2.43016C2.38023 12.1305 2.33163 12.1461 2.29064 12.1746C2.24965 12.2031 2.21813 12.2432 2.20016 12.2898C2.18109 12.3355 2.17661 12.386 2.18736 12.4343C2.1981 12.4827 2.22353 12.5265 2.26016 12.5598L11.2602 21.8198C11.354 21.9262 11.4694 22.0114 11.5987 22.0698C11.728 22.1282 11.8683 22.1584 12.0102 22.1584C12.152 22.1584 12.2923 22.1282 12.4216 22.0698C12.5509 22.0114 12.6663 21.9262 12.7602 21.8198L21.7602 12.5598C21.792 12.5232 21.8129 12.4785 21.8206 12.4306C21.8283 12.3827 21.8224 12.3336 21.8037 12.2889C21.785 12.2442 21.7541 12.2056 21.7146 12.1775C21.6751 12.1494 21.6286 12.1329 21.5802 12.1298H16.4302Z" fill="#40526D"/>
<path d="M23.3599 5.16986C22.9237 4.31979 22.2935 3.58428 21.5204 3.02281C20.7473 2.46133 19.853 2.08964 18.9097 1.93777C17.9663 1.7859 17.0005 1.85813 16.0903 2.1486C15.18 2.43907 14.3509 2.93965 13.6699 3.60986L12.3399 4.82986C12.2454 4.91149 12.1248 4.95641 11.9999 4.95641C11.875 4.95641 11.7544 4.91149 11.6599 4.82986L10.3299 3.60986C9.64891 2.93965 8.81978 2.43907 7.90953 2.1486C6.99929 1.85813 6.03346 1.7859 5.09014 1.93777C4.14681 2.08964 3.25245 2.46133 2.47936 3.02281C1.70627 3.58428 1.07614 4.31979 0.639901 5.16986C0.276788 5.88035 0.0628573 6.65761 0.0112656 7.45385C-0.0403262 8.25008 0.0715116 9.04845 0.339901 9.79986C0.374838 9.89649 0.438701 9.98002 0.522799 10.0391C0.606896 10.0981 0.707144 10.1298 0.809901 10.1299H7.1499C7.23265 10.1308 7.31433 10.1112 7.38764 10.0728C7.46094 10.0344 7.52357 9.97842 7.5699 9.90986L8.6299 8.31986C8.77757 8.09782 8.98176 7.91915 9.22144 7.80227C9.46113 7.68539 9.72764 7.63451 9.99352 7.65489C10.2594 7.67526 10.515 7.76615 10.7341 7.91818C10.9532 8.07022 11.1278 8.27791 11.2399 8.51986L13.2399 12.7199C13.2591 12.765 13.2912 12.8034 13.3321 12.8304C13.3729 12.8575 13.4209 12.8719 13.4699 12.8719C13.5189 12.8719 13.5669 12.8575 13.6078 12.8304C13.6486 12.8034 13.6807 12.765 13.6999 12.7199L14.4499 11.0199C14.5678 10.755 14.76 10.5299 15.0031 10.372C15.2462 10.214 15.53 10.1299 15.8199 10.1299H23.2299C23.3327 10.1298 23.4329 10.0981 23.517 10.0391C23.6011 9.98002 23.665 9.89649 23.6999 9.79986C23.9622 9.04576 24.0673 8.24595 24.0088 7.44969C23.9504 6.65342 23.7295 5.87756 23.3599 5.16986Z" fill="#40526D"/>
</g>
<defs>
<clipPath id="clip0_3107_135162">
<rect width="24" height="24" fill="white"/>
</clipPath>
</defs>
</svg>
