<svg width="16" height="17" viewBox="0 0 16 17" fill="none" xmlns="http://www.w3.org/2000/svg">
<g clip-path="url(#clip0_2729_131698)">
<path d="M1.76199 7.22363L7.79465 2.23497C7.8524 2.18716 7.92502 2.161 7.99999 2.161C8.07495 2.161 8.14757 2.18716 8.20532 2.23497L14.238 7.22363C14.3374 7.30618 14.4523 7.36793 14.5759 7.40525C14.6996 7.44257 14.8295 7.45469 14.9579 7.44089C15.0864 7.42708 15.2107 7.38765 15.3237 7.32491C15.4366 7.26217 15.5358 7.1774 15.6153 7.07563C15.7789 6.86824 15.8553 6.60525 15.8281 6.34249C15.801 6.07973 15.6725 5.83788 15.47 5.6683L9.43732 0.679635C9.03264 0.345961 8.52449 0.163477 7.99999 0.163477C7.47549 0.163477 6.96733 0.345961 6.56265 0.679635L0.533319 5.6683C0.330781 5.83788 0.202309 6.07973 0.175174 6.34249C0.148039 6.60525 0.224378 6.86824 0.387985 7.07563C0.467634 7.17676 0.566678 7.26096 0.679305 7.32329C0.791932 7.38562 0.915874 7.42483 1.04386 7.43861C1.17184 7.4524 1.30129 7.44048 1.42461 7.40357C1.54793 7.36665 1.66263 7.30548 1.76199 7.22363Z" fill="#007AFF"/>
<path d="M14.8541 14.8303V10.1636C14.8485 9.96309 14.8024 9.76575 14.7184 9.58355C14.6344 9.40135 14.5143 9.23809 14.3654 9.10364L8.83206 4.43697C8.59965 4.2404 8.30511 4.13255 8.00072 4.13255C7.69634 4.13255 7.4018 4.2404 7.16939 4.43697L1.63606 9.10764C1.48736 9.24149 1.36729 9.40405 1.28308 9.58553C1.19887 9.76702 1.15226 9.96366 1.14606 10.1636V14.8303C1.14268 15.1801 1.27823 15.517 1.52295 15.7669C1.76768 16.0169 2.10159 16.1596 2.45139 16.1636H6.04206C6.21699 16.1617 6.38399 16.0904 6.50638 15.9654C6.62876 15.8404 6.6965 15.6719 6.69472 15.497V11.8303C6.69312 11.6554 6.76093 11.487 6.88327 11.3621C7.00562 11.2371 7.17252 11.1657 7.34739 11.1636H8.65272C8.8276 11.1657 8.9945 11.2371 9.11685 11.3621C9.23919 11.487 9.30699 11.6554 9.30539 11.8303V15.497C9.30361 15.6719 9.37136 15.8404 9.49374 15.9654C9.61612 16.0904 9.78313 16.1617 9.95806 16.1636H13.5487C13.8985 16.1596 14.2324 16.0169 14.4772 15.7669C14.7219 15.517 14.8574 15.1801 14.8541 14.8303Z" fill="#007AFF"/>
</g>
<defs>
<clipPath id="clip0_2729_131698">
<rect width="16" height="16" fill="white" transform="translate(0 0.163635)"/>
</clipPath>
</defs>
</svg>
