<svg width="12" height="12" viewBox="0 0 12 12" fill="none" xmlns="http://www.w3.org/2000/svg">
<path d="M8.60768 5.11536C8.58421 5.11536 8.56137 5.12305 8.54259 5.13727C8.52382 5.1515 8.51011 5.17148 8.50354 5.19424L7.04123 10.4921C7.03432 10.5172 7.03614 10.544 7.04641 10.5679C7.05668 10.5918 7.07476 10.6115 7.09764 10.6235C7.12137 10.634 7.14786 10.6363 7.17298 10.6299C7.1981 10.6236 7.22044 10.609 7.23649 10.5885L10.9812 5.28626C10.9932 5.26973 10.9997 5.24978 10.9997 5.2293C10.9997 5.20881 10.9932 5.18886 10.9812 5.17233C10.9719 5.15504 10.9581 5.14062 10.9413 5.1306C10.9245 5.12057 10.9053 5.11531 10.8858 5.11536H8.60768Z" fill="white"/>
<path d="M7.81801 5.25124C7.82524 5.237 7.82901 5.22123 7.82901 5.20523C7.82901 5.18923 7.82524 5.17346 7.81801 5.15922C7.80843 5.14506 7.79543 5.13361 7.78024 5.12594C7.76506 5.11827 7.74818 5.11464 7.73122 5.1154H4.29457C4.27761 5.11464 4.26073 5.11827 4.24555 5.12594C4.23036 5.13361 4.21736 5.14506 4.20778 5.15922C4.20055 5.17346 4.19678 5.18923 4.19678 5.20523C4.19678 5.22123 4.20055 5.237 4.20778 5.25124L5.91743 11.4211C5.924 11.4439 5.93771 11.4638 5.95649 11.4781C5.97526 11.4923 5.9981 11.5 6.02157 11.5C6.04505 11.5 6.06788 11.4923 6.08666 11.4781C6.10544 11.4638 6.11914 11.4439 6.12571 11.4211L7.81801 5.25124Z" fill="white"/>
<path d="M7.27967 4.45803C7.29786 4.45703 7.31557 4.45175 7.33139 4.44262C7.3472 4.43349 7.3607 4.42076 7.37079 4.40545C7.38038 4.38962 7.38545 4.37142 7.38545 4.35286C7.38545 4.33431 7.38038 4.31611 7.37079 4.30028L6.07771 1.54838C6.07086 1.53454 6.06034 1.5229 6.04731 1.51476C6.03428 1.50662 6.01926 1.50231 6.00394 1.50231C5.98862 1.50231 5.9736 1.50662 5.96057 1.51476C5.94754 1.5229 5.93702 1.53454 5.93017 1.54838L4.63275 4.30904C4.62316 4.32488 4.61809 4.34307 4.61809 4.36163C4.61809 4.38019 4.62316 4.39838 4.63275 4.41421C4.64284 4.42953 4.65634 4.44226 4.67216 4.45139C4.68797 4.46051 4.70568 4.46579 4.72387 4.4668L7.27967 4.45803Z" fill="white"/>
<path d="M4.7762 10.5885C4.79102 10.6093 4.8126 10.6242 4.83718 10.6306C4.86176 10.637 4.88778 10.6345 4.91072 10.6235C4.9336 10.6115 4.95168 10.5918 4.96195 10.5679C4.97221 10.544 4.97404 10.5172 4.96713 10.4921L3.49614 5.18547C3.48863 5.16573 3.47562 5.1486 3.45868 5.13616C3.44174 5.12372 3.42159 5.11649 3.40068 5.11536H1.11391C1.093 5.11649 1.07285 5.12372 1.05591 5.13616C1.03897 5.1486 1.02596 5.16573 1.01845 5.18547C1.00646 5.202 1 5.22195 1 5.24244C1 5.26293 1.00646 5.28288 1.01845 5.29941L4.7762 10.5885Z" fill="white"/>
<path d="M8.76783 4.26096C8.75911 4.29298 8.74365 4.32411 8.74365 4.35729C8.74365 4.39045 8.7636 4.42236 8.79321 4.4373C8.80822 4.44488 8.82472 4.44899 8.8415 4.44931H10.8679C10.8885 4.44926 10.9087 4.44351 10.9263 4.4327C10.9439 4.42189 10.9582 4.40641 10.9677 4.38796C10.9772 4.37051 10.9822 4.35091 10.9822 4.331C10.9822 4.31108 10.9772 4.29149 10.9677 4.27403L9.49238 2.26707C9.48143 2.25001 9.46562 2.2367 9.44703 2.22888C9.42845 2.22106 9.40795 2.2191 9.38824 2.22325C9.36803 2.22716 9.34926 2.23657 9.33396 2.25047C9.31866 2.26438 9.30742 2.28224 9.30146 2.30213L8.76783 4.26096Z" fill="white"/>
<path d="M3.14861 4.45807C3.16539 4.45774 3.18189 4.45364 3.1969 4.44606C3.22651 4.43111 3.24646 4.39921 3.24646 4.36604C3.24646 4.33287 3.23107 4.30171 3.22248 4.26966L2.69733 2.31088C2.69137 2.29099 2.68013 2.27313 2.66483 2.25923C2.64953 2.24532 2.63076 2.23591 2.61055 2.23201C2.59084 2.22785 2.57034 2.22981 2.55176 2.23763C2.53317 2.24545 2.51736 2.25877 2.50641 2.27583L1.03108 4.28279C1.02158 4.30024 1.0166 4.31984 1.0166 4.33975C1.0166 4.35967 1.02158 4.37926 1.03108 4.39672C1.04023 4.41453 1.05388 4.42958 1.07064 4.44035C1.0874 4.45112 1.10669 4.45723 1.12654 4.45807H3.14861Z" fill="white"/>
<path d="M3.83443 3.99797C3.83994 4.01968 3.85218 4.03903 3.86935 4.05322C3.88652 4.06741 3.90773 4.07569 3.92989 4.07685C3.9515 4.07949 3.97337 4.07493 3.99217 4.06385C4.01097 4.05278 4.02567 4.0358 4.03403 4.0155L5.13386 1.7041C5.14985 1.67049 5.1676 1.63473 5.16008 1.59827C5.1563 1.57993 5.14809 1.56281 5.13619 1.54843C5.12766 1.53492 5.1162 1.52356 5.10266 1.5152C5.08912 1.50685 5.07388 1.50173 5.05808 1.50023H3.29202C3.275 1.49904 3.25797 1.50247 3.24271 1.51018C3.22745 1.51788 3.21451 1.52958 3.20524 1.54405C3.19801 1.55829 3.19423 1.57406 3.19423 1.59006C3.19423 1.62181 3.20936 1.65154 3.21753 1.68221L3.83443 3.99797Z" fill="white"/>
<path d="M7.96556 4.01549C7.97392 4.03578 7.98862 4.05276 8.00742 4.06384C8.04454 4.08571 8.0953 4.08433 8.13119 4.0605C8.13291 4.05936 8.1346 4.05816 8.13626 4.05691C8.15537 4.04243 8.1687 4.02152 8.17384 3.99796L8.80778 1.68211C8.81616 1.65149 8.83139 1.6218 8.83139 1.59005C8.83139 1.55826 8.81291 1.52778 8.78495 1.51266L8.78429 1.5123C8.76998 1.50469 8.75411 1.50056 8.73794 1.50022H6.95019C6.93439 1.50172 6.91914 1.50684 6.90561 1.51519C6.89207 1.52354 6.8806 1.53491 6.87208 1.54842C6.86371 1.56466 6.85935 1.5827 6.85935 1.60101C6.85935 1.61931 6.86371 1.63735 6.87208 1.65359L7.96556 4.01549Z" fill="white"/>
</svg>
