<svg width="16" height="16" viewBox="0 0 16 16" fill="none" xmlns="http://www.w3.org/2000/svg">
<path d="M6.2449 2.66602H4.61224C4.27411 2.66602 4 2.99163 4 3.39329V12.6054C4 13.0071 4.27411 13.3327 4.61224 13.3327H6.2449C6.58303 13.3327 6.85714 13.0071 6.85714 12.6054V3.39329C6.85714 2.99163 6.58303 2.66602 6.2449 2.66602Z" fill="#40526D"/>
<path d="M11.3878 2.66602H9.7551C9.41697 2.66602 9.14286 2.99163 9.14286 3.39329V12.6054C9.14286 13.0071 9.41697 13.3327 9.7551 13.3327H11.3878C11.7259 13.3327 12 13.0071 12 12.6054V3.39329C12 2.99163 11.7259 2.66602 11.3878 2.66602Z" fill="#40526D"/>
</svg>
