<svg width="24" height="24" viewBox="0 0 24 24" fill="none" xmlns="http://www.w3.org/2000/svg">
<g id="Close">
<path id="Vector" d="M19.5607 6.56066C20.1464 5.97487 20.1464 5.02513 19.5607 4.43934C18.9749 3.85355 18.0251 3.85355 17.4393 4.43934L12 9.87868L6.56066 4.43934C5.97487 3.85355 5.02513 3.85355 4.43934 4.43934C3.85355 5.02513 3.85355 5.97487 4.43934 6.56066L9.87868 12L4.43934 17.4393C3.85355 18.0251 3.85355 18.9749 4.43934 19.5607C5.02513 20.1464 5.97487 20.1464 6.56066 19.5607L12 14.1213L17.4393 19.5607C18.0251 20.1464 18.9749 20.1464 19.5607 19.5607C20.1464 18.9749 20.1464 18.0251 19.5607 17.4393L14.1213 12L19.5607 6.56066Z" fill="#40526D"/>
</g>
</svg>
