<svg width="14" height="16" viewBox="0 0 14 16" fill="none" xmlns="http://www.w3.org/2000/svg">
<path fill-rule="evenodd" clip-rule="evenodd" d="M2.12286 4.54622L7 2.45602L11.8771 4.54622L11.8538 8.1558C11.8641 9.47121 11.2717 10.4773 10.4043 11.3038C9.55262 12.1153 8.40395 12.784 7.24513 13.4358L7 13.5737L6.75487 13.4358C5.59605 12.784 4.44738 12.1153 3.59572 11.3038C2.72832 10.4773 2.13591 9.47121 2.1462 8.1558L2.12286 4.54622ZM4.42385 8.1998C4.84571 8.1998 5.1877 7.8551 5.1877 7.42989C5.1877 7.00468 4.84571 6.65997 4.42385 6.65997C4.00199 6.65997 3.66 7.00468 3.66 7.42989C3.66 7.8551 4.00199 8.1998 4.42385 8.1998ZM6.98635 8.1998C7.40821 8.1998 7.7502 7.8551 7.7502 7.42989C7.7502 7.00468 7.40821 6.65997 6.98635 6.65997C6.56449 6.65997 6.2225 7.00468 6.2225 7.42989C6.2225 7.8551 6.56449 8.1998 6.98635 8.1998ZM9.54494 8.1998C9.9668 8.1998 10.3088 7.8551 10.3088 7.42989C10.3088 7.00468 9.9668 6.65997 9.54494 6.65997C9.12308 6.65997 8.7811 7.00468 8.7811 7.42989C8.7811 7.8551 9.12308 8.1998 9.54494 8.1998Z" fill="#40526D"/>
<path fill-rule="evenodd" clip-rule="evenodd" d="M0 3L0.0339499 8.25C0.00207424 11.9018 3.26667 13.9 7 16C10.7333 13.9 13.9979 11.9018 13.966 8.25L14 3L7 0L0 3ZM2.79485 11.983C3.86578 13.0034 5.32355 13.8984 7 14.8513C8.67645 13.8984 10.1342 13.0034 11.2051 11.983C12.346 10.8959 12.979 9.73239 12.9661 8.25873L12.966 8.25113L12.9957 3.65756L7 1.08797L1.00427 3.65756L1.03398 8.25113L1.03391 8.25873C1.02105 9.73239 1.65401 10.8959 2.79485 11.983Z" fill="#40526D"/>
</svg>
