<svg width="14" height="14" viewBox="0 0 14 14" fill="none" xmlns="http://www.w3.org/2000/svg">
<path d="M0.333252 11.2333C0.333252 11.8786 0.588652 12.4974 1.04327 12.9537C1.49788 13.41 2.11447 13.6664 2.75739 13.6664H9.22176C9.86468 13.6664 10.4813 13.41 10.9359 12.9537C11.3905 12.4974 11.6459 11.8786 11.6459 11.2333V7.1781C11.6465 7.07137 11.6261 6.96556 11.5859 6.86674C11.5457 6.76793 11.4865 6.67805 11.4116 6.60227C11.3364 6.52625 11.2471 6.46592 11.1486 6.42474C11.0501 6.38357 10.9445 6.36237 10.8379 6.36237C10.7312 6.36237 10.6256 6.38357 10.5271 6.42474C10.4286 6.46592 10.3393 6.52625 10.2641 6.60227L6.61177 10.2276C6.41441 10.4252 6.17843 10.5797 5.91868 10.6813C5.65893 10.783 5.38104 10.8295 5.10248 10.8181C4.82393 10.8067 4.55075 10.7375 4.30012 10.6149C4.0495 10.4924 3.82687 10.3191 3.64624 10.1059C3.32141 9.69317 3.16132 9.17381 3.19717 8.64904C3.23302 8.12428 3.46225 7.63171 3.84017 7.26732L7.40366 3.73933C7.47939 3.66393 7.53951 3.57423 7.58053 3.4754C7.62155 3.37657 7.64268 3.27056 7.64268 3.16349C7.64268 3.05643 7.62155 2.95042 7.58053 2.85159C7.53951 2.75276 7.47939 2.66306 7.40366 2.58766C7.32882 2.51103 7.23958 2.45006 7.14109 2.4083C7.04261 2.36653 6.93685 2.3448 6.82994 2.34435H2.78971C2.14679 2.34435 1.5302 2.60069 1.07559 3.05699C0.620973 3.51328 0.365574 4.13215 0.365574 4.77745L0.333252 11.2333Z" fill="#374353"/>
<path d="M4.62756 9.39931C4.83173 9.60348 5.10863 9.71818 5.39737 9.71818C5.6861 9.71818 5.963 9.60348 6.16717 9.39931L11.0956 4.47093C11.1219 4.44462 11.1575 4.42984 11.1948 4.42984C11.232 4.42984 11.2676 4.44462 11.294 4.47093L12.3495 5.52643C12.4257 5.59287 12.5184 5.6375 12.6179 5.65558C12.7173 5.67367 12.8198 5.66455 12.9146 5.62918C13.0093 5.59382 13.0927 5.53352 13.1559 5.45467C13.2192 5.37582 13.26 5.28133 13.274 5.18121L13.5637 1.04253C13.5662 0.965767 13.553 0.889303 13.5247 0.817872C13.4965 0.74644 13.4539 0.681561 13.3996 0.627252C13.3453 0.572944 13.2804 0.530362 13.209 0.502142C13.1376 0.473923 13.0611 0.460666 12.9844 0.463195L8.84567 0.752863C8.74554 0.766869 8.65106 0.807665 8.57221 0.870937C8.49336 0.934209 8.43306 1.01761 8.3977 1.11232C8.36233 1.20704 8.35321 1.30954 8.3713 1.40901C8.38938 1.50848 8.43401 1.60122 8.50045 1.67742L9.55595 2.73292C9.58226 2.75923 9.59704 2.79491 9.59704 2.83212C9.59704 2.86933 9.58226 2.90501 9.55595 2.93132L4.62756 7.85971C4.4234 8.06388 4.3087 8.34078 4.3087 8.62951C4.3087 8.91824 4.4234 9.19515 4.62756 9.39931Z" fill="#374353"/>
</svg>
