<svg xmlns="http://www.w3.org/2000/svg" viewBox="0 0 24 24" fill="none">
<path d="M2.03742 18.5543C2.03742 19.4682 2.3879 20.3446 3.01172 20.9908C3.63554 21.637 4.48162 22 5.36383 22H18.6694C19.5517 22 20.3977 21.637 21.0215 20.9908C21.6454 20.3446 21.9959 19.4682 21.9959 18.5543V16.9434C22.0087 16.7969 21.9918 16.6491 21.9464 16.5096C21.901 16.3702 21.8281 16.242 21.7323 16.1333C21.6365 16.0247 21.5198 15.9379 21.3898 15.8785C21.2598 15.8191 21.1192 15.7885 20.9771 15.7885C20.835 15.7885 20.6945 15.8191 20.5645 15.8785C20.4345 15.9379 20.3178 16.0247 20.222 16.1333C20.1261 16.242 20.0532 16.3702 20.0078 16.5096C19.9624 16.6491 19.9456 16.7969 19.9584 16.9434V18.5543C19.9585 18.9117 19.8238 19.2549 19.583 19.5108C19.3421 19.7667 19.0143 19.915 18.6694 19.924H5.36383C5.01315 19.924 4.67681 19.7797 4.42884 19.5228C4.18087 19.2659 4.04157 18.9176 4.04157 18.5543V16.9434C4.05437 16.7969 4.03757 16.6491 3.99219 16.5096C3.94681 16.3702 3.87386 16.242 3.77802 16.1333C3.68218 16.0247 3.56551 15.9379 3.43549 15.8785C3.30547 15.8191 3.16498 15.7885 3.02289 15.7885C2.8808 15.7885 2.74025 15.8191 2.61023 15.8785C2.48022 15.9379 2.36355 16.0247 2.2677 16.1333C2.17186 16.242 2.09897 16.3702 2.05359 16.5096C2.00821 16.6491 1.99136 16.7969 2.00415 16.9434L2.03742 18.5543Z" fill="currentColor"/>
<path d="M12.0166 18.3217C12.4577 18.3217 12.8808 18.1402 13.1927 17.8171C13.5046 17.494 13.6798 17.0558 13.6798 16.5989V8.7427C13.688 8.69874 13.7092 8.65852 13.7405 8.62765C13.7718 8.59677 13.8117 8.57676 13.8545 8.57041H16.0915C16.2446 8.56346 16.3928 8.51283 16.5198 8.42413C16.6469 8.33543 16.7478 8.21209 16.8115 8.06773C16.8751 7.92338 16.899 7.76361 16.8806 7.60606C16.8621 7.44851 16.802 7.29931 16.7069 7.17491L12.632 2.28202C12.5541 2.1932 12.4591 2.12222 12.3531 2.07365C12.2471 2.02509 12.1325 2 12.0166 2C11.9007 2 11.7862 2.02509 11.6802 2.07365C11.5742 2.12222 11.4792 2.1932 11.4012 2.28202L7.32642 7.13184C7.21876 7.2554 7.14793 7.40863 7.12256 7.57299C7.09719 7.73734 7.11838 7.9058 7.18348 8.05797C7.24857 8.21015 7.3548 8.33953 7.48938 8.43047C7.62396 8.52141 7.78109 8.57002 7.94178 8.57041H10.1788C10.2216 8.57676 10.2614 8.59677 10.2927 8.62765C10.324 8.65852 10.3453 8.69874 10.3535 8.7427V16.6333C10.3622 17.0843 10.5412 17.5137 10.8522 17.8294C11.1631 18.145 11.5812 18.3218 12.0166 18.3217Z" fill="currentColor"/>
</svg>