<svg width="16" height="16" viewBox="0 0 16 16" fill="none" xmlns="http://www.w3.org/2000/svg">
<g clip-path="url(#clip0_4384_104)">
<rect width="16" height="16" rx="1" fill="#D32D27"/>
<path fill-rule="evenodd" clip-rule="evenodd" d="M2.88516 9.18021C3.53704 9.18021 4.06549 8.65176 4.06549 7.99988C4.06549 7.348 3.53704 6.81955 2.88516 6.81955C2.23328 6.81955 1.70483 7.348 1.70483 7.99988C1.70483 8.65176 2.23328 9.18021 2.88516 9.18021Z" fill="white"/>
<path fill-rule="evenodd" clip-rule="evenodd" d="M6.81959 9.18021C7.47147 9.18021 7.99992 8.65176 7.99992 7.99988C7.99992 7.348 7.47147 6.81955 6.81959 6.81955C6.16771 6.81955 5.63926 7.348 5.63926 7.99988C5.63926 8.65176 6.16771 9.18021 6.81959 9.18021Z" fill="white"/>
<path fill-rule="evenodd" clip-rule="evenodd" d="M10.754 9.18021C11.4059 9.18021 11.9343 8.65176 11.9343 7.99988C11.9343 7.348 11.4059 6.81955 10.754 6.81955C10.1021 6.81955 9.57369 7.348 9.57369 7.99988C9.57369 8.65176 10.1021 9.18021 10.754 9.18021Z" fill="white"/>
<path fill-rule="evenodd" clip-rule="evenodd" d="M13.5081 4.98349C13.5081 4.83863 13.6255 4.72119 13.7704 4.72119H14.0327C14.1776 4.72119 14.295 4.83862 14.295 4.98349V11.0163C14.295 11.1611 14.1776 11.2786 14.0327 11.2786H13.7704C13.6255 11.2786 13.5081 11.1611 13.5081 11.0163V4.98349Z" fill="white"/>
</g>
<defs>
<clipPath id="clip0_4384_104">
<rect width="16" height="16" fill="white"/>
</clipPath>
</defs>
</svg>
