<svg width="24" height="24" viewBox="0 0 24 24" fill="none" xmlns="http://www.w3.org/2000/svg">
<path fill-rule="evenodd" clip-rule="evenodd" d="M20.6957 3H3.30435C2.95841 3 2.62665 3.13536 2.38203 3.3763C2.13742 3.61725 2 3.94404 2 4.28478V15.8907C2.00109 16.0571 2.0359 16.2216 2.10238 16.3746C2.16886 16.5276 2.26568 16.666 2.38716 16.7817C2.50864 16.8974 2.65234 16.988 2.80984 17.0482C2.96733 17.1085 3.13545 17.1372 3.30435 17.1326H5.91304V20.5587C5.91166 20.6371 5.93303 20.7141 5.97462 20.7809C6.01621 20.8477 6.07631 20.9013 6.14783 20.9356C6.21391 20.9776 6.2909 21 6.36957 21C6.44823 21 6.52522 20.9776 6.5913 20.9356L12.1391 17.1326H20.6957C21.0416 17.1326 21.3734 16.9973 21.618 16.7563C21.8626 16.5154 22 16.1886 22 15.8478V4.28478C22 3.94404 21.8626 3.61725 21.618 3.3763C21.3734 3.13536 21.0416 3 20.6957 3ZM6 12C6 11.4477 6.44772 11 7 11H17C17.5523 11 18 11.4477 18 12C18 12.5523 17.5523 13 17 13H7C6.44771 13 6 12.5523 6 12ZM7 7C6.44772 7 6 7.44772 6 8C6 8.55228 6.44771 9 7 9H17C17.5523 9 18 8.55228 18 8C18 7.44772 17.5523 7 17 7H7Z" fill="#40526D"/>
</svg>
