<svg width="56" height="56" viewBox="0 0 56 56" fill="none" xmlns="http://www.w3.org/2000/svg">
<g clip-path="url(#clip0_4244_282379)">
<rect width="56" height="56" rx="3" fill="#EBEEEF"/>
<rect width="37.3333" height="37.3333" transform="translate(9.33334 9.3335)" fill="#EBEEEF"/>
<path d="M43.5556 11.667H12.4444C11.8256 11.667 11.2321 11.9128 10.7945 12.3504C10.3569 12.788 10.1111 13.3815 10.1111 14.0003V35.0781C10.1131 35.3803 10.1753 35.6792 10.2943 35.957C10.4132 36.2349 10.5864 36.4862 10.8037 36.6963C11.021 36.9064 11.2781 37.071 11.5598 37.1804C11.8416 37.2898 12.1423 37.3419 12.4444 37.3337H17.1111V43.5559C17.1086 43.6981 17.1469 43.8381 17.2213 43.9594C17.2957 44.0806 17.4032 44.1781 17.5311 44.2403C17.6493 44.3167 17.7871 44.3573 17.9278 44.3573C18.0685 44.3573 18.2062 44.3167 18.3244 44.2403L28.2489 37.3337H43.5556C44.1744 37.3337 44.7679 37.0878 45.2055 36.6502C45.6431 36.2127 45.8889 35.6192 45.8889 35.0003V14.0003C45.8889 13.3815 45.6431 12.788 45.2055 12.3504C44.7679 11.9128 44.1744 11.667 43.5556 11.667ZM17.5 28.0003C17.504 27.6922 17.6282 27.3977 17.8462 27.1798C18.0641 26.9619 18.3585 26.8377 18.6667 26.8337H37.3333C37.6428 26.8337 37.9395 26.9566 38.1583 27.1754C38.3771 27.3942 38.5 27.6909 38.5 28.0003C38.5 28.3097 38.3771 28.6065 38.1583 28.8253C37.9395 29.0441 37.6428 29.167 37.3333 29.167H18.6667C18.3585 29.163 18.0641 29.0388 17.8462 28.8208C17.6282 28.6029 17.504 28.3085 17.5 28.0003ZM37.3333 22.167H18.6667C18.3573 22.167 18.0605 22.0441 17.8417 21.8253C17.6229 21.6065 17.5 21.3097 17.5 21.0003C17.5 20.6909 17.6229 20.3942 17.8417 20.1754C18.0605 19.9566 18.3573 19.8337 18.6667 19.8337H37.3333C37.6428 19.8337 37.9395 19.9566 38.1583 20.1754C38.3771 20.3942 38.5 20.6909 38.5 21.0003C38.5 21.3097 38.3771 21.6065 38.1583 21.8253C37.9395 22.0441 37.6428 22.167 37.3333 22.167Z" fill="#5A6A81"/>
</g>
<rect x="0.5" y="0.5" width="55" height="55" rx="3.5" stroke="#D7DBE0"/>
<defs>
<clipPath id="clip0_4244_282379">
<rect width="56" height="56" rx="4" fill="white"/>
</clipPath>
</defs>
</svg>
