<svg width="56" height="56" viewBox="0 0 56 56" fill="none" xmlns="http://www.w3.org/2000/svg">
<g clip-path="url(#clip0_4244_282385)">
<rect width="56" height="56" rx="3" fill="#EBEEEF"/>
<g clip-path="url(#clip1_4244_282385)">
<rect width="37.3333" height="37.3333" transform="translate(9.33333 9.3335)" fill="#EBEEEF"/>
<path d="M26.9422 35.6224C26.889 35.5963 26.8304 35.5827 26.7711 35.5827C26.7118 35.5827 26.6533 35.5963 26.6 35.6224C26.5526 35.6594 26.514 35.7065 26.4871 35.7604C26.4602 35.8142 26.4456 35.8733 26.4444 35.9335V42.3268C26.4444 43.4614 26.8951 44.5494 27.6974 45.3517C28.4996 46.1539 29.5877 46.6046 30.7222 46.6046C31.8568 46.6046 32.9448 46.1539 33.7471 45.3517C34.5493 44.5494 35 43.4614 35 42.3268C35 41.9143 34.8361 41.5186 34.5444 41.2269C34.2527 40.9352 33.857 40.7713 33.4444 40.7713C33.0319 40.7713 32.6362 40.9352 32.3445 41.2269C32.0528 41.5186 31.8889 41.9143 31.8889 42.3268C31.8889 42.6362 31.766 42.933 31.5472 43.1518C31.3284 43.3706 31.0316 43.4935 30.7222 43.4935C30.4128 43.4935 30.1161 43.3706 29.8973 43.1518C29.6785 42.933 29.5556 42.6362 29.5556 42.3268V35.9957C29.5544 35.9356 29.5398 35.8764 29.5129 35.8226C29.486 35.7688 29.4474 35.7216 29.4 35.6846C29.3467 35.6585 29.2882 35.6449 29.2289 35.6449C29.1696 35.6449 29.111 35.6585 29.0578 35.6846C28.3679 35.8922 27.6321 35.8922 26.9422 35.6846V35.6224Z" fill="#5A6A81"/>
<path d="M28 9.3335C27.5874 9.3335 27.1918 9.49738 26.9001 9.78911C26.6083 10.0808 26.4444 10.4765 26.4444 10.8891V11.3868C26.4451 11.4824 26.4106 11.5748 26.3475 11.6465C26.2844 11.7183 26.1971 11.7643 26.1022 11.7757C21.3929 12.3117 17.0564 14.5961 13.951 18.1768C10.8456 21.7575 9.19769 26.3735 9.33333 31.1113V31.8891C9.33333 32.3016 9.49722 32.6973 9.78894 32.989C10.0807 33.2807 10.4763 33.4446 10.8889 33.4446C11.3014 33.4446 11.6971 33.2807 11.9888 32.989C12.2806 32.6973 12.4444 32.3016 12.4444 31.8891C12.4444 31.0646 13.5333 30.3335 14.7778 30.3335C16.0222 30.3335 17.1111 31.1113 17.1111 31.8891C17.1111 32.3016 17.275 32.6973 17.5667 32.989C17.8584 33.2807 18.2541 33.4446 18.6667 33.4446C19.0792 33.4446 19.4749 33.2807 19.7666 32.989C20.0583 32.6973 20.2222 32.3016 20.2222 31.8891C20.2222 31.2513 21.4356 30.3335 23.3333 30.3335C25.2311 30.3335 26.4444 31.2513 26.4444 31.8891C26.4444 32.3016 26.6083 32.6973 26.9001 32.989C27.1918 33.2807 27.5874 33.4446 28 33.4446C28.4126 33.4446 28.8082 33.2807 29.0999 32.989C29.3917 32.6973 29.5556 32.3016 29.5556 31.8891C29.5556 31.2513 30.7689 30.3335 32.6667 30.3335C34.5644 30.3335 35.7778 31.2513 35.7778 31.8891C35.7778 32.3016 35.9417 32.6973 36.2334 32.989C36.5251 33.2807 36.9208 33.4446 37.3333 33.4446C37.7459 33.4446 38.1416 33.2807 38.4333 32.989C38.725 32.6973 38.8889 32.3016 38.8889 31.8891C38.8889 31.0646 39.9778 30.3335 41.2222 30.3335C42.4667 30.3335 43.5556 31.0646 43.5556 31.8891C43.5556 32.3016 43.7194 32.6973 44.0112 32.989C44.3029 33.2807 44.6986 33.4446 45.1111 33.4446C45.5237 33.4446 45.9193 33.2807 46.2111 32.989C46.5028 32.6973 46.6667 32.3016 46.6667 31.8891V31.1113C46.8023 26.3735 45.1543 21.7575 42.049 18.1768C38.9436 14.5961 34.6071 12.3117 29.8978 11.7757C29.8029 11.7643 29.7156 11.7183 29.6525 11.6465C29.5894 11.5748 29.5549 11.4824 29.5556 11.3868V10.8891C29.5556 10.4765 29.3917 10.0808 29.0999 9.78911C28.8082 9.49738 28.4126 9.3335 28 9.3335Z" fill="#5A6A81"/>
</g>
</g>
<rect x="0.5" y="0.5" width="55" height="55" rx="3.5" stroke="#D7DBE0"/>
<defs>
<clipPath id="clip0_4244_282385">
<rect width="56" height="56" rx="4" fill="white"/>
</clipPath>
<clipPath id="clip1_4244_282385">
<rect width="37.3333" height="37.3333" fill="white" transform="translate(9.33333 9.3335)"/>
</clipPath>
</defs>
</svg>
