<svg width="24" height="24" viewBox="0 0 24 24" fill="none" xmlns="http://www.w3.org/2000/svg">
<path d="M11.27 16.4941C11.2351 16.4941 11.2067 16.5021 11.1753 16.5175C11.1474 16.5394 11.1247 16.5672 11.1088 16.599C11.093 16.6307 11.0844 16.6657 11.0837 16.7012V20.475C11.0837 21.1446 11.3492 21.7869 11.8217 22.2604C12.2943 22.734 12.9352 23 13.6035 23C14.2718 23 14.9127 22.734 15.3853 22.2604C15.8578 21.7869 16.1233 21.1446 16.1233 20.475C16.1233 20.2314 16.0267 19.9979 15.8549 19.8257C15.6831 19.6535 15.45 19.5568 15.207 19.5568C14.964 19.5568 14.7309 19.6535 14.5591 19.8257C14.3873 19.9979 14.2907 20.2314 14.2907 20.475C14.2907 20.6576 14.2183 20.8328 14.0894 20.9619C13.9606 21.0911 13.7858 21.1636 13.6035 21.1636C13.4212 21.1636 13.2464 21.0911 13.1176 20.9619C12.9887 20.8328 12.9163 20.6576 12.9163 20.475V16.7379C12.9156 16.7024 12.907 16.6675 12.8912 16.6357C12.8753 16.6039 12.8526 16.5761 12.8247 16.5543C12.7933 16.5389 12.7588 16.5308 12.7239 16.5308C12.6889 16.5308 12.6545 16.5389 12.6231 16.5543C12.2167 16.6768 11.7833 16.6768 11.3769 16.5543C11.3377 16.5308 11.3049 16.4941 11.27 16.4941Z" fill="#40526D"/>
<path d="M12 1C11.757 1 11.5239 1.09674 11.3521 1.26893C11.1803 1.44113 11.0837 1.67468 11.0837 1.9182V2.21202C11.0841 2.26842 11.0638 2.32299 11.0266 2.36532C10.9894 2.40766 10.938 2.4348 10.8821 2.44157C8.10816 2.75793 5.55378 4.10633 3.72458 6.21991C1.89538 8.33349 0.92467 11.0582 1.00457 13.8548V14.3139C1.00457 14.5574 1.1011 14.7909 1.27294 14.9631C1.44478 15.1353 1.67784 15.2321 1.92085 15.2321C2.16387 15.2321 2.39693 15.1353 2.56877 14.9631C2.7406 14.7909 2.83714 14.5574 2.83714 14.3139C2.83714 13.8272 3.47854 13.3957 4.21157 13.3957C4.9446 13.3957 5.586 13.8548 5.586 14.3139C5.586 14.5574 5.68253 14.7909 5.85437 14.9631C6.02621 15.1353 6.25927 15.2321 6.50228 15.2321C6.7453 15.2321 6.97836 15.1353 7.1502 14.9631C7.32203 14.7909 7.41857 14.5574 7.41857 14.3139C7.41857 13.9374 8.13327 13.3957 9.25114 13.3957C10.369 13.3957 11.0837 13.9374 11.0837 14.3139C11.0837 14.5574 11.1803 14.7909 11.3521 14.9631C11.5239 15.1353 11.757 15.2321 12 15.2321C12.243 15.2321 12.4761 15.1353 12.6479 14.9631C12.8197 14.7909 12.9163 14.5574 12.9163 14.3139C12.9163 13.9374 13.631 13.3957 14.7489 13.3957C15.8667 13.3957 16.5814 13.9374 16.5814 14.3139C16.5814 14.5574 16.678 14.7909 16.8498 14.9631C17.0216 15.1353 17.2547 15.2321 17.4977 15.2321C17.7407 15.2321 17.9738 15.1353 18.1456 14.9631C18.3175 14.7909 18.414 14.5574 18.414 14.3139C18.414 13.8272 19.0554 13.3957 19.7884 13.3957C20.5215 13.3957 21.1629 13.8272 21.1629 14.3139C21.1629 14.5574 21.2594 14.7909 21.4312 14.9631C21.6031 15.1353 21.8361 15.2321 22.0791 15.2321C22.3222 15.2321 22.5552 15.1353 22.7271 14.9631C22.8989 14.7909 22.9954 14.5574 22.9954 14.3139V13.8548C23.0753 11.0582 22.1046 8.33349 20.2754 6.21991C18.4462 4.10633 15.8918 2.75793 13.1179 2.44157C13.062 2.4348 13.0106 2.40766 12.9734 2.36532C12.9362 2.32299 12.9159 2.26842 12.9163 2.21202V1.9182C12.9163 1.67468 12.8197 1.44113 12.6479 1.26893C12.4761 1.09674 12.243 1 12 1Z" fill="#40526D"/>
</svg>
