<svg width="48" height="48" viewBox="0 0 48 48" fill="none" xmlns="http://www.w3.org/2000/svg">
<circle cx="24" cy="24" r="24" fill="#FAF4DE"/>
<path d="M24 14C22.0222 14 20.0888 14.5865 18.4443 15.6853C16.7998 16.7841 15.5181 18.3459 14.7612 20.1732C14.0043 22.0004 13.8063 24.0111 14.1922 25.9509C14.578 27.8907 15.5304 29.6725 16.9289 31.0711C18.3275 32.4696 20.1093 33.422 22.0491 33.8078C23.9889 34.1937 25.9996 33.9957 27.8268 33.2388C29.6541 32.4819 31.2159 31.2002 32.3147 29.5557C33.4135 27.9112 34 25.9778 34 24C34 21.3478 32.9464 18.8043 31.0711 16.9289C29.1957 15.0536 26.6522 14 24 14V14ZM18.4083 18.4083C19.7452 17.106 21.4941 16.3103 23.3543 16.1582C25.2144 16.0061 27.0694 16.5071 28.6 17.575C28.6245 17.5953 28.6442 17.6208 28.6577 17.6496C28.6712 17.6784 28.6782 17.7098 28.6782 17.7417C28.6782 17.7735 28.6712 17.8049 28.6577 17.8337C28.6442 17.8625 28.6245 17.888 28.6 17.9083L17.8917 28.6333C17.8706 28.6566 17.8449 28.6752 17.8162 28.6879C17.7874 28.7006 17.7564 28.7072 17.725 28.7072C17.6936 28.7072 17.6626 28.7006 17.6339 28.6879C17.6052 28.6752 17.5794 28.6566 17.5583 28.6333C16.4659 27.1102 15.9501 25.2485 16.1027 23.3804C16.2553 21.5122 17.0665 19.759 18.3917 18.4333L18.4083 18.4083ZM29.625 29.6333C28.2965 30.9503 26.5456 31.7561 24.6811 31.9085C22.8166 32.061 20.9582 31.5504 19.4333 30.4667C19.4089 30.4463 19.3892 30.4209 19.3756 30.3921C19.3621 30.3632 19.3551 30.3318 19.3551 30.3C19.3551 30.2682 19.3621 30.2367 19.3756 30.2079C19.3892 30.1791 19.4089 30.1537 19.4333 30.1333L30.1417 19.4083C30.162 19.3839 30.1875 19.3642 30.2163 19.3506C30.2451 19.3371 30.2765 19.3301 30.3083 19.3301C30.3402 19.3301 30.3716 19.3371 30.4004 19.3506C30.4292 19.3642 30.4547 19.3839 30.475 19.4083C31.5674 20.9315 32.0833 22.7931 31.9307 24.6613C31.778 26.5295 30.9668 28.2827 29.6417 29.6083L29.625 29.6333Z" fill="#9B7C09"/>
</svg>
