<svg width="14" height="14" viewBox="0 0 14 14" fill="none" xmlns="http://www.w3.org/2000/svg">
<path d="M6.99992 0.333984C5.68138 0.333984 4.39245 0.724978 3.29612 1.45752C2.19979 2.19006 1.34531 3.23125 0.840725 4.44943C0.336141 5.6676 0.204118 7.00805 0.461353 8.30125C0.718588 9.59446 1.35353 10.7823 2.28588 11.7147C3.21823 12.647 4.40611 13.282 5.69932 13.5392C6.99253 13.7965 8.33297 13.6644 9.55114 13.1598C10.7693 12.6553 11.8105 11.8008 12.543 10.7045C13.2756 9.60812 13.6666 8.31919 13.6666 7.00065C13.6666 5.23254 12.9642 3.53685 11.714 2.28661C10.4637 1.03636 8.76803 0.333984 6.99992 0.333984V0.333984ZM3.27214 3.27287C4.16336 2.40464 5.32933 1.87419 6.56942 1.77279C7.80951 1.67139 9.04616 2.00539 10.0666 2.71732C10.0829 2.73087 10.096 2.74785 10.1051 2.76706C10.1141 2.78626 10.1187 2.80721 10.1187 2.82843C10.1187 2.84964 10.1141 2.8706 10.1051 2.8898C10.096 2.909 10.0829 2.92599 10.0666 2.93954L2.9277 10.0895C2.91364 10.105 2.89649 10.1174 2.87735 10.1259C2.85822 10.1344 2.83752 10.1388 2.81659 10.1388C2.79566 10.1388 2.77496 10.1344 2.75582 10.1259C2.73669 10.1174 2.71954 10.105 2.70548 10.0895C1.97721 9.0741 1.63329 7.833 1.73504 6.58756C1.83679 5.34212 2.3776 4.1733 3.26103 3.28954L3.27214 3.27287ZM10.7499 10.7562C9.86422 11.6342 8.697 12.1714 7.45401 12.273C6.21101 12.3746 4.97204 12.0342 3.95548 11.3118C3.93916 11.2982 3.92603 11.2812 3.91701 11.262C3.908 11.2428 3.90333 11.2219 3.90333 11.2007C3.90333 11.1794 3.908 11.1585 3.91701 11.1393C3.92603 11.1201 3.93916 11.1031 3.95548 11.0895L11.0944 3.93954C11.1079 3.92322 11.1249 3.91009 11.1441 3.90108C11.1633 3.89206 11.1843 3.88739 11.2055 3.88739C11.2267 3.88739 11.2476 3.89206 11.2668 3.90108C11.286 3.91009 11.303 3.92322 11.3166 3.93954C12.0449 4.95498 12.3888 6.19607 12.287 7.44152C12.1853 8.68696 11.6445 9.85578 10.761 10.7395L10.7499 10.7562Z" fill="#40526D"/>
</svg>
