<svg width="25" height="25" viewBox="0 0 25 25" fill="none" xmlns="http://www.w3.org/2000/svg">
<g clip-path="url(#clip0_493_40074)">
<path d="M6.93479 15.8369C5.31941 15.8369 3.76864 17.9046 2.28248 22.0077C2.21787 22.1692 2.25018 22.3954 2.41171 22.5246C2.47633 22.6215 2.60556 22.6538 2.73479 22.6538C2.79941 22.6538 2.83171 22.6538 2.89633 22.6215C6.64402 21.2646 8.71171 19.8108 9.03479 18.3569C9.13171 17.9046 9.0994 17.1938 8.42094 16.4831C7.96864 16.0631 7.45171 15.8369 6.93479 15.8369Z" fill="#007AFF"/>
<path d="M21.15 3.26904C18.63 3.26904 16.4008 3.68904 14.4946 4.52904C12.9116 5.2075 11.5869 6.20904 10.4885 7.43673C10.2946 7.66289 10.1008 7.88904 9.93925 8.1152C9.09925 8.17981 8.25925 8.50289 7.38694 9.11674C6.67618 9.63366 5.9331 10.3444 5.22233 11.2167C4.02695 12.7029 3.28387 14.1567 3.25156 14.2214C3.15464 14.4475 3.21925 14.706 3.4131 14.8352C3.51002 14.8675 3.60695 14.8998 3.70387 14.8998C3.8331 14.8998 3.96233 14.8675 4.05925 14.7706C4.05925 14.7706 4.51156 14.3183 5.31925 13.866C5.96541 13.5106 6.96694 13.0583 8.19464 12.9937C8.51771 13.769 9.39002 14.706 9.81002 15.126C10.23 15.546 11.1669 16.4183 11.9423 16.7414C11.8777 17.969 11.4254 18.9706 11.07 19.6167C10.6177 20.3921 10.1654 20.8767 10.1654 20.8767C10.0039 21.0383 9.97156 21.2967 10.1008 21.4906C10.1977 21.6198 10.3269 21.6844 10.4885 21.6844C10.5531 21.6844 10.65 21.6521 10.7146 21.6198C10.7793 21.5875 12.2331 20.8444 13.7193 19.649C14.5916 18.9383 15.3023 18.2275 15.8193 17.4844C16.4331 16.6444 16.7562 15.7721 16.8208 14.9321C17.0469 14.7706 17.2731 14.5767 17.4993 14.3829C18.7269 13.2844 19.6962 11.9598 20.4069 10.3767C21.2146 8.50289 21.6346 6.27366 21.6346 3.75366V3.26904H21.15ZM15.3346 11.0229C14.5269 11.0229 13.8808 10.3767 13.8808 9.56904C13.8808 8.76135 14.5269 8.1152 15.3346 8.1152C16.1423 8.1152 16.7885 8.76135 16.7885 9.56904C16.7885 10.3767 16.1423 11.0229 15.3346 11.0229Z" fill="#007AFF"/>
</g>
<path d="M6.40789 7.88462C6.49209 7.88462 6.55332 7.81222 6.56097 7.66742C6.75998 4.80769 6.96664 4.4457 8.54337 4.22851C8.66583 4.21041 8.71176 4.13801 8.71176 4.05656C8.71176 3.95701 8.66583 3.87557 8.53572 3.85747C6.97429 3.63122 6.75998 3.27828 6.56097 0.690046C6.54567 0.545249 6.47678 0.5 6.40789 0.5C6.3237 0.5 6.26247 0.545249 6.24716 0.699095C6.04815 3.26923 5.84149 3.63122 4.27242 3.85747C4.1423 3.87557 4.09637 3.95701 4.09637 4.05656C4.09637 4.13801 4.1423 4.21041 4.27242 4.22851C5.83384 4.4457 6.04815 4.81674 6.24716 7.66742C6.25481 7.81222 6.31605 7.88462 6.40789 7.88462Z" fill="#007AFF"/>
<path d="M20.2556 24.4998C20.3735 24.4998 20.4592 24.4275 20.4699 24.2827C20.7485 21.4229 21.0378 21.0609 23.2453 20.8437C23.4167 20.8256 23.481 20.7532 23.481 20.6718C23.481 20.5722 23.4167 20.4908 23.2345 20.4727C21.0486 20.2465 20.7485 19.8935 20.4699 17.3053C20.4485 17.1605 20.352 17.1152 20.2556 17.1152C20.1377 17.1152 20.052 17.1605 20.0306 17.3143C19.752 19.8845 19.4626 20.2465 17.2659 20.4727C17.0838 20.4908 17.0195 20.5722 17.0195 20.6718C17.0195 20.7532 17.0838 20.8256 17.2659 20.8437C19.4519 21.0609 19.752 21.432 20.0306 24.2827C20.0413 24.4275 20.127 24.4998 20.2556 24.4998Z" fill="#007AFF"/>
<defs>
<clipPath id="clip0_493_40074">
<rect width="19.3846" height="19.3846" fill="white" transform="translate(2.25018 3.26904)"/>
</clipPath>
</defs>
</svg>
