<svg width="40" height="41" viewBox="0 0 40 41" fill="none" xmlns="http://www.w3.org/2000/svg">
<path d="M33.3334 10.997H17.5C17.3883 10.9967 17.2777 10.9741 17.1749 10.9303C17.0722 10.8864 16.9792 10.8224 16.9017 10.742L14.6667 8.42864C14.4327 8.18675 14.1525 7.99437 13.8427 7.86295C13.5329 7.73153 13.1999 7.66375 12.8634 7.66364H7.14335C6.35445 7.66452 5.59809 7.97818 5.04009 8.53586C4.4821 9.09355 4.16801 9.84973 4.16669 10.6386V29.6886C4.16801 30.4775 4.4821 31.2337 5.04009 31.7914C5.59809 32.3491 6.35445 32.6628 7.14335 32.6636H32.8567C33.6456 32.6628 34.402 32.3491 34.9599 31.7914C35.5179 31.2337 35.832 30.4775 35.8334 29.6886V13.497C35.8334 12.8339 35.57 12.198 35.1011 11.7292C34.6323 11.2604 33.9964 10.997 33.3334 10.997Z" fill="#47A1DE"/>
<g clip-path="url(#clip0_2398_212378)">
<path d="M26.3883 21.5525C26.3876 20.8897 26.1239 20.2542 25.6553 19.7856C25.1866 19.3169 24.5511 19.0533 23.8883 19.0525L22.1472 19.0525C21.9999 19.0525 21.8586 19.1111 21.7544 19.2152C21.6502 19.3194 21.5916 19.4607 21.5916 19.6081C21.5916 19.7554 21.6502 19.8967 21.7544 20.0009C21.8586 20.1051 21.9999 20.1636 22.1472 20.1636L23.8883 20.1636C24.2567 20.1636 24.6099 20.31 24.8704 20.5704C25.1309 20.8309 25.2772 21.1842 25.2772 21.5525C25.2772 21.9209 25.1309 22.2741 24.8704 22.5346C24.6099 22.7951 24.2567 22.9414 23.8883 22.9414H20.8328C20.4644 22.9414 20.1111 22.7951 19.8507 22.5346C19.5902 22.2741 19.4439 21.9209 19.4439 21.5525C19.4439 21.4052 19.3853 21.2639 19.2811 21.1597C19.177 21.0555 19.0357 20.997 18.8883 20.997C18.741 20.997 18.5997 21.0555 18.4955 21.1597C18.3913 21.2639 18.3328 21.4052 18.3328 21.5525C18.3328 22.2156 18.5961 22.8514 19.065 23.3203C19.5338 23.7891 20.1697 24.0525 20.8328 24.0525H23.8883C24.5511 24.0518 25.1866 23.7882 25.6553 23.3195C26.1239 22.8508 26.3876 22.2153 26.3883 21.5525Z" fill="white"/>
<path d="M17.9805 23.497C17.9805 23.3496 17.922 23.2083 17.8178 23.1041C17.7136 22.9999 17.5723 22.9414 17.425 22.9414H16.1105C15.7422 22.9414 15.3889 22.7951 15.1284 22.5346C14.868 22.2741 14.7216 21.9209 14.7216 21.5525C14.7216 21.1842 14.868 20.8309 15.1284 20.5704C15.3889 20.31 15.7422 20.1636 16.1105 20.1636L18.8883 20.1636C19.2567 20.1636 19.6099 20.31 19.8704 20.5704C20.1309 20.8309 20.2772 21.1842 20.2772 21.5525C20.2772 21.6999 20.3357 21.8412 20.4399 21.9454C20.5441 22.0495 20.6854 22.1081 20.8328 22.1081C20.9801 22.1081 21.1214 22.0495 21.2256 21.9454C21.3298 21.8412 21.3883 21.6999 21.3883 21.5525C21.3876 20.8897 21.1239 20.2542 20.6553 19.7856C20.1866 19.3169 19.5511 19.0533 18.8883 19.0525L16.1105 19.0525C15.4475 19.0525 14.8116 19.3159 14.3428 19.7848C13.8739 20.2536 13.6105 20.8895 13.6105 21.5525C13.6105 22.2156 13.8739 22.8514 14.3428 23.3203C14.8116 23.7891 15.4475 24.0525 16.1105 24.0525H17.425C17.5723 24.0525 17.7136 23.994 17.8178 23.8898C17.922 23.7856 17.9805 23.6443 17.9805 23.497Z" fill="white"/>
</g>
<defs>
<clipPath id="clip0_2398_212378">
<rect width="13.3333" height="13.3333" fill="white" transform="translate(13.3333 15.1636)"/>
</clipPath>
</defs>
</svg>
