<svg xmlns="http://www.w3.org/2000/svg" id="loader-stage-7" shape-rendering="geometricPrecision" text-rendering="geometricPrecision" viewBox="0 0 215 143"><style>@keyframes loader-stage-7-path7_to__to{0%{transform:translate(84.426048px,84.999897px)}17.142857%{transform:translate(84.426048px,67px)}35.714286%,to{transform:translate(84.426048px,85px)}}@keyframes loader-stage-7-path8_to__to{0%,25.714286%{transform:translate(104.098148px,84.999897px)}44.285714%{transform:translate(104.098148px,67px)}62.857143%,to{transform:translate(104.098148px,85px)}}@keyframes loader-stage-7-path9_to__to{0%,54.285714%{transform:translate(123.769501px,84.999897px)}71.428571%{transform:translate(123.769501px,67px)}89.285714%,to{transform:translate(123.769501px,85px)}}</style><path id="loader-stage-7-path1" fill="none" stroke="#264887" stroke-linecap="round" stroke-linejoin="round" stroke-width="2" d="M70.22 134h78.83"/><path id="loader-stage-7-path2" fill="none" stroke="#264887" stroke-linecap="round" stroke-linejoin="round" stroke-width="2" d="M62.338 134h5.63"/><path id="loader-stage-7-path3" fill="none" stroke="#264887" stroke-linecap="round" stroke-linejoin="round" stroke-width="2" d="M151.302 134h5.63"/><rect id="loader-stage-7-rect1" width="7.455" height="7.455" fill="none" stroke="#DF6661" stroke-linecap="round" stroke-linejoin="round" stroke-width="2" rx="0" ry="0" transform="rotate(-45 90.101 -15.005)"/><path id="loader-stage-7-path4" fill="none" stroke="#DF6661" stroke-linecap="round" stroke-width="2" d="m117.266 9.31 7.084 7.084"/><path id="loader-stage-7-path5" fill="none" stroke="#DF6661" stroke-linecap="round" stroke-width="2" d="m124.1 9.31-7.084 7.084"/><rect id="loader-stage-7-rect2" width="7.455" height="7.455" fill="none" stroke="#DF6661" stroke-linecap="round" stroke-linejoin="round" stroke-width="2" rx="0" ry="0" transform="translate(171.009 90.644)"/><rect id="loader-stage-7-rect3" width="80" height="80" fill="#D32D27" stroke="none" stroke-width="1" rx="4" ry="4" transform="translate(70 45)"/><path id="loader-stage-7-path6" fill="#FFF" fill-rule="evenodd" stroke="none" stroke-width="1" d="M137.541 70.574a1.968 1.968 0 0 1 3.935 0v28.852a1.968 1.968 0 1 1-3.935 0V70.574Z" clip-rule="evenodd"/><g style="animation:loader-stage-7-path7_to__to 1400ms linear infinite normal forwards" transform="translate(84.426 85)"><path id="loader-stage-7-path7" fill="#FFF" fill-rule="evenodd" stroke="none" stroke-width="1" d="M84.426 90.901a5.902 5.902 0 1 0 0-11.803 5.902 5.902 0 0 0 0 11.803Z" clip-rule="evenodd" transform="translate(-84.426 -85)"/></g><g style="animation:loader-stage-7-path8_to__to 1400ms linear infinite normal forwards" transform="translate(104.098 85)"><path id="loader-stage-7-path8" fill="#FFF" fill-rule="evenodd" stroke="none" stroke-width="1" d="M104.098 90.901a5.902 5.902 0 1 0 0-11.804 5.902 5.902 0 0 0 0 11.805Z" clip-rule="evenodd" transform="translate(-104.098 -85)"/></g><g style="animation:loader-stage-7-path9_to__to 1400ms linear infinite normal forwards" transform="translate(123.77 85)"><path id="loader-stage-7-path9" fill="#FFF" fill-rule="evenodd" stroke="none" stroke-width="1" d="M123.77 90.901a5.901 5.901 0 1 0 0-11.802 5.901 5.901 0 0 0 0 11.802Z" clip-rule="evenodd" transform="translate(-123.77 -85)"/></g></svg>