<svg width="16" height="16" viewBox="0 0 16 16" fill="none" xmlns="http://www.w3.org/2000/svg">
<path d="M15.6094 13.7272L12.5127 10.6305C13.4556 9.2191 13.8398 7.50741 13.5905 5.82842C13.3413 4.14942 12.4764 2.62317 11.1642 1.54653C9.85191 0.469895 8.1861 -0.0801415 6.49077 0.00341195C4.79543 0.0869654 3.19178 0.798135 1.99175 1.99859C0.791723 3.19904 0.0811204 4.80294 -0.00183363 6.49831C-0.0847877 8.19367 0.465838 9.85929 1.54294 11.1712C2.62004 12.483 4.1466 13.3474 5.82568 13.596C7.50476 13.8447 9.21631 13.4599 10.6274 12.5165L13.7241 15.6125C13.9762 15.8585 14.3145 15.9961 14.6667 15.9961C15.019 15.9961 15.3573 15.8585 15.6094 15.6125C15.8594 15.3625 15.9998 15.0234 15.9998 14.6699C15.9998 14.3163 15.8594 13.9772 15.6094 13.7272ZM6.8334 2.00319C7.78935 2.00319 8.72382 2.28666 9.51866 2.81775C10.3135 3.34884 10.933 4.10371 11.2988 4.98688C11.6646 5.87006 11.7604 6.84188 11.5739 7.77946C11.3874 8.71703 10.927 9.57825 10.2511 10.2542C9.57513 10.9302 8.71391 11.3905 7.77634 11.577C6.83876 11.7635 5.86694 11.6678 4.98377 11.3019C4.10059 10.9361 3.34573 10.3166 2.81463 9.52178C2.28354 8.72694 2.00007 7.79246 2.00007 6.83652C2.00148 5.55507 2.51116 4.32652 3.41728 3.4204C4.3234 2.51428 5.55196 2.0046 6.8334 2.00319Z" fill="#8E8E92"/>
</svg>
