<svg width="56" height="56" viewBox="0 0 56 56" fill="none" xmlns="http://www.w3.org/2000/svg">
<g clip-path="url(#clip0_4244_282378)">
<rect width="56" height="56" rx="3" fill="#EBEEEF"/>
<g clip-path="url(#clip1_4244_282378)">
<rect width="37.3333" height="37.3333" transform="translate(9.33333 9.3335)" fill="#EBEEEF"/>
<path d="M46.6667 16.3333C46.6667 15.5082 46.3389 14.7168 45.7554 14.1334C45.172 13.5499 44.3807 13.2222 43.5556 13.2222H12.4444C11.6193 13.2222 10.828 13.5499 10.2446 14.1334C9.66111 14.7168 9.33333 15.5082 9.33333 16.3333V39.6666C9.33333 40.4917 9.66111 41.2831 10.2446 41.8665C10.828 42.4499 11.6193 42.7777 12.4444 42.7777H17.1111C17.5237 42.7777 17.9193 42.6138 18.2111 42.3221C18.5028 42.0304 18.6667 41.6347 18.6667 41.2222V40.0555C18.6667 39.7461 18.7896 39.4493 19.0084 39.2305C19.2272 39.0118 19.5239 38.8888 19.8333 38.8888C20.1427 38.8888 20.4395 39.0118 20.6583 39.2305C20.8771 39.4493 21 39.7461 21 40.0555V41.2222C21 41.6347 21.1639 42.0304 21.4556 42.3221C21.7473 42.6138 22.143 42.7777 22.5556 42.7777H33.4444C33.857 42.7777 34.2527 42.6138 34.5444 42.3221C34.8361 42.0304 35 41.6347 35 41.2222V40.0555C35 39.7461 35.1229 39.4493 35.3417 39.2305C35.5605 39.0118 35.8572 38.8888 36.1667 38.8888C36.4761 38.8888 36.7728 39.0118 36.9916 39.2305C37.2104 39.4493 37.3333 39.7461 37.3333 40.0555V41.2222C37.3333 41.6347 37.4972 42.0304 37.7889 42.3221C38.0807 42.6138 38.4763 42.7777 38.8889 42.7777H43.5556C44.3807 42.7777 45.172 42.4499 45.7554 41.8665C46.3389 41.2831 46.6667 40.4917 46.6667 39.6666V16.3333ZM43.5556 38.8888C43.5556 39.0951 43.4736 39.2929 43.3277 39.4388C43.1819 39.5847 42.9841 39.6666 42.7778 39.6666H41.0822C40.9091 39.6675 40.7409 39.6095 40.6052 39.502C40.4695 39.3946 40.3744 39.2442 40.3356 39.0755C40.1186 38.1323 39.5882 37.2905 38.831 36.6878C38.0737 36.085 37.1345 35.7568 36.1667 35.7568C35.1988 35.7568 34.2596 36.085 33.5024 36.6878C32.7452 37.2905 32.2148 38.1323 31.9978 39.0755C31.9589 39.2442 31.8638 39.3946 31.7281 39.502C31.5924 39.6095 31.4242 39.6675 31.2511 39.6666H24.7489C24.5758 39.6675 24.4076 39.6095 24.2719 39.502C24.1362 39.3946 24.0411 39.2442 24.0022 39.0755C23.7852 38.1323 23.2548 37.2905 22.4976 36.6878C21.7404 36.085 20.8012 35.7568 19.8333 35.7568C18.8655 35.7568 17.9262 36.085 17.169 36.6878C16.4118 37.2905 15.8814 38.1323 15.6644 39.0755C15.6256 39.2442 15.5305 39.3946 15.3948 39.502C15.2591 39.6095 15.0909 39.6675 14.9178 39.6666H13.2222C13.0159 39.6666 12.8181 39.5847 12.6722 39.4388C12.5264 39.2929 12.4444 39.0951 12.4444 38.8888V17.1111C12.4432 17.0091 12.4633 16.9079 12.5035 16.8141C12.5437 16.7204 12.603 16.6361 12.6778 16.5666C12.7472 16.4919 12.8315 16.4325 12.9253 16.3923C13.0191 16.3522 13.1202 16.332 13.2222 16.3333H42.7778C42.9841 16.3333 43.1819 16.4152 43.3277 16.5611C43.4736 16.7069 43.5556 16.9048 43.5556 17.1111V38.8888Z" fill="#5A6A81"/>
<path d="M31.5 27.2223C31.504 27.5305 31.6282 27.8249 31.8462 28.0428C32.0641 28.2608 32.3585 28.385 32.6667 28.389H40.1022C40.4116 28.389 40.7084 28.2661 40.9272 28.0473C41.146 27.8285 41.2689 27.5318 41.2689 27.2223C41.2689 26.9129 41.146 26.6162 40.9272 26.3974C40.7084 26.1786 40.4116 26.0557 40.1022 26.0557H32.6667C32.3585 26.0597 32.0641 26.1839 31.8462 26.4018C31.6282 26.6198 31.504 26.9142 31.5 27.2223V27.2223Z" fill="#5A6A81"/>
<path d="M31.5 31.8888C31.504 32.197 31.6282 32.4914 31.8462 32.7093C32.0641 32.9273 32.3585 33.0515 32.6667 33.0555H36.7267C37.0361 33.0555 37.3328 32.9326 37.5516 32.7138C37.7704 32.495 37.8933 32.1983 37.8933 31.8888C37.8933 31.5794 37.7704 31.2827 37.5516 31.0639C37.3328 30.8451 37.0361 30.7222 36.7267 30.7222H32.6667C32.3585 30.7262 32.0641 30.8504 31.8462 31.0683C31.6282 31.2863 31.504 31.5807 31.5 31.8888V31.8888Z" fill="#5A6A81"/>
<path d="M32.6667 23.7225H40.4444C40.7539 23.7225 41.0506 23.5996 41.2694 23.3808C41.4882 23.162 41.6111 22.8652 41.6111 22.5558C41.6111 22.2464 41.4882 21.9497 41.2694 21.7309C41.0506 21.5121 40.7539 21.3892 40.4444 21.3892H32.6667C32.3572 21.3892 32.0605 21.5121 31.8417 21.7309C31.6229 21.9497 31.5 22.2464 31.5 22.5558C31.5 22.8652 31.6229 23.162 31.8417 23.3808C32.0605 23.5996 32.3572 23.7225 32.6667 23.7225Z" fill="#5A6A81"/>
<path d="M21.5135 26.4444C23.2317 26.4444 24.6246 25.0515 24.6246 23.3333C24.6246 21.6151 23.2317 20.2222 21.5135 20.2222C19.7952 20.2222 18.4023 21.6151 18.4023 23.3333C18.4023 25.0515 19.7952 26.4444 21.5135 26.4444Z" fill="#5A6A81"/>
<path d="M17.1117 32.6667H25.885C26.0118 32.6676 26.1368 32.6375 26.2493 32.579C26.3618 32.5205 26.4583 32.4354 26.5303 32.3311C26.6024 32.2269 26.6479 32.1065 26.6629 31.9807C26.6778 31.8548 26.6618 31.7272 26.6161 31.6089C26.2261 30.5648 25.5308 29.6622 24.6209 29.0186C23.7109 28.375 22.6283 28.0201 21.5139 28C20.3968 28.0169 19.3108 28.3704 18.3978 29.0143C17.4848 29.6581 16.7872 30.5624 16.3961 31.6089C16.351 31.7259 16.3348 31.8522 16.3489 31.9768C16.3631 32.1015 16.4072 32.2208 16.4775 32.3248C16.5478 32.4287 16.6422 32.514 16.7526 32.5736C16.8631 32.6331 16.9862 32.665 17.1117 32.6667Z" fill="#5A6A81"/>
</g>
</g>
<rect x="0.5" y="0.5" width="55" height="55" rx="3.5" stroke="#D7DBE0"/>
<defs>
<clipPath id="clip0_4244_282378">
<rect width="56" height="56" rx="4" fill="white"/>
</clipPath>
<clipPath id="clip1_4244_282378">
<rect width="37.3333" height="37.3333" fill="white" transform="translate(9.33333 9.3335)"/>
</clipPath>
</defs>
</svg>
