<svg width="24" height="24" viewBox="0 0 24 24" fill="none" xmlns="http://www.w3.org/2000/svg">
<path d="M24 4.5C24 3.96957 23.7893 3.46086 23.4142 3.08579C23.0391 2.71071 22.5304 2.5 22 2.5H2C1.46957 2.5 0.960859 2.71071 0.585786 3.08579C0.210714 3.46086 0 3.96957 0 4.5V19.5C0 20.0304 0.210714 20.5391 0.585786 20.9142C0.960859 21.2893 1.46957 21.5 2 21.5H5C5.26522 21.5 5.51957 21.3946 5.70711 21.2071C5.89464 21.0196 6 20.7652 6 20.5V19.75C6 19.5511 6.07902 19.3603 6.21967 19.2197C6.36032 19.079 6.55109 19 6.75 19C6.94891 19 7.13968 19.079 7.28033 19.2197C7.42098 19.3603 7.5 19.5511 7.5 19.75V20.5C7.5 20.7652 7.60536 21.0196 7.79289 21.2071C7.98043 21.3946 8.23478 21.5 8.5 21.5H15.5C15.7652 21.5 16.0196 21.3946 16.2071 21.2071C16.3946 21.0196 16.5 20.7652 16.5 20.5V19.75C16.5 19.5511 16.579 19.3603 16.7197 19.2197C16.8603 19.079 17.0511 19 17.25 19C17.4489 19 17.6397 19.079 17.7803 19.2197C17.921 19.3603 18 19.5511 18 19.75V20.5C18 20.7652 18.1054 21.0196 18.2929 21.2071C18.4804 21.3946 18.7348 21.5 19 21.5H22C22.5304 21.5 23.0391 21.2893 23.4142 20.9142C23.7893 20.5391 24 20.0304 24 19.5V4.5ZM22 19C22 19.1326 21.9473 19.2598 21.8536 19.3536C21.7598 19.4473 21.6326 19.5 21.5 19.5H20.41C20.2987 19.5006 20.1906 19.4633 20.1033 19.3942C20.0161 19.3251 19.955 19.2284 19.93 19.12C19.7905 18.5137 19.4495 17.9725 18.9628 17.585C18.476 17.1975 17.8722 16.9865 17.25 16.9865C16.6278 16.9865 16.024 17.1975 15.5372 17.585C15.0505 17.9725 14.7095 18.5137 14.57 19.12C14.545 19.2284 14.4839 19.3251 14.3966 19.3942C14.3094 19.4633 14.2013 19.5006 14.09 19.5H9.91C9.79873 19.5006 9.69059 19.4633 9.60335 19.3942C9.51611 19.3251 9.45498 19.2284 9.43 19.12C9.29051 18.5137 8.94953 17.9725 8.46276 17.585C7.97598 17.1975 7.37218 16.9865 6.75 16.9865C6.12782 16.9865 5.52402 17.1975 5.03724 17.585C4.55047 17.9725 4.20949 18.5137 4.07 19.12C4.04502 19.2284 3.98389 19.3251 3.89665 19.3942C3.80941 19.4633 3.70127 19.5006 3.59 19.5H2.5C2.36739 19.5 2.24021 19.4473 2.14645 19.3536C2.05268 19.2598 2 19.1326 2 19V5C1.9992 4.93442 2.01213 4.86941 2.03797 4.80913C2.0638 4.74885 2.10196 4.69465 2.15 4.65C2.19465 4.60196 2.24885 4.5638 2.30913 4.53797C2.36941 4.51213 2.43442 4.4992 2.5 4.5H21.5C21.6326 4.5 21.7598 4.55268 21.8536 4.64645C21.9473 4.74021 22 4.86739 22 5V19Z" fill="#40526D"/>
<path d="M14.25 11.5C14.2526 11.6981 14.3324 11.8874 14.4725 12.0275C14.6126 12.1676 14.8019 12.2474 15 12.25H19.78C19.9789 12.25 20.1697 12.171 20.3103 12.0303C20.451 11.8897 20.53 11.6989 20.53 11.5C20.53 11.3011 20.451 11.1103 20.3103 10.9697C20.1697 10.829 19.9789 10.75 19.78 10.75H15C14.8019 10.7526 14.6126 10.8324 14.4725 10.9725C14.3324 11.1126 14.2526 11.3019 14.25 11.5Z" fill="#40526D"/>
<path d="M14.25 14.5C14.2526 14.6981 14.3324 14.8874 14.4725 15.0275C14.6126 15.1676 14.8019 15.2474 15 15.25H17.61C17.8089 15.25 17.9997 15.171 18.1403 15.0303C18.281 14.8897 18.36 14.6989 18.36 14.5C18.36 14.3011 18.281 14.1103 18.1403 13.9697C17.9997 13.829 17.8089 13.75 17.61 13.75H15C14.8019 13.7526 14.6126 13.8324 14.4725 13.9725C14.3324 14.1126 14.2526 14.3019 14.25 14.5Z" fill="#40526D"/>
<path d="M15 9.25H20C20.1989 9.25 20.3897 9.17098 20.5303 9.03033C20.671 8.88968 20.75 8.69891 20.75 8.5C20.75 8.30109 20.671 8.11032 20.5303 7.96967C20.3897 7.82902 20.1989 7.75 20 7.75H15C14.8011 7.75 14.6103 7.82902 14.4697 7.96967C14.329 8.11032 14.25 8.30109 14.25 8.5C14.25 8.69891 14.329 8.88968 14.4697 9.03033C14.6103 9.17098 14.8011 9.25 15 9.25Z" fill="#40526D"/>
<path d="M7.83008 11C8.93465 11 9.83008 10.1046 9.83008 9C9.83008 7.89543 8.93465 7 7.83008 7C6.72551 7 5.83008 7.89543 5.83008 9C5.83008 10.1046 6.72551 11 7.83008 11Z" fill="#40526D"/>
<path d="M5.00038 15H10.6404C10.7219 15.0006 10.8023 14.9812 10.8746 14.9436C10.9469 14.906 11.0089 14.8513 11.0552 14.7843C11.1016 14.7173 11.1308 14.6399 11.1404 14.559C11.15 14.4781 11.1397 14.396 11.1104 14.32C10.8596 13.6488 10.4127 13.0686 9.8277 12.6548C9.24272 12.2411 8.54678 12.0129 7.83038 12C7.11226 12.0109 6.41412 12.2381 5.82717 12.652C5.24023 13.0659 4.79177 13.6472 4.54038 14.32C4.51134 14.3952 4.50093 14.4764 4.51004 14.5565C4.51915 14.6367 4.54751 14.7134 4.59269 14.7802C4.63788 14.847 4.69856 14.9019 4.76955 14.9402C4.84054 14.9784 4.91973 14.999 5.00038 15Z" fill="#40526D"/>
</svg>
