<svg width="24" height="24" viewBox="0 0 24 24" fill="none" xmlns="http://www.w3.org/2000/svg">
<path fill-rule="evenodd" clip-rule="evenodd" d="M20.5384 2.46375C20.8339 2.76068 21 3.1634 21 3.58333V14.3087L15.0693 14.3087C14.7 14.3087 14.0654 14.7426 14.0654 15.4346V21L4.57605 21C4.15806 21 3.75718 20.8332 3.46161 20.5362C3.16605 20.2393 3 19.8366 3 19.4167V3.58336C3 3.16344 3.16605 2.76071 3.46161 2.46378C3.75718 2.16685 4.15806 2.00003 4.57605 2.00003L19.4239 2C19.8419 2 20.2428 2.16681 20.5384 2.46375ZM6.6 6.75C6.6 6.22533 7.00294 5.8 7.5 5.8H16.5C16.9971 5.8 17.4 6.22533 17.4 6.75C17.4 7.27467 16.9971 7.7 16.5 7.7H7.5C7.00294 7.7 6.6 7.27467 6.6 6.75ZM7.5 9.6C7.00294 9.6 6.6 10.0253 6.6 10.55C6.6 11.0747 7.00294 11.5 7.5 11.5H16.5C16.9971 11.5 17.4 11.0747 17.4 10.55C17.4 10.0253 16.9971 9.6 16.5 9.6H7.5Z" fill="#40526D"/>
<path d="M21 15.238L16.4295 15.2381C16.377 15.2381 16.3264 15.2403 16.2775 15.2446C15.9604 15.3004 15.6656 15.4528 15.4349 15.6846C15.3289 15.7911 15.2396 15.9112 15.1686 16.0408C15.0372 16.3255 14.9905 16.6285 14.9905 16.8444V21H15.3673C15.471 21.0006 15.5738 20.9806 15.6699 20.9412C15.7659 20.9018 15.8532 20.8438 15.9268 20.7704L20.7715 16.1787C20.8445 16.1047 20.9023 16.017 20.9415 15.9206C20.9807 15.8241 21.0006 15.7208 21 15.6166V15.238Z" fill="#40526D"/>
</svg>
