<svg width="80" height="80" viewBox="0 0 80 80" fill="none" xmlns="http://www.w3.org/2000/svg">
<path d="M40.0346 74.8009C60.6723 74.8009 77.4025 58.0707 77.4025 37.4329C77.4025 16.7952 60.6723 0.0650024 40.0345 0.0650024C19.3968 0.0650024 2.66664 16.7952 2.66665 37.4329C2.66666 58.0707 19.3969 74.8009 40.0346 74.8009Z" fill="#ECF5FB"/>
<path d="M18.1334 12.8728C18.2583 12.3312 18.5329 11.8356 18.9257 11.4426C19.3186 11.0496 19.814 10.775 20.3554 10.6501L24.8148 9.62096C24.8994 9.60551 24.9759 9.56086 25.031 9.49479C25.0861 9.42872 25.1163 9.34542 25.1163 9.25939C25.1163 9.17336 25.0861 9.09005 25.031 9.02398C24.9759 8.95791 24.8994 8.91327 24.8148 8.89782L20.3554 7.86963C19.8139 7.74454 19.3185 7.46988 18.9255 7.07691C18.5326 6.68394 18.2578 6.18848 18.1325 5.64693L17.1038 1.18775C17.0878 1.10365 17.043 1.02775 16.9771 0.973153C16.9112 0.918552 16.8284 0.888672 16.7428 0.888672C16.6572 0.888672 16.5743 0.918552 16.5084 0.973153C16.4425 1.02775 16.3977 1.10365 16.3818 1.18775L15.3512 5.64509C15.2263 6.18666 14.9518 6.68221 14.5589 7.07521C14.1661 7.46822 13.6707 7.74285 13.1293 7.86779L8.67352 8.89598C8.58891 8.91143 8.5124 8.95607 8.45732 9.02214C8.40224 9.08821 8.37207 9.17152 8.37207 9.25755C8.37207 9.34358 8.40224 9.42689 8.45732 9.49296C8.5124 9.55902 8.58891 9.60367 8.67352 9.61912L13.1311 10.6482C13.6723 10.7738 14.1674 11.0489 14.5599 11.4422C14.9524 11.8355 15.2266 12.3312 15.3512 12.8728L16.38 17.3338C16.3959 17.4179 16.4407 17.4938 16.5066 17.5484C16.5725 17.603 16.6554 17.6329 16.7409 17.6329C16.8265 17.6329 16.9094 17.603 16.9753 17.5484C17.0412 17.4938 17.086 17.4179 17.1019 17.3338L18.1334 12.8728Z" fill="#F7DD7B" stroke="#EDBF0E" stroke-width="0.888889" stroke-linecap="round" stroke-linejoin="round"/>
<mask id="mask0_5137_748" style="mask-type:alpha" maskUnits="userSpaceOnUse" x="2" y="0" width="76" height="75">
<path d="M39.7777 74.2222C60.5191 74.2222 77.3333 57.607 77.3333 37.1111C77.3332 16.6152 60.5191 0 39.7777 0C19.0364 0 2.22218 16.6152 2.22219 37.1111C2.2222 57.607 19.0364 74.2222 39.7777 74.2222Z" fill="#ECF5FB"/>
</mask>
<g mask="url(#mask0_5137_748)">
<path d="M34.8083 75.5328C34.8083 75.9207 34.2124 76.1006 33.8245 76.1006C33.6934 76.1159 33.5605 76.1039 33.4342 76.0651C33.308 76.0264 33.1912 75.9619 33.0912 75.8757C32.9912 75.7895 32.9102 75.6834 32.8533 75.5643C32.7964 75.4451 32.7649 75.3154 32.7607 75.1834C32.7607 74.2829 34.1251 74.338 34.1251 73.9772C34.1251 73.8295 34.0543 73.7536 33.8131 73.7536C33.4419 73.7536 33.3056 74.0209 32.9989 74.0209C32.91 74.013 32.8271 73.9733 32.7652 73.9091C32.7033 73.8449 32.6666 73.7605 32.662 73.6715C32.662 73.3169 33.316 73.0652 33.759 73.0652C33.8939 73.0476 34.031 73.0578 34.1618 73.0954C34.2926 73.133 34.4142 73.1971 34.5192 73.2837C34.6241 73.3703 34.7101 73.4776 34.7718 73.5989C34.8336 73.7201 34.8697 73.8528 34.8779 73.9886C34.8779 74.8829 33.5126 74.8288 33.5126 75.1949C33.5126 75.3467 33.6384 75.4133 33.7809 75.4133C34.0367 75.4133 34.3372 75.1834 34.4838 75.1834C34.5729 75.1875 34.6568 75.2264 34.7175 75.2917C34.7782 75.3571 34.8108 75.4437 34.8083 75.5328Z" fill="#B5D9F1"/>
<path d="M32.8616 66.9817C32.8602 66.9258 32.8705 66.8701 32.8919 66.8184C32.9133 66.7667 32.9453 66.7201 32.9859 66.6815C33.0265 66.643 33.0747 66.6134 33.1275 66.5947C33.1803 66.576 33.2364 66.5686 33.2922 66.573H34.2426C34.4939 66.5576 34.7455 66.596 34.9807 66.6857C35.2159 66.7754 35.4293 66.9143 35.6065 67.093C35.7837 67.2718 35.9207 67.4864 36.0083 67.7224C36.0958 67.9584 36.132 68.2104 36.1144 68.4615C36.1423 68.7241 36.1124 68.9897 36.0268 69.2395C35.9412 69.4894 35.8019 69.7175 35.6188 69.9078C35.4357 70.0982 35.2131 70.2462 34.9668 70.3414C34.7204 70.4366 34.4562 70.4768 34.1927 70.4591H33.2859C33.2307 70.4611 33.1757 70.4517 33.1244 70.4316C33.073 70.4114 33.0263 70.3808 32.9873 70.3418C32.9482 70.3027 32.9177 70.2561 32.8975 70.2047C32.8773 70.1533 32.8679 70.0983 32.87 70.0431L32.8616 66.9817ZM33.68 69.7062H34.175C34.9289 69.7062 35.2554 69.1977 35.2554 68.4989C35.2554 67.8448 34.9352 67.327 34.2301 67.327H33.68V69.7062Z" fill="#B5D9F1"/>
<path d="M33.6216 59.482C33.6198 59.4272 33.6294 59.3726 33.6498 59.3217C33.6701 59.2708 33.7008 59.2246 33.7399 59.1861C33.779 59.1476 33.8256 59.1176 33.8768 59.0981C33.9281 59.0785 33.9828 59.0697 34.0376 59.0723H35.4497C35.5003 59.0699 35.5509 59.0779 35.5983 59.0958C35.6457 59.1137 35.6889 59.1411 35.7253 59.1764C35.7617 59.2117 35.7904 59.2541 35.8097 59.3009C35.829 59.3478 35.8385 59.3981 35.8376 59.4488C35.8396 59.4998 35.8309 59.5506 35.812 59.598C35.793 59.6454 35.7643 59.6883 35.7278 59.7239C35.6912 59.7595 35.6475 59.787 35.5996 59.8046C35.5517 59.8223 35.5007 59.8296 35.4497 59.8262H34.44V60.6581H35.3353C35.3866 60.655 35.438 60.6624 35.4863 60.68C35.5346 60.6975 35.5788 60.7247 35.6161 60.76C35.6534 60.7953 35.6831 60.8379 35.7033 60.8851C35.7236 60.9323 35.7339 60.9832 35.7336 61.0346C35.7346 61.0862 35.7249 61.1374 35.7049 61.185C35.685 61.2326 35.6553 61.2755 35.6178 61.3109C35.5803 61.3464 35.5358 61.3736 35.4871 61.3908C35.4385 61.4081 35.3868 61.4149 35.3353 61.411H34.44V62.2076H35.4009C35.4515 62.205 35.5021 62.2129 35.5496 62.2307C35.5971 62.2486 35.6404 62.276 35.6768 62.3113C35.7131 62.3466 35.7419 62.3891 35.7611 62.436C35.7804 62.4829 35.7898 62.5333 35.7887 62.584C35.7908 62.6349 35.782 62.6858 35.7631 62.7331C35.7442 62.7805 35.7155 62.8233 35.6789 62.8588C35.6423 62.8943 35.5986 62.9217 35.5507 62.9392C35.5028 62.9568 35.4517 62.964 35.4009 62.9604H34.049C33.761 62.9604 33.6247 62.7587 33.6247 62.4852L33.6216 59.482Z" fill="#B5D9F1"/>
<path d="M36.2867 55.0138C36.2923 55.0688 36.2864 55.1243 36.2693 55.1769C36.2522 55.2295 36.2243 55.2779 36.1874 55.319C36.1505 55.3601 36.1053 55.3931 36.0549 55.4158C36.0045 55.4384 35.9499 55.4503 35.8946 55.4506C35.7995 55.4558 35.706 55.4248 35.6329 55.3638C35.5598 55.3028 35.5125 55.2164 35.5005 55.122C35.4196 55.237 35.3114 55.3302 35.1856 55.3931C35.0599 55.4561 34.9205 55.4869 34.7799 55.4828C34.5941 55.4685 34.4131 55.4175 34.2472 55.3327C34.0813 55.2479 33.9339 55.131 33.8136 54.9888C33.6932 54.8466 33.6023 54.6819 33.5462 54.5043C33.49 54.3267 33.4696 54.1397 33.4863 53.9542C33.4863 53.1732 33.8741 52.4484 34.6988 52.4484C34.8514 52.4378 35.0042 52.4662 35.1428 52.531C35.2815 52.5958 35.4013 52.6948 35.4911 52.8186H35.5005V52.6335C35.5036 52.5472 35.4882 52.4611 35.4553 52.3812C35.4223 52.3013 35.3727 52.2293 35.3096 52.1702C35.2466 52.1111 35.1716 52.0662 35.0897 52.0385C35.0078 52.0108 34.921 52.0009 34.835 52.0096C34.3816 52.0096 34.1071 52.254 33.8533 52.254C33.7708 52.2391 33.6955 52.1974 33.6391 52.1354C33.5826 52.0733 33.5483 51.9944 33.5414 51.9108C33.5414 51.4793 34.4575 51.3212 34.7799 51.3212C34.9763 51.2965 35.1758 51.3154 35.3641 51.3767C35.5524 51.4379 35.7249 51.54 35.8692 51.6756C36.0135 51.8111 36.1261 51.9769 36.199 52.161C36.2719 52.3451 36.3032 52.543 36.2908 52.7406L36.2867 55.0138ZM35.5005 53.9427C35.5005 53.5611 35.304 53.168 34.8839 53.168C34.4637 53.168 34.2724 53.5507 34.2724 53.9708C34.2724 54.3358 34.4804 54.7622 34.8839 54.7622C35.3164 54.7622 35.5005 54.3254 35.5005 53.9427Z" fill="#B5D9F1"/>
<path d="M33.7697 46.5782C33.7105 46.5606 33.6589 46.5237 33.6231 46.4734C33.5873 46.4231 33.5694 46.3622 33.5722 46.3005C33.5722 46.0707 33.698 45.9563 33.8342 45.9563C33.9296 45.9605 34.0229 45.9864 34.1067 46.0323L36.2634 47.0264C36.3238 47.0531 36.3752 47.0968 36.4113 47.1522C36.4473 47.2076 36.4666 47.2722 36.4666 47.3383C36.4666 47.4044 36.4473 47.4691 36.4113 47.5245C36.3752 47.5799 36.3238 47.6236 36.2634 47.6503L34.1067 48.6382C34.0238 48.6872 33.9303 48.7154 33.8342 48.7203C33.698 48.7203 33.5722 48.606 33.5722 48.3761C33.5695 48.3143 33.5875 48.2534 33.6232 48.203C33.659 48.1525 33.7106 48.1154 33.7697 48.0975L35.5854 47.3394L33.7697 46.5782Z" fill="#B5D9F1"/>
<path d="M34.6458 42.9564C34.6489 43.0095 34.6406 43.0625 34.6215 43.1121C34.6024 43.1616 34.5729 43.2065 34.5349 43.2437C34.497 43.2808 34.4515 43.3094 34.4015 43.3275C34.3516 43.3456 34.2984 43.3527 34.2454 43.3485H33.7016C33.6188 43.3485 33.5395 43.3156 33.481 43.2571C33.4225 43.1986 33.3896 43.1193 33.3896 43.0365C33.3896 42.9538 33.4225 42.8744 33.481 42.8159C33.5395 42.7574 33.6188 42.7245 33.7016 42.7245H33.9574V39.1765H33.7016C33.6188 39.1765 33.5395 39.1436 33.481 39.0851C33.4225 39.0266 33.3896 38.9473 33.3896 38.8645C33.3896 38.7818 33.4225 38.7024 33.481 38.6439C33.5395 38.5854 33.6188 38.5526 33.7016 38.5526H34.2454C34.2985 38.5483 34.3518 38.5555 34.4018 38.5736C34.4518 38.5917 34.4974 38.6204 34.5353 38.6577C34.5733 38.695 34.6028 38.74 34.6219 38.7897C34.6409 38.8393 34.6491 38.8925 34.6458 38.9456V42.9564Z" fill="#B5D9F1"/>
<path d="M33.7846 33.2417C33.7789 33.1867 33.7849 33.1311 33.8021 33.0786C33.8192 33.026 33.8473 32.9776 33.8843 32.9365C33.9214 32.8955 33.9666 32.8627 34.0172 32.8402C34.0677 32.8177 34.1224 32.8061 34.1777 32.8061C34.233 32.8061 34.2877 32.8177 34.3382 32.8402C34.3888 32.8627 34.434 32.8955 34.4711 32.9365C34.5081 32.9776 34.5361 33.026 34.5533 33.0786C34.5705 33.1311 34.5764 33.1867 34.5708 33.2417V35.0532H34.7943C34.8427 35.0468 34.8918 35.051 34.9383 35.0656C34.9849 35.0803 35.0276 35.1049 35.0636 35.1378C35.0996 35.1707 35.1279 35.2111 35.1466 35.2561C35.1653 35.3012 35.1739 35.3497 35.1718 35.3985C35.1718 35.6491 34.9971 35.7416 34.7943 35.7416H34.5708V36.2116C34.5764 36.2667 34.5705 36.3222 34.5533 36.3748C34.5361 36.4274 34.5081 36.4758 34.4711 36.5168C34.434 36.5579 34.3888 36.5907 34.3382 36.6132C34.2877 36.6357 34.233 36.6473 34.1777 36.6473C34.1224 36.6473 34.0677 36.6357 34.0172 36.6132C33.9666 36.5907 33.9214 36.5579 33.8843 36.5168C33.8473 36.4758 33.8192 36.4274 33.8021 36.3748C33.7849 36.3222 33.7789 36.2667 33.7846 36.2116V35.7416H33.6099C33.5645 35.7428 33.5194 35.7347 33.4773 35.7178C33.4351 35.701 33.3968 35.6757 33.3647 35.6436C33.3326 35.6115 33.3074 35.5733 33.2905 35.5311C33.2737 35.489 33.2656 35.4438 33.2668 35.3985C33.2627 35.3523 33.2687 35.3057 33.2845 35.2621C33.3002 35.2185 33.3253 35.1789 33.358 35.146C33.3907 35.1131 33.4302 35.0878 33.4737 35.0717C33.5172 35.0557 33.5637 35.0494 33.6099 35.0532H33.7846V33.2417Z" fill="#B5D9F1"/>
<path d="M33.7846 15.4861C33.7789 15.4311 33.7849 15.3755 33.8021 15.3229C33.8192 15.2703 33.8472 15.2219 33.8843 15.1809C33.9213 15.1398 33.9666 15.107 34.0171 15.0845C34.0677 15.062 34.1224 15.0504 34.1777 15.0504C34.233 15.0504 34.2877 15.062 34.3382 15.0845C34.3888 15.107 34.434 15.1398 34.4711 15.1809C34.5081 15.2219 34.5361 15.2703 34.5533 15.3229C34.5705 15.3755 34.5764 15.4311 34.5708 15.4861V17.2986H34.7943C34.8426 17.292 34.8917 17.2961 34.9383 17.3106C34.9848 17.325 35.0276 17.3496 35.0636 17.3824C35.0996 17.4152 35.1279 17.4556 35.1466 17.5006C35.1653 17.5455 35.1739 17.5941 35.1718 17.6428C35.1718 17.8944 34.9971 17.987 34.7943 17.987H34.5708V18.457C34.5764 18.512 34.5705 18.5676 34.5533 18.6202C34.5361 18.6728 34.5081 18.7211 34.4711 18.7622C34.434 18.8033 34.3888 18.8361 34.3382 18.8586C34.2877 18.881 34.233 18.8926 34.1777 18.8926C34.1224 18.8926 34.0677 18.881 34.0171 18.8586C33.9666 18.8361 33.9213 18.8033 33.8843 18.7622C33.8472 18.7211 33.8192 18.6728 33.8021 18.6202C33.7849 18.5676 33.7789 18.512 33.7846 18.457V17.9818H33.6099C33.5644 17.9829 33.5192 17.9748 33.477 17.9579C33.4348 17.941 33.3964 17.9157 33.3643 17.8834C33.3322 17.8512 33.307 17.8128 33.2902 17.7706C33.2735 17.7283 33.2655 17.683 33.2667 17.6376C33.2628 17.5915 33.269 17.5451 33.2848 17.5016C33.3007 17.4581 33.3258 17.4186 33.3585 17.3858C33.3911 17.3531 33.4305 17.3278 33.474 17.3119C33.5174 17.2959 33.5638 17.2896 33.6099 17.2934H33.7846V15.4861Z" fill="#B5D9F1"/>
<path d="M34.8325 27C35.2953 27.5844 36.1417 28.3362 36.1417 29.0964C36.1424 29.2523 36.1109 29.4067 36.0492 29.5498C35.9874 29.693 35.8969 29.8219 35.7831 29.9285C35.6693 30.0351 35.5347 30.1171 35.3878 30.1693C35.2409 30.2215 35.0847 30.2428 34.9292 30.2319C34.5966 30.2313 34.2772 30.1017 34.0382 29.8703C33.7993 29.6389 33.6594 29.3238 33.6481 28.9913C33.6452 28.9383 33.6536 28.8853 33.6726 28.8358C33.6916 28.7862 33.7209 28.7412 33.7584 28.7037C33.796 28.6662 33.8411 28.6371 33.8907 28.6182C33.9403 28.5993 33.9934 28.5911 34.0464 28.5941C34.5663 28.5941 34.2699 29.478 34.897 29.478C35.004 29.4739 35.1052 29.4281 35.1788 29.3504C35.2525 29.2726 35.2928 29.1691 35.2911 29.0621C35.2808 28.8775 35.2144 28.7004 35.1008 28.5546C34.6848 27.9536 34.194 27.4627 33.7396 26.922C33.6682 26.8461 33.6246 26.7482 33.6159 26.6443C33.6159 26.3927 33.8009 26.2835 34.0401 26.2835H35.8609C35.9112 26.2776 35.9621 26.2827 36.0102 26.2983C36.0583 26.3139 36.1025 26.3397 36.1397 26.374C36.1769 26.4083 36.2063 26.4501 36.2259 26.4968C36.2454 26.5435 36.2547 26.5938 36.253 26.6443C36.253 26.895 36.0679 27.0041 35.8287 27.0041L34.8325 27Z" fill="#B5D9F1"/>
<path d="M25.2552 72.4284C25.2534 72.3736 25.263 72.319 25.2833 72.2681C25.3037 72.2172 25.3344 72.171 25.3734 72.1325C25.4125 72.094 25.4591 72.064 25.5104 72.0445C25.5616 72.0249 25.6163 72.0161 25.6711 72.0187H27.0833C27.1339 72.0163 27.1845 72.0243 27.2319 72.0422C27.2793 72.0601 27.3225 72.0876 27.3588 72.1228C27.3952 72.1581 27.4239 72.2005 27.4432 72.2474C27.4626 72.2942 27.4721 72.3445 27.4712 72.3952C27.4732 72.4462 27.4644 72.497 27.4455 72.5444C27.4266 72.5918 27.3979 72.6347 27.3613 72.6703C27.3247 72.7059 27.2811 72.7334 27.2332 72.7511C27.1853 72.7687 27.1342 72.776 27.0833 72.7726H26.0736V73.6045H26.9689C27.0202 73.6014 27.0715 73.6088 27.1198 73.6264C27.1681 73.6439 27.2123 73.6711 27.2496 73.7064C27.287 73.7417 27.3167 73.7843 27.3369 73.8315C27.3571 73.8787 27.3674 73.9296 27.3672 73.981C27.3682 74.0326 27.3584 74.0838 27.3385 74.1314C27.3185 74.179 27.2888 74.2219 27.2513 74.2573C27.2138 74.2928 27.1693 74.32 27.1207 74.3372C27.0721 74.3545 27.0203 74.3613 26.9689 74.3574H26.0736V75.154H27.0344C27.0851 75.1514 27.1357 75.1593 27.1832 75.1771C27.2306 75.195 27.2739 75.2224 27.3103 75.2577C27.3467 75.2931 27.3754 75.3355 27.3947 75.3824C27.414 75.4293 27.4233 75.4797 27.4223 75.5304C27.4243 75.5814 27.4156 75.6322 27.3966 75.6795C27.3777 75.7269 27.349 75.7697 27.3124 75.8052C27.2758 75.8407 27.2321 75.8682 27.1842 75.8857C27.1363 75.9032 27.0853 75.9104 27.0344 75.9068H25.6826C25.3945 75.9068 25.2583 75.7051 25.2583 75.4316L25.2552 72.4284Z" fill="#B5D9F1"/>
<path d="M25.8152 59.5248C25.7559 59.5073 25.7043 59.4704 25.6685 59.4201C25.6327 59.3697 25.6148 59.3089 25.6176 59.2472C25.6176 59.0174 25.7434 58.903 25.8796 58.903C25.9751 58.9071 26.0683 58.9331 26.1521 58.9789L28.3088 59.973C28.3692 59.9998 28.4206 60.0435 28.4567 60.0988C28.4928 60.1542 28.512 60.2189 28.512 60.285C28.512 60.3511 28.4928 60.4158 28.4567 60.4711C28.4206 60.5265 28.3692 60.5702 28.3088 60.597L26.1521 61.5848C26.0692 61.6338 25.9757 61.662 25.8796 61.667C25.7434 61.667 25.6176 61.5526 25.6176 61.3228C25.6149 61.261 25.6329 61.2001 25.6687 61.1496C25.7044 61.0992 25.756 61.0621 25.8152 61.0441L27.6308 60.286L25.8152 59.5248Z" fill="#B5D9F1"/>
<path d="M27.9868 67.9879C27.9925 68.0429 27.9866 68.0985 27.9695 68.151C27.9524 68.2036 27.9245 68.252 27.8876 68.2931C27.8506 68.3343 27.8055 68.3672 27.7551 68.3899C27.7047 68.4125 27.6501 68.4244 27.5948 68.4247C27.4997 68.4299 27.4062 68.3989 27.3331 68.3379C27.26 68.277 27.2127 68.1905 27.2007 68.0961C27.1198 68.2111 27.0116 68.3043 26.8858 68.3673C26.7601 68.4302 26.6207 68.461 26.4801 68.4569C26.2943 68.4426 26.1133 68.3916 25.9474 68.3068C25.7815 68.2221 25.6341 68.1052 25.5138 67.963C25.3934 67.8208 25.3025 67.6561 25.2463 67.4785C25.1902 67.3008 25.1698 67.1138 25.1865 66.9283C25.1865 66.1473 25.5743 65.4225 26.399 65.4225C26.5516 65.4119 26.7044 65.4404 26.843 65.5051C26.9817 65.5699 27.1015 65.6689 27.1913 65.7927H27.2007V65.6076C27.2038 65.5213 27.1884 65.4352 27.1555 65.3553C27.1225 65.2754 27.0729 65.2035 27.0098 65.1444C26.9468 65.0852 26.8718 65.0403 26.7899 65.0126C26.708 64.9849 26.6212 64.9751 26.5352 64.9837C26.0818 64.9837 25.8073 65.2281 25.5535 65.2281C25.471 65.2133 25.3957 65.1716 25.3392 65.1095C25.2828 65.0475 25.2485 64.9685 25.2416 64.8849C25.2416 64.4534 26.1577 64.2953 26.4801 64.2953C26.6765 64.2706 26.876 64.2895 27.0643 64.3508C27.2526 64.412 27.4251 64.5141 27.5694 64.6497C27.7137 64.7853 27.8263 64.951 27.8992 65.1351C27.9721 65.3192 28.0034 65.5171 27.991 65.7148L27.9868 67.9879ZM27.2007 66.9169C27.2007 66.5352 27.0042 66.1421 26.5841 66.1421C26.1639 66.1421 25.9726 66.5248 25.9726 66.9449C25.9726 67.3099 26.1806 67.7363 26.5841 67.7363C27.0166 67.7363 27.2007 67.2995 27.2007 66.9169Z" fill="#B5D9F1"/>
<path d="M26.9485 55.9305C26.9516 55.9835 26.9434 56.0366 26.9243 56.0862C26.9051 56.1357 26.8756 56.1806 26.8377 56.2177C26.7997 56.2549 26.7542 56.2835 26.7043 56.3016C26.6543 56.3196 26.6011 56.3268 26.5482 56.3225H26.0043C25.9216 56.3225 25.8422 56.2897 25.7837 56.2312C25.7252 56.1727 25.6923 56.0933 25.6923 56.0106C25.6923 55.9278 25.7252 55.8485 25.7837 55.79C25.8422 55.7315 25.9216 55.6986 26.0043 55.6986H26.2601V52.1506H26.0043C25.9216 52.1506 25.8422 52.1177 25.7837 52.0592C25.7252 52.0007 25.6923 51.9213 25.6923 51.8386C25.6923 51.7558 25.7252 51.6765 25.7837 51.618C25.8422 51.5595 25.9216 51.5266 26.0043 51.5266H26.5482C26.6012 51.5223 26.6545 51.5295 26.7045 51.5477C26.7546 51.5658 26.8001 51.5945 26.8381 51.6318C26.876 51.669 26.9055 51.714 26.9246 51.7637C26.9437 51.8134 26.9518 51.8666 26.9485 51.9197V55.9305Z" fill="#B5D9F1"/>
<path d="M26.6061 46.2161C26.6005 46.161 26.6064 46.1054 26.6236 46.0529C26.6408 46.0003 26.6688 45.9519 26.7058 45.9108C26.7429 45.8698 26.7881 45.837 26.8387 45.8145C26.8892 45.792 26.9439 45.7804 26.9992 45.7804C27.0545 45.7804 27.1092 45.792 27.1598 45.8145C27.2103 45.837 27.2556 45.8698 27.2926 45.9108C27.3297 45.9519 27.3577 46.0003 27.3748 46.0529C27.392 46.1054 27.398 46.161 27.3923 46.2161V48.0275H27.6159C27.6642 48.0211 27.7134 48.0253 27.7599 48.0399C27.8064 48.0546 27.8492 48.0792 27.8851 48.1121C27.9211 48.145 27.9494 48.1854 27.9681 48.2304C27.9868 48.2755 27.9954 48.324 27.9933 48.3728C27.9933 48.6234 27.8186 48.7159 27.6159 48.7159H27.3923V49.1859C27.398 49.241 27.392 49.2965 27.3748 49.3491C27.3577 49.4017 27.3297 49.4501 27.2926 49.4911C27.2556 49.5322 27.2103 49.565 27.1598 49.5875C27.1092 49.61 27.0545 49.6216 26.9992 49.6216C26.9439 49.6216 26.8892 49.61 26.8387 49.5875C26.7881 49.565 26.7429 49.5322 26.7058 49.4911C26.6688 49.4501 26.6408 49.4017 26.6236 49.3491C26.6064 49.2965 26.6005 49.241 26.6061 49.1859V48.7159H26.4314C26.3861 48.7171 26.3409 48.709 26.2988 48.6921C26.2566 48.6753 26.2184 48.65 26.1863 48.6179C26.1542 48.5859 26.1289 48.5476 26.1121 48.5054C26.0952 48.4633 26.0871 48.4181 26.0883 48.3728C26.0842 48.3266 26.0902 48.28 26.106 48.2364C26.1218 48.1928 26.1469 48.1532 26.1796 48.1203C26.2123 48.0874 26.2517 48.0621 26.2952 48.0461C26.3388 48.03 26.3852 48.0237 26.4314 48.0275H26.6061V46.2161Z" fill="#B5D9F1"/>
<path d="M26.6061 28.4612C26.6005 28.4061 26.6064 28.3506 26.6236 28.298C26.6408 28.2454 26.6688 28.197 26.7058 28.156C26.7429 28.1149 26.7881 28.0821 26.8387 28.0596C26.8892 28.0371 26.9439 28.0255 26.9992 28.0255C27.0545 28.0255 27.1092 28.0371 27.1597 28.0596C27.2103 28.0821 27.2555 28.1149 27.2926 28.156C27.3296 28.197 27.3577 28.2454 27.3748 28.298C27.392 28.3506 27.398 28.4061 27.3923 28.4612V30.2737H27.6159C27.6641 30.2671 27.7133 30.2712 27.7598 30.2857C27.8063 30.3001 27.8491 30.3247 27.8851 30.3575C27.9211 30.3903 27.9495 30.4307 27.9682 30.4756C27.9869 30.5206 27.9955 30.5692 27.9933 30.6179C27.9933 30.8695 27.8186 30.9621 27.6159 30.9621H27.3923V31.4321C27.398 31.4871 27.392 31.5427 27.3748 31.5953C27.3577 31.6479 27.3296 31.6962 27.2926 31.7373C27.2555 31.7784 27.2103 31.8112 27.1597 31.8337C27.1092 31.8561 27.0545 31.8677 26.9992 31.8677C26.9439 31.8677 26.8892 31.8561 26.8387 31.8337C26.7881 31.8112 26.7429 31.7784 26.7058 31.7373C26.6688 31.6962 26.6408 31.6479 26.6236 31.5953C26.6064 31.5427 26.6005 31.4871 26.6061 31.4321V30.9569H26.4314C26.386 30.958 26.3408 30.9499 26.2985 30.933C26.2563 30.9161 26.218 30.8908 26.1859 30.8585C26.1538 30.8263 26.1285 30.7879 26.1118 30.7457C26.095 30.7034 26.087 30.6581 26.0883 30.6127C26.0843 30.5666 26.0905 30.5202 26.1063 30.4767C26.1222 30.4332 26.1473 30.3937 26.18 30.3609C26.2127 30.3282 26.2521 30.3029 26.2955 30.287C26.3389 30.271 26.3853 30.2647 26.4314 30.2685H26.6061V28.4612Z" fill="#B5D9F1"/>
<path d="M26.573 39.9457C27.0357 40.5301 27.8822 41.282 27.8822 42.0421C27.8829 42.198 27.8513 42.3524 27.7896 42.4956C27.7279 42.6388 27.6373 42.7677 27.5235 42.8743C27.4097 42.9808 27.2752 43.0628 27.1283 43.115C26.9813 43.1672 26.8252 43.1885 26.6697 43.1777C26.3371 43.177 26.0176 43.0474 25.7787 42.816C25.5397 42.5846 25.3999 42.2695 25.3886 41.9371C25.3857 41.8841 25.3941 41.8311 25.4131 41.7815C25.4321 41.7319 25.4613 41.6869 25.4989 41.6495C25.5365 41.612 25.5816 41.5828 25.6312 41.564C25.6808 41.5451 25.7338 41.5369 25.7868 41.5399C26.3068 41.5399 26.0104 42.4238 26.6375 42.4238C26.7445 42.4197 26.8457 42.3739 26.9193 42.2961C26.993 42.2184 27.0333 42.1149 27.0316 42.0078C27.0213 41.8232 26.9549 41.6462 26.8413 41.5003C26.4253 40.8993 25.9345 40.4085 25.4801 39.8677C25.4087 39.7918 25.3651 39.6939 25.3563 39.5901C25.3563 39.3384 25.5414 39.2292 25.7806 39.2292H27.6014C27.6517 39.2234 27.7026 39.2284 27.7507 39.2441C27.7988 39.2597 27.843 39.2855 27.8802 39.3197C27.9174 39.354 27.9468 39.3959 27.9664 39.4425C27.9859 39.4892 27.9951 39.5395 27.9935 39.5901C27.9935 39.8407 27.8084 39.9499 27.5692 39.9499L26.573 39.9457Z" fill="#B5D9F1"/>
<path d="M62.7937 67.3091C62.7345 67.2916 62.6829 67.2547 62.647 67.2044C62.6112 67.154 62.5933 67.0932 62.5961 67.0315C62.5961 66.8017 62.7219 66.6873 62.8581 66.6873C62.9536 66.6914 63.0468 66.7174 63.1306 66.7632L65.2873 67.7573C65.3477 67.7841 65.3991 67.8278 65.4352 67.8831C65.4713 67.9385 65.4905 68.0032 65.4905 68.0693C65.4905 68.1354 65.4713 68.2001 65.4352 68.2554C65.3991 68.3108 65.3477 68.3545 65.2873 68.3813L63.1306 69.3691C63.0477 69.4181 62.9543 69.4463 62.8581 69.4513C62.7219 69.4513 62.5961 69.3369 62.5961 69.1071C62.5934 69.0453 62.6114 68.9844 62.6472 68.9339C62.6829 68.8835 62.7345 68.8464 62.7937 68.8284L64.6093 68.0703L62.7937 67.3091Z" fill="#B5D9F1"/>
<path d="M64.9654 75.773C64.971 75.8279 64.9651 75.8835 64.948 75.9361C64.9309 75.9886 64.903 76.037 64.8661 76.0782C64.8292 76.1193 64.784 76.1523 64.7336 76.1749C64.6832 76.1976 64.6286 76.2094 64.5733 76.2097C64.4783 76.2149 64.3847 76.1839 64.3116 76.123C64.2385 76.062 64.1912 75.9756 64.1792 75.8811C64.0983 75.9961 63.9901 76.0893 63.8643 76.1523C63.7386 76.2153 63.5992 76.2461 63.4586 76.2419C63.2728 76.2277 63.0918 76.1767 62.9259 76.0919C62.76 76.0071 62.6126 75.8902 62.4923 75.748C62.372 75.6058 62.2811 75.4411 62.2249 75.2635C62.1687 75.0859 62.1483 74.8989 62.165 74.7133C62.165 73.9324 62.5528 73.2076 63.3775 73.2076C63.5301 73.197 63.6829 73.2254 63.8216 73.2902C63.9602 73.3549 64.08 73.4539 64.1699 73.5778H64.1792V73.3927C64.1823 73.3063 64.1669 73.2203 64.134 73.1404C64.101 73.0604 64.0514 72.9885 63.9883 72.9294C63.9253 72.8703 63.8503 72.8254 63.7684 72.7976C63.6865 72.7699 63.5997 72.7601 63.5137 72.7688C63.0603 72.7688 62.7858 73.0131 62.532 73.0131C62.4495 72.9983 62.3742 72.9566 62.3178 72.8946C62.2613 72.8325 62.227 72.7535 62.2201 72.67C62.2201 72.2384 63.1362 72.0804 63.4586 72.0804C63.655 72.0556 63.8545 72.0746 64.0428 72.1358C64.2311 72.1971 64.4036 72.2991 64.5479 72.4347C64.6922 72.5703 64.8048 72.736 64.8777 72.9201C64.9506 73.1042 64.9819 73.3022 64.9695 73.4998L64.9654 75.773ZM64.1792 74.7019C64.1792 74.3203 63.9827 73.9272 63.5626 73.9272C63.1425 73.9272 62.9511 74.3099 62.9511 74.73C62.9511 75.095 63.1591 75.5213 63.5626 75.5213C63.9952 75.5213 64.1792 75.0846 64.1792 74.7019Z" fill="#B5D9F1"/>
<path d="M63.9307 63.7163C63.9338 63.7693 63.9256 63.8224 63.9064 63.8719C63.8873 63.9215 63.8578 63.9663 63.8198 64.0035C63.7819 64.0407 63.7364 64.0693 63.6865 64.0873C63.6365 64.1054 63.5833 64.1126 63.5303 64.1083H62.9865C62.9037 64.1083 62.8244 64.0754 62.7659 64.0169C62.7074 63.9584 62.6745 63.8791 62.6745 63.7963C62.6745 63.7136 62.7074 63.6343 62.7659 63.5757C62.8244 63.5172 62.9037 63.4844 62.9865 63.4844H63.2423V59.9363H62.9865C62.9037 59.9363 62.8244 59.9034 62.7659 59.8449C62.7074 59.7864 62.6745 59.7071 62.6745 59.6244C62.6745 59.5416 62.7074 59.4623 62.7659 59.4038C62.8244 59.3453 62.9037 59.3124 62.9865 59.3124H63.5303C63.5834 59.3081 63.6367 59.3153 63.6867 59.3334C63.7367 59.3516 63.7823 59.3802 63.8202 59.4175C63.8582 59.4548 63.8877 59.4998 63.9068 59.5495C63.9258 59.5992 63.934 59.6524 63.9307 59.7055V63.7163Z" fill="#B5D9F1"/>
<path d="M63.5847 54.001C63.579 53.9459 63.5849 53.8904 63.6021 53.8378C63.6193 53.7852 63.6473 53.7368 63.6844 53.6958C63.7214 53.6547 63.7667 53.6219 63.8172 53.5994C63.8677 53.5769 63.9224 53.5653 63.9777 53.5653C64.033 53.5653 64.0877 53.5769 64.1383 53.5994C64.1888 53.6219 64.2341 53.6547 64.2711 53.6958C64.3082 53.7368 64.3362 53.7852 64.3534 53.8378C64.3705 53.8904 64.3765 53.9459 64.3708 54.001V55.8124H64.5944C64.6427 55.806 64.6919 55.8102 64.7384 55.8249C64.7849 55.8395 64.8277 55.8641 64.8636 55.897C64.8996 55.9299 64.928 55.9703 64.9467 56.0153C64.9654 56.0604 64.974 56.109 64.9719 56.1577C64.9719 56.4083 64.7972 56.5008 64.5944 56.5008H64.3708V56.9709C64.3765 57.0259 64.3705 57.0815 64.3534 57.134C64.3362 57.1866 64.3082 57.235 64.2711 57.2761C64.2341 57.3171 64.1888 57.3499 64.1383 57.3724C64.0877 57.3949 64.033 57.4065 63.9777 57.4065C63.9224 57.4065 63.8677 57.3949 63.8172 57.3724C63.7667 57.3499 63.7214 57.3171 63.6844 57.2761C63.6473 57.235 63.6193 57.1866 63.6021 57.134C63.5849 57.0815 63.579 57.0259 63.5847 56.9709V56.5008H63.41C63.3646 56.502 63.3195 56.4939 63.2773 56.477C63.2352 56.4602 63.1969 56.435 63.1648 56.4029C63.1327 56.3708 63.1074 56.3325 63.0906 56.2903C63.0738 56.2482 63.0657 56.203 63.0668 56.1577C63.0627 56.1115 63.0688 56.065 63.0845 56.0214C63.1003 55.9777 63.1254 55.9381 63.1581 55.9052C63.1908 55.8723 63.2302 55.847 63.2738 55.831C63.3173 55.8149 63.3638 55.8086 63.41 55.8124H63.5847V54.001Z" fill="#B5D9F1"/>
<path d="M63.5847 36.2461C63.579 36.1911 63.5849 36.1355 63.6021 36.0829C63.6193 36.0303 63.6473 35.9819 63.6843 35.9409C63.7214 35.8998 63.7667 35.867 63.8172 35.8445C63.8677 35.822 63.9224 35.8104 63.9777 35.8104C64.033 35.8104 64.0877 35.822 64.1383 35.8445C64.1888 35.867 64.2341 35.8998 64.2711 35.9409C64.3082 35.9819 64.3362 36.0303 64.3534 36.0829C64.3705 36.1355 64.3765 36.1911 64.3708 36.2461V38.0586H64.5944C64.6427 38.052 64.6918 38.0561 64.7383 38.0706C64.7848 38.085 64.8276 38.1096 64.8636 38.1424C64.8996 38.1752 64.928 38.2156 64.9467 38.2606C64.9654 38.3056 64.974 38.3541 64.9719 38.4028C64.9719 38.6544 64.7972 38.747 64.5944 38.747H64.3708V39.217C64.3765 39.272 64.3705 39.3276 64.3534 39.3802C64.3362 39.4328 64.3082 39.4811 64.2711 39.5222C64.2341 39.5633 64.1888 39.5961 64.1383 39.6186C64.0877 39.641 64.033 39.6526 63.9777 39.6526C63.9224 39.6526 63.8677 39.641 63.8172 39.6186C63.7667 39.5961 63.7214 39.5633 63.6843 39.5222C63.6473 39.4811 63.6193 39.4328 63.6021 39.3802C63.5849 39.3276 63.579 39.272 63.5847 39.217V38.7418H63.41C63.3645 38.7429 63.3193 38.7348 63.277 38.7179C63.2348 38.701 63.1965 38.6757 63.1644 38.6435C63.1323 38.6113 63.1071 38.5728 63.0903 38.5306C63.0735 38.4883 63.0655 38.443 63.0668 38.3976C63.0629 38.3515 63.069 38.3051 63.0849 38.2616C63.1007 38.2181 63.1258 38.1786 63.1585 38.1459C63.1912 38.1131 63.2306 38.0878 63.274 38.0719C63.3175 38.0559 63.3638 38.0496 63.41 38.0534H63.5847V36.2461Z" fill="#B5D9F1"/>
<path d="M63.5515 47.7315C64.0142 48.3159 64.8607 49.0677 64.8607 49.8279C64.8614 49.9838 64.8299 50.1382 64.7682 50.2814C64.7064 50.4245 64.6159 50.5534 64.502 50.66C64.3882 50.7666 64.2537 50.8486 64.1068 50.9008C63.9599 50.953 63.8037 50.9743 63.6482 50.9634C63.3156 50.9628 62.9962 50.8332 62.7572 50.6018C62.5182 50.3704 62.3784 50.0553 62.3671 49.7229C62.3642 49.6698 62.3726 49.6168 62.3916 49.5673C62.4106 49.5177 62.4399 49.4727 62.4774 49.4352C62.515 49.3977 62.5601 49.3686 62.6097 49.3497C62.6593 49.3308 62.7124 49.3226 62.7654 49.3256C63.2853 49.3256 62.9889 50.2095 63.616 50.2095C63.723 50.2055 63.8242 50.1596 63.8978 50.0819C63.9715 50.0042 64.0118 49.9007 64.0101 49.7936C63.9998 49.609 63.9334 49.4319 63.8198 49.2861C63.4038 48.6851 62.913 48.1942 62.4586 47.6535C62.3872 47.5776 62.3436 47.4797 62.3348 47.3758C62.3348 47.1242 62.5199 47.015 62.7591 47.015H64.5799C64.6302 47.0091 64.6811 47.0142 64.7292 47.0298C64.7773 47.0454 64.8215 47.0713 64.8587 47.1055C64.8959 47.1398 64.9253 47.1817 64.9449 47.2283C64.9644 47.275 64.9737 47.3253 64.972 47.3758C64.972 47.6265 64.7869 47.7356 64.5477 47.7356L63.5515 47.7315Z" fill="#B5D9F1"/>
<path d="M12.5966 37.8873V37.4225C12.5966 37.1334 12.7099 36.9972 12.9896 36.9972C13.2694 36.9972 13.3806 37.1366 13.3806 37.4256V37.8873H13.4742C13.5238 37.8836 13.5736 37.8901 13.6205 37.9064C13.6674 37.9228 13.7104 37.9487 13.7469 37.9825C13.7833 38.0163 13.8124 38.0572 13.8323 38.1028C13.8522 38.1483 13.8624 38.1974 13.8624 38.2471C13.8624 38.2968 13.8522 38.346 13.8323 38.3915C13.8124 38.4371 13.7833 38.478 13.7469 38.5118C13.7104 38.5456 13.6674 38.5715 13.6205 38.5878C13.5736 38.6042 13.5238 38.6107 13.4742 38.6069H13.3806V40.2853C13.3923 40.3735 13.3848 40.4631 13.3587 40.5482C13.3325 40.6332 13.2883 40.7116 13.2291 40.7779C13.1698 40.8443 13.0969 40.897 13.0154 40.9326C12.9339 40.9682 12.8456 40.9858 12.7567 40.9841C12.6431 40.996 12.5286 40.9724 12.4289 40.9166C12.3293 40.8607 12.2494 40.7753 12.2004 40.6721L10.9775 38.4551C10.9276 38.3849 10.9007 38.301 10.9005 38.2149C10.9032 38.1683 10.9153 38.1227 10.9363 38.0809C10.9572 38.0392 10.9864 38.0021 11.0221 37.972C11.0578 37.9419 11.0993 37.9195 11.144 37.906C11.1888 37.8925 11.2357 37.8883 11.2822 37.8936L12.5966 37.8873ZM12.5966 38.6069H11.8489L12.5862 40.1304H12.5966V38.6069Z" fill="#B5D9F1"/>
<path d="M11.0357 30.6518C11.0339 30.597 11.0435 30.5424 11.0638 30.4914C11.0842 30.4405 11.1149 30.3943 11.154 30.3558C11.193 30.3174 11.2397 30.2874 11.2909 30.2678C11.3421 30.2482 11.3969 30.2394 11.4516 30.2421H12.8638C12.9144 30.2396 12.965 30.2476 13.0124 30.2655C13.0598 30.2834 13.103 30.3109 13.1394 30.3462C13.1757 30.3815 13.2044 30.4238 13.2238 30.4707C13.2431 30.5175 13.2526 30.5678 13.2517 30.6185C13.2537 30.6695 13.2449 30.7204 13.226 30.7678C13.2071 30.8152 13.1784 30.8581 13.1418 30.8937C13.1053 30.9292 13.0616 30.9568 13.0137 30.9744C12.9658 30.992 12.9147 30.9994 12.8638 30.996H11.8541L11.8541 31.8279H12.7494C12.8007 31.8247 12.8521 31.8322 12.9003 31.8497C12.9486 31.8672 12.9928 31.8945 13.0302 31.9298C13.0675 31.965 13.0972 32.0076 13.1174 32.0548C13.1376 32.1021 13.1479 32.1529 13.1477 32.2043C13.1487 32.2559 13.1389 32.3071 13.119 32.3547C13.099 32.4023 13.0693 32.4452 13.0318 32.4807C12.9943 32.5161 12.9498 32.5433 12.9012 32.5606C12.8526 32.5778 12.8009 32.5847 12.7494 32.5807H11.8541V33.3773H12.8149C12.8656 33.3747 12.9162 33.3826 12.9637 33.4004C13.0111 33.4183 13.0544 33.4457 13.0908 33.4811C13.1272 33.5164 13.1559 33.5588 13.1752 33.6057C13.1945 33.6526 13.2039 33.703 13.2028 33.7537C13.2048 33.8047 13.1961 33.8555 13.1771 33.9029C13.1582 33.9502 13.1295 33.993 13.0929 34.0286C13.0563 34.0641 13.0126 34.0915 12.9647 34.109C12.9168 34.1265 12.8658 34.1337 12.8149 34.1302H11.4631C11.175 34.1302 11.0388 33.9284 11.0388 33.6549L11.0357 30.6518Z" fill="#B5D9F1"/>
<path d="M11.0869 74.6019C11.0277 74.5843 10.9761 74.5475 10.9403 74.4971C10.9045 74.4468 10.8865 74.386 10.8893 74.3243C10.8893 74.0945 11.0152 73.9801 11.1514 73.9801C11.2468 73.9842 11.34 74.0102 11.4238 74.056L13.5805 75.0512C13.6414 75.0775 13.6931 75.1211 13.7295 75.1765C13.7659 75.232 13.7853 75.2968 13.7853 75.3631C13.7853 75.4294 13.7659 75.4943 13.7295 75.5497C13.6931 75.6051 13.6414 75.6487 13.5805 75.6751L11.4238 76.663C11.341 76.7121 11.2475 76.7403 11.1514 76.7451C11.0152 76.7451 10.8893 76.6307 10.8893 76.4009C10.8867 76.3391 10.9046 76.2782 10.9404 76.2278C10.9762 76.1773 11.0277 76.1402 11.0869 76.1222L12.9025 75.3642L11.0869 74.6019Z" fill="#B5D9F1"/>
<path d="M11.9754 70.9801C11.9786 71.0331 11.9703 71.0862 11.9512 71.1357C11.9321 71.1853 11.9025 71.2301 11.8646 71.2673C11.8266 71.3045 11.7811 71.333 11.7312 71.3511C11.6813 71.3692 11.628 71.3764 11.5751 71.3721H11.0312C10.9485 71.3721 10.8691 71.3392 10.8106 71.2807C10.7521 71.2222 10.7193 71.1429 10.7193 71.0601C10.7193 70.9774 10.7521 70.898 10.8106 70.8395C10.8691 70.781 10.9485 70.7482 11.0312 70.7482H11.287L11.287 67.2001H11.0312C10.9485 67.2001 10.8691 67.1672 10.8106 67.1087C10.7521 67.0502 10.7193 66.9709 10.7193 66.8881C10.7193 66.8054 10.7521 66.7261 10.8106 66.6676C10.8691 66.609 10.9485 66.5762 11.0312 66.5762H11.5751C11.628 66.5719 11.6813 66.5791 11.7312 66.5972C11.7811 66.6152 11.8266 66.6438 11.8646 66.681C11.9025 66.7181 11.9321 66.763 11.9512 66.8126C11.9703 66.8621 11.9786 66.9152 11.9754 66.9682L11.9754 70.9801Z" fill="#B5D9F1"/>
<path d="M11.1108 61.266C11.1051 61.211 11.1111 61.1554 11.1282 61.1028C11.1454 61.0502 11.1734 61.0018 11.2105 60.9608C11.2475 60.9197 11.2928 60.8869 11.3433 60.8644C11.3939 60.8419 11.4485 60.8303 11.5039 60.8303C11.5592 60.8303 11.6139 60.8419 11.6644 60.8644C11.7149 60.8869 11.7602 60.9197 11.7972 60.9608C11.8343 61.0018 11.8623 61.0502 11.8795 61.1028C11.8966 61.1554 11.9026 61.211 11.8969 61.266L11.8969 63.0774H12.1205C12.1688 63.0708 12.2179 63.0749 12.2644 63.0894C12.311 63.1039 12.3537 63.1284 12.3897 63.1613C12.4257 63.1941 12.4541 63.2344 12.4728 63.2794C12.4915 63.3244 12.5001 63.373 12.498 63.4216C12.498 63.6733 12.3233 63.7658 12.1205 63.7658H11.8959V64.2359C11.9016 64.2909 11.8956 64.3465 11.8784 64.3991C11.8613 64.4516 11.8332 64.5 11.7962 64.5411C11.7591 64.5821 11.7139 64.615 11.6633 64.6374C11.6128 64.6599 11.5581 64.6715 11.5028 64.6715C11.4475 64.6715 11.3928 64.6599 11.3423 64.6374C11.2917 64.615 11.2465 64.5821 11.2094 64.5411C11.1724 64.5 11.1444 64.4516 11.1272 64.3991C11.11 64.3465 11.1041 64.2909 11.1097 64.2359V63.7658H10.935C10.8896 63.7668 10.8445 63.7586 10.8023 63.7417C10.7601 63.7247 10.7219 63.6994 10.6898 63.6672C10.6577 63.635 10.6325 63.5967 10.6157 63.5545C10.5988 63.5122 10.5907 63.4671 10.5919 63.4216C10.5879 63.3755 10.5941 63.3291 10.6099 63.2857C10.6258 63.2422 10.6509 63.2027 10.6836 63.1699C10.7163 63.1371 10.7557 63.1119 10.7991 63.0959C10.8425 63.08 10.8889 63.0736 10.935 63.0774H11.1097L11.1108 61.266Z" fill="#B5D9F1"/>
<path d="M12.1592 55.0243C12.622 55.6087 13.4695 56.3605 13.4695 57.1207C13.47 57.2765 13.4384 57.4309 13.3766 57.574C13.3148 57.7171 13.2242 57.8459 13.1105 57.9525C12.9967 58.059 12.8622 58.141 12.7154 58.1932C12.5685 58.2455 12.4125 58.2669 12.257 58.2562C11.9242 58.2559 11.6045 58.1263 11.3653 57.8949C11.1261 57.6635 10.9861 57.3483 10.9748 57.0157C10.9718 56.9626 10.98 56.9094 10.999 56.8597C11.0179 56.8101 11.0471 56.7649 11.0847 56.7273C11.1224 56.6897 11.1675 56.6605 11.2172 56.6415C11.2668 56.6226 11.32 56.6144 11.3731 56.6174C11.893 56.6174 11.5966 57.5023 12.2237 57.5023C12.3307 57.4982 12.4319 57.4524 12.5056 57.3747C12.5792 57.297 12.6195 57.1935 12.6178 57.0864C12.6078 56.9014 12.5414 56.7239 12.4275 56.5779C12.0116 55.9779 11.5218 55.487 11.0663 54.9463C10.9949 54.8704 10.9513 54.7725 10.9426 54.6686C10.9426 54.417 11.1277 54.3078 11.3668 54.3078H13.1908C13.241 54.3019 13.2919 54.307 13.3401 54.3226C13.3882 54.3382 13.4323 54.3641 13.4696 54.3983C13.5068 54.4326 13.5362 54.4745 13.5557 54.5211C13.5753 54.5678 13.5845 54.6181 13.5828 54.6686C13.5828 54.9193 13.3977 55.0284 13.1585 55.0284L12.1592 55.0243Z" fill="#B5D9F1"/>
<path d="M11.627 46.1066C11.6213 46.0516 11.6273 45.996 11.6445 45.9434C11.6616 45.8909 11.6896 45.8425 11.7267 45.8014C11.7637 45.7604 11.809 45.7275 11.8595 45.7051C11.9101 45.6826 11.9648 45.671 12.0201 45.671C12.0754 45.671 12.1301 45.6826 12.1806 45.7051C12.2311 45.7275 12.2764 45.7604 12.3135 45.8014C12.3505 45.8425 12.3785 45.8909 12.3957 45.9434C12.4129 45.996 12.4188 46.0516 12.4132 46.1066L12.4132 47.9191H12.6388C12.6871 47.9125 12.7362 47.9166 12.7827 47.9311C12.8293 47.9456 12.872 47.9701 12.908 48.0029C12.9441 48.0358 12.9724 48.0761 12.9911 48.1211C13.0098 48.1661 13.0184 48.2146 13.0163 48.2633C13.0163 48.515 12.8416 48.6075 12.6388 48.6075H12.4152V49.0775C12.4209 49.1326 12.415 49.1882 12.3978 49.2407C12.3806 49.2933 12.3526 49.3417 12.3155 49.3827C12.2785 49.4238 12.2332 49.4566 12.1827 49.4791C12.1322 49.5016 12.0775 49.5132 12.0222 49.5132C11.9669 49.5132 11.9122 49.5016 11.8616 49.4791C11.8111 49.4566 11.7658 49.4238 11.7288 49.3827C11.6917 49.3417 11.6637 49.2933 11.6465 49.2407C11.6294 49.1882 11.6234 49.1326 11.6291 49.0775V48.6023H11.4544C11.409 48.6033 11.3638 48.5951 11.3217 48.5781C11.2795 48.5612 11.2412 48.5358 11.2091 48.5037C11.1771 48.4715 11.1518 48.4331 11.135 48.3909C11.1182 48.3487 11.1101 48.3035 11.1112 48.2581C11.1073 48.212 11.1135 48.1656 11.1293 48.1221C11.1451 48.0787 11.1703 48.0392 11.2029 48.0064C11.2356 47.9736 11.275 47.9484 11.3185 47.9324C11.3619 47.9164 11.4083 47.9101 11.4544 47.9139H11.6291L11.627 46.1066Z" fill="#B5D9F1"/>
<path d="M49.1891 70.6513C50.2893 70.6513 50.6345 71.7692 50.6345 72.6604C50.6345 73.5516 50.2893 74.6694 49.1891 74.6694C48.0889 74.6694 47.7405 73.5495 47.7405 72.6604C47.7405 71.7713 48.0858 70.6513 49.1891 70.6513ZM49.1891 71.3928C48.6307 71.3928 48.5943 72.2725 48.5943 72.6604C48.5943 73.0763 48.6307 73.9259 49.1891 73.9259C49.7475 73.9259 49.7818 73.0743 49.7818 72.6604C49.7849 72.2725 49.7454 71.3928 49.1891 71.3928Z" fill="#B5D9F1"/>
<path d="M49.1891 64.0923C50.2893 64.0923 50.6345 65.2112 50.6345 66.1003C50.6345 66.9894 50.2893 68.1094 49.1891 68.1094C48.0889 68.1094 47.7405 66.9915 47.7405 66.1003C47.7405 65.2092 48.0858 64.0923 49.1891 64.0923ZM49.1891 64.8358C48.6307 64.8358 48.5943 65.7135 48.5943 66.1003C48.5943 66.5163 48.6307 67.3679 49.1891 67.3679C49.7475 67.3679 49.7818 66.5163 49.7818 66.1003C49.7849 65.7135 49.7454 64.8358 49.1891 64.8358Z" fill="#B5D9F1"/>
<path d="M48.4468 57.9934C48.444 57.9379 48.4525 57.8825 48.4719 57.8304C48.4912 57.7783 48.5208 57.7307 48.5591 57.6904C48.5974 57.6502 48.6434 57.6181 48.6945 57.5962C48.7455 57.5743 48.8005 57.5631 48.856 57.5631C48.9116 57.5631 48.9665 57.5743 49.0176 57.5962C49.0686 57.6181 49.1147 57.6502 49.1529 57.6904C49.1912 57.7307 49.2209 57.7783 49.2402 57.8304C49.2595 57.8825 49.268 57.9379 49.2652 57.9934V61.0995C49.2697 61.1497 49.2634 61.2003 49.2469 61.2479C49.2303 61.2955 49.2039 61.339 49.1693 61.3757C49.1347 61.4123 49.0928 61.4412 49.0462 61.4605C48.9997 61.4797 48.9495 61.4889 48.8992 61.4874H48.1234C48.0741 61.488 48.0251 61.4786 47.9795 61.4598C47.9338 61.441 47.8925 61.4132 47.8578 61.3781C47.8231 61.3429 47.7959 61.3012 47.7778 61.2553C47.7596 61.2094 47.7509 61.1603 47.7522 61.1109C47.7486 61.061 47.7556 61.0108 47.7729 60.9638C47.7902 60.9168 47.8173 60.874 47.8525 60.8383C47.8876 60.8025 47.9299 60.7747 47.9766 60.7567C48.0234 60.7386 48.0734 60.7307 48.1234 60.7335H48.4468V57.9934Z" fill="#B5D9F1"/>
<path d="M49.1891 50.9761C50.2893 50.9761 50.6345 52.095 50.6345 52.9851C50.6345 53.8752 50.2893 54.9941 49.1891 54.9941C48.0889 54.9941 47.7405 53.8752 47.7405 52.9851C47.7405 52.095 48.0858 50.9761 49.1891 50.9761ZM49.1891 51.7175C48.6307 51.7175 48.5943 52.5972 48.5943 52.9851C48.5943 53.401 48.6307 54.2506 49.1891 54.2506C49.7475 54.2506 49.7818 53.4 49.7818 52.9851C49.7849 52.5962 49.7454 51.7175 49.1891 51.7175Z" fill="#B5D9F1"/>
<path d="M48.4468 44.8758C48.444 44.8204 48.4525 44.7649 48.4719 44.7128C48.4912 44.6608 48.5208 44.6131 48.5591 44.5729C48.5974 44.5326 48.6434 44.5006 48.6945 44.4787C48.7455 44.4568 48.8005 44.4455 48.856 44.4455C48.9116 44.4455 48.9665 44.4568 49.0176 44.4787C49.0686 44.5006 49.1147 44.5326 49.1529 44.5729C49.1912 44.6131 49.2209 44.6608 49.2402 44.7128C49.2595 44.7649 49.268 44.8204 49.2652 44.8758V47.982C49.2697 48.0322 49.2634 48.0827 49.2469 48.1303C49.2303 48.1779 49.2039 48.2215 49.1693 48.2581C49.1347 48.2948 49.0928 48.3237 49.0462 48.3429C48.9997 48.3622 48.9495 48.3714 48.8992 48.3698H48.1234C48.074 48.3704 48.0249 48.361 47.9792 48.3422C47.9335 48.3233 47.8921 48.2954 47.8574 48.2602C47.8227 48.2249 47.7956 48.183 47.7775 48.137C47.7594 48.091 47.7508 48.0418 47.7522 47.9924C47.7487 47.9425 47.7559 47.8924 47.7733 47.8455C47.7906 47.7986 47.8178 47.756 47.8529 47.7204C47.888 47.6848 47.9303 47.657 47.9769 47.639C48.0236 47.621 48.0735 47.6131 48.1234 47.6159H48.4468V44.8758Z" fill="#B5D9F1"/>
<path d="M48.4468 38.3162C48.444 38.2608 48.4525 38.2053 48.4719 38.1532C48.4912 38.1011 48.5208 38.0535 48.5591 38.0133C48.5974 37.973 48.6434 37.941 48.6945 37.9191C48.7455 37.8972 48.8005 37.8859 48.856 37.8859C48.9116 37.8859 48.9665 37.8972 49.0176 37.9191C49.0686 37.941 49.1147 37.973 49.1529 38.0133C49.1912 38.0535 49.2209 38.1011 49.2402 38.1532C49.2595 38.2053 49.268 38.2608 49.2652 38.3162V41.4213C49.2697 41.4715 49.2634 41.522 49.2469 41.5696C49.2303 41.6172 49.2039 41.6608 49.1693 41.6975C49.1347 41.7341 49.0928 41.763 49.0462 41.7823C48.9997 41.8015 48.9495 41.8107 48.8992 41.8092H48.1234C48.0741 41.8097 48.0251 41.8004 47.9795 41.7816C47.9338 41.7628 47.8925 41.735 47.8578 41.6999C47.8231 41.6647 47.7959 41.623 47.7778 41.5771C47.7596 41.5312 47.7509 41.4821 47.7522 41.4327C47.7486 41.3828 47.7556 41.3326 47.7729 41.2856C47.7902 41.2386 47.8173 41.1958 47.8525 41.16C47.8876 41.1243 47.9299 41.0965 47.9766 41.0784C48.0234 41.0604 48.0734 41.0525 48.1234 41.0553H48.4468V38.3162Z" fill="#B5D9F1"/>
<path d="M71.6458 62.2807V61.8159C71.6458 61.5268 71.7591 61.3906 72.0388 61.3906C72.3186 61.3906 72.4298 61.5299 72.4298 61.819V62.2807H72.5234C72.573 62.2769 72.6228 62.2834 72.6697 62.2998C72.7166 62.3162 72.7596 62.3421 72.7961 62.3759C72.8325 62.4096 72.8616 62.4506 72.8815 62.4961C72.9014 62.5417 72.9116 62.5908 72.9116 62.6405C72.9116 62.6902 72.9014 62.7394 72.8815 62.7849C72.8616 62.8304 72.8325 62.8714 72.7961 62.9052C72.7596 62.9389 72.7166 62.9648 72.6697 62.9812C72.6228 62.9976 72.573 63.0041 72.5234 63.0003H72.4298V64.6787C72.4415 64.7669 72.434 64.8565 72.4079 64.9415C72.3817 65.0266 72.3375 65.1049 72.2783 65.1713C72.219 65.2376 72.1461 65.2904 72.0646 65.326C71.9831 65.3616 71.8948 65.3791 71.8059 65.3775C71.6923 65.3894 71.5778 65.3658 71.4781 65.3099C71.3785 65.2541 71.2986 65.1687 71.2496 65.0655L70.0267 62.8485C69.9768 62.7783 69.9499 62.6944 69.9497 62.6083C69.9524 62.5616 69.9645 62.5161 69.9854 62.4743C70.0064 62.4325 70.0356 62.3955 70.0713 62.3654C70.107 62.3353 70.1485 62.3128 70.1932 62.2993C70.2379 62.2859 70.2849 62.2816 70.3313 62.287L71.6458 62.2807ZM71.6458 63.0003H70.8981L71.6354 64.5237H71.6458V63.0003Z" fill="#B5D9F1"/>
<path d="M70.0811 55.0445C70.0793 54.9897 70.0889 54.9351 70.1093 54.8842C70.1296 54.8333 70.1603 54.7871 70.1994 54.7486C70.2384 54.7101 70.2851 54.6801 70.3363 54.6606C70.3875 54.641 70.4423 54.6322 70.4971 54.6348H71.9092C71.9598 54.6324 72.0104 54.6404 72.0578 54.6583C72.1052 54.6762 72.1484 54.7036 72.1848 54.7389C72.2211 54.7742 72.2499 54.8166 72.2692 54.8634C72.2885 54.9103 72.298 54.9606 72.2971 55.0113C72.2991 55.0623 72.2903 55.1131 72.2714 55.1605C72.2525 55.2079 72.2238 55.2508 72.1872 55.2864C72.1507 55.322 72.107 55.3495 72.0591 55.3671C72.0112 55.3848 71.9601 55.3921 71.9092 55.3887H70.8995V56.2206H71.7948C71.8461 56.2175 71.8975 56.2249 71.9458 56.2425C71.994 56.26 72.0382 56.2872 72.0756 56.3225C72.1129 56.3578 72.1426 56.4004 72.1628 56.4476C72.183 56.4948 72.1933 56.5457 72.1931 56.5971C72.1941 56.6487 72.1843 56.6999 72.1644 56.7475C72.1444 56.7951 72.1148 56.838 72.0773 56.8734C72.0398 56.9089 71.9953 56.9361 71.9466 56.9533C71.898 56.9706 71.8463 56.9774 71.7948 56.9735H70.8995V57.7701H71.8603C71.911 57.7675 71.9616 57.7754 72.0091 57.7932C72.0566 57.8111 72.0998 57.8385 72.1362 57.8738C72.1726 57.9091 72.2013 57.9516 72.2206 57.9985C72.2399 58.0454 72.2493 58.0958 72.2482 58.1465C72.2502 58.1974 72.2415 58.2483 72.2226 58.2956C72.2036 58.343 72.1749 58.3858 72.1383 58.4213C72.1017 58.4568 72.0581 58.4842 72.0102 58.5017C71.9623 58.5193 71.9112 58.5265 71.8603 58.5229H70.5085C70.2204 58.5229 70.0842 58.3212 70.0842 58.0477L70.0811 55.0445Z" fill="#B5D9F1"/>
<path d="M72.7503 50.5754C72.7559 50.6304 72.75 50.686 72.7329 50.7386C72.7158 50.7911 72.6879 50.8395 72.651 50.8807C72.6141 50.9218 72.569 50.9547 72.5185 50.9774C72.4681 51.0001 72.4135 51.0119 72.3582 51.0122C72.2632 51.0174 72.1697 50.9864 72.0965 50.9255C72.0234 50.8645 71.9761 50.7781 71.9641 50.6836C71.8832 50.7986 71.775 50.8918 71.6493 50.9548C71.5235 51.0177 71.3841 51.0486 71.2435 51.0444C71.0577 51.0302 70.8767 50.9792 70.7108 50.8944C70.5449 50.8096 70.3976 50.6927 70.2772 50.5505C70.1569 50.4083 70.066 50.2436 70.0098 50.066C69.9536 49.8884 69.9332 49.7014 69.9499 49.5158C69.9499 48.7349 70.3378 48.0101 71.1624 48.0101C71.315 47.9995 71.4678 48.0279 71.6065 48.0927C71.7451 48.1574 71.865 48.2564 71.9548 48.3803H71.9641V48.1952C71.9672 48.1088 71.9518 48.0228 71.9189 47.9428C71.886 47.8629 71.8363 47.791 71.7732 47.7319C71.7102 47.6728 71.6352 47.6278 71.5533 47.6001C71.4715 47.5724 71.3846 47.5626 71.2986 47.5712C70.8452 47.5712 70.5707 47.8156 70.317 47.8156C70.2344 47.8008 70.1591 47.7591 70.1027 47.697C70.0463 47.635 70.0119 47.556 70.005 47.4725C70.005 47.0409 70.9211 46.8828 71.2435 46.8828C71.4399 46.8581 71.6394 46.8771 71.8277 46.9383C72.016 46.9996 72.1885 47.1016 72.3328 47.2372C72.4771 47.3728 72.5897 47.5385 72.6626 47.7226C72.7355 47.9067 72.7668 48.1047 72.7544 48.3023L72.7503 50.5754ZM71.9641 49.5044C71.9641 49.1227 71.7676 48.7297 71.3475 48.7297C70.9274 48.7297 70.736 49.1123 70.736 49.5325C70.736 49.8974 70.944 50.3238 71.3475 50.3238C71.7801 50.3238 71.9641 49.8871 71.9641 49.5044Z" fill="#B5D9F1"/>
<path d="M70.2331 42.1412C70.1739 42.1236 70.1223 42.0867 70.0865 42.0364C70.0507 41.9861 70.0328 41.9252 70.0355 41.8635C70.0355 41.6337 70.1614 41.5193 70.2976 41.5193C70.393 41.5234 70.4862 41.5494 70.57 41.5952L72.7267 42.5894C72.7872 42.6161 72.8386 42.6598 72.8747 42.7152C72.9107 42.7706 72.9299 42.8352 72.9299 42.9013C72.9299 42.9674 72.9107 43.0321 72.8747 43.0875C72.8386 43.1429 72.7872 43.1866 72.7267 43.2133L70.57 44.2012C70.4872 44.2502 70.3937 44.2783 70.2976 44.2833C70.1614 44.2833 70.0355 44.1689 70.0355 43.9391C70.0329 43.8773 70.0509 43.8164 70.0866 43.766C70.1224 43.7155 70.1739 43.6784 70.2331 43.6604L72.0487 42.9024L70.2331 42.1412Z" fill="#B5D9F1"/>
<path d="M70.6763 70.4996C70.6707 70.4445 70.6766 70.3889 70.6938 70.3364C70.7109 70.2838 70.739 70.2354 70.776 70.1944C70.8131 70.1533 70.8583 70.1205 70.9089 70.098C70.9594 70.0755 71.0141 70.0639 71.0694 70.0639C71.1247 70.0639 71.1794 70.0755 71.2299 70.098C71.2805 70.1205 71.3257 70.1533 71.3628 70.1944C71.3998 70.2354 71.4278 70.2838 71.445 70.3364C71.4622 70.3889 71.4681 70.4445 71.4625 70.4996V72.3121H71.6881C71.7364 72.3055 71.7855 72.3096 71.8321 72.324C71.8786 72.3385 71.9214 72.363 71.9574 72.3959C71.9934 72.4287 72.0217 72.469 72.0404 72.514C72.0591 72.559 72.0677 72.6076 72.0656 72.6563C72.0656 72.9079 71.8909 73.0005 71.6881 73.0005H71.4645V73.4705C71.4702 73.5255 71.4643 73.5811 71.4471 73.6337C71.4299 73.6862 71.4019 73.7346 71.3649 73.7757C71.3278 73.8168 71.2826 73.8496 71.232 73.872C71.1815 73.8945 71.1268 73.9061 71.0715 73.9061C71.0162 73.9061 70.9615 73.8945 70.9109 73.872C70.8604 73.8496 70.8151 73.8168 70.7781 73.7757C70.741 73.7346 70.713 73.6862 70.6959 73.6337C70.6787 73.5811 70.6727 73.5255 70.6784 73.4705V72.9953H70.5037C70.4583 72.9963 70.4131 72.988 70.371 72.9711C70.3288 72.9541 70.2905 72.9288 70.2585 72.8966C70.2264 72.8644 70.2012 72.8261 70.1843 72.7839C70.1675 72.7417 70.1594 72.6965 70.1605 72.6511C70.1566 72.605 70.1628 72.5586 70.1786 72.5151C70.1944 72.4716 70.2196 72.4321 70.2523 72.3993C70.2849 72.3666 70.3243 72.3413 70.3678 72.3253C70.4112 72.3094 70.4576 72.3031 70.5037 72.3069H70.6784L70.6763 70.4996Z" fill="#B5D9F1"/>
</g>
<path d="M55.1605 76.959C55.1028 76.9414 55.0526 76.9044 55.0177 76.8539C54.9829 76.8034 54.9654 76.7424 54.9681 76.6805C54.9681 76.45 55.0906 76.3352 55.2232 76.3352C55.3161 76.3393 55.4069 76.3654 55.4884 76.4114L57.5879 77.4087C57.6467 77.4355 57.6967 77.4793 57.7318 77.5349C57.767 77.5904 57.7856 77.6553 57.7856 77.7216C57.7856 77.7879 57.767 77.8528 57.7318 77.9084C57.6967 77.9639 57.6467 78.0078 57.5879 78.0346L55.4884 79.0256C55.4078 79.0748 55.3168 79.103 55.2232 79.108C55.0906 79.108 54.9681 78.9933 54.9681 78.7627C54.9655 78.7007 54.983 78.6396 55.0179 78.589C55.0527 78.5384 55.1028 78.5012 55.1605 78.4832L56.9279 77.7227L55.1605 76.959Z" fill="#B5D9F1"/>
<path d="M56.0132 74.2164C56.0163 74.2695 56.0082 74.3228 55.9896 74.3725C55.971 74.4222 55.9423 74.4672 55.9053 74.5045C55.8684 74.5418 55.8241 74.5705 55.7755 74.5886C55.7269 74.6067 55.675 74.6139 55.6235 74.6096H55.0941C55.0135 74.6096 54.9363 74.5767 54.8794 74.518C54.8224 74.4593 54.7904 74.3797 54.7904 74.2967C54.7904 74.2137 54.8224 74.1341 54.8794 74.0754C54.9363 74.0167 55.0135 73.9837 55.0941 73.9837H55.3431V70.4243H55.0941C55.0135 70.4243 54.9363 70.3914 54.8794 70.3327C54.8224 70.274 54.7904 70.1944 54.7904 70.1114C54.7904 70.0284 54.8224 69.9488 54.8794 69.8901C54.9363 69.8314 55.0135 69.7984 55.0941 69.7984H55.6235C55.6751 69.7941 55.727 69.8013 55.7757 69.8195C55.8244 69.8377 55.8688 69.8665 55.9057 69.9039C55.9427 69.9413 55.9714 69.9864 55.99 70.0363C56.0085 70.0861 56.0164 70.1395 56.0132 70.1927V74.2164Z" fill="#B5D9F1"/>
<path d="M55.1786 64.4709C55.1731 64.4157 55.1789 64.36 55.1956 64.3072C55.2123 64.2545 55.2396 64.2059 55.2757 64.1647C55.3118 64.1235 55.3558 64.0906 55.405 64.0681C55.4542 64.0455 55.5074 64.0339 55.5613 64.0339C55.6151 64.0339 55.6684 64.0455 55.7175 64.0681C55.7667 64.0906 55.8108 64.1235 55.8469 64.1647C55.8829 64.2059 55.9102 64.2545 55.9269 64.3072C55.9436 64.36 55.9494 64.4157 55.9439 64.4709V66.2882H56.1615C56.2086 66.2817 56.2564 66.286 56.3017 66.3006C56.347 66.3153 56.3886 66.34 56.4237 66.373C56.4587 66.406 56.4863 66.4465 56.5045 66.4917C56.5227 66.5369 56.531 66.5856 56.529 66.6345C56.529 66.8859 56.3589 66.9788 56.1615 66.9788H55.9439V67.4503C55.9494 67.5055 55.9436 67.5613 55.9269 67.614C55.9102 67.6667 55.8829 67.7153 55.8469 67.7565C55.8108 67.7977 55.7667 67.8306 55.7175 67.8531C55.6684 67.8757 55.6151 67.8873 55.5613 67.8873C55.5074 67.8873 55.4542 67.8757 55.405 67.8531C55.3558 67.8306 55.3118 67.7977 55.2757 67.7565C55.2396 67.7153 55.2123 67.6667 55.1956 67.614C55.1789 67.5613 55.1731 67.5055 55.1786 67.4503V66.9788H55.0086C54.9644 66.9799 54.9205 66.9718 54.8794 66.9549C54.8384 66.938 54.8011 66.9127 54.7699 66.8805C54.7387 66.8483 54.7141 66.8099 54.6977 66.7676C54.6813 66.7253 54.6734 66.68 54.6745 66.6345C54.6706 66.5882 54.6764 66.5415 54.6918 66.4978C54.7071 66.454 54.7316 66.4143 54.7634 66.3813C54.7952 66.3483 54.8336 66.3228 54.876 66.3068C54.9183 66.2907 54.9636 66.2843 55.0086 66.2882H55.1786V64.4709Z" fill="#B5D9F1"/>
<path d="M55.1786 46.6591C55.1731 46.6039 55.1789 46.5481 55.1956 46.4954C55.2123 46.4426 55.2396 46.3941 55.2757 46.3529C55.3117 46.3117 55.3558 46.2788 55.405 46.2562C55.4542 46.2337 55.5074 46.2221 55.5613 46.2221C55.6151 46.2221 55.6683 46.2337 55.7175 46.2562C55.7667 46.2788 55.8108 46.3117 55.8469 46.3529C55.8829 46.3941 55.9102 46.4426 55.9269 46.4954C55.9436 46.5481 55.9494 46.6039 55.9439 46.6591V48.4774H56.1615C56.2085 48.4708 56.2564 48.4749 56.3017 48.4894C56.3469 48.5039 56.3886 48.5285 56.4236 48.5615C56.4587 48.5944 56.4863 48.6349 56.5045 48.68C56.5227 48.7251 56.5311 48.7738 56.529 48.8227C56.529 49.0751 56.3589 49.168 56.1615 49.168H55.9439V49.6395C55.9494 49.6947 55.9436 49.7505 55.9269 49.8032C55.9102 49.856 55.8829 49.9045 55.8469 49.9457C55.8108 49.9869 55.7667 50.0198 55.7175 50.0424C55.6683 50.0649 55.6151 50.0765 55.5613 50.0765C55.5074 50.0765 55.4542 50.0649 55.405 50.0424C55.3558 50.0198 55.3117 49.9869 55.2757 49.9457C55.2396 49.9045 55.2123 49.856 55.1956 49.8032C55.1789 49.7505 55.1731 49.6947 55.1786 49.6395V49.1628H55.0086C54.9643 49.1639 54.9203 49.1558 54.8792 49.1388C54.8381 49.1218 54.8008 49.0964 54.7695 49.0641C54.7383 49.0318 54.7137 48.9933 54.6974 48.9509C54.6811 48.9085 54.6733 48.8631 54.6745 48.8175C54.6707 48.7712 54.6767 48.7247 54.6921 48.681C54.7075 48.6374 54.732 48.5978 54.7638 48.5649C54.7956 48.5321 54.834 48.5067 54.8763 48.4907C54.9185 48.4747 54.9637 48.4684 55.0086 48.4722H55.1786V46.6591Z" fill="#B5D9F1"/>
<path d="M56.1986 58.21C56.6491 58.7963 57.473 59.5506 57.473 60.3131C57.4737 60.4695 57.443 60.6244 57.3829 60.7681C57.3229 60.9117 57.2347 61.041 57.1239 61.1479C57.0131 61.2549 56.8821 61.3371 56.7391 61.3894C56.5961 61.4418 56.4442 61.4632 56.2927 61.4523C55.969 61.4517 55.658 61.3216 55.4254 61.0895C55.1928 60.8574 55.0567 60.5413 55.0456 60.2078C55.0429 60.1546 55.051 60.1014 55.0695 60.0517C55.088 60.002 55.1165 59.9568 55.1531 59.9192C55.1897 59.8816 55.2335 59.8524 55.2818 59.8334C55.3301 59.8145 55.3817 59.8063 55.4333 59.8093C55.9395 59.8093 55.651 60.696 56.2614 60.696C56.3655 60.6919 56.464 60.646 56.5357 60.568C56.6075 60.49 56.6467 60.3861 56.645 60.2787C56.635 60.0935 56.5704 59.9159 56.4598 59.7696C56.0549 59.1667 55.5771 58.6743 55.1347 58.1318C55.0652 58.0556 55.0228 57.9575 55.0143 57.8533C55.0143 57.6008 55.1944 57.4913 55.4273 57.4913H57.1997C57.2486 57.4854 57.2982 57.4905 57.345 57.5061C57.3919 57.5218 57.4349 57.5477 57.4711 57.5821C57.5073 57.6164 57.5359 57.6585 57.555 57.7053C57.574 57.7521 57.583 57.8026 57.5814 57.8533C57.5814 58.1047 57.4012 58.2142 57.1684 58.2142L56.1986 58.21Z" fill="#B5D9F1"/>
<path d="M41.3148 46.6207C41.312 46.5652 41.3205 46.5097 41.3398 46.4577C41.3591 46.4056 41.3888 46.358 41.4271 46.3177C41.4653 46.2775 41.5114 46.2454 41.5624 46.2235C41.6135 46.2016 41.6685 46.1903 41.724 46.1903C41.7795 46.1903 41.8345 46.2016 41.8855 46.2235C41.9366 46.2454 41.9826 46.2775 42.0209 46.3177C42.0592 46.358 42.0889 46.4056 42.1082 46.4577C42.1275 46.5097 42.136 46.5652 42.1332 46.6207V49.7268C42.1379 49.777 42.1319 49.8276 42.1156 49.8753C42.0993 49.9229 42.0729 49.9666 42.0384 50.0033C42.0039 50.04 41.9619 50.0689 41.9153 50.0881C41.8687 50.1073 41.8186 50.1164 41.7682 50.1147H40.9945C40.9449 50.1155 40.8957 50.1063 40.8498 50.0876C40.8039 50.0689 40.7623 50.041 40.7275 50.0057C40.6927 49.9704 40.6654 49.9284 40.6473 49.8823C40.6292 49.8361 40.6207 49.7867 40.6222 49.7372C40.6189 49.6873 40.6263 49.6372 40.6437 49.5903C40.6612 49.5434 40.6884 49.5007 40.7236 49.4652C40.7588 49.4296 40.8012 49.4019 40.8479 49.3839C40.8946 49.3659 40.9445 49.358 40.9945 49.3608H41.3148V46.6207Z" fill="#B5D9F1"/>
<path d="M42.1478 72.818C43.2511 72.818 43.5942 73.9369 43.5942 74.827C43.5942 75.7172 43.2511 76.8361 42.1478 76.8361C41.0445 76.8361 40.7013 75.7161 40.7013 74.827C40.7013 73.9379 41.0455 72.818 42.1478 72.818ZM42.1478 73.5594C41.5914 73.5594 41.553 74.4391 41.553 74.827C41.553 75.243 41.5914 76.0925 42.1478 76.0925C42.7041 76.0925 42.7426 75.2409 42.7426 74.827C42.7426 74.4391 42.7041 73.5594 42.1478 73.5594Z" fill="#B5D9F1"/>
<path d="M42.0633 39.6037C43.1666 39.6037 43.5098 40.7226 43.5098 41.6128C43.5098 42.5029 43.1666 43.6218 42.0633 43.6218C40.96 43.6218 40.6168 42.5019 40.6168 41.6128C40.6168 40.7237 40.961 39.6037 42.0633 39.6037ZM42.0633 40.3452C41.507 40.3452 41.4685 41.2249 41.4685 41.6128C41.4685 42.0287 41.507 42.8783 42.0633 42.8783C42.6196 42.8783 42.6581 42.0267 42.6581 41.6128C42.6581 41.2249 42.6196 40.3452 42.0633 40.3452Z" fill="#B5D9F1"/>
<path d="M42.1478 66.2602C43.2511 66.2602 43.5942 67.378 43.5942 68.2682C43.5942 69.1583 43.2511 70.2772 42.1478 70.2772C41.0445 70.2772 40.7013 69.1583 40.7013 68.2682C40.7013 67.378 41.0455 66.2602 42.1478 66.2602ZM42.1478 67.0016C41.5914 67.0016 41.553 67.8803 41.553 68.2682C41.553 68.6841 41.5914 69.5337 42.1478 69.5337C42.7041 69.5337 42.7426 68.6831 42.7426 68.2682C42.7426 67.8803 42.7041 67.0016 42.1478 67.0016Z" fill="#B5D9F1"/>
<path d="M42.0633 33.0463C43.1666 33.0463 43.5098 34.1642 43.5098 35.0543C43.5098 35.9444 43.1666 37.0634 42.0633 37.0634C40.96 37.0634 40.6168 35.9444 40.6168 35.0543C40.6168 34.1642 40.961 33.0463 42.0633 33.0463ZM42.0633 33.7877C41.507 33.7877 41.4685 34.6664 41.4685 35.0543C41.4685 35.4703 41.507 36.3198 42.0633 36.3198C42.6196 36.3198 42.6581 35.4692 42.6581 35.0543C42.6581 34.6664 42.6196 33.7877 42.0633 33.7877Z" fill="#B5D9F1"/>
<path d="M41.4027 60.1595C41.3999 60.104 41.4084 60.0486 41.4277 59.9965C41.447 59.9444 41.4767 59.8968 41.515 59.8565C41.5532 59.8163 41.5993 59.7842 41.6503 59.7623C41.7014 59.7404 41.7563 59.7291 41.8119 59.7291C41.8674 59.7291 41.9224 59.7404 41.9734 59.7623C42.0245 59.7842 42.0705 59.8163 42.1088 59.8565C42.1471 59.8968 42.1768 59.9444 42.1961 59.9965C42.2154 60.0486 42.2239 60.104 42.2211 60.1595V63.2656C42.2258 63.3158 42.2198 63.3664 42.2035 63.4141C42.1872 63.4617 42.1608 63.5054 42.1263 63.5421C42.0918 63.5788 42.0498 63.6077 42.0032 63.6269C41.9566 63.6461 41.9064 63.6552 41.8561 63.6535H41.0824C41.0329 63.6543 40.9838 63.6452 40.938 63.6265C40.8921 63.6078 40.8506 63.5801 40.8158 63.5449C40.781 63.5097 40.7537 63.4678 40.7355 63.4218C40.7173 63.3758 40.7087 63.3265 40.7101 63.277C40.7067 63.227 40.7139 63.1768 40.7313 63.1298C40.7487 63.0828 40.7759 63.04 40.8111 63.0043C40.8463 62.9686 40.8887 62.9408 40.9355 62.9228C40.9823 62.9047 41.0323 62.8968 41.0824 62.8996H41.4027V60.1595Z" fill="#B5D9F1"/>
<path d="M41.3148 26.9457C41.312 26.8902 41.3205 26.8348 41.3398 26.7827C41.3591 26.7306 41.3888 26.683 41.4271 26.6427C41.4653 26.6025 41.5114 26.5704 41.5624 26.5485C41.6135 26.5266 41.6685 26.5153 41.724 26.5153C41.7795 26.5153 41.8345 26.5266 41.8855 26.5485C41.9366 26.5704 41.9826 26.6025 42.0209 26.6427C42.0592 26.683 42.0889 26.7306 42.1082 26.7827C42.1275 26.8348 42.136 26.8902 42.1332 26.9457V30.0518C42.1379 30.102 42.1319 30.1526 42.1156 30.2003C42.0993 30.2479 42.0729 30.2916 42.0384 30.3283C42.0039 30.365 41.9619 30.3939 41.9153 30.4131C41.8687 30.4323 41.8186 30.4414 41.7682 30.4397H40.9945C40.945 30.4405 40.8959 30.4314 40.8501 30.4127C40.8042 30.394 40.7627 30.3663 40.7279 30.3311C40.6931 30.2959 40.6658 30.254 40.6476 30.208C40.6295 30.1619 40.6208 30.1127 40.6222 30.0632C40.6188 30.0132 40.626 29.963 40.6434 29.916C40.6608 29.869 40.688 29.8262 40.7232 29.7905C40.7584 29.7548 40.8008 29.727 40.8476 29.709C40.8944 29.6909 40.9445 29.683 40.9945 29.6858H41.3148V26.9457Z" fill="#B5D9F1"/>
<path d="M41.4027 53.6016C41.3999 53.5461 41.4084 53.4906 41.4277 53.4386C41.447 53.3865 41.4767 53.3389 41.515 53.2986C41.5532 53.2584 41.5993 53.2263 41.6503 53.2044C41.7014 53.1825 41.7563 53.1712 41.8119 53.1712C41.8674 53.1712 41.9224 53.1825 41.9734 53.2044C42.0245 53.2263 42.0705 53.2584 42.1088 53.2986C42.1471 53.3389 42.1768 53.3865 42.1961 53.4386C42.2154 53.4906 42.2239 53.5461 42.2211 53.6016V56.7067C42.2258 56.7568 42.2198 56.8074 42.2035 56.8551C42.1872 56.9028 42.1608 56.9464 42.1263 56.9831C42.0918 57.0198 42.0498 57.0488 42.0032 57.068C41.9566 57.0872 41.9064 57.0962 41.8561 57.0945H41.0824C41.0329 57.0955 40.9837 57.0865 40.9378 57.0678C40.8919 57.0492 40.8503 57.0215 40.8154 56.9863C40.7806 56.951 40.7533 56.9091 40.7352 56.863C40.7171 56.8169 40.7086 56.7676 40.7101 56.7181C40.7066 56.6681 40.7139 56.618 40.7313 56.571C40.7487 56.524 40.7759 56.4813 40.8111 56.4457C40.8464 56.4101 40.8888 56.3824 40.9356 56.3644C40.9823 56.3465 41.0324 56.3387 41.0824 56.3417H41.4027V53.6016Z" fill="#B5D9F1"/>
<path d="M41.3148 20.8317C41.312 20.7763 41.3205 20.7208 41.3398 20.6687C41.3591 20.6167 41.3888 20.569 41.4271 20.5288C41.4653 20.4885 41.5114 20.4565 41.5624 20.4346C41.6135 20.4127 41.6685 20.4014 41.724 20.4014C41.7795 20.4014 41.8345 20.4127 41.8855 20.4346C41.9366 20.4565 41.9826 20.4885 42.0209 20.5288C42.0592 20.569 42.0889 20.6167 42.1082 20.6687C42.1275 20.7208 42.136 20.7763 42.1332 20.8317V23.9368C42.1379 23.987 42.1319 24.0376 42.1156 24.0853C42.0993 24.133 42.0729 24.1766 42.0384 24.2133C42.0039 24.25 41.9619 24.2789 41.9153 24.2981C41.8687 24.3173 41.8186 24.3264 41.7682 24.3247H40.9945C40.945 24.3257 40.8958 24.3166 40.8499 24.298C40.804 24.2794 40.7624 24.2516 40.7275 24.2164C40.6927 24.1812 40.6654 24.1393 40.6473 24.0932C40.6292 24.0471 40.6207 23.9978 40.6222 23.9483C40.6188 23.8983 40.626 23.8481 40.6434 23.8012C40.6608 23.7542 40.688 23.7115 40.7233 23.6759C40.7585 23.6402 40.8009 23.6125 40.8477 23.5946C40.8944 23.5767 40.9445 23.5689 40.9945 23.5718H41.3148V20.8317Z" fill="#B5D9F1"/>
<path d="M18.7319 62.4741C18.7291 62.4186 18.7376 62.3631 18.7569 62.3111C18.7762 62.259 18.8059 62.2114 18.8442 62.1711C18.8825 62.1309 18.9285 62.0988 18.9796 62.0769C19.0306 62.055 19.0856 62.0437 19.1411 62.0437C19.1966 62.0437 19.2516 62.055 19.3027 62.0769C19.3537 62.0988 19.3997 62.1309 19.438 62.1711C19.4763 62.2114 19.506 62.259 19.5253 62.3111C19.5446 62.3631 19.5531 62.4186 19.5503 62.4741V65.5802C19.5551 65.6304 19.5491 65.681 19.5327 65.7286C19.5164 65.7763 19.4901 65.82 19.4555 65.8567C19.421 65.8934 19.379 65.9223 19.3324 65.9415C19.2858 65.9607 19.2357 65.9698 19.1853 65.9681H18.4116C18.3621 65.9689 18.3128 65.9597 18.2669 65.941C18.221 65.9223 18.1794 65.8944 18.1446 65.8591C18.1098 65.8238 18.0825 65.7818 18.0644 65.7356C18.0463 65.6895 18.0378 65.6401 18.0394 65.5906C18.036 65.5406 18.0434 65.4906 18.0608 65.4437C18.0783 65.3968 18.1056 65.3541 18.1408 65.3186C18.1759 65.283 18.2183 65.2553 18.265 65.2373C18.3117 65.2193 18.3617 65.2114 18.4116 65.2141H18.7319V62.4741Z" fill="#B5D9F1"/>
<path d="M19.4807 55.4573C20.584 55.4573 20.9271 56.5762 20.9271 57.4663C20.9271 58.3564 20.584 59.4753 19.4807 59.4753C18.3773 59.4753 18.0342 58.3554 18.0342 57.4663C18.0342 56.5772 18.3784 55.4573 19.4807 55.4573ZM19.4807 56.1987C18.9243 56.1987 18.8858 57.0784 18.8858 57.4663C18.8858 57.8823 18.9243 58.7318 19.4807 58.7318C20.037 58.7318 20.0755 57.8802 20.0755 57.4663C20.0755 57.0784 20.037 56.1987 19.4807 56.1987Z" fill="#B5D9F1"/>
<path d="M19.4807 48.8999C20.584 48.8999 20.9271 50.0178 20.9271 50.9079C20.9271 51.7981 20.584 52.917 19.4807 52.917C18.3773 52.917 18.0342 51.7981 18.0342 50.9079C18.0342 50.0178 18.3784 48.8999 19.4807 48.8999ZM19.4807 49.6414C18.9243 49.6414 18.8858 50.5201 18.8858 50.9079C18.8858 51.3239 18.9243 52.1735 19.4807 52.1735C20.037 52.1735 20.0755 51.3229 20.0755 50.9079C20.0755 50.5201 20.037 49.6414 19.4807 49.6414Z" fill="#B5D9F1"/>
<path d="M18.8164 76.0135C18.8136 75.958 18.8221 75.9026 18.8414 75.8505C18.8607 75.7984 18.8904 75.7508 18.9287 75.7105C18.9669 75.6703 19.013 75.6382 19.064 75.6163C19.1151 75.5944 19.17 75.5832 19.2256 75.5832C19.2811 75.5832 19.3361 75.5944 19.3871 75.6163C19.4382 75.6382 19.4842 75.6703 19.5225 75.7105C19.5608 75.7508 19.5905 75.7984 19.6098 75.8505C19.6291 75.9026 19.6376 75.958 19.6348 76.0135V79.1196C19.6395 79.1698 19.6335 79.2204 19.6172 79.2681C19.6008 79.3158 19.5745 79.3594 19.54 79.3961C19.5055 79.4328 19.4635 79.4617 19.4169 79.4809C19.3703 79.5001 19.3201 79.5092 19.2698 79.5075H18.4961C18.4466 79.5084 18.3975 79.4992 18.3517 79.4805C18.3058 79.4618 18.2643 79.4341 18.2295 79.3989C18.1947 79.3637 18.1674 79.3218 18.1492 79.2758C18.131 79.2298 18.1224 79.1805 18.1238 79.1311C18.1204 79.081 18.1276 79.0308 18.145 78.9838C18.1624 78.9368 18.1896 78.894 18.2248 78.8583C18.26 78.8226 18.3024 78.7948 18.3492 78.7768C18.396 78.7587 18.446 78.7508 18.4961 78.7536H18.8164V76.0135Z" fill="#B5D9F1"/>
<path d="M18.7319 42.7991C18.7291 42.7437 18.7376 42.6882 18.7569 42.6361C18.7762 42.5841 18.8059 42.5364 18.8442 42.4962C18.8825 42.4559 18.9285 42.4239 18.9796 42.402C19.0306 42.3801 19.0856 42.3688 19.1411 42.3688C19.1966 42.3688 19.2516 42.3801 19.3027 42.402C19.3537 42.4239 19.3997 42.4559 19.438 42.4962C19.4763 42.5364 19.506 42.5841 19.5253 42.6361C19.5446 42.6882 19.5531 42.7437 19.5503 42.7991V45.9053C19.5551 45.9554 19.5491 46.006 19.5327 46.0537C19.5164 46.1014 19.4901 46.145 19.4555 46.1817C19.421 46.2184 19.379 46.2474 19.3324 46.2666C19.2858 46.2858 19.2357 46.2948 19.1853 46.2931H18.4116C18.3622 46.294 18.313 46.2848 18.2672 46.2662C18.2214 46.2475 18.1798 46.2197 18.145 46.1845C18.1102 46.1494 18.0829 46.1075 18.0647 46.0614C18.0466 46.0154 18.0379 45.9662 18.0394 45.9167C18.0359 45.8667 18.0431 45.8165 18.0605 45.7695C18.0779 45.7225 18.1051 45.6797 18.1403 45.644C18.1755 45.6083 18.2179 45.5805 18.2647 45.5624C18.3115 45.5444 18.3616 45.5364 18.4116 45.5392H18.7319V42.7991Z" fill="#B5D9F1"/>
<path d="M18.8164 69.4547C18.8136 69.3993 18.8221 69.3438 18.8414 69.2917C18.8607 69.2396 18.8904 69.192 18.9287 69.1518C18.9669 69.1115 19.013 69.0795 19.064 69.0576C19.1151 69.0357 19.17 69.0244 19.2256 69.0244C19.2811 69.0244 19.3361 69.0357 19.3871 69.0576C19.4382 69.0795 19.4842 69.1115 19.5225 69.1518C19.5608 69.192 19.5905 69.2396 19.6098 69.2917C19.6291 69.3438 19.6376 69.3993 19.6348 69.4547V72.5598C19.6395 72.61 19.6335 72.6606 19.6172 72.7083C19.6008 72.7559 19.5745 72.7996 19.54 72.8363C19.5055 72.873 19.4635 72.9019 19.4169 72.9211C19.3703 72.9403 19.3201 72.9494 19.2698 72.9477H18.4961C18.4466 72.9487 18.3974 72.9396 18.3515 72.921C18.3056 72.9024 18.264 72.8746 18.2291 72.8394C18.1943 72.8042 18.167 72.7623 18.1489 72.7162C18.1308 72.67 18.1223 72.6207 18.1238 72.5712C18.1203 72.5213 18.1276 72.4711 18.145 72.4241C18.1624 72.3772 18.1896 72.3345 18.2248 72.2988C18.2601 72.2632 18.3025 72.2355 18.3493 72.2176C18.396 72.1996 18.4461 72.1919 18.4961 72.1948H18.8164V69.4547Z" fill="#B5D9F1"/>
<path d="M18.7319 36.2409C18.7291 36.1855 18.7376 36.13 18.7569 36.0779C18.7762 36.0258 18.8059 35.9782 18.8442 35.938C18.8825 35.8977 18.9285 35.8657 18.9796 35.8438C19.0306 35.8219 19.0856 35.8106 19.1411 35.8106C19.1966 35.8106 19.2516 35.8219 19.3027 35.8438C19.3537 35.8657 19.3997 35.8977 19.438 35.938C19.4763 35.9782 19.506 36.0258 19.5253 36.0779C19.5446 36.13 19.5531 36.1855 19.5503 36.2409V39.346C19.5551 39.3962 19.5491 39.4468 19.5327 39.4945C19.5164 39.5421 19.4901 39.5858 19.4555 39.6225C19.421 39.6592 19.379 39.6881 19.3324 39.7073C19.2858 39.7265 19.2357 39.7356 19.1853 39.7339H18.4116C18.3621 39.7349 18.3129 39.7258 18.267 39.7072C18.2211 39.6886 18.1795 39.6608 18.1447 39.6256C18.1098 39.5904 18.0825 39.5484 18.0644 39.5023C18.0463 39.4562 18.0378 39.4069 18.0394 39.3574C18.0359 39.3075 18.0431 39.2573 18.0605 39.2103C18.0779 39.1634 18.1051 39.1207 18.1404 39.085C18.1756 39.0494 18.218 39.0217 18.2648 39.0038C18.3116 38.9858 18.3616 38.9781 18.4116 38.981H18.7319V36.2409Z" fill="#B5D9F1"/>
<path d="M3.58192 64.9633C3.76102 64.9608 3.93882 64.994 4.105 65.0608C4.27118 65.1276 4.42243 65.2268 4.54995 65.3526C4.67747 65.4784 4.77872 65.6282 4.84782 65.7935C4.91693 65.9587 4.9525 66.1361 4.95248 66.3152C4.96176 66.6287 4.84672 66.9332 4.63246 67.1622C4.41819 67.3913 4.12206 67.5264 3.80862 67.5381C3.69099 67.5396 3.57427 67.5173 3.46546 67.4726L3.45402 67.483C3.63392 67.7388 3.98955 68.0882 4.20689 68.3564C4.26959 68.4159 4.31058 68.4946 4.32335 68.58C4.31025 68.6793 4.26542 68.7718 4.19553 68.8435C4.12563 68.9153 4.03442 68.9626 3.93549 68.9783C3.87789 68.9823 3.82039 68.9693 3.77014 68.9409C3.70844 68.902 3.65001 68.8582 3.59544 68.8098C2.86946 68.1545 2.38155 67.2767 2.20825 66.3141C2.20458 66.1338 2.23779 65.9546 2.30582 65.7875C2.37386 65.6205 2.47528 65.4691 2.6039 65.3426C2.73251 65.2161 2.8856 65.1173 3.05377 65.052C3.22195 64.9868 3.40167 64.9566 3.58192 64.9633ZM3.58192 66.884C3.65433 66.8843 3.72599 66.8694 3.79233 66.8404C3.85867 66.8114 3.91822 66.7689 3.96717 66.7155C4.01611 66.6622 4.05337 66.5992 4.07657 66.5306C4.09977 66.462 4.10838 66.3894 4.10186 66.3172C4.09279 66.2169 4.05477 66.1214 3.99241 66.0422C3.93005 65.9631 3.84605 65.9038 3.75061 65.8715C3.65517 65.8392 3.55241 65.8354 3.45482 65.8604C3.35723 65.8855 3.26901 65.9383 3.2009 66.0126C3.13279 66.0868 3.08772 66.1792 3.07116 66.2786C3.05461 66.378 3.06728 66.48 3.10764 66.5723C3.14801 66.6647 3.21432 66.7432 3.29852 66.7986C3.38272 66.8539 3.48118 66.8836 3.58192 66.884Z" fill="#B5D9F1"/>
<path d="M4.93627 60.9685C4.94193 61.0234 4.93602 61.079 4.91892 61.1316C4.90183 61.1841 4.87392 61.2325 4.837 61.2737C4.80008 61.3148 4.75495 61.3478 4.70453 61.3704C4.65411 61.3931 4.59951 61.4049 4.54424 61.4052C4.44917 61.4104 4.35565 61.3794 4.28252 61.3185C4.20939 61.2575 4.16209 61.1711 4.15013 61.0766C4.06555 61.1944 3.95281 61.2891 3.82221 61.3522C3.69161 61.4152 3.5473 61.4445 3.40246 61.4374C3.04471 61.3733 2.7212 61.1847 2.48922 60.9049C2.25723 60.6251 2.13176 60.2723 2.13499 59.9088C2.13823 59.5454 2.26998 59.1949 2.50692 58.9193C2.74385 58.6437 3.07067 58.4608 3.42949 58.4031C3.69435 58.4059 3.94965 58.5024 4.15013 58.6755V57.7147C4.14446 57.6597 4.1504 57.6041 4.16758 57.5515C4.18475 57.4989 4.21277 57.4505 4.24982 57.4095C4.28687 57.3684 4.33213 57.3356 4.38266 57.3131C4.4332 57.2906 4.48789 57.279 4.5432 57.279C4.59851 57.279 4.6532 57.2906 4.70374 57.3131C4.75428 57.3356 4.79953 57.3684 4.83658 57.4095C4.87363 57.4505 4.90165 57.4989 4.91882 57.5515C4.93599 57.6041 4.94194 57.6597 4.93627 57.7147L4.93627 60.9685ZM4.15013 59.9411C4.15013 59.5594 3.96503 59.1227 3.53244 59.1227C3.12481 59.1227 2.921 59.548 2.921 59.914C2.921 60.2801 3.12897 60.7168 3.53244 60.7168C3.93591 60.7168 4.15013 60.3248 4.15013 59.9411Z" fill="#B5D9F1"/>
<path d="M2.23701 52.3145C2.23134 52.2595 2.23729 52.2039 2.25446 52.1514C2.27163 52.0988 2.29965 52.0504 2.3367 52.0093C2.37375 51.9683 2.41901 51.9355 2.46955 51.913C2.52009 51.8905 2.57477 51.8789 2.63008 51.8789C2.68539 51.8789 2.74008 51.8905 2.79062 51.913C2.84115 51.9355 2.88641 51.9683 2.92347 52.0093C2.96052 52.0504 2.98853 52.0988 3.00571 52.1514C3.02288 52.2039 3.02883 52.2595 3.02316 52.3145L3.02316 53.6851C3.02316 53.9971 3.16458 54.2248 3.4859 54.2248C3.76979 54.2248 3.94448 54.0023 3.94448 53.6851L3.94448 52.3145C3.93882 52.2595 3.94477 52.2039 3.96194 52.1514C3.97911 52.0988 4.00713 52.0504 4.04418 52.0093C4.08123 51.9683 4.12649 51.9355 4.17703 51.913C4.22756 51.8905 4.28226 51.8789 4.33756 51.8789C4.39287 51.8789 4.44756 51.8905 4.49809 51.913C4.54863 51.9355 4.59389 51.9683 4.63094 52.0093C4.66799 52.0504 4.69601 52.0988 4.71318 52.1514C4.73035 52.2039 4.7363 52.2595 4.73064 52.3145L4.73064 53.6851C4.72149 53.7518 4.72663 53.8197 4.74573 53.8843C4.76482 53.9489 4.79743 54.0087 4.84138 54.0597C4.88533 54.1108 4.93963 54.1519 5.00067 54.1803C5.06172 54.2088 5.12811 54.2239 5.19546 54.2248C5.47831 54.2248 5.65301 54.0023 5.65301 53.6851L5.65301 52.3145C5.64734 52.2595 5.65328 52.2039 5.67045 52.1514C5.68763 52.0988 5.71564 52.0504 5.75269 52.0093C5.78974 51.9683 5.83501 51.9355 5.88554 51.913C5.93608 51.8905 5.99077 51.8789 6.04608 51.8789C6.10139 51.8789 6.15608 51.8905 6.20662 51.913C6.25715 51.9355 6.30241 51.9683 6.33946 52.0093C6.37651 52.0504 6.40452 52.0988 6.4217 52.1514C6.43887 52.2039 6.44482 52.2595 6.43915 52.3145L6.43915 53.8213C6.45056 53.9646 6.43048 54.1086 6.38031 54.2433C6.33013 54.378 6.25108 54.5 6.14872 54.6009C6.04635 54.7018 5.92314 54.7791 5.78774 54.8272C5.65235 54.8754 5.50805 54.8934 5.36496 54.8799C5.20671 54.8725 5.05154 54.8335 4.90865 54.7651C4.76576 54.6967 4.63804 54.6003 4.53306 54.4816C4.43821 54.6071 4.3152 54.7085 4.17394 54.7777C4.03269 54.8469 3.87715 54.8819 3.71987 54.8799C3.58238 54.8799 3.44645 54.8508 3.321 54.7945C3.19556 54.7382 3.08342 54.6561 2.99196 54.5534C2.98251 54.64 2.93937 54.7194 2.87185 54.7745C2.80433 54.8296 2.71786 54.8558 2.63112 54.8477C2.57589 54.8472 2.52137 54.8353 2.47103 54.8126C2.42068 54.7899 2.37563 54.7569 2.33874 54.7158C2.30185 54.6747 2.27394 54.6264 2.25678 54.5739C2.23962 54.5214 2.23359 54.4659 2.23909 54.4109L2.23701 52.3145Z" fill="#B5D9F1"/>
<path d="M2.11416 47.2939C2.09815 47.037 2.13479 46.7796 2.22183 46.5374C2.30887 46.2952 2.44448 46.0733 2.62033 45.8854C2.79618 45.6974 3.00857 45.5474 3.24447 45.4445C3.48038 45.3416 3.73481 45.288 3.99218 45.2869C4.39669 45.2869 5.22131 45.4075 5.22131 45.9316C5.21786 46.0273 5.17886 46.1182 5.11195 46.1867C5.04503 46.2552 4.955 46.2962 4.85944 46.3018C4.6369 46.3018 4.45181 46.0731 3.99218 46.0731C3.84327 46.0782 3.69708 46.1144 3.56295 46.1793C3.42881 46.2441 3.30969 46.3363 3.21319 46.4498C3.11669 46.5633 3.04495 46.6957 3.00253 46.8386C2.96011 46.9814 2.94797 47.1315 2.96686 47.2793C2.96686 47.9448 3.31626 48.5178 3.99218 48.5178C4.45181 48.5178 4.60363 48.3275 4.82408 48.3275C4.87056 48.3284 4.91638 48.3387 4.95881 48.3577C5.00123 48.3767 5.0394 48.404 5.07103 48.4381C5.10267 48.4721 5.12712 48.5122 5.14294 48.5559C5.15875 48.5996 5.1656 48.6461 5.16308 48.6925C5.16308 49.174 4.38733 49.304 3.98906 49.304C3.73145 49.3033 3.47672 49.2497 3.24061 49.1467C3.0045 49.0437 2.79203 48.8933 2.61631 48.7049C2.4406 48.5166 2.30538 48.2941 2.21901 48.0514C2.13264 47.8087 2.09696 47.5509 2.11416 47.2939Z" fill="#B5D9F1"/>
<path d="M2.53389 39.3383C2.49923 39.2804 2.48023 39.2145 2.47877 39.147C2.4891 39.0362 2.54224 38.9337 2.62691 38.8615C2.71158 38.7893 2.82109 38.7529 2.93216 38.7602C3.17757 38.7602 3.24412 38.8693 3.39075 39.1761L4.74258 41.9266C4.80959 42.0366 4.85248 42.1596 4.86841 42.2874C4.8676 42.3912 4.82607 42.4906 4.75275 42.5641C4.67944 42.6376 4.58019 42.6794 4.47638 42.6805H2.50061C2.44824 42.6875 2.39498 42.6828 2.34464 42.6668C2.2943 42.6508 2.24813 42.6238 2.20945 42.5878C2.17078 42.5518 2.14055 42.5077 2.12095 42.4586C2.10135 42.4096 2.09286 42.3568 2.09609 42.3041C2.09363 42.2515 2.10263 42.199 2.12247 42.1502C2.14232 42.1015 2.17253 42.0576 2.21101 42.0217C2.2495 41.9858 2.29533 41.9587 2.34534 41.9423C2.39534 41.9258 2.44832 41.9205 2.50061 41.9266H3.8982L2.53389 39.3383Z" fill="#B5D9F1"/>
<path d="M3.1645 32.9546L4.91253 35.3775C4.98832 35.4786 5.03083 35.6007 5.03419 35.7269C5.03277 35.7838 5.01941 35.8398 4.99497 35.8913C4.97053 35.9427 4.93556 35.9884 4.89233 36.0255C4.8491 36.0625 4.79857 36.0901 4.74401 36.1064C4.68945 36.1227 4.63208 36.1273 4.57561 36.12H2.57697C2.4773 36.1214 2.38116 36.0832 2.30962 36.0138C2.23808 35.9444 2.19697 35.8495 2.19533 35.7498C2.19429 35.7008 2.20373 35.6522 2.22299 35.6072C2.24225 35.5622 2.2709 35.5218 2.30702 35.4887C2.34315 35.4556 2.38591 35.4306 2.43246 35.4154C2.47901 35.4002 2.52828 35.3951 2.57697 35.4004H4.01095L2.25461 32.9442C2.1863 32.8542 2.14776 32.7452 2.14438 32.6322C2.14438 32.4024 2.31284 32.2392 2.604 32.2392H4.74823C4.84758 32.2368 4.94396 32.2732 5.01708 32.3405C5.0902 32.4078 5.13436 32.5008 5.14026 32.6C5.14215 32.6506 5.13303 32.701 5.11354 32.7477C5.09405 32.7944 5.06464 32.8363 5.02736 32.8705C4.99007 32.9047 4.94581 32.9304 4.89762 32.9458C4.84942 32.9613 4.79845 32.966 4.74823 32.9598L3.1645 32.9546Z" fill="#B5D9F1"/>
<path d="M4.22134 28.0786C4.22134 28.4664 3.62653 28.6463 3.23866 28.6463C3.10748 28.6615 2.97459 28.6493 2.84836 28.6105C2.72214 28.5718 2.60531 28.5073 2.50526 28.4211C2.40521 28.3349 2.3241 28.2289 2.26706 28.1098C2.21001 27.9907 2.17827 27.8611 2.17382 27.7292C2.17382 26.8286 3.53918 26.8827 3.53918 26.5229C3.53918 26.3752 3.46847 26.2993 3.22722 26.2993C2.85598 26.2993 2.71976 26.5666 2.413 26.5666C2.32417 26.5587 2.24118 26.519 2.17928 26.4548C2.11738 26.3906 2.08073 26.3062 2.07607 26.2172C2.07607 25.8626 2.73016 25.612 3.1721 25.612C3.84906 25.612 4.29102 26.0102 4.29102 26.5333C4.29102 27.4286 2.92669 27.3746 2.92669 27.7406C2.92669 27.8924 3.05252 27.959 3.19498 27.959C3.45079 27.959 3.75132 27.7292 3.89794 27.7292C3.98686 27.7335 4.07053 27.7725 4.13099 27.8378C4.19146 27.9031 4.2239 27.9896 4.22134 28.0786Z" fill="#B5D9F1"/>
<path d="M2.25884 19.5257C2.25715 19.4705 2.26697 19.4155 2.28771 19.3644C2.30844 19.3132 2.33962 19.2669 2.37925 19.2284C2.41888 19.19 2.46609 19.1602 2.51787 19.141C2.56965 19.1218 2.62487 19.1137 2.67999 19.117H4.08694C4.13759 19.1144 4.18822 19.1223 4.23569 19.1402C4.28316 19.158 4.32644 19.1855 4.36284 19.2208C4.39923 19.2561 4.42795 19.2985 4.44722 19.3455C4.46648 19.3924 4.47588 19.4427 4.47481 19.4935C4.47684 19.5444 4.4681 19.5952 4.44916 19.6426C4.43023 19.6899 4.40153 19.7328 4.36493 19.7683C4.32833 19.8038 4.28466 19.8312 4.23676 19.8487C4.18886 19.8662 4.13781 19.8734 4.08694 19.8699H3.07721V20.7018H3.97359C4.02482 20.6986 4.07614 20.7061 4.12438 20.7236C4.17261 20.7411 4.21673 20.7684 4.25398 20.8037C4.29123 20.839 4.32083 20.8816 4.34093 20.9288C4.36103 20.976 4.37121 21.0269 4.37083 21.0782C4.37198 21.1298 4.36234 21.1811 4.34252 21.2287C4.3227 21.2763 4.29314 21.3193 4.25573 21.3549C4.21833 21.3904 4.17391 21.4177 4.12532 21.4351C4.07673 21.4525 4.02505 21.4595 3.97359 21.4557H3.07721L3.07721 22.2512H4.03807C4.08877 22.2488 4.13942 22.2568 4.18689 22.2748C4.23436 22.2927 4.27764 22.3203 4.31401 22.3557C4.35039 22.3911 4.37909 22.4336 4.39835 22.4805C4.4176 22.5275 4.427 22.5779 4.42594 22.6287C4.4278 22.6796 4.41895 22.7303 4.39996 22.7776C4.38097 22.8249 4.35226 22.8677 4.3157 22.9031C4.27914 22.9386 4.23554 22.966 4.18771 22.9836C4.13988 23.0012 4.0889 23.0085 4.03807 23.0051H2.68622C2.39818 23.0051 2.26195 22.8034 2.26195 22.5299L2.25884 19.5257Z" fill="#B5D9F1"/>
<path opacity="0.15" d="M40.3146 63.6524C40.568 63.932 41.6996 63.3951 43.4604 62.1597C45.2213 60.9243 47.4672 59.0917 49.7041 57.065C51.941 55.0383 53.9856 52.9836 55.3882 51.3527C56.7908 49.7219 57.4364 48.6486 57.1831 48.369C56.9297 48.0894 55.7981 48.6263 54.0373 49.8617C52.2764 51.097 50.0305 52.9297 47.7936 54.9563C45.5567 56.983 43.5121 59.0378 42.1095 60.6686C40.7069 62.2995 40.0613 63.3727 40.3146 63.6524Z" fill="#40526D"/>
<path d="M36.9619 24.4251C36.5759 23.999 36.0364 23.7437 35.4621 23.7154C34.8878 23.6871 34.3258 23.8881 33.8997 24.2742L32.99 25.0984C31.237 24.476 29.3481 24.3402 27.524 24.7052C25.6999 25.0702 24.0088 25.9225 22.6302 27.1715C21.2517 28.4206 20.2371 30.0197 19.6945 31.799C19.1518 33.5783 19.1012 35.4714 19.5481 37.2772L18.6379 38.1019C18.2118 38.4879 17.9565 39.0274 17.9282 39.6017C17.8999 40.176 18.1009 40.738 18.4869 41.1641L37.4096 62.0492C37.7956 62.4753 38.3352 62.7306 38.9094 62.7589C39.4837 62.7872 40.0457 62.5863 40.4718 62.2002L55.7336 48.3725C55.9446 48.1813 56.1159 47.9505 56.2376 47.6931C56.3594 47.4358 56.4293 47.157 56.4433 46.8726C56.4573 46.5883 56.4152 46.304 56.3193 46.0359C56.2235 45.7678 56.0757 45.5212 55.8846 45.3103L36.9619 24.4251ZM29.0805 28.6406L23.4577 33.735C23.2447 33.928 22.9638 34.0284 22.6767 34.0143C22.3897 34.0001 22.12 33.8725 21.9271 33.6595C21.7341 33.4466 21.6336 33.1657 21.6478 32.8786C21.662 32.5916 21.7896 32.3219 22.0025 32.1289L27.6253 27.0345C27.8383 26.8415 28.1192 26.7411 28.4063 26.7552C28.6933 26.7694 28.963 26.897 29.1559 27.11C29.3489 27.3229 29.4494 27.6038 29.4352 27.8909C29.4211 28.1779 29.2935 28.4476 29.0805 28.6406Z" fill="#3598DB"/>
<path d="M21.6216 39.7883L35.2773 27.4157L52.7444 46.6943L39.0886 59.0668L21.6216 39.7883Z" fill="#DAECF8"/>
<path d="M31.4465 50.6321L32.4812 29.949L22.2916 39.1812C22.114 39.3421 22.0076 39.5669 21.9958 39.8062C21.984 40.0455 22.0678 40.2797 22.2287 40.4572L31.4465 50.6321Z" fill="white"/>
<path d="M20.724 38.4109C20.9529 38.2035 21.1235 37.9399 21.2192 37.6462C21.3148 37.3525 21.332 37.0389 21.2691 36.7365C20.9078 35.2513 20.9442 33.6971 21.3745 32.2304C21.8049 30.7637 22.6141 29.4363 23.7207 28.3818C24.8789 27.3845 26.2794 26.7099 27.7812 26.426C29.283 26.142 30.8331 26.2587 32.2755 26.7643C32.5702 26.8567 32.884 26.8705 33.1857 26.8042C33.4874 26.738 33.7665 26.594 33.9954 26.3866L36.5407 24.0805C36.1405 23.8162 35.6638 23.6924 35.1856 23.7285C34.7074 23.7645 34.2546 23.9583 33.8985 24.2796L32.9888 25.1038C31.2358 24.4814 29.3469 24.3456 27.5228 24.7106C25.6987 25.0756 24.0076 25.9279 22.629 27.1769C21.2505 28.426 20.236 30.0251 19.6933 31.8044C19.1506 33.5837 19.1 35.4768 19.5469 37.2826L18.6367 38.1073C18.282 38.4301 18.0446 38.8615 17.9617 39.3339C17.8788 39.8063 17.9551 40.2928 18.1787 40.7171L20.724 38.4109Z" fill="#6CB4E4"/>
<path d="M21.6216 39.7883L35.2773 27.4157L52.7444 46.6943L39.0886 59.0668L21.6216 39.7883Z" stroke="#004590" stroke-width="0.888889" stroke-linejoin="round"/>
<path d="M36.9619 24.4251C36.5759 23.999 36.0364 23.7437 35.4621 23.7154C34.8878 23.6871 34.3258 23.8881 33.8997 24.2742L32.99 25.0984C31.237 24.476 29.3481 24.3402 27.524 24.7052C25.6999 25.0702 24.0088 25.9225 22.6302 27.1715C21.2517 28.4206 20.2371 30.0197 19.6945 31.799C19.1518 33.5783 19.1012 35.4714 19.5481 37.2772L18.6379 38.1019C18.2118 38.4879 17.9565 39.0274 17.9282 39.6017C17.8999 40.176 18.1009 40.738 18.4869 41.1641L37.4096 62.0492C37.7956 62.4753 38.3352 62.7306 38.9094 62.7589C39.4837 62.7872 40.0457 62.5863 40.4718 62.2002L55.7336 48.3725C55.9446 48.1813 56.1159 47.9505 56.2376 47.6931C56.3594 47.4358 56.4293 47.157 56.4433 46.8726C56.4573 46.5883 56.4152 46.304 56.3193 46.0359C56.2235 45.7678 56.0757 45.5212 55.8846 45.3103L36.9619 24.4251ZM29.0805 28.6406L23.4577 33.735C23.2447 33.928 22.9638 34.0284 22.6767 34.0143C22.3897 34.0001 22.12 33.8725 21.9271 33.6595C21.7341 33.4466 21.6336 33.1657 21.6478 32.8786C21.662 32.5916 21.7896 32.3219 22.0025 32.1289L27.6253 27.0345C27.8383 26.8415 28.1192 26.7411 28.4063 26.7552C28.6933 26.7694 28.963 26.897 29.1559 27.11C29.3489 27.3229 29.4494 27.6038 29.4352 27.8909C29.4211 28.1779 29.2935 28.4476 29.0805 28.6406Z" stroke="#004590" stroke-width="0.888889" stroke-linejoin="round"/>
<path d="M38.6055 52.076L45.8349 45.526" stroke="#40526D" stroke-width="0.888889" stroke-linecap="round" stroke-linejoin="round"/>
<path d="M41.6721 52.2261L45.6883 48.5873" stroke="#40526D" stroke-width="0.888889" stroke-linecap="round" stroke-linejoin="round"/>
<path d="M24.4142 29.9479L23.6862 29.1443C22.142 27.44 21.3381 25.1922 21.4512 22.8952C21.5644 20.5982 22.5853 18.4402 24.2895 16.8959C25.1334 16.1313 26.1197 15.5404 27.192 15.1569C28.2642 14.7735 29.4016 14.605 30.539 14.661C31.6764 14.7171 32.7916 14.9967 33.821 15.4837C34.8504 15.9708 35.7737 16.6559 36.5383 17.4998L50.0025 32.3604C50.6781 33.106 51.6222 33.5527 52.6271 33.6023C53.6321 33.6518 54.6155 33.3001 55.3612 32.6245C56.1068 31.949 56.5535 31.0049 56.603 29.9999C56.6526 28.995 56.3009 28.0115 55.6253 27.2659L42.8892 13.2089C41.7311 11.9307 40.1127 11.1649 38.39 11.0799C36.6673 10.9948 34.9814 11.5976 33.7031 12.7555L27.2767 18.578C26.3388 19.4277 25.669 20.5325 25.3494 21.7571C25.0299 22.9817 25.0745 24.2728 25.4777 25.4725" stroke="#004590" stroke-width="0.888889" stroke-linejoin="round" stroke-dasharray="44.44 3.11 0.44 2.22"/>
<rect x="27.4502" y="42.0422" width="12.456" height="12.456" rx="2.076" transform="rotate(-42.18 27.4502 42.0422)" fill="#40526D"/>
<g clip-path="url(#clip0_5137_748)">
<path d="M37.3619 42.248C37.7387 42.6638 38.2529 42.8808 38.7728 42.8927L39.2852 43.4582L35.7911 46.6242C35.759 46.6533 35.7171 46.6689 35.6746 46.6677C35.6322 46.6665 35.5926 46.6485 35.5647 46.6176L35.2486 46.2688C34.4143 45.348 34.8761 44.5145 35.2942 43.7884L35.4214 43.5589C35.432 43.5366 35.433 43.489 35.3952 43.4132C35.2985 43.2215 35.1449 43.0656 34.9544 42.9657C34.5073 42.9347 34.0128 42.8366 33.3385 42.0924C32.6032 41.2809 32.8517 40.4163 33.4256 39.8963C33.9995 39.3763 34.894 39.2052 35.6293 40.0167C36.3035 40.7609 36.361 41.272 36.3417 41.713C36.4207 41.9071 36.557 42.0711 36.7331 42.184C36.8049 42.2291 36.8586 42.2397 36.8755 42.2243L37.1192 42.1136L37.128 42.1099C37.1582 42.097 37.1886 42.084 37.2191 42.071C37.2628 42.132 37.3104 42.1911 37.3619 42.248Z" fill="white"/>
<path fill-rule="evenodd" clip-rule="evenodd" d="M39.4486 42.3158L39.3495 42.2064C39.0484 42.3325 38.7124 42.3481 38.401 42.2504C38.0896 42.1527 37.8227 41.9481 37.6477 41.6727C37.4726 41.3972 37.4006 41.0687 37.4443 40.7453C37.488 40.4218 37.6447 40.1241 37.8866 39.9049C38.1286 39.6857 38.4402 39.559 38.7664 39.5473C39.0926 39.5356 39.4124 39.6395 39.6693 39.8408C39.9262 40.0421 40.1036 40.3277 40.1702 40.6473C40.2368 40.9668 40.1883 41.2996 40.0332 41.5869L41.1712 42.8427C41.1815 42.8538 41.1893 42.8669 41.1942 42.8812C41.1992 42.8955 41.201 42.9107 41.1997 42.9258L41.1756 43.4144C41.1753 43.4295 41.1719 43.4444 41.1657 43.4582C41.1594 43.472 41.1504 43.4843 41.1392 43.4945C41.128 43.5047 41.1148 43.5124 41.1005 43.5173C41.0862 43.5222 41.071 43.524 41.0559 43.5228L40.5673 43.4988C40.5522 43.4987 40.5373 43.4953 40.5235 43.489C40.5098 43.4827 40.4975 43.4736 40.4875 43.4623L40.2877 43.2419L40.0093 43.2266C39.9942 43.2263 39.9793 43.2229 39.9655 43.2167C39.9517 43.2104 39.9394 43.2014 39.9292 43.1902C39.9191 43.179 39.9113 43.1659 39.9064 43.1515C39.9016 43.1372 39.8997 43.122 39.9009 43.107L39.9131 42.8284L39.8233 42.7293L39.5448 42.714C39.5297 42.7137 39.5148 42.7104 39.501 42.7041C39.4872 42.6979 39.4749 42.6888 39.4647 42.6776C39.4546 42.6664 39.4468 42.6533 39.442 42.6389C39.4371 42.6246 39.4352 42.6094 39.4365 42.5944L39.4486 42.3158ZM38.8913 41.0136C39.0329 40.8853 39.0437 40.6665 38.9153 40.5249C38.787 40.3833 38.5682 40.3725 38.4266 40.5008C38.285 40.6291 38.2742 40.848 38.4025 40.9896C38.5309 41.1312 38.7497 41.1419 38.8913 41.0136Z" fill="white"/>
</g>
<path d="M74.8756 34.3972C74.953 34.0616 75.1232 33.7546 75.3666 33.5111C75.6101 33.2676 75.9171 33.0975 76.2527 33.0201L79.017 32.3821C79.0674 32.3702 79.1124 32.3417 79.1446 32.3011C79.1768 32.2605 79.1943 32.2102 79.1943 32.1583C79.1943 32.1065 79.1768 32.0562 79.1446 32.0156C79.1124 31.975 79.0674 31.9464 79.017 31.9346L76.2527 31.2965C75.9169 31.2192 75.6096 31.0489 75.366 30.8053C75.1223 30.5616 74.9521 30.2544 74.8747 29.9186L74.2376 27.1562C74.2261 27.1053 74.1977 27.0598 74.1569 27.0272C74.1162 26.9946 74.0656 26.9768 74.0134 26.9768C73.9612 26.9768 73.9106 26.9946 73.8698 27.0272C73.8291 27.0598 73.8006 27.1053 73.7892 27.1562L73.1521 29.9186C73.0751 30.2539 72.9054 30.5609 72.6625 30.8045C72.4195 31.0482 72.113 31.2186 71.7779 31.2965L69.0145 31.9346C68.964 31.9464 68.9191 31.975 68.8869 32.0156C68.8547 32.0562 68.8372 32.1065 68.8372 32.1583C68.8372 32.2102 68.8547 32.2605 68.8869 32.3011C68.9191 32.3417 68.964 32.3702 69.0145 32.3821L71.7769 33.0201C72.1126 33.0975 72.4197 33.2675 72.6634 33.511C72.907 33.7545 73.0773 34.0616 73.1549 34.3972L73.792 37.1614C73.8034 37.2124 73.8319 37.2579 73.8726 37.2905C73.9134 37.3231 73.964 37.3408 74.0162 37.3408C74.0684 37.3408 74.119 37.3231 74.1598 37.2905C74.2005 37.2579 74.2289 37.2124 74.2404 37.1614L74.8756 34.3972Z" fill="#F7DD7B" stroke="#EDBF0E" stroke-width="0.888889" stroke-linecap="round" stroke-linejoin="round"/>
<defs>
<clipPath id="clip0_5137_748">
<rect width="8.30398" height="8.30398" fill="white" transform="translate(30.7671 41.8381) rotate(-42.18)"/>
</clipPath>
</defs>
</svg>
