<svg width="48" height="48" viewBox="0 0 48 48" fill="none" xmlns="http://www.w3.org/2000/svg">
<rect x="0.5" y="0.5" width="47" height="47" rx="23.5" fill="url(#paint0_linear_4762_17649)"/>
<rect x="0.5" y="0.5" width="47" height="47" rx="23.5" stroke="#B5D9F1"/>
<path d="M31.5 21.5H30.75V18.75C30.75 16.9598 30.0388 15.2429 28.7729 13.977C27.5071 12.7112 25.7902 12 24 12C22.2098 12 20.4929 12.7112 19.227 13.977C17.9611 15.2429 17.25 16.9598 17.25 18.75V21.5H16.5C15.9695 21.5 15.4608 21.7107 15.0858 22.0858C14.7107 22.4609 14.5 22.9696 14.5 23.5V34C14.5 34.5304 14.7107 35.0391 15.0858 35.4142C15.4608 35.7893 15.9695 36 16.5 36H31.5C32.0304 36 32.5391 35.7893 32.9142 35.4142C33.2893 35.0391 33.5 34.5304 33.5 34V23.5C33.5 22.9696 33.2893 22.4609 32.9142 22.0858C32.5391 21.7107 32.0304 21.5 31.5 21.5ZM24 30.5C23.6044 30.5 23.2177 30.3827 22.8888 30.1629C22.5599 29.9432 22.3036 29.6308 22.1522 29.2654C22.0008 28.8999 21.9612 28.4978 22.0384 28.1098C22.1156 27.7219 22.3061 27.3655 22.5858 27.0858C22.8655 26.8061 23.2218 26.6156 23.6098 26.5384C23.9978 26.4613 24.3999 26.5009 24.7653 26.6522C25.1308 26.8036 25.4431 27.06 25.6629 27.3889C25.8827 27.7178 26 28.1044 26 28.5C26 29.0304 25.7893 29.5391 25.4142 29.9142C25.0391 30.2893 24.5304 30.5 24 30.5ZM28.25 21C28.25 21.1326 28.1973 21.2598 28.1035 21.3536C28.0098 21.4473 27.8826 21.5 27.75 21.5H20.25C20.1174 21.5 19.9902 21.4473 19.8964 21.3536C19.8026 21.2598 19.75 21.1326 19.75 21V18.75C19.75 17.6228 20.1977 16.5418 20.9948 15.7448C21.7918 14.9478 22.8728 14.5 24 14.5C25.1271 14.5 26.2081 14.9478 27.0052 15.7448C27.8022 16.5418 28.25 17.6228 28.25 18.75V21Z" fill="#22618C"/>
<defs>
<linearGradient id="paint0_linear_4762_17649" x1="22.9655" y1="20.6842" x2="-5.51295" y2="14.5784" gradientUnits="userSpaceOnUse">
<stop stop-color="white"/>
<stop offset="1" stop-color="#EBF5FB"/>
</linearGradient>
</defs>
</svg>
