<svg width="48" height="48" viewBox="0 0 48 48" fill="none" xmlns="http://www.w3.org/2000/svg">
<rect x="0.5" y="0.5" width="47" height="47" rx="23.5" fill="url(#paint0_linear_4762_17645)"/>
<rect x="0.5" y="0.5" width="47" height="47" rx="23.5" stroke="#B5D9F1"/>
<g clip-path="url(#clip0_4762_17645)">
<path d="M21.025 24.915C21.0639 24.8765 21.089 24.8263 21.0966 24.7721C21.1042 24.7179 21.0938 24.6627 21.067 24.615C20.7935 24.1199 20.6501 23.5636 20.6501 22.998C20.6501 22.4324 20.7935 21.8761 21.067 21.381C21.094 21.3333 21.1045 21.2781 21.0969 21.2239C21.0893 21.1697 21.064 21.1194 21.025 21.081L19.467 19.528C19.4412 19.5023 19.4101 19.4825 19.3759 19.47C19.3417 19.4576 19.3051 19.4527 19.2688 19.4559C19.2325 19.459 19.1974 19.4701 19.1658 19.4882C19.1342 19.5064 19.107 19.5312 19.086 19.561C18.3792 20.5685 18 21.7693 18 23C18 24.2307 18.3792 25.4315 19.086 26.439C19.1069 26.469 19.1341 26.4941 19.1657 26.5124C19.1973 26.5307 19.2326 26.5419 19.269 26.545C19.3056 26.5482 19.3424 26.5434 19.3769 26.5309C19.4114 26.5185 19.4428 26.4987 19.469 26.473L21.025 24.915Z" fill="#22618C"/>
<path d="M24 24.85C25.0217 24.85 25.85 24.0217 25.85 23C25.85 21.9783 25.0217 21.15 24 21.15C22.9783 21.15 22.15 21.9783 22.15 23C22.15 24.0217 22.9783 24.85 24 24.85Z" fill="#22618C"/>
<path d="M22.085 20.025C22.1235 20.0639 22.1737 20.089 22.2279 20.0966C22.2821 20.1042 22.3373 20.0938 22.385 20.067C22.8801 19.7935 23.4364 19.6501 24.002 19.6501C24.5676 19.6501 25.1239 19.7935 25.619 20.067C25.6667 20.0938 25.7219 20.1042 25.7761 20.0966C25.8303 20.089 25.8805 20.0639 25.919 20.025L27.476 18.467C27.5017 18.4412 27.5215 18.4101 27.534 18.3759C27.5464 18.3417 27.5512 18.3051 27.5481 18.2688C27.545 18.2326 27.5339 18.1974 27.5158 18.1658C27.4976 18.1342 27.4728 18.107 27.443 18.086C26.4355 17.3792 25.2347 17 24.004 17C22.7733 17 21.5725 17.3792 20.565 18.086C20.5352 18.107 20.5104 18.1342 20.4922 18.1658C20.4741 18.1974 20.463 18.2326 20.4599 18.2688C20.4567 18.3051 20.4616 18.3417 20.474 18.3759C20.4865 18.4101 20.5063 18.4412 20.532 18.467L22.085 20.025Z" fill="#22618C"/>
<path d="M26.975 21.086C26.9358 21.1243 26.9105 21.1746 26.9029 21.2288C26.8953 21.2831 26.9059 21.3384 26.933 21.386C27.2084 21.8843 27.3519 22.4446 27.35 23.0139C27.3481 23.5832 27.2008 24.1426 26.922 24.639C26.8986 24.6806 26.8895 24.7287 26.896 24.776C26.9025 24.8233 26.9243 24.8672 26.958 24.901L28.532 26.476C28.558 26.502 28.5894 26.522 28.6239 26.5344C28.6585 26.5469 28.6954 26.5515 28.732 26.548C28.7683 26.5448 28.8034 26.5337 28.835 26.5156C28.8666 26.4974 28.8939 26.4727 28.915 26.443C29.6218 25.4353 30.0009 24.2343 30.0009 23.0035C30.0009 21.7727 29.6218 20.5717 28.915 19.564C28.8936 19.535 28.8661 19.5111 28.8345 19.4938C28.8029 19.4766 28.7679 19.4664 28.732 19.464C28.6954 19.4606 28.6586 19.4653 28.624 19.4778C28.5894 19.4902 28.558 19.5101 28.532 19.536L26.975 21.086Z" fill="#22618C"/>
<path d="M25.914 25.975C25.8754 25.9363 25.8252 25.9112 25.7711 25.9036C25.7169 25.8961 25.6618 25.9064 25.614 25.933C25.1193 26.2065 24.5633 26.35 23.998 26.35C23.4327 26.35 22.8767 26.2065 22.382 25.933C22.3343 25.9062 22.2791 25.8958 22.2249 25.9034C22.1707 25.911 22.1205 25.9361 22.082 25.975L20.528 27.533C20.5022 27.5591 20.4823 27.5905 20.4699 27.625C20.4574 27.6596 20.4527 27.6964 20.456 27.733C20.4592 27.7694 20.4704 27.8046 20.4887 27.8363C20.507 27.8679 20.532 27.8951 20.562 27.916C21.5694 28.6222 22.7698 29.0011 24 29.0011C25.2303 29.0011 26.4307 28.6222 27.438 27.916C27.4668 27.8944 27.4906 27.8669 27.5078 27.8353C27.5251 27.8038 27.5354 27.7689 27.538 27.733C27.5417 27.6964 27.5372 27.6594 27.5247 27.6248C27.5123 27.5902 27.4922 27.5588 27.466 27.533L25.914 25.975Z" fill="#22618C"/>
<path d="M33.5 12H14.5C13.8493 11.9888 13.2206 12.236 12.752 12.6877C12.2833 13.1393 12.0129 13.7583 12 14.409V31.591C12.0036 32.0399 12.1331 32.4788 12.3737 32.8578C12.6143 33.2368 12.9563 33.5407 13.361 33.735C13.4027 33.7557 13.4379 33.7876 13.4624 33.8272C13.487 33.8668 13.5 33.9124 13.5 33.959V35C13.5 35.2652 13.6054 35.5196 13.7929 35.7071C13.9804 35.8946 14.2348 36 14.5 36C14.7652 36 15.0196 35.8946 15.2071 35.7071C15.3946 35.5196 15.5 35.2652 15.5 35V34.25C15.5 34.1837 15.5263 34.1201 15.5732 34.0732C15.6201 34.0263 15.6837 34 15.75 34H32.25C32.3163 34 32.3799 34.0263 32.4268 34.0732C32.4737 34.1201 32.5 34.1837 32.5 34.25V35C32.5 35.2652 32.6054 35.5196 32.7929 35.7071C32.9804 35.8946 33.2348 36 33.5 36C33.7652 36 34.0196 35.8946 34.2071 35.7071C34.3946 35.5196 34.5 35.2652 34.5 35V33.959C34.5 33.9124 34.513 33.8668 34.5376 33.8272C34.5621 33.7876 34.5973 33.7557 34.639 33.735C35.0437 33.5407 35.3857 33.2368 35.6263 32.8578C35.8669 32.4788 35.9964 32.0399 36 31.591V14.409C35.9871 13.7583 35.7167 13.1393 35.248 12.6877C34.7794 12.236 34.1507 11.9888 33.5 12V12ZM32 23C32 24.5823 31.5308 26.129 30.6518 27.4446C29.7727 28.7602 28.5233 29.7855 27.0615 30.391C25.5997 30.9965 23.9911 31.155 22.4393 30.8463C20.8874 30.5376 19.462 29.7757 18.3431 28.6569C17.2243 27.538 16.4624 26.1126 16.1537 24.5607C15.845 23.0089 16.0035 21.4003 16.609 19.9385C17.2145 18.4767 18.2398 17.2273 19.5554 16.3482C20.871 15.4692 22.4177 15 24 15C26.121 15.0024 28.1544 15.846 29.6542 17.3458C31.154 18.8456 31.9976 20.879 32 23V23Z" fill="#22618C"/>
</g>
<defs>
<linearGradient id="paint0_linear_4762_17645" x1="22.9655" y1="20.6842" x2="-5.51295" y2="14.5784" gradientUnits="userSpaceOnUse">
<stop stop-color="white"/>
<stop offset="1" stop-color="#EBF5FB"/>
</linearGradient>
<clipPath id="clip0_4762_17645">
<rect width="24" height="24" fill="white" transform="translate(12 12)"/>
</clipPath>
</defs>
</svg>
