<svg width="56" height="56" viewBox="0 0 56 56" fill="none" xmlns="http://www.w3.org/2000/svg">
<g clip-path="url(#clip0_4244_282375)">
<rect width="56" height="56" rx="3" fill="#EBEEEF"/>
<g clip-path="url(#clip1_4244_282375)">
<rect width="37.3333" height="37.3333" transform="translate(9.33334 9.3335)" fill="#EBEEEF"/>
<path d="M22.2439 30.3334C22.3467 30.3355 22.4487 30.3169 22.5441 30.2785C22.6394 30.2402 22.726 30.183 22.7986 30.1103C22.8713 30.0377 22.9285 29.9511 22.9668 29.8558C23.0052 29.7604 23.0238 29.6583 23.0217 29.5556C23.1094 28.1835 23.3071 26.8206 23.6128 25.4801C23.6479 25.3373 23.6401 25.1873 23.5903 25.0489C23.5405 24.9105 23.4509 24.79 23.3328 24.7023C23.2011 24.6085 23.0434 24.5581 22.8817 24.5581C22.72 24.5581 22.5623 24.6085 22.4306 24.7023C20.9022 25.8674 19.8072 27.51 19.3195 29.369C19.2878 29.4861 19.284 29.6089 19.3083 29.7278C19.3326 29.8466 19.3844 29.9581 19.4595 30.0534C19.5311 30.1459 19.6231 30.2207 19.7283 30.272C19.8335 30.3232 19.9491 30.3496 20.0662 30.349L22.2439 30.3334Z" fill="#5A6A81"/>
<path d="M32.1994 29.5558C32.2113 29.7539 32.2985 29.94 32.4431 30.0759C32.5877 30.2118 32.7788 30.2873 32.9772 30.2869H35.1394C35.2565 30.2876 35.372 30.2612 35.4773 30.21C35.5825 30.1587 35.6744 30.0839 35.7461 29.9914C35.8212 29.8961 35.873 29.7846 35.8973 29.6658C35.9216 29.5469 35.9177 29.424 35.8861 29.3069C35.3984 27.448 34.3034 25.8054 32.775 24.6403C32.6433 24.5465 32.4856 24.4961 32.3239 24.4961C32.1622 24.4961 32.0045 24.5465 31.8728 24.6403C31.7373 24.7247 31.6326 24.8504 31.5738 24.9988C31.515 25.1471 31.5053 25.3104 31.5461 25.4647C31.8736 26.8086 32.0921 28.1768 32.1994 29.5558Z" fill="#5A6A81"/>
<path d="M27.0505 23.0377C25.9996 25.0549 25.4148 27.2823 25.3394 29.5555C25.3284 29.6628 25.3408 29.7712 25.3757 29.8732C25.4106 29.9753 25.4672 30.0685 25.5416 30.1466C25.6156 30.225 25.7048 30.2876 25.8038 30.3304C25.9027 30.3731 26.0094 30.3953 26.1172 30.3955H29.1038C29.2116 30.3953 29.3183 30.3731 29.4172 30.3304C29.5162 30.2876 29.6054 30.225 29.6794 30.1466C29.7538 30.0685 29.8104 29.9753 29.8453 29.8732C29.8802 29.7712 29.8926 29.6628 29.8816 29.5555C29.797 27.3034 29.2125 25.0983 28.1705 23.1C28.1606 23.0614 28.1387 23.0271 28.1079 23.0019C28.0771 22.9767 28.0391 22.962 27.9994 22.96H27.0972C27.0755 22.9817 27.0594 23.0084 27.0505 23.0377V23.0377Z" fill="#5A6A81"/>
<path d="M23.0384 33.3981C23.0265 33.2 22.9393 33.014 22.7948 32.8781C22.6502 32.7422 22.4591 32.6666 22.2606 32.667H20.0829C19.9658 32.6664 19.8502 32.6927 19.745 32.744C19.6398 32.7952 19.5478 32.87 19.4762 32.9626C19.4011 33.0578 19.3493 33.1693 19.325 33.2882C19.3007 33.407 19.3045 33.5299 19.3362 33.647C19.8194 35.5079 20.9154 37.1519 22.4473 38.3137C22.579 38.4075 22.7367 38.4579 22.8984 38.4579C23.0601 38.4579 23.2178 38.4075 23.3495 38.3137C23.4828 38.2233 23.5854 38.0946 23.6437 37.9446C23.7021 37.7945 23.7134 37.6303 23.6762 37.4737C23.3404 36.1373 23.1269 34.7732 23.0384 33.3981Z" fill="#5A6A81"/>
<path d="M28.1554 39.9937C29.171 37.9741 29.7538 35.7647 29.8665 33.507C29.8808 33.3995 29.8701 33.2902 29.835 33.1876C29.7999 33.0851 29.7414 32.992 29.6642 32.9159C29.5938 32.8371 29.5075 32.7743 29.411 32.7313C29.3144 32.6884 29.2099 32.6665 29.1042 32.667H26.1176C26.0119 32.6665 25.9074 32.6884 25.8109 32.7313C25.7143 32.7743 25.628 32.8371 25.5576 32.9159C25.4804 32.992 25.422 33.0851 25.3869 33.1876C25.3518 33.2902 25.341 33.3995 25.3554 33.507C25.4681 35.7647 26.0509 37.9741 27.0665 39.9937V39.9937H27.5487H28.0309H28.1554Z" fill="#5A6A81"/>
<path d="M41.6889 17.3757C41.5498 17.3195 41.4308 17.2226 41.3476 17.0977C41.2644 16.9728 41.2207 16.8258 41.2222 16.6757V12.4446C41.2222 11.6195 40.8945 10.8282 40.311 10.2447C39.7276 9.66127 38.9362 9.3335 38.1111 9.3335H17.8889C16.4449 9.3335 15.0601 9.90711 14.0391 10.9281C13.0181 11.9492 12.4445 13.334 12.4445 14.7779V42.0002C12.4445 43.2378 12.9361 44.4248 13.8113 45.3C14.6865 46.1752 15.8734 46.6668 17.1111 46.6668H40.4445C41.2696 46.6668 42.0609 46.3391 42.6443 45.7556C43.2278 45.1722 43.5556 44.3808 43.5556 43.5557V20.2224C43.5547 19.6178 43.3776 19.0267 43.0461 18.5211C42.7146 18.0156 42.243 17.6175 41.6889 17.3757V17.3757ZM15.5556 14.7779C15.5556 14.1591 15.8014 13.5656 16.239 13.128C16.6766 12.6904 17.2701 12.4446 17.8889 12.4446H37.3333C37.5396 12.4446 37.7375 12.5266 37.8833 12.6724C38.0292 12.8183 38.1111 13.0161 38.1111 13.2224V16.3335C38.1111 16.5398 38.0292 16.7376 37.8833 16.8835C37.7375 17.0293 37.5396 17.1113 37.3333 17.1113H17.8889C17.2701 17.1113 16.6766 16.8654 16.239 16.4279C15.8014 15.9903 15.5556 15.3968 15.5556 14.7779ZM27.6111 42.3891C25.4575 42.3891 23.3523 41.7504 21.5616 40.5539C19.7709 39.3575 18.3753 37.6568 17.5511 35.6672C16.7269 33.6775 16.5113 31.4881 16.9315 29.3758C17.3516 27.2636 18.3887 25.3234 19.9115 23.8006C21.4344 22.2777 23.3746 21.2407 25.4868 20.8205C27.599 20.4004 29.7884 20.616 31.7781 21.4401C33.7678 22.2643 35.4684 23.66 36.6649 25.4506C37.8614 27.2413 38.5 29.3465 38.5 31.5002C38.5 34.3881 37.3528 37.1577 35.3107 39.1998C33.2687 41.2418 30.499 42.3891 27.6111 42.3891V42.3891Z" fill="#5A6A81"/>
<path d="M32.9625 32.667C32.7641 32.6666 32.573 32.7421 32.4284 32.8781C32.2838 33.014 32.1966 33.2 32.1847 33.3981C32.1023 34.7779 31.894 36.1473 31.5625 37.4892C31.5253 37.6458 31.5366 37.8101 31.595 37.9601C31.6533 38.1101 31.7559 38.2389 31.8892 38.3292C32.0209 38.423 32.1786 38.4734 32.3403 38.4734C32.502 38.4734 32.6597 38.423 32.7914 38.3292C34.3233 37.1674 35.4193 35.5235 35.9025 33.6625C35.9342 33.5454 35.938 33.4226 35.9137 33.3037C35.8894 33.1849 35.8376 33.0734 35.7625 32.9781C35.6909 32.8856 35.5989 32.8108 35.4937 32.7595C35.3885 32.7083 35.2729 32.6819 35.1558 32.6825L32.9625 32.667Z" fill="#5A6A81"/>
</g>
</g>
<rect x="0.5" y="0.5" width="55" height="55" rx="3.5" stroke="#D7DBE0"/>
<defs>
<clipPath id="clip0_4244_282375">
<rect width="56" height="56" rx="4" fill="white"/>
</clipPath>
<clipPath id="clip1_4244_282375">
<rect width="37.3333" height="37.3333" fill="white" transform="translate(9.33334 9.3335)"/>
</clipPath>
</defs>
</svg>
