<svg width="24" height="24" viewBox="0 0 24 24" fill="none" xmlns="http://www.w3.org/2000/svg">
<path d="M10.4606 12.9167C10.5043 11.5771 10.8426 10.2645 11.4506 9.07584C11.4558 9.05854 11.4651 9.04279 11.4776 9.03001H11.9996C12.0226 9.03123 12.0446 9.03989 12.0624 9.05473C12.0802 9.06956 12.0929 9.08981 12.0986 9.11251C12.7015 10.2901 13.0397 11.5895 13.0886 12.9167C13.095 12.9799 13.0878 13.0438 13.0676 13.1039C13.0474 13.164 13.0147 13.219 12.9716 13.265C12.9288 13.3112 12.8772 13.3481 12.82 13.3733C12.7627 13.3985 12.701 13.4116 12.6386 13.4117H10.9106C10.8483 13.4116 10.7866 13.3985 10.7293 13.3733C10.6721 13.3481 10.6205 13.3112 10.5776 13.265C10.5346 13.219 10.5019 13.164 10.4817 13.1039C10.4615 13.0438 10.4543 12.9799 10.4606 12.9167Z" fill="#40526D"/>
<path d="M14.4297 12.9167C14.4366 13.0334 14.487 13.143 14.5706 13.2231C14.6543 13.3032 14.7649 13.3477 14.8797 13.3475H16.1307C16.1984 13.3479 16.2653 13.3323 16.3261 13.3021C16.387 13.2719 16.4402 13.2279 16.4817 13.1733C16.5251 13.1172 16.5551 13.0515 16.5691 12.9815C16.5832 12.9114 16.581 12.839 16.5627 12.77C16.2805 11.6746 15.6469 10.7066 14.7627 10.02C14.6865 9.96474 14.5952 9.93504 14.5017 9.93504C14.4081 9.93504 14.3169 9.96474 14.2407 10.02C14.1623 10.0698 14.1017 10.1438 14.0677 10.2312C14.0337 10.3187 14.0281 10.4149 14.0517 10.5058C14.2412 11.2978 14.3676 12.104 14.4297 12.9167Z" fill="#40526D"/>
<path d="M8.6697 13.375C8.72913 13.3763 8.7882 13.3653 8.84335 13.3427C8.8985 13.3201 8.9486 13.2864 8.99063 13.2436C9.03266 13.2008 9.06576 13.1497 9.08794 13.0936C9.11012 13.0374 9.12093 12.9772 9.1197 12.9167C9.17044 12.1081 9.2848 11.305 9.4617 10.515C9.48202 10.4309 9.47748 10.3425 9.44866 10.261C9.41984 10.1794 9.36802 10.1084 9.2997 10.0567C9.22349 10.0014 9.13226 9.97174 9.0387 9.97174C8.94514 9.97174 8.85391 10.0014 8.7777 10.0567C7.89342 10.7433 7.25985 11.7113 6.9777 12.8067C6.95939 12.8757 6.95717 12.9481 6.97124 13.0182C6.9853 13.0882 7.01525 13.1539 7.0587 13.21C7.10015 13.2646 7.15338 13.3086 7.21425 13.3388C7.27511 13.369 7.34199 13.3846 7.4097 13.3842L8.6697 13.375Z" fill="#40526D"/>
<path d="M9.12937 15.1808C9.12248 15.0641 9.07205 14.9545 8.98839 14.8744C8.90473 14.7943 8.79418 14.7498 8.67937 14.75H7.41937C7.35166 14.7496 7.28478 14.7652 7.22391 14.7954C7.16304 14.8256 7.10982 14.8696 7.06837 14.9242C7.02492 14.9803 6.99497 15.046 6.98091 15.1161C6.96684 15.1861 6.96905 15.2585 6.98737 15.3275C7.26694 16.4241 7.90103 17.3929 8.78737 18.0775C8.86358 18.1328 8.95481 18.1625 9.04837 18.1625C9.14193 18.1625 9.23316 18.1328 9.30937 18.0775C9.38646 18.0243 9.44583 17.9484 9.47959 17.86C9.51334 17.7716 9.5199 17.6748 9.49837 17.5825C9.30409 16.795 9.18058 15.9911 9.12937 15.1808Z" fill="#40526D"/>
<path d="M13.0799 15.245C13.0147 16.5755 12.6775 17.8774 12.0899 19.0675H11.4599C10.8723 17.8774 10.5351 16.5755 10.4699 15.245C10.4616 15.1817 10.4678 15.1173 10.4881 15.0568C10.5084 14.9964 10.5422 14.9415 10.5869 14.8967C10.6276 14.8503 10.6776 14.8132 10.7334 14.7879C10.7893 14.7626 10.8498 14.7497 10.9109 14.75H12.6389C12.7 14.7497 12.7605 14.7626 12.8163 14.7879C12.8722 14.8132 12.9221 14.8503 12.9629 14.8967C13.0075 14.9415 13.0413 14.9964 13.0617 15.0568C13.082 15.1173 13.0882 15.1817 13.0799 15.245Z" fill="#40526D"/>
<path d="M14.5621 14.8744C14.6458 14.7943 14.7563 14.7498 14.8712 14.75L16.1402 14.7592C16.2079 14.7588 16.2747 14.7743 16.3356 14.8045C16.3965 14.8347 16.4497 14.8788 16.4912 14.9333C16.5346 14.9895 16.5646 15.0552 16.5786 15.1252C16.5927 15.1952 16.5905 15.2677 16.5722 15.3367C16.2926 16.4333 15.6585 17.402 14.7722 18.0867C14.6959 18.1419 14.6047 18.1716 14.5112 18.1716C14.4176 18.1716 14.3264 18.1419 14.2502 18.0867C14.1731 18.0334 14.1137 17.9576 14.0799 17.8692C14.0462 17.7807 14.0396 17.684 14.0612 17.5917C14.2529 16.8009 14.3734 15.9939 14.4212 15.1808C14.428 15.0641 14.4785 14.9545 14.5621 14.8744Z" fill="#40526D"/>
<path fill-rule="evenodd" clip-rule="evenodd" d="M19.92 5.73917C19.8395 5.70601 19.7707 5.64892 19.7225 5.57533C19.6744 5.50175 19.6491 5.4151 19.65 5.32667V2.83333C19.65 2.3471 19.4604 1.88079 19.1228 1.53697C18.7852 1.19315 18.3274 1 17.85 1H6.15C5.31457 1 4.51335 1.33802 3.92261 1.9397C3.33187 2.54138 3 3.35743 3 4.20833V20.25C3 20.9793 3.28446 21.6788 3.79081 22.1945C4.29716 22.7103 4.98392 23 5.7 23H19.2C19.6774 23 20.1352 22.8068 20.4728 22.463C20.8104 22.1192 21 21.6529 21 21.1667V7.41667C20.9995 7.06041 20.897 6.71204 20.7052 6.41412C20.5134 6.11621 20.2406 5.88167 19.92 5.73917ZM4.8 4.20833C4.8 3.84366 4.94223 3.49392 5.19541 3.23606C5.44858 2.9782 5.79196 2.83333 6.15 2.83333H17.4C17.5193 2.83333 17.6338 2.88162 17.7182 2.96758C17.8026 3.05353 17.85 3.17011 17.85 3.29167V5.125C17.85 5.24656 17.8026 5.36314 17.7182 5.44909C17.6338 5.53504 17.5193 5.58333 17.4 5.58333H6.15C5.79196 5.58333 5.44858 5.43847 5.19541 5.18061C4.94223 4.92274 4.8 4.57301 4.8 4.20833ZM11.775 20.4792C10.529 20.4792 9.31094 20.1028 8.27491 19.3978C7.23888 18.6927 6.43139 17.6905 5.95456 16.5181C5.47773 15.3456 5.35297 14.0554 5.59605 12.8107C5.83914 11.566 6.43916 10.4226 7.32023 9.52523C8.2013 8.62784 9.32385 8.01672 10.5459 7.76913C11.768 7.52154 13.0347 7.64861 14.1859 8.13427C15.3371 8.61994 16.321 9.44238 17.0133 10.4976C17.7055 11.5528 18.075 12.7934 18.075 14.0625C18.075 15.7643 17.4113 17.3964 16.2298 18.5998C15.0483 19.8031 13.4459 20.4792 11.775 20.4792Z" fill="#40526D"/>
</svg>
