<svg width="56" height="56" viewBox="0 0 56 56" fill="none" xmlns="http://www.w3.org/2000/svg">
<g clip-path="url(#clip0_4244_282368)">
<rect width="56" height="56" rx="3" fill="#EDF2FB"/>
<rect width="37.3333" height="37.3333" transform="translate(9.33331 9.3335)" fill="#EDF2FB"/>
<g clip-path="url(#clip1_4244_282368)">
<path d="M39.6666 24.1113H38.4999V19.8335C38.4999 17.0487 37.3937 14.378 35.4246 12.4089C33.4554 10.4397 30.7847 9.3335 27.9999 9.3335C25.2152 9.3335 22.5445 10.4397 20.5753 12.4089C18.6062 14.378 17.4999 17.0487 17.4999 19.8335V24.1113H16.3333C15.5082 24.1113 14.7168 24.4391 14.1334 25.0225C13.5499 25.6059 13.2222 26.3973 13.2222 27.2224V43.5557C13.2222 44.3808 13.5499 45.1722 14.1334 45.7556C14.7168 46.3391 15.5082 46.6668 16.3333 46.6668H39.6666C40.4917 46.6668 41.2831 46.3391 41.8665 45.7556C42.4499 45.1722 42.7777 44.3808 42.7777 43.5557V27.2224C42.7777 26.3973 42.4499 25.6059 41.8665 25.0225C41.2831 24.4391 40.4917 24.1113 39.6666 24.1113ZM27.9999 38.1113C27.3846 38.1113 26.7831 37.9288 26.2715 37.587C25.7599 37.2451 25.3611 36.7592 25.1257 36.1907C24.8902 35.6223 24.8286 34.9967 24.9486 34.3932C25.0687 33.7897 25.365 33.2354 25.8001 32.8003C26.2352 32.3652 26.7895 32.0689 27.393 31.9488C27.9965 31.8288 28.622 31.8904 29.1905 32.1259C29.759 32.3613 30.2449 32.7601 30.5867 33.2717C30.9286 33.7833 31.1111 34.3848 31.1111 35.0002C31.1111 35.8253 30.7833 36.6166 30.1998 37.2001C29.6164 37.7835 28.8251 38.1113 27.9999 38.1113ZM34.6111 23.3335C34.6111 23.5398 34.5291 23.7376 34.3833 23.8835C34.2374 24.0293 34.0396 24.1113 33.8333 24.1113H22.1666C21.9603 24.1113 21.7625 24.0293 21.6166 23.8835C21.4708 23.7376 21.3888 23.5398 21.3888 23.3335V19.8335C21.3888 18.0801 22.0854 16.3986 23.3252 15.1587C24.565 13.9189 26.2466 13.2224 27.9999 13.2224C29.7533 13.2224 31.4349 13.9189 32.6747 15.1587C33.9145 16.3986 34.6111 18.0801 34.6111 19.8335V23.3335Z" fill="#264887"/>
</g>
</g>
<rect x="0.5" y="0.5" width="55" height="55" rx="3.5" stroke="#D4E9FF"/>
<defs>
<clipPath id="clip0_4244_282368">
<rect width="56" height="56" rx="4" fill="white"/>
</clipPath>
<clipPath id="clip1_4244_282368">
<rect width="37.3333" height="37.3333" fill="white" transform="translate(9.33331 9.3335)"/>
</clipPath>
</defs>
</svg>
