<svg width="12" height="12" viewBox="0 0 12 12" fill="none" xmlns="http://www.w3.org/2000/svg">
<g clip-path="url(#clip0_4528_140026)">
<g clip-path="url(#clip1_4528_140026)">
<path d="M1.32445 8.11789C1.29277 8.0863 1.25319 8.06379 1.20984 8.05271C1.16649 8.04163 1.12096 8.04239 1.07801 8.0549C1.03505 8.06741 0.996239 8.09123 0.965623 8.12385C0.935008 8.15648 0.913709 8.19673 0.903949 8.24039L0.196949 11.4229C0.187793 11.4639 0.189133 11.5066 0.200844 11.547C0.212555 11.5874 0.234259 11.6241 0.263949 11.6539C0.293896 11.6833 0.330661 11.7049 0.370967 11.7167C0.411272 11.7284 0.453865 11.7301 0.494949 11.7214L3.67695 11.0144C3.72071 11.0047 3.76106 10.9834 3.79377 10.9527C3.82648 10.9221 3.85035 10.8832 3.86287 10.8402C3.87539 10.7971 3.87611 10.7515 3.86496 10.7081C3.8538 10.6647 3.83117 10.6251 3.79945 10.5934L1.32445 8.11789Z" fill="#40526D"/>
<path d="M8.92598 3.52264L3.44598 9.00264C3.42271 9.02622 3.40967 9.05801 3.40967 9.09114C3.40967 9.12427 3.42271 9.15606 3.44598 9.17964L4.32998 10.0636C4.3773 10.1097 4.44072 10.1354 4.50673 10.1354C4.57275 10.1354 4.63616 10.1097 4.68348 10.0636L9.98698 4.76014C10.0338 4.71326 10.0602 4.64968 10.0602 4.58339C10.0602 4.5171 10.0338 4.45352 9.98698 4.40664L9.10298 3.52264C9.0794 3.49937 9.04761 3.48633 9.01448 3.48633C8.98135 3.48633 8.94956 3.49937 8.92598 3.52264V3.52264Z" fill="#40526D"/>
<path d="M8.39594 2.81412L7.51194 1.93062C7.46505 1.88375 7.40148 1.85742 7.33519 1.85742C7.26889 1.85742 7.20532 1.88375 7.15844 1.93062L1.85493 7.23362C1.80807 7.2805 1.78174 7.34408 1.78174 7.41037C1.78174 7.47666 1.80807 7.54024 1.85493 7.58712L2.73894 8.47112C2.76251 8.49439 2.79431 8.50743 2.82744 8.50743C2.86056 8.50743 2.89236 8.49439 2.91593 8.47112L8.39594 2.99112C8.4192 2.96754 8.43225 2.93575 8.43225 2.90262C8.43225 2.86949 8.4192 2.8377 8.39594 2.81412V2.81412Z" fill="#40526D"/>
<path d="M11.2245 0.694414C10.8491 0.319778 10.3404 0.109375 9.81001 0.109375C9.27964 0.109375 8.77093 0.319778 8.39551 0.694414L8.04201 1.04791C7.99514 1.0948 7.96881 1.15837 7.96881 1.22466C7.96881 1.29095 7.99514 1.35453 8.04201 1.40141L10.517 3.87591C10.5647 3.92125 10.628 3.94653 10.6938 3.94653C10.7596 3.94653 10.8228 3.92125 10.8705 3.87591L11.2245 3.52241C11.5994 3.14736 11.8101 2.63874 11.8101 2.10841C11.8101 1.57809 11.5994 1.06947 11.2245 0.694414V0.694414Z" fill="#40526D"/>
</g>
</g>
<defs>
<clipPath id="clip0_4528_140026">
<rect width="12" height="12" fill="white"/>
</clipPath>
<clipPath id="clip1_4528_140026">
<rect width="12" height="12" fill="white" transform="translate(0 -0.0820312)"/>
</clipPath>
</defs>
</svg>
