<svg width="121" height="121" viewBox="0 0 121 121" fill="none" xmlns="http://www.w3.org/2000/svg">
<g clip-path="url(#clip0_1_89)">
<path d="M103.343 79.8395C113.833 55.4779 102.588 27.2253 78.226 16.7355C53.8644 6.2458 25.6118 17.4912 15.122 41.8527C4.63228 66.2143 15.8776 94.4669 40.2392 104.957C64.6008 115.446 92.8534 104.201 103.343 79.8395Z" fill="#EBF5FB"/>
<path d="M60.9185 84.2915C61.3248 85.5241 61.2248 86.8677 60.6405 88.0266C60.0562 89.1855 59.0355 90.0649 57.8028 90.4712L37.662 97.1084C37.0512 97.3096 36.4068 97.3884 35.7656 97.3404C35.1244 97.2924 34.499 97.1184 33.925 96.8285C33.3511 96.5386 32.8399 96.1384 32.4208 95.6508C32.0016 95.1631 31.6827 94.5977 31.4822 93.9867L16.677 49.0645C16.2711 47.832 16.3713 46.4887 16.9556 45.3301C17.5399 44.1715 18.5604 43.2923 19.7927 42.8859L39.9336 36.2475C41.167 35.8422 42.511 35.9434 43.6699 36.5288C44.8287 37.1142 45.7077 38.1359 46.1133 39.3692L60.9185 84.2915Z" fill="#E8F4FA"/>
<path d="M20.5311 45.7363L41.103 38.913C42.0749 38.5958 43.1218 38.5916 44.0961 38.9012C45.0705 39.2107 45.923 39.8183 46.5336 40.6383L46.1133 39.3644C45.7077 38.1311 44.8288 37.1094 43.6699 36.524C42.511 35.9386 41.167 35.8374 39.9336 36.2428L19.7927 42.8859C18.5604 43.2923 17.5399 44.1715 16.9556 45.3301C16.3713 46.4887 16.2711 47.832 16.677 49.0645L17.1993 50.6481C17.1372 49.577 17.43 48.5152 18.0323 47.6272C18.6346 46.7392 19.5129 46.0746 20.5311 45.7363V45.7363Z" fill="white"/>
<path d="M47.6451 44.0127L18.2098 53.7127L29.9522 89.3456L59.3875 79.6456L47.6451 44.0127Z" fill="#3598DB"/>
<path d="M24.091 71.5622L36.0254 47.8422L18.209 53.7122L24.091 71.5622Z" fill="#6CB4E4"/>
<path d="M60.9185 84.2915C61.3248 85.5241 61.2248 86.8677 60.6405 88.0266C60.0562 89.1855 59.0355 90.0649 57.8028 90.4712L37.662 97.1084C37.0512 97.3096 36.4068 97.3884 35.7656 97.3404C35.1244 97.2924 34.499 97.1184 33.925 96.8285C33.3511 96.5386 32.8399 96.1384 32.4208 95.6508C32.0016 95.1631 31.6827 94.5977 31.4822 93.9867L16.677 49.0645C16.2711 47.832 16.3713 46.4887 16.9556 45.3301C17.5399 44.1715 18.5604 43.2923 19.7927 42.8859L39.9336 36.2475C41.167 35.8422 42.511 35.9434 43.6699 36.5288C44.8287 37.1142 45.7077 38.1359 46.1133 39.3692L60.9185 84.2915Z" stroke="#004590" stroke-width="1.20065" stroke-linecap="round" stroke-linejoin="round"/>
<path d="M47.6451 44.0127L18.2098 53.7127L29.9522 89.3456L59.3875 79.6456L47.6451 44.0127Z" stroke="#004590" stroke-width="1.20065" stroke-linecap="round" stroke-linejoin="round"/>
<path d="M29.8457 44.7253L37.5923 42.1728" stroke="#004590" stroke-width="1.20065" stroke-linecap="round" stroke-linejoin="round"/>
<path d="M25.9736 45.1864C25.8868 45.1865 25.8005 45.2003 25.7179 45.2272C25.5337 45.2878 25.3772 45.412 25.2764 45.5775C25.1755 45.7431 25.137 45.9391 25.1676 46.1305C25.1983 46.3219 25.2961 46.4961 25.4436 46.6219C25.5911 46.7477 25.7786 46.8168 25.9724 46.8169C26.0593 46.8167 26.1456 46.8029 26.2282 46.776C26.4123 46.7155 26.5688 46.5913 26.6697 46.4257C26.7705 46.2602 26.809 46.0641 26.7784 45.8727C26.7478 45.6813 26.6499 45.5071 26.5024 45.3813C26.3549 45.2555 26.1675 45.1864 25.9736 45.1864V45.1864Z" fill="#004590"/>
<path d="M47.9431 88.5682C47.8294 88.2236 47.6162 87.9205 47.3302 87.6972C47.0443 87.4738 46.6986 87.3403 46.3368 87.3134C45.975 87.2865 45.6133 87.3675 45.2975 87.5462C44.9817 87.7248 44.726 87.9931 44.5627 88.3171C44.3994 88.6411 44.3358 89.0062 44.3799 89.3663C44.4241 89.7264 44.574 90.0653 44.8108 90.3402C45.0476 90.6151 45.3606 90.8137 45.7102 90.9107C46.0598 91.0078 46.4303 90.999 46.7749 90.8855C47.0038 90.8101 47.2156 90.6903 47.3982 90.533C47.5808 90.3757 47.7306 90.184 47.8391 89.9689C47.9475 89.7537 48.0126 89.5192 48.0304 89.2789C48.0483 89.0385 48.0186 88.7971 47.9431 88.5682Z" fill="white" stroke="#004590" stroke-width="1.20065" stroke-linejoin="round"/>
<path d="M53.2743 64.2227L57.958 62.8035" stroke="#0D131B" stroke-width="1.20065" stroke-linecap="round" stroke-linejoin="round"/>
<path d="M49.371 65.4029L50.1515 65.1676" stroke="#0D131B" stroke-width="1.20065" stroke-linecap="round" stroke-linejoin="round"/>
<path d="M50.4395 54.8552L55.1233 53.436" stroke="#0D131B" stroke-width="1.20065" stroke-linecap="round" stroke-linejoin="round"/>
<path d="M46.5363 56.0354L47.3167 55.7989" stroke="#0D131B" stroke-width="1.20065" stroke-linecap="round" stroke-linejoin="round"/>
<path d="M42.4901 62.3737L43.2693 62.1359" stroke="#0D131B" stroke-width="1.20065" stroke-linecap="round" stroke-linejoin="round"/>
<path d="M46.3922 61.191L54.9792 58.5928" stroke="#0D131B" stroke-width="1.20065" stroke-linecap="round" stroke-linejoin="round"/>
<path fill-rule="evenodd" clip-rule="evenodd" d="M70.5473 49.9901L71.082 49.8148C71.4603 49.6908 71.8723 49.7221 72.2274 49.9018C72.5825 50.0816 72.8517 50.3951 72.9757 50.7733L75.4306 58.2604C75.5546 58.6386 75.5233 59.0506 75.3436 59.4057C75.1638 59.7609 74.8503 60.03 74.4721 60.1541L63.7763 63.661C63.3981 63.785 62.9861 63.7537 62.6309 63.574C62.2758 63.3942 62.0066 63.0807 61.8826 62.7025L59.4277 55.2154C59.3037 54.8372 59.335 54.4252 59.5148 54.0701C59.6945 53.7149 60.008 53.4457 60.3862 53.3217L68.4081 50.6915C68.5026 50.6605 68.581 50.5932 68.626 50.5044C68.6709 50.4156 68.6787 50.3126 68.6477 50.2181L68.1217 48.6137C67.8581 47.81 67.2861 47.1438 66.5315 46.7619C65.7768 46.3799 64.9013 46.3133 64.0976 46.5769C63.2938 46.8404 62.6277 47.4124 62.2457 48.1671C61.9495 48.7522 61.843 49.41 61.9329 50.0506L60.1325 50.6409C59.8992 49.5216 60.0506 48.3499 60.5719 47.3199C61.1786 46.1213 62.2365 45.2128 63.5131 44.7942C64.7896 44.3757 66.1801 44.4814 67.3787 45.088C68.5773 45.6947 69.4858 46.7527 69.9043 48.0292L70.5473 49.9901ZM66.9672 58.0052C67.2531 58.085 67.5563 58.0782 67.8383 57.9857C68.2165 57.8617 68.53 57.5925 68.7098 57.2374C68.8895 56.8823 68.9208 56.4703 68.7968 56.092C68.7043 55.81 68.5303 55.5617 68.2967 55.3785C68.0631 55.1954 67.7804 55.0856 67.4845 55.0631C67.1885 55.0406 66.8925 55.1064 66.6339 55.2521C66.3753 55.3979 66.1657 55.617 66.0317 55.8819C65.8976 56.1467 65.8451 56.4453 65.8808 56.74C65.9165 57.0347 66.0387 57.3122 66.2321 57.5374C66.4255 57.7626 66.6813 57.9254 66.9672 58.0052Z" fill="#D32D27"/>
<line x1="30.446" y1="102.786" x2="53.1662" y2="102.786" stroke="#B5D9F1" stroke-width="1.20065" stroke-linecap="round"/>
<g clip-path="url(#clip1_1_89)">
<path d="M84.1768 25.1386C84.1377 25.0818 84.0877 25.0332 84.0298 24.9956C83.9719 24.9581 83.9071 24.9323 83.8392 24.9198C83.7714 24.9073 83.7017 24.9083 83.6342 24.9228C83.5667 24.9372 83.5027 24.9648 83.4459 25.004C83.3891 25.0432 83.3405 25.0932 83.303 25.1512C83.2655 25.2091 83.2399 25.2739 83.2274 25.3418C83.215 25.4097 83.2161 25.4794 83.2306 25.5469C83.2451 25.6144 83.2727 25.6783 83.312 25.7351C83.8881 26.5671 84.1691 27.568 84.1102 28.5782L83.9549 31.4087C83.8871 32.6204 83.3414 33.7558 82.4375 34.5657C81.5336 35.3755 80.3454 35.7937 79.1335 35.7285C78.9944 35.7209 78.858 35.7688 78.7542 35.8618C78.6505 35.9548 78.5879 36.0851 78.5802 36.2242C78.5726 36.3633 78.6206 36.4998 78.7135 36.6035C78.8065 36.7073 78.9369 36.7699 79.076 36.7775C80.566 36.8577 82.0269 36.3435 83.1383 35.3477C84.2496 34.352 84.9205 32.9561 85.0039 31.4662L85.1591 28.6358C85.2316 27.393 84.8857 26.1619 84.1768 25.1386V25.1386Z" fill="#004590"/>
<path d="M77.3759 35.2726C76.5662 34.8783 75.8911 34.2536 75.4352 33.477C74.9794 32.7003 74.7632 31.8063 74.8137 30.9072L74.8758 29.7749C74.8834 29.6357 74.8355 29.4993 74.7425 29.3956C74.6496 29.2918 74.5192 29.2292 74.3801 29.2216C74.241 29.214 74.1045 29.2619 74.0008 29.3549C73.897 29.4478 73.8344 29.5782 73.8268 29.7173L73.7647 30.8496C73.7025 31.955 73.9683 33.0542 74.5287 34.009C75.0891 34.9639 75.9192 35.7318 76.9147 36.2164C77.0397 36.2763 77.1833 36.2843 77.3141 36.2388C77.445 36.1932 77.5526 36.0978 77.6135 35.9733C77.6743 35.8488 77.6835 35.7052 77.639 35.574C77.5945 35.4427 77.4999 35.3344 77.3759 35.2726V35.2726Z" fill="#004590"/>
<path d="M74.4103 28.2877L74.4396 28.2893C74.5737 28.2964 74.7053 28.252 74.8077 28.1652C74.91 28.0784 74.9753 27.9557 74.9901 27.8223C75.0766 27.0452 75.3607 26.3032 75.8152 25.667C76.2697 25.0308 76.8796 24.5216 77.5868 24.1879C78.2939 23.8543 79.0747 23.7072 79.8547 23.7609C80.6348 23.8145 81.3881 24.067 82.0429 24.4943C82.1006 24.5337 82.1656 24.5612 82.234 24.5752C82.3024 24.5892 82.3729 24.5894 82.4415 24.5758C82.51 24.5622 82.5751 24.5351 82.633 24.4961C82.6909 24.457 82.7404 24.4068 82.7787 24.3484C82.817 24.2899 82.8432 24.2245 82.8559 24.1558C82.8685 24.0871 82.8674 24.0166 82.8524 23.9483C82.8375 23.8801 82.8091 23.8155 82.7689 23.7584C82.7288 23.7013 82.6776 23.6527 82.6184 23.6156C81.8133 23.0897 80.8869 22.7789 79.9275 22.7128C78.9681 22.6467 78.0078 22.8275 77.1381 23.2379C76.2685 23.6483 75.5185 24.2747 74.9597 25.0574C74.4009 25.84 74.0519 26.7527 73.946 27.7085C73.9384 27.7771 73.9443 27.8464 73.9635 27.9127C73.9827 27.9789 74.0148 28.0407 74.0579 28.0945C74.1011 28.1483 74.1544 28.1931 74.2148 28.2262C74.2753 28.2594 74.3417 28.2803 74.4103 28.2877V28.2877Z" fill="#004590"/>
<path d="M83.3057 31.3731L83.461 28.5426C83.4945 27.9228 83.3807 27.3038 83.129 26.7364C82.8773 26.169 82.4948 25.6693 82.0127 25.2782C81.5307 24.8871 80.9629 24.6158 80.3558 24.4863C79.7487 24.3569 79.1196 24.3732 78.52 24.5337C78.4514 24.5496 78.3867 24.5791 78.3298 24.6206C78.2729 24.662 78.2248 24.7144 78.1886 24.7747C78.1523 24.8351 78.1285 24.9021 78.1187 24.9718C78.1088 25.0415 78.1131 25.1125 78.1312 25.1805C78.1493 25.2486 78.1809 25.3123 78.2241 25.3678C78.2673 25.4234 78.3213 25.4697 78.3828 25.504C78.4442 25.5384 78.512 25.56 78.582 25.5676C78.652 25.5752 78.7228 25.5686 78.7902 25.5483C79.2294 25.4312 79.6901 25.4197 80.1347 25.5146C80.5792 25.6096 80.995 25.8084 81.348 26.0948C81.701 26.3812 81.9813 26.747 82.1659 27.1624C82.3505 27.5778 82.4342 28.031 82.4102 28.4849L82.2549 31.3154C82.2473 31.4545 82.2952 31.591 82.3882 31.6947C82.4811 31.7985 82.6115 31.8611 82.7506 31.8687C82.8897 31.8763 83.0262 31.8284 83.1299 31.7354C83.2337 31.6424 83.2963 31.5121 83.3039 31.373L83.3057 31.3731Z" fill="#004590"/>
<path d="M77.5033 25.5523C77.4546 25.5035 77.3967 25.4649 77.3329 25.4385C77.2692 25.4122 77.2009 25.3987 77.1319 25.3987C77.0629 25.3988 76.9947 25.4125 76.931 25.4389C76.8673 25.4654 76.8095 25.5042 76.7608 25.553C76.0774 26.2361 75.6704 27.1475 75.6181 28.1123L75.4628 30.9428C75.4194 31.7369 75.618 32.5254 76.0324 33.2042C76.4468 33.8829 77.0575 34.4199 77.7838 34.744C78.51 35.0681 79.3175 35.164 80.0995 35.0192C80.8814 34.8744 81.601 34.4956 82.163 33.9329C82.2166 33.8854 82.2598 33.8275 82.2902 33.7626C82.3205 33.6978 82.3373 33.6275 82.3395 33.5559C82.3417 33.4844 82.3292 33.4131 82.3028 33.3466C82.2765 33.28 82.2368 33.2195 82.1862 33.1689C82.1357 33.1182 82.0753 33.0784 82.0088 33.0519C81.9423 33.0254 81.871 33.0128 81.7995 33.0149C81.7279 33.0169 81.6575 33.0336 81.5927 33.0638C81.5278 33.094 81.4697 33.1372 81.4221 33.1906C81.0105 33.603 80.4834 33.8807 79.9105 33.9869C79.3376 34.0932 78.7459 34.0229 78.2138 33.7855C77.6817 33.548 77.2343 33.1546 76.9307 32.6573C76.6271 32.16 76.4816 31.5822 76.5136 31.0004L76.6689 28.17C76.7074 27.4635 77.0052 26.796 77.5053 26.2955C77.6035 26.1967 77.6584 26.0629 77.6581 25.9235C77.6577 25.7842 77.6021 25.6506 77.5033 25.5523V25.5523Z" fill="#004590"/>
<path d="M78.2106 31.0935C78.2182 30.9544 78.1703 30.818 78.0773 30.7142C77.9844 30.6105 77.854 30.5479 77.7149 30.5403C77.5758 30.5326 77.4393 30.5806 77.3356 30.6735C77.2318 30.7665 77.1692 30.8969 77.1616 31.036C77.1293 31.6255 77.3324 32.2037 77.7264 32.6434C78.1203 33.0831 78.6728 33.3482 79.2623 33.3806C79.8518 33.4129 80.43 33.2098 80.8697 32.8158C81.3094 32.4218 81.5746 31.8693 81.6069 31.2799L81.7622 28.4494C81.7946 27.8599 81.5914 27.2817 81.1974 26.842C80.8035 26.4023 80.251 26.1371 79.6615 26.1048C79.072 26.0724 78.4938 26.2756 78.0541 26.6696C77.6144 27.0635 77.3492 27.616 77.3169 28.2055L77.2703 29.0549C77.2627 29.194 77.3106 29.3304 77.4036 29.4342C77.4965 29.5379 77.6269 29.6005 77.766 29.6082C77.9051 29.6158 78.0416 29.5678 78.1453 29.4749C78.2491 29.3819 78.3117 29.2515 78.3193 29.1124L78.3659 28.2631C78.383 27.9518 78.523 27.66 78.7552 27.452C78.9874 27.244 79.2927 27.1367 79.604 27.1538C79.9152 27.1709 80.207 27.3109 80.415 27.5431C80.623 27.7752 80.7303 28.0806 80.7132 28.3918L80.5579 31.2223C80.5495 31.3764 80.5108 31.5274 80.444 31.6666C80.3772 31.8057 80.2836 31.9304 80.1687 32.0334C80.0537 32.1364 79.9196 32.2157 79.7739 32.2669C79.6283 32.3181 79.474 32.34 79.3199 32.3316C79.1658 32.3231 79.0148 32.2844 78.8756 32.2176C78.7365 32.1508 78.6118 32.0573 78.5088 31.9423C78.4058 31.8273 78.3265 31.6932 78.2753 31.5476C78.2241 31.4019 78.2021 31.2477 78.2106 31.0935Z" fill="#004590"/>
<path d="M79.9243 30.9038L80.0175 29.2056C80.0251 29.0665 79.9771 28.9301 79.8842 28.8263C79.7912 28.7225 79.6608 28.66 79.5217 28.6523C79.3826 28.6447 79.2462 28.6926 79.1424 28.7856C79.0387 28.8786 78.9761 29.0089 78.9685 29.1481L78.8753 30.8462C78.8677 30.9853 78.9156 31.1218 79.0086 31.2255C79.1015 31.3293 79.2319 31.3919 79.371 31.3995C79.5101 31.4071 79.6466 31.3592 79.7503 31.2662C79.8541 31.1732 79.9167 31.0429 79.9243 30.9038V30.9038Z" fill="#004590"/>
</g>
<path d="M74.3659 76.0938L74.936 74.3785V74.3785C75.1727 73.6663 75.9255 73.2753 76.6174 73.5053V73.5053L78.2443 74.046" stroke="#004590" stroke-width="0.900486" stroke-linecap="round"/>
<path fill-rule="evenodd" clip-rule="evenodd" d="M76.8919 78.1152C76.9493 77.9423 77.136 77.8488 77.3089 77.9062V77.9062C77.4818 77.9637 77.5753 78.1504 77.5179 78.3233L77.185 79.3249C77.1275 79.4978 76.9408 79.5913 76.7679 79.5339V79.5339C76.5951 79.4764 76.5015 79.2897 76.5589 79.1168L76.8919 78.1152Z" fill="#004590" stroke="#004590" stroke-width="0.300162"/>
<path d="M76.5356 82.5338C76.86 83.0604 77.3978 83.4972 78.0761 83.7227V83.7227C78.7642 83.9514 79.4668 83.9193 80.0468 83.6825" stroke="#004590" stroke-width="0.900486" stroke-linecap="round"/>
<rect x="81.8789" y="79.4251" width="0.659697" height="1.71521" rx="0.329848" transform="rotate(18.3854 81.8789 79.4251)" fill="#004590" stroke="#004590" stroke-width="0.300162"/>
<path d="M85.7595 79.8807L86.3296 78.1654V78.1654C86.5664 77.4532 86.1974 76.6894 85.5055 76.4594V76.4594L83.8786 75.9187" stroke="#004590" stroke-width="0.900486" stroke-linecap="round"/>
<path d="M72.5765 81.4776L72.0063 83.1929V83.1929C71.7696 83.9051 72.1386 84.6689 72.8305 84.8989V84.8989L74.4574 85.4397" stroke="#004590" stroke-width="0.900486" stroke-linecap="round"/>
<path d="M83.9701 85.2645L83.4 86.9798V86.9798C83.1632 87.6921 82.4105 88.083 81.7186 87.8531V87.8531L80.0916 87.3123" stroke="#004590" stroke-width="0.900486" stroke-linecap="round"/>
<path fill-rule="evenodd" clip-rule="evenodd" d="M78.2397 81.3682C78.4926 81.4042 78.7509 81.248 78.8555 80.9978L78.8711 80.9913L78.9262 80.8256L79.5025 81.1315C79.4967 81.1526 79.4902 81.1737 79.4832 81.1948C79.2742 81.8238 78.6361 82.1842 78.0279 82.0343L78.2397 81.3682Z" fill="#004590"/>
<path fill-rule="evenodd" clip-rule="evenodd" d="M79.5374 78.9868C79.5936 78.8177 79.7761 78.7262 79.9452 78.7824V78.7824C80.1142 78.8386 80.2057 79.0212 80.1495 79.1902L79.5055 81.1277C79.4494 81.2967 79.2668 81.3882 79.0978 81.332V81.332C78.9287 81.2759 78.8372 81.0933 78.8934 80.9243L79.5374 78.9868Z" fill="#004590"/>
<path fill-rule="evenodd" clip-rule="evenodd" d="M78.0148 82.0338C78.1839 82.09 78.3683 81.9929 78.4268 81.8169C78.4853 81.6408 78.3957 81.4526 78.2267 81.3964C78.0577 81.3403 77.8732 81.4374 77.8147 81.6134C77.7562 81.7894 77.8458 81.9777 78.0148 82.0338Z" fill="#004590"/>
<path d="M46.4885 23.317C46.6517 22.6093 47.0106 21.9618 47.5241 21.4482C48.0376 20.9347 48.6852 20.5758 49.3928 20.4126L55.222 19.0679C55.3326 19.0477 55.4326 18.9893 55.5046 18.903C55.5766 18.8167 55.616 18.7078 55.616 18.5954C55.616 18.483 55.5766 18.3741 55.5046 18.2878C55.4326 18.2015 55.3326 18.1431 55.222 18.1229L49.3928 16.7794C48.6851 16.616 48.0376 16.2571 47.5239 15.7436C47.0102 15.2301 46.651 14.5827 46.4873 13.8751L45.1425 8.04831C45.1217 7.93841 45.0632 7.83924 44.977 7.76789C44.8909 7.69654 44.7825 7.6575 44.6707 7.6575C44.5588 7.6575 44.4505 7.69654 44.3643 7.76789C44.2782 7.83924 44.2197 7.93841 44.1988 8.04831L42.8517 13.8727C42.6884 14.5803 42.3296 15.2278 41.816 15.7414C41.3025 16.2549 40.655 16.6138 39.9473 16.777L34.123 18.1205C34.0124 18.1407 33.9124 18.1991 33.8404 18.2854C33.7684 18.3717 33.7289 18.4806 33.7289 18.593C33.7289 18.7054 33.7684 18.8143 33.8404 18.9006C33.9124 18.9869 34.0124 19.0453 34.123 19.0655L39.9497 20.4102C40.6571 20.5743 41.3042 20.9338 41.8173 21.4477C42.3303 21.9616 42.6888 22.6093 42.8517 23.317L44.1964 29.1461C44.2173 29.256 44.2758 29.3552 44.3619 29.4265C44.4481 29.4979 44.5564 29.5369 44.6683 29.5369C44.7801 29.5369 44.8885 29.4979 44.9746 29.4265C45.0608 29.3552 45.1193 29.256 45.1401 29.1461L46.4885 23.317Z" fill="#F7DD7B" stroke="#EDBF0E" stroke-width="1.20065" stroke-linecap="round" stroke-linejoin="round"/>
<path d="M103.338 71.6727C103.438 71.2414 103.657 70.8469 103.969 70.5339C104.282 70.221 104.677 70.0024 105.108 69.9029L108.661 69.0829C108.726 69.0677 108.784 69.031 108.825 68.9788C108.866 68.9266 108.889 68.8619 108.889 68.7953C108.889 68.7287 108.866 68.6641 108.825 68.6119C108.784 68.5597 108.726 68.523 108.661 68.5078L105.108 67.6877C104.677 67.5883 104.282 67.3695 103.969 67.0563C103.655 66.7432 103.437 66.3483 103.337 65.9168L102.518 62.3665C102.504 62.301 102.467 62.2425 102.415 62.2006C102.362 62.1588 102.297 62.1359 102.23 62.1359C102.163 62.1359 102.098 62.1588 102.046 62.2006C101.993 62.2425 101.957 62.301 101.942 62.3665L101.123 65.9168C101.024 66.3478 100.806 66.7423 100.494 67.0554C100.182 67.3685 99.7878 67.5876 99.3571 67.6877L95.8056 68.5078C95.7407 68.523 95.6829 68.5597 95.6415 68.6119C95.6002 68.6641 95.5777 68.7287 95.5777 68.7953C95.5777 68.8619 95.6002 68.9266 95.6415 68.9788C95.6829 69.031 95.7407 69.0677 95.8056 69.0829L99.3559 69.9029C99.7873 70.0023 100.182 70.2209 100.495 70.5338C100.808 70.8467 101.027 71.2414 101.127 71.6727L101.946 75.2254C101.96 75.2908 101.997 75.3493 102.049 75.3912C102.102 75.4331 102.167 75.4559 102.234 75.4559C102.301 75.4559 102.366 75.4331 102.418 75.3912C102.471 75.3493 102.507 75.2908 102.522 75.2254L103.338 71.6727Z" fill="#F7DD7B" stroke="#EDBF0E" stroke-width="1.20065" stroke-linecap="round" stroke-linejoin="round"/>
<path d="M6.93232 45.9123L4.86591 43.966L3.00162 46.1234L5.06804 48.0696L6.93232 45.9123Z" stroke="#B5D9F1" stroke-width="0.968705" stroke-linecap="round" stroke-linejoin="round"/>
<path d="M64.2944 28.4094L62.228 26.4631L60.3637 28.6205L62.4301 30.5667L64.2944 28.4094Z" stroke="#B5D9F1" stroke-width="0.968705" stroke-linecap="round" stroke-linejoin="round"/>
<path d="M96.2879 50.799C97.2089 50.799 97.9555 50.0196 97.9555 49.0581C97.9555 48.0966 97.2089 47.3172 96.2879 47.3172C95.367 47.3172 94.6204 48.0966 94.6204 49.0581C94.6204 50.0196 95.367 50.799 96.2879 50.799Z" stroke="#B5D9F1" stroke-width="1.20065" stroke-linecap="round" stroke-dasharray="0.67 4 109.39 3.34"/>
<path d="M19.1226 105.789L22.3119 109.118" stroke="#B5D9F1" stroke-width="1.20065" stroke-linecap="round" stroke-dasharray="0.67 4 109.39 3.34"/>
<path d="M22.1995 105.789L19.0102 109.118" stroke="#B5D9F1" stroke-width="1.20065" stroke-linecap="round" stroke-dasharray="0.67 4 109.39 3.34"/>
</g>
<defs>
<clipPath id="clip0_1_89">
<rect width="120.065" height="120.065" fill="white"/>
</clipPath>
<clipPath id="clip1_1_89">
<rect width="14.4078" height="14.4078" fill="white" transform="translate(72.6635 22.155) rotate(3.14027)"/>
</clipPath>
</defs>
</svg>
