<svg width="48" height="48" viewBox="0 0 48 48" fill="none" xmlns="http://www.w3.org/2000/svg">
<circle cx="24" cy="24" r="24" fill="#DBE5F7"/>
<path fill-rule="evenodd" clip-rule="evenodd" d="M33.2678 20.8407C33.7366 21.3147 34 21.9575 34 22.6277V31.0516C34 31.8336 33.6927 32.5835 33.1457 33.1364C32.5987 33.6894 31.8569 34 31.0833 34H16.9167C16.1431 34 15.4013 33.6894 14.8543 33.1364C14.3073 32.5835 14 31.8336 14 31.0516V15.6848C14 15.238 14.1756 14.8094 14.4882 14.4935C14.8007 14.1775 15.2246 14 15.6667 14H28.1667C28.6087 14 29.0326 14.1775 29.3452 14.4935C29.6577 14.8094 29.8333 15.238 29.8333 15.6848V20.1005H31.5C32.163 20.1005 32.7989 20.3668 33.2678 20.8407ZM16.0328 31.9451C16.2672 32.1821 16.5851 32.3152 16.9167 32.3152L27.855 32.3144C27.9186 32.3144 27.9813 32.2996 28.0384 32.2713C28.0955 32.243 28.1454 32.2019 28.1843 32.1511C28.2233 32.1002 28.2502 32.0411 28.263 31.9781C28.2758 31.9152 28.2742 31.8501 28.2583 31.7879C28.1972 31.5474 28.1664 31.3 28.1667 31.0516V16.106C28.1667 15.9943 28.1228 15.8871 28.0446 15.8081C27.9665 15.7292 27.8605 15.6848 27.75 15.6848H16.0833C15.9728 15.6848 15.8668 15.7292 15.7887 15.8081C15.7106 15.8871 15.6667 15.9943 15.6667 16.106V31.0516C15.6667 31.3868 15.7984 31.7081 16.0328 31.9451ZM31.9672 31.9451C32.2016 31.7081 32.3333 31.3868 32.3333 31.0516V22.6277C32.3333 22.4043 32.2455 22.19 32.0893 22.0321C31.933 21.8741 31.721 21.7853 31.5 21.7853H30.25C30.1395 21.7853 30.0335 21.8297 29.9554 21.9087C29.8772 21.9877 29.8333 22.0948 29.8333 22.2065V31.0516C29.8333 31.3868 29.965 31.7081 30.1995 31.9451C30.4339 32.1821 30.7518 32.3152 31.0833 32.3152C31.4149 32.3152 31.7328 32.1821 31.9672 31.9451ZM26.5 19C26.5 18.6548 26.2202 18.375 25.875 18.375H25.25C24.9048 18.375 24.625 18.6548 24.625 19V25.25C24.625 25.5952 24.9048 25.875 25.25 25.875H25.875C26.2202 25.875 26.5 25.5952 26.5 25.25V19ZM22.3749 20.875C22.7201 20.875 22.9999 21.1548 22.9999 21.5V25.25C22.9999 25.5952 22.7201 25.875 22.3749 25.875H21.7499C21.4048 25.875 21.1249 25.5952 21.1249 25.25V21.5C21.1249 21.1548 21.4048 20.875 21.7499 20.875H22.3749ZM19.625 24C19.625 23.6548 19.3452 23.375 19 23.375H18.375C18.0298 23.375 17.75 23.6548 17.75 24V25.25C17.75 25.5952 18.0298 25.875 18.375 25.875H19C19.3452 25.875 19.625 25.5952 19.625 25.25V24ZM26.5 29C26.5 28.6548 26.2202 28.375 25.875 28.375H18.375C18.0298 28.375 17.75 28.6548 17.75 29V29.625C17.75 29.9702 18.0298 30.25 18.375 30.25H25.875C26.2202 30.25 26.5 29.9702 26.5 29.625V29Z" fill="#264887"/>
</svg>
