<svg width="125" height="125" viewBox="0 0 125 125" fill="none" xmlns="http://www.w3.org/2000/svg">
<circle cx="62.5" cy="62.5" r="62.5" fill="#EBF5FB"/>
<path d="M22.9167 101.389H85.4168" stroke="#004590" stroke-width="2" stroke-linecap="round" stroke-dasharray="1 6 164 5"/>
<g filter="url(#filter0_i_843_97106)">
<path fill-rule="evenodd" clip-rule="evenodd" d="M22.2223 39.4165C22.2223 37.2074 24.0132 35.4165 26.2223 35.4165H80.7223C82.9314 35.4165 84.7223 37.2074 84.7223 39.4165V94.1683C84.7223 96.3775 82.9314 98.1683 80.7223 98.1683H79.1272C78.5283 99.6494 77.0766 100.694 75.3808 100.694C73.6851 100.694 72.2334 99.6494 71.6344 98.1683H36.6194C36.0204 99.6494 34.5687 100.694 32.873 100.694C31.1772 100.694 29.7255 99.6494 29.1266 98.1683H26.2223C24.0132 98.1683 22.2223 96.3775 22.2223 94.1683V39.4165Z" fill="white"/>
</g>
<path d="M79.1272 98.1683V97.1683H78.4529L78.2002 97.7934L79.1272 98.1683ZM71.6344 98.1683L72.5615 97.7934L72.3087 97.1683H71.6344V98.1683ZM36.6194 98.1683V97.1683H35.9451L35.6923 97.7934L36.6194 98.1683ZM29.1266 98.1683L30.0536 97.7934L29.8009 97.1683H29.1266V98.1683ZM22.8805 35.6973C22.4698 36.0665 22.4361 36.6988 22.8054 37.1095C23.1746 37.5202 23.8069 37.5538 24.2176 37.1846L22.8805 35.6973ZM24.0922 37.3039C24.4812 36.9118 24.4786 36.2787 24.0865 35.8897C23.6943 35.5008 23.0612 35.5034 22.6723 35.8955L24.0922 37.3039ZM22.6435 35.9248C22.2578 36.3201 22.2655 36.9532 22.6608 37.3389C23.0561 37.7246 23.6892 37.7169 24.0749 37.3216L22.6435 35.9248ZM23.9904 37.4118C24.3596 37.0011 24.326 36.3688 23.9153 35.9996C23.5046 35.6303 22.8723 35.664 22.5031 36.0747L23.9904 37.4118ZM21.2223 64.9291C21.2223 65.4814 21.67 65.9291 22.2223 65.9291C22.7746 65.9291 23.2223 65.4814 23.2223 64.9291H21.2223ZM23.2223 66.9357C23.2223 66.3835 22.7746 65.9357 22.2223 65.9357C21.67 65.9357 21.2223 66.3835 21.2223 66.9357H23.2223ZM21.2223 67.2224C21.2223 67.7747 21.67 68.2224 22.2223 68.2224C22.7746 68.2224 23.2223 67.7747 23.2223 67.2224H21.2223ZM23.2223 68.6557C23.2223 68.1034 22.7746 67.6557 22.2223 67.6557C21.67 67.6557 21.2223 68.1034 21.2223 68.6557H23.2223ZM22.5031 97.5101C22.8723 97.9208 23.5046 97.9545 23.9153 97.5852C24.326 97.216 24.3596 96.5837 23.9904 96.173L22.5031 97.5101ZM24.1097 96.2984C23.7176 95.9094 23.0845 95.912 22.6955 96.3041C22.3066 96.6963 22.3092 97.3294 22.7013 97.7183L24.1097 96.2984ZM22.7306 97.7471C23.1259 98.1329 23.759 98.1251 24.1447 97.7298C24.5304 97.3345 24.5226 96.7014 24.1274 96.3157L22.7306 97.7471ZM24.2176 96.4002C23.8069 96.031 23.1746 96.0646 22.8054 96.4753C22.4361 96.886 22.4698 97.5183 22.8805 97.8875L24.2176 96.4002ZM27.5756 99.1683C28.1279 99.1683 28.5756 98.7206 28.5756 98.1683C28.5756 97.616 28.1279 97.1683 27.5756 97.1683V99.1683ZM27.682 97.1683C27.1297 97.1683 26.682 97.616 26.682 98.1683C26.682 98.7206 27.1297 99.1683 27.682 99.1683V97.1683ZM27.6972 99.1683C28.2495 99.1683 28.6972 98.7206 28.6972 98.1683C28.6972 97.616 28.2495 97.1683 27.6972 97.1683V99.1683ZM27.7733 97.1683C27.221 97.1683 26.7733 97.616 26.7733 98.1683C26.7733 98.7206 27.221 99.1683 27.7733 99.1683V97.1683ZM29.8877 100.715C30.3325 101.043 30.9585 100.948 31.2859 100.503C31.6133 100.058 31.5182 99.4321 31.0734 99.1047L29.8877 100.715ZM31.1817 99.1808C30.7231 98.873 30.1019 98.9951 29.794 99.4537C29.4862 99.9122 29.6084 100.533 30.0669 100.841L31.1817 99.1808ZM30.093 100.859C30.5534 101.164 31.1739 101.038 31.4789 100.577C31.7839 100.117 31.6578 99.4962 31.1974 99.1913L30.093 100.859ZM31.277 99.2422C30.8073 98.9517 30.191 99.0969 29.9004 99.5666C29.6099 100.036 29.7551 100.653 30.2248 100.943L31.277 99.2422ZM35.5211 100.943C35.9908 100.653 36.136 100.036 35.8455 99.5666C35.5549 99.0969 34.9387 98.9517 34.469 99.2422L35.5211 100.943ZM34.5799 99.1702C34.1233 99.4809 34.005 100.103 34.3156 100.56C34.6263 101.016 35.2483 101.134 35.7049 100.824L34.5799 99.1702ZM35.7307 100.806C36.1854 100.493 36.2999 99.8699 35.9864 99.4152C35.6729 98.9605 35.0502 98.846 34.5955 99.1595L35.7307 100.806ZM34.6725 99.1047C34.2277 99.4321 34.1326 100.058 34.46 100.503C34.7875 100.948 35.4134 101.043 35.8582 100.715L34.6725 99.1047ZM52.9353 99.1683C53.4876 99.1683 53.9353 98.7206 53.9353 98.1683C53.9353 97.616 53.4876 97.1683 52.9353 97.1683V99.1683ZM54.2186 97.1683C53.6663 97.1683 53.2186 97.616 53.2186 98.1683C53.2186 98.7206 53.6663 99.1683 54.2186 99.1683V97.1683ZM54.4019 99.1683C54.9542 99.1683 55.4019 98.7206 55.4019 98.1683C55.4019 97.616 54.9542 97.1683 54.4019 97.1683V99.1683ZM55.3185 97.1683C54.7662 97.1683 54.3185 97.616 54.3185 98.1683C54.3185 98.7206 54.7662 99.1683 55.3185 99.1683V97.1683ZM72.3956 100.715C72.8404 101.043 73.4663 100.948 73.7938 100.503C74.1212 100.058 74.0261 99.4321 73.5813 99.1047L72.3956 100.715ZM73.6895 99.1808C73.231 98.873 72.6097 98.9951 72.3019 99.4537C71.9941 99.9122 72.1163 100.533 72.5748 100.841L73.6895 99.1808ZM72.6008 100.859C73.0613 101.164 73.6818 101.038 73.9868 100.577C74.2917 100.117 74.1657 99.4962 73.7053 99.1913L72.6008 100.859ZM73.7848 99.2422C73.3151 98.9517 72.6989 99.0969 72.4083 99.5666C72.1178 100.036 72.263 100.653 72.7327 100.943L73.7848 99.2422ZM78.029 100.943C78.4987 100.653 78.6439 100.036 78.3533 99.5666C78.0628 99.0969 77.4465 98.9517 76.9768 99.2422L78.029 100.943ZM77.0878 99.1702C76.6311 99.4809 76.5128 100.103 76.8235 100.56C77.1342 101.016 77.7562 101.134 78.2128 100.824L77.0878 99.1702ZM78.2386 100.806C78.6933 100.493 78.8078 99.8699 78.4943 99.4152C78.1808 98.9605 77.5581 98.846 77.1034 99.1595L78.2386 100.806ZM77.1804 99.1047C76.7356 99.4321 76.6405 100.058 76.9679 100.503C77.2953 100.948 77.9213 101.043 78.3661 100.715L77.1804 99.1047ZM79.8705 99.1683C80.4228 99.1683 80.8705 98.7206 80.8705 98.1683C80.8705 97.616 80.4228 97.1683 79.8705 97.1683V99.1683ZM79.9289 97.1683C79.3766 97.1683 78.9289 97.616 78.9289 98.1683C78.9289 98.7206 79.3766 99.1683 79.9289 99.1683V97.1683ZM79.9373 99.1683C80.4896 99.1683 80.9373 98.7206 80.9373 98.1683C80.9373 97.616 80.4896 97.1683 79.9373 97.1683V99.1683ZM79.979 97.1683C79.4268 97.1683 78.979 97.616 78.979 98.1683C78.979 98.7206 79.4268 99.1683 79.979 99.1683V97.1683ZM84.0641 97.8875C84.4748 97.5183 84.5085 96.886 84.1392 96.4753C83.77 96.0646 83.1377 96.031 82.727 96.4002L84.0641 97.8875ZM82.8523 96.2809C82.4634 96.673 82.466 97.3061 82.8581 97.6951C83.2502 98.084 83.8834 98.0814 84.2723 97.6893L82.8523 96.2809ZM84.3011 97.66C84.6868 97.2647 84.6791 96.6316 84.2838 96.2459C83.8885 95.8602 83.2554 95.868 82.8697 96.2632L84.3011 97.66ZM82.9542 96.173C82.585 96.5837 82.6186 97.216 83.0293 97.5852C83.44 97.9545 84.0723 97.9208 84.4415 97.5101L82.9542 96.173ZM85.7223 68.6557C85.7223 68.1034 85.2746 67.6557 84.7223 67.6557C84.17 67.6557 83.7223 68.1034 83.7223 68.6557H85.7223ZM83.7223 66.6491C83.7223 67.2014 84.17 67.6491 84.7223 67.6491C85.2746 67.6491 85.7223 67.2014 85.7223 66.6491H83.7223ZM85.7223 66.3624C85.7223 65.8101 85.2746 65.3624 84.7223 65.3624C84.17 65.3624 83.7223 65.8101 83.7223 66.3624H85.7223ZM83.7223 64.9291C83.7223 65.4814 84.17 65.9291 84.7223 65.9291C85.2746 65.9291 85.7223 65.4814 85.7223 64.9291H83.7223ZM84.4415 36.0747C84.0723 35.664 83.44 35.6303 83.0293 35.9996C82.6186 36.3688 82.585 37.0011 82.9542 37.4118L84.4415 36.0747ZM82.8349 37.2865C83.227 37.6754 83.8601 37.6728 84.2491 37.2807C84.638 36.8886 84.6354 36.2554 84.2433 35.8665L82.8349 37.2865ZM84.214 35.8377C83.8187 35.452 83.1856 35.4597 82.7999 35.855C82.4142 36.2503 82.4219 36.8834 82.8172 37.2691L84.214 35.8377ZM82.727 37.1846C83.1377 37.5538 83.77 37.5202 84.1392 37.1095C84.5085 36.6988 84.4748 36.0665 84.0641 35.6973L82.727 37.1846ZM55.327 34.4165C54.7747 34.4165 54.327 34.8642 54.327 35.4165C54.327 35.9688 54.7747 36.4165 55.327 36.4165V34.4165ZM53.3296 36.4165C53.8819 36.4165 54.3296 35.9688 54.3296 35.4165C54.3296 34.8642 53.8819 34.4165 53.3296 34.4165V36.4165ZM53.0443 34.4165C52.492 34.4165 52.0443 34.8642 52.0443 35.4165C52.0443 35.9688 52.492 36.4165 53.0443 36.4165V34.4165ZM51.6176 36.4165C52.1699 36.4165 52.6176 35.9688 52.6176 35.4165C52.6176 34.8642 52.1699 34.4165 51.6176 34.4165V36.4165ZM26.2223 34.4165C24.9383 34.4165 23.7654 34.9018 22.8805 35.6973L24.2176 37.1846C24.7496 36.7063 25.4509 36.4165 26.2223 36.4165V34.4165ZM22.6723 35.8955C22.6626 35.9052 22.653 35.915 22.6435 35.9248L24.0749 37.3216C24.0807 37.3157 24.0864 37.3098 24.0922 37.3039L22.6723 35.8955ZM22.5031 36.0747C21.7076 36.9596 21.2223 38.1326 21.2223 39.4165H23.2223C23.2223 38.6451 23.5121 37.9438 23.9904 37.4118L22.5031 36.0747ZM21.2223 39.4165V64.9291H23.2223V39.4165H21.2223ZM21.2223 66.9357V67.2224H23.2223V66.9357H21.2223ZM21.2223 68.6557V94.1683H23.2223V68.6557H21.2223ZM21.2223 94.1683C21.2223 95.4523 21.7076 96.6252 22.5031 97.5101L23.9904 96.173C23.5121 95.641 23.2223 94.9397 23.2223 94.1683H21.2223ZM22.7013 97.7183C22.711 97.728 22.7208 97.7376 22.7306 97.7471L24.1274 96.3157C24.1215 96.3099 24.1156 96.3042 24.1097 96.2984L22.7013 97.7183ZM22.8805 97.8875C23.7654 98.683 24.9383 99.1683 26.2223 99.1683V97.1683C25.4509 97.1683 24.7496 96.8785 24.2176 96.4002L22.8805 97.8875ZM26.2223 99.1683H27.5756V97.1683H26.2223V99.1683ZM27.682 99.1683H27.6972V97.1683H27.682V99.1683ZM27.7733 99.1683H29.1266V97.1683H27.7733V99.1683ZM28.1995 98.5432C28.5526 99.4163 29.142 100.166 29.8877 100.715L31.0734 99.1047C30.6218 98.7722 30.266 98.3185 30.0536 97.7934L28.1995 98.5432ZM30.0669 100.841C30.0756 100.847 30.0843 100.853 30.093 100.859L31.1974 99.1913C31.1921 99.1878 31.1869 99.1843 31.1817 99.1808L30.0669 100.841ZM30.2248 100.943C30.995 101.42 31.9034 101.694 32.873 101.694V99.6943C32.2857 99.6943 31.7401 99.5287 31.277 99.2422L30.2248 100.943ZM32.873 101.694C33.8425 101.694 34.7509 101.42 35.5211 100.943L34.469 99.2422C34.0058 99.5287 33.4602 99.6943 32.873 99.6943V101.694ZM35.7049 100.824C35.7135 100.818 35.7222 100.812 35.7307 100.806L34.5955 99.1595C34.5903 99.1631 34.5851 99.1667 34.5799 99.1702L35.7049 100.824ZM35.8582 100.715C36.6039 100.166 37.1934 99.4163 37.5464 98.5432L35.6923 97.7934C35.48 98.3185 35.1241 98.7722 34.6725 99.1047L35.8582 100.715ZM36.6194 99.1683H52.9353V97.1683H36.6194V99.1683ZM54.2186 99.1683H54.4019V97.1683H54.2186V99.1683ZM55.3185 99.1683H71.6344V97.1683H55.3185V99.1683ZM70.7074 98.5432C71.0604 99.4163 71.6499 100.166 72.3956 100.715L73.5813 99.1047C73.1297 98.7722 72.7738 98.3185 72.5615 97.7934L70.7074 98.5432ZM72.5748 100.841C72.5835 100.847 72.5921 100.853 72.6008 100.859L73.7053 99.1913C73.7 99.1878 73.6948 99.1843 73.6895 99.1808L72.5748 100.841ZM72.7327 100.943C73.5029 101.42 74.4113 101.694 75.3808 101.694V99.6943C74.7936 99.6943 74.248 99.5287 73.7848 99.2422L72.7327 100.943ZM75.3808 101.694C76.3504 101.694 77.2588 101.42 78.029 100.943L76.9768 99.2422C76.5136 99.5287 75.9681 99.6943 75.3808 99.6943V101.694ZM78.2128 100.824C78.2214 100.818 78.23 100.812 78.2386 100.806L77.1034 99.1595C77.0982 99.1631 77.093 99.1667 77.0878 99.1702L78.2128 100.824ZM78.3661 100.715C79.1117 100.166 79.7012 99.4163 80.0543 98.5432L78.2002 97.7934C77.9878 98.3185 77.632 98.7722 77.1804 99.1047L78.3661 100.715ZM79.1272 99.1683H79.8705V97.1683H79.1272V99.1683ZM79.9289 99.1683H79.9373V97.1683H79.9289V99.1683ZM79.979 99.1683H80.7223V97.1683H79.979V99.1683ZM80.7223 99.1683C82.0062 99.1683 83.1792 98.683 84.0641 97.8875L82.727 96.4002C82.195 96.8785 81.4937 97.1683 80.7223 97.1683V99.1683ZM84.2723 97.6893C84.282 97.6796 84.2916 97.6698 84.3011 97.66L82.8697 96.2632C82.8639 96.2691 82.8581 96.275 82.8523 96.2809L84.2723 97.6893ZM84.4415 97.5101C85.237 96.6252 85.7223 95.4523 85.7223 94.1683H83.7223C83.7223 94.9397 83.4325 95.641 82.9542 96.173L84.4415 97.5101ZM85.7223 94.1683V68.6557H83.7223V94.1683H85.7223ZM85.7223 66.6491V66.3624H83.7223V66.6491H85.7223ZM85.7223 64.9291V39.4165H83.7223V64.9291H85.7223ZM85.7223 39.4165C85.7223 38.1326 85.237 36.9596 84.4415 36.0747L82.9542 37.4118C83.4325 37.9438 83.7223 38.6451 83.7223 39.4165H85.7223ZM84.2433 35.8665C84.2336 35.8568 84.2238 35.8472 84.214 35.8377L82.8172 37.2691C82.8231 37.2749 82.829 37.2807 82.8349 37.2865L84.2433 35.8665ZM84.0641 35.6973C83.1792 34.9018 82.0062 34.4165 80.7223 34.4165V36.4165C81.4937 36.4165 82.195 36.7063 82.727 37.1846L84.0641 35.6973ZM80.7223 34.4165H55.327V36.4165H80.7223V34.4165ZM53.3296 34.4165H53.0443V36.4165H53.3296V34.4165ZM51.6176 34.4165H26.2223V36.4165H51.6176V34.4165Z" fill="#004590"/>
<g filter="url(#filter1_i_843_97106)">
<path fill-rule="evenodd" clip-rule="evenodd" d="M29.1667 44.3608C29.1667 43.2563 30.0622 42.3608 31.1667 42.3608H76.8425C77.947 42.3608 78.8425 43.2563 78.8425 44.3608V90.0007C78.8425 91.1053 77.947 92.0007 76.8425 92.0007H31.1667C30.0622 92.0007 29.1667 91.1053 29.1667 90.0007V44.3608Z" fill="white"/>
</g>
<path fill-rule="evenodd" clip-rule="evenodd" d="M29.1667 44.3608C29.1667 43.2563 30.0622 42.3608 31.1667 42.3608H76.8425C77.947 42.3608 78.8425 43.2563 78.8425 44.3608V90.0007C78.8425 91.1053 77.947 92.0007 76.8425 92.0007H31.1667C30.0622 92.0007 29.1667 91.1053 29.1667 90.0007V44.3608Z" stroke="#004590" stroke-width="2" stroke-linecap="round" stroke-linejoin="round"/>
<g filter="url(#filter2_i_843_97106)">
<path fill-rule="evenodd" clip-rule="evenodd" d="M26.3889 50.4238C26.3889 48.8997 27.6245 47.6641 29.1487 47.6641V47.6641C30.6729 47.6641 31.9084 48.8997 31.9084 50.4238V56.5482C31.9084 58.0724 30.6729 59.308 29.1487 59.308V59.308C27.6245 59.308 26.3889 58.0724 26.3889 56.5482V50.4238Z" fill="white"/>
</g>
<path fill-rule="evenodd" clip-rule="evenodd" d="M26.3889 50.4238C26.3889 48.8997 27.6245 47.6641 29.1487 47.6641V47.6641C30.6729 47.6641 31.9084 48.8997 31.9084 50.4238V56.5482C31.9084 58.0724 30.6729 59.308 29.1487 59.308V59.308C27.6245 59.308 26.3889 58.0724 26.3889 56.5482V50.4238Z" stroke="#004590" stroke-width="2" stroke-linecap="round" stroke-linejoin="round"/>
<g filter="url(#filter3_i_843_97106)">
<path fill-rule="evenodd" clip-rule="evenodd" d="M26.3889 79.0801C26.3889 77.5559 27.6245 76.3203 29.1487 76.3203V76.3203C30.6729 76.3203 31.9084 77.5559 31.9084 79.0801V85.2045C31.9084 86.7287 30.6729 87.9642 29.1487 87.9642V87.9642C27.6245 87.9642 26.3889 86.7287 26.3889 85.2045V79.0801Z" fill="white"/>
</g>
<path fill-rule="evenodd" clip-rule="evenodd" d="M26.3889 79.0801C26.3889 77.5559 27.6245 76.3203 29.1487 76.3203V76.3203C30.6729 76.3203 31.9084 77.5559 31.9084 79.0801V85.2045C31.9084 86.7287 30.6729 87.9642 29.1487 87.9642V87.9642C27.6245 87.9642 26.3889 86.7287 26.3889 85.2045V79.0801Z" stroke="#004590" stroke-width="2" stroke-linecap="round" stroke-linejoin="round"/>
<path d="M53.3984 77.32C58.9223 77.32 63.4016 72.845 63.4016 67.3233C63.4016 61.8016 58.9223 57.3267 53.3984 57.3267C47.8745 57.3267 43.3953 61.8016 43.3953 67.3233C43.3953 72.845 47.8745 77.32 53.3984 77.32Z" stroke="#004590" stroke-width="2"/>
<path fill-rule="evenodd" clip-rule="evenodd" d="M54.8469 56.9193C54.8469 56.2201 54.2873 55.6611 53.597 55.6611C52.9019 55.6611 52.3471 56.2244 52.3471 56.9193V63.1306C50.7503 63.6569 49.5973 65.1643 49.5973 66.9417C49.5973 67.2836 49.64 67.6156 49.7203 67.9325L44.2636 71.7639C43.6965 72.1622 43.5582 72.9443 43.9542 73.5114C44.3529 74.0824 45.1306 74.2154 45.6975 73.8174L51.0661 70.0477C51.7556 70.6133 52.6368 70.9526 53.597 70.9526C54.6633 70.9526 55.6322 70.5341 56.3492 69.852L61.9965 73.8174C62.5636 74.2156 63.3438 74.0784 63.7398 73.5114C64.1385 72.9404 63.9971 72.162 63.4303 71.7639L57.5385 67.6269C57.5767 67.4043 57.5966 67.1753 57.5966 66.9417C57.5966 65.1643 56.4437 63.6569 54.8469 63.1306V56.9193Z" fill="#D22D27"/>
<path d="M119.097 42.3613H113.889V47.9213H119.097V42.3613Z" stroke="#B5D9F1" stroke-width="2" stroke-linecap="round" stroke-linejoin="round"/>
<path d="M8.42178 26.1076L4.86108 29.9087L8.42178 33.7098L11.9825 29.9087L8.42178 26.1076Z" stroke="#B5D9F1" stroke-width="2" stroke-linecap="round" stroke-linejoin="round"/>
<path d="M101.762 80.9204L106.711 86.2031" stroke="#B5D9F1" stroke-width="2" stroke-linecap="round" stroke-linejoin="round"/>
<path d="M106.536 80.9204L101.587 86.2031" stroke="#B5D9F1" stroke-width="2" stroke-linecap="round" stroke-linejoin="round"/>
<path opacity="0.15" d="M84.7222 37.3442C84.7222 36.833 84.5156 36.3426 84.1477 35.9811C83.7799 35.6196 83.2811 35.4165 82.7609 35.4165H49.0425C48.1829 39.9095 48.6132 44.5489 50.2852 48.815C51.9572 53.0812 54.8048 56.8054 58.5089 59.5704C62.213 62.3354 66.6273 64.0319 71.2572 64.4699C75.887 64.9079 80.5495 64.07 84.7222 62.0502V37.3442Z" fill="#004590"/>
<path d="M89.2118 50.4147L85.3969 54.2295L92.0736 60.9064L95.8885 57.0917L89.2118 50.4147Z" fill="white" stroke="#004590" stroke-width="2" stroke-linecap="round" stroke-linejoin="round"/>
<path d="M85.3549 56.6365C94.5855 50.3381 96.9625 37.7495 90.6642 28.519C84.3659 19.2884 71.7773 16.9114 62.5468 23.2097C53.3162 29.508 50.9392 42.0966 57.2375 51.3272C63.5358 60.5577 76.1244 62.9348 85.3549 56.6365Z" fill="white" stroke="#004590" stroke-width="2" stroke-linecap="round" stroke-linejoin="round"/>
<path d="M89.9272 42.5148C91.3591 33.691 85.3667 25.3771 76.5428 23.9453C67.719 22.5134 59.4051 28.5058 57.9733 37.3297C56.5415 46.1535 62.5339 54.4674 71.3577 55.8992C80.1815 57.331 88.4954 51.3386 89.9272 42.5148Z" fill="#6CB4E4"/>
<path d="M85.4089 28.492C82.3736 25.4567 78.2568 23.7515 73.9642 23.7515C69.6715 23.7515 65.5547 25.4567 62.5194 28.492C59.484 31.5274 57.7788 35.6442 57.7788 39.9368C57.7788 44.2294 59.484 48.3462 62.5194 51.3816L85.4089 28.492Z" fill="#B5D9F1"/>
<path d="M85.3962 28.4801C87.6597 30.7438 89.2011 33.6278 89.8255 36.7676C90.4499 39.9073 90.1293 43.1617 88.9042 46.1192C87.6791 49.0767 85.6045 51.6045 82.9427 53.3829C80.281 55.1614 77.1517 56.1107 73.9505 56.1107C70.7493 56.1107 67.6199 55.1614 64.9582 53.3829C62.2965 51.6045 60.2219 49.0767 58.9968 46.1192C57.7716 43.1617 57.451 39.9073 58.0754 36.7676C58.6998 33.6278 60.2412 30.7438 62.5047 28.4801C64.0078 26.9769 65.7921 25.7845 67.756 24.971C69.7199 24.1575 71.8248 23.7388 73.9505 23.7388C76.0762 23.7388 78.1811 24.1575 80.1449 24.971C82.1088 25.7845 83.8932 26.9769 85.3962 28.4801Z" stroke="#004590" stroke-width="2" stroke-miterlimit="10"/>
<path d="M103.839 74.5806C104.11 74.8518 104.432 75.067 104.786 75.2138C105.14 75.3606 105.52 75.4361 105.903 75.4361C106.287 75.4361 106.666 75.3606 107.021 75.2138C107.375 75.067 107.697 74.8518 107.968 74.5806L109.562 72.9849C110.109 72.4376 110.416 71.6953 110.416 70.9213C110.416 70.1474 110.109 69.4051 109.562 68.8577L96.5756 55.8718C96.3932 55.6894 96.1457 55.5869 95.8877 55.5869C95.6297 55.5869 95.3823 55.6894 95.1999 55.8718L90.8527 60.2179C90.7623 60.3083 90.6905 60.4156 90.6415 60.5337C90.5926 60.6518 90.5674 60.7784 90.5674 60.9063C90.5674 61.0342 90.5926 61.1608 90.6415 61.2789C90.6905 61.397 90.7623 61.5043 90.8527 61.5947L103.839 74.5806Z" fill="#90C6EB"/>
<path d="M108.857 73.6893L109.562 72.9849C109.833 72.7139 110.048 72.3921 110.194 72.0379C110.341 71.6838 110.417 71.3042 110.417 70.9208C110.417 70.5375 110.341 70.1579 110.194 69.8037C110.048 69.4496 109.833 69.1278 109.562 68.8567L96.5757 55.8718C96.3932 55.6894 96.1458 55.5869 95.8878 55.5869C95.6298 55.5869 95.3824 55.6894 95.1999 55.8718L93.0264 58.0453L108.774 73.772L108.857 73.6893Z" fill="#B5D9F1"/>
<path d="M109.562 68.8577C109.833 69.1288 110.048 69.4505 110.194 69.8047C110.341 70.1589 110.417 70.5385 110.417 70.9218C110.417 71.3052 110.341 71.6848 110.194 72.0389C110.048 72.3931 109.833 72.7149 109.562 72.9859L107.967 74.5806C107.42 75.1278 106.677 75.4352 105.903 75.4352C105.129 75.4352 104.387 75.1278 103.84 74.5806L90.8527 61.5947C90.7623 61.5043 90.6905 61.397 90.6415 61.2789C90.5926 61.1608 90.5674 61.0342 90.5674 60.9063C90.5674 60.7784 90.5926 60.6518 90.6415 60.5337C90.6905 60.4156 90.7623 60.3083 90.8527 60.2179L95.2018 55.8718C95.3843 55.6894 95.6317 55.5869 95.8897 55.5869C96.1477 55.5869 96.3951 55.6894 96.5776 55.8718L109.562 68.8577Z" stroke="#004590" stroke-width="2" stroke-miterlimit="10"/>
<path d="M82.1702 48.1761L81.4734 47.4589L82.1702 48.1761C82.6624 47.6979 82.9444 47.0431 82.9444 46.354V38.1509C82.9444 37.4618 82.6624 36.807 82.1702 36.3288C81.7751 35.9449 81.2706 35.6995 80.7331 35.6182V34.4399C80.7331 32.7667 80.0487 31.168 78.8403 29.9938C77.6328 28.8207 76.0011 28.1665 74.3055 28.1665C72.61 28.1665 70.9782 28.8207 69.7708 29.9938C68.5623 31.168 67.8779 32.7667 67.8779 34.4399V35.6182C67.3404 35.6995 66.8359 35.9449 66.4408 36.3288C65.9486 36.807 65.6666 37.4618 65.6666 38.1509V46.354C65.6666 47.0431 65.9486 47.6979 66.4408 48.1761C66.932 48.6533 67.5922 48.9165 68.2748 48.9165H80.3362C81.0188 48.9165 81.679 48.6533 82.1702 48.1761ZM76.7229 34.4399V35.5884H71.8881V34.4399C71.8881 33.834 72.1356 33.2469 72.5859 32.8093C73.0372 32.3709 73.6552 32.1196 74.3055 32.1196C74.9558 32.1196 75.5739 32.3709 76.0251 32.8093C76.4754 33.2469 76.7229 33.834 76.7229 34.4399ZM76.0833 42.3609C76.0833 43.3428 75.2874 44.1387 74.3055 44.1387C73.3237 44.1387 72.5277 43.3428 72.5277 42.3609C72.5277 41.3791 73.3237 40.5832 74.3055 40.5832C75.2874 40.5832 76.0833 41.3791 76.0833 42.3609Z" fill="white" stroke="#3598DB" stroke-width="2"/>
<path d="M94.6284 20.6982L99.3055 19.7759" stroke="#B5D9F1" stroke-width="2.20447" stroke-linecap="round" stroke-linejoin="round"/>
<path d="M87.5602 16.1033L87.7157 11.3276" stroke="#B5D9F1" stroke-width="2.20447" stroke-linecap="round" stroke-linejoin="round"/>
<path d="M91.9242 17.114L94.7842 13.2915" stroke="#B5D9F1" stroke-width="2.20447" stroke-linecap="round" stroke-linejoin="round"/>
<path fill-rule="evenodd" clip-rule="evenodd" d="M44.8334 12.119C45.9617 12.119 46.8763 11.2022 46.8763 10.0712C46.8763 8.94027 45.9617 8.02344 44.8334 8.02344C43.7052 8.02344 42.7905 8.94027 42.7905 10.0712C42.7905 11.2022 43.7052 12.119 44.8334 12.119Z" stroke="#B5D9F1" stroke-width="2.20447" stroke-linecap="round" stroke-linejoin="round"/>
<defs>
<filter id="filter0_i_843_97106" x="21.2223" y="34.4165" width="64.5" height="67.2778" filterUnits="userSpaceOnUse" color-interpolation-filters="sRGB">
<feFlood flood-opacity="0" result="BackgroundImageFix"/>
<feBlend mode="normal" in="SourceGraphic" in2="BackgroundImageFix" result="shape"/>
<feColorMatrix in="SourceAlpha" type="matrix" values="0 0 0 0 0 0 0 0 0 0 0 0 0 0 0 0 0 0 127 0" result="hardAlpha"/>
<feOffset dy="-4"/>
<feComposite in2="hardAlpha" operator="arithmetic" k2="-1" k3="1"/>
<feColorMatrix type="matrix" values="0 0 0 0 0.760784 0 0 0 0 0.878431 0 0 0 0 0.956863 0 0 0 1 0"/>
<feBlend mode="normal" in2="shape" result="effect1_innerShadow_843_97106"/>
</filter>
<filter id="filter1_i_843_97106" x="28.1667" y="41.3608" width="51.6758" height="51.6401" filterUnits="userSpaceOnUse" color-interpolation-filters="sRGB">
<feFlood flood-opacity="0" result="BackgroundImageFix"/>
<feBlend mode="normal" in="SourceGraphic" in2="BackgroundImageFix" result="shape"/>
<feColorMatrix in="SourceAlpha" type="matrix" values="0 0 0 0 0 0 0 0 0 0 0 0 0 0 0 0 0 0 127 0" result="hardAlpha"/>
<feOffset dx="6" dy="-6"/>
<feComposite in2="hardAlpha" operator="arithmetic" k2="-1" k3="1"/>
<feColorMatrix type="matrix" values="0 0 0 0 0.709804 0 0 0 0 0.85098 0 0 0 0 0.945098 0 0 0 1 0"/>
<feBlend mode="normal" in2="shape" result="effect1_innerShadow_843_97106"/>
</filter>
<filter id="filter2_i_843_97106" x="25.3889" y="46.6641" width="7.51953" height="13.644" filterUnits="userSpaceOnUse" color-interpolation-filters="sRGB">
<feFlood flood-opacity="0" result="BackgroundImageFix"/>
<feBlend mode="normal" in="SourceGraphic" in2="BackgroundImageFix" result="shape"/>
<feColorMatrix in="SourceAlpha" type="matrix" values="0 0 0 0 0 0 0 0 0 0 0 0 0 0 0 0 0 0 127 0" result="hardAlpha"/>
<feOffset dx="3" dy="-4"/>
<feComposite in2="hardAlpha" operator="arithmetic" k2="-1" k3="1"/>
<feColorMatrix type="matrix" values="0 0 0 0 0.709804 0 0 0 0 0.85098 0 0 0 0 0.945098 0 0 0 1 0"/>
<feBlend mode="normal" in2="shape" result="effect1_innerShadow_843_97106"/>
</filter>
<filter id="filter3_i_843_97106" x="25.3889" y="75.3203" width="7.51953" height="13.644" filterUnits="userSpaceOnUse" color-interpolation-filters="sRGB">
<feFlood flood-opacity="0" result="BackgroundImageFix"/>
<feBlend mode="normal" in="SourceGraphic" in2="BackgroundImageFix" result="shape"/>
<feColorMatrix in="SourceAlpha" type="matrix" values="0 0 0 0 0 0 0 0 0 0 0 0 0 0 0 0 0 0 127 0" result="hardAlpha"/>
<feOffset dx="3" dy="-4"/>
<feComposite in2="hardAlpha" operator="arithmetic" k2="-1" k3="1"/>
<feColorMatrix type="matrix" values="0 0 0 0 0.709804 0 0 0 0 0.85098 0 0 0 0 0.945098 0 0 0 1 0"/>
<feBlend mode="normal" in2="shape" result="effect1_innerShadow_843_97106"/>
</filter>
</defs>
</svg>
