<svg width="24" height="24" viewBox="0 0 24 24" fill="none" xmlns="http://www.w3.org/2000/svg">
<g clip-path="url(#clip0_224_7365)">
<path d="M23.414 20.591L18.769 15.946C20.1833 13.8289 20.7596 11.2614 20.3857 8.74287C20.0118 6.22438 18.7145 3.935 16.7461 2.32004C14.7777 0.705087 12.279 -0.119968 9.73603 0.00536207C7.19302 0.130692 4.78754 1.19745 2.9875 2.99812C1.18746 4.7988 0.121559 7.20465 -0.00287252 9.7477C-0.127304 12.2908 0.698635 14.7892 2.31428 16.757C3.92993 18.7248 6.21978 20.0213 8.7384 20.3943C11.257 20.7673 13.8243 20.1901 15.941 18.775L20.586 23.419C20.9642 23.788 21.4716 23.9945 22 23.9945C22.5283 23.9945 23.0358 23.788 23.414 23.419C23.7889 23.044 23.9996 22.5354 23.9996 22.005C23.9996 21.4747 23.7889 20.9661 23.414 20.591ZM10.25 3.00502C11.6839 3.00502 13.0856 3.43023 14.2779 4.22687C15.4701 5.02351 16.3994 6.1558 16.9481 7.48057C17.4968 8.80533 17.6404 10.2631 17.3607 11.6694C17.0809 13.0758 16.3904 14.3676 15.3765 15.3815C14.3626 16.3955 13.0707 17.086 11.6644 17.3657C10.258 17.6455 8.80029 17.5019 7.47553 16.9531C6.15076 16.4044 5.01847 15.4752 4.22183 14.2829C3.42519 13.0907 2.99998 11.6889 2.99998 10.255C3.0021 8.33285 3.76662 6.49002 5.1258 5.13084C6.48498 3.77166 8.32781 3.00714 10.25 3.00502Z" fill="#40526D"/>
</g>
<defs>
<clipPath id="clip0_224_7365">
<rect width="24" height="24" fill="white"/>
</clipPath>
</defs>
</svg>
