<svg width="56" height="56" viewBox="0 0 56 56" fill="none" xmlns="http://www.w3.org/2000/svg">
<g clip-path="url(#clip0_4244_282371)">
<rect width="56" height="56" rx="3" fill="#EBEEEF"/>
<rect width="37.3333" height="37.3333" transform="translate(9.33331 9.3335)" fill="#EBEEEF"/>
<path fill-rule="evenodd" clip-rule="evenodd" d="M42.7961 13.2042C43.2823 13.6904 43.5555 14.3498 43.5555 15.0374V31.1115C40.6853 31.1115 35.8292 31.1115 33.1094 31.1115C32.0049 31.1115 31.1111 32.0053 31.1111 33.1099C31.1111 35.8296 31.1111 40.6857 31.1111 43.5559H15.037C14.3494 43.5559 13.69 43.2828 13.2037 42.7966C12.7175 42.3104 12.4444 41.6509 12.4444 40.9633V15.0374C12.4444 14.3498 12.7175 13.6904 13.2037 13.2042C13.69 12.718 14.3494 12.4448 15.037 12.4448H40.9629C41.6505 12.4448 42.3099 12.718 42.7961 13.2042ZM43.5555 32.667C42.4198 32.667 36.1318 32.667 33.6625 32.667C33.1102 32.667 32.6666 33.1148 32.6666 33.667V43.5559H33.1851C33.3557 43.5569 33.5248 43.5242 33.6828 43.4597C33.8407 43.3952 33.9844 43.3001 34.1055 43.18L43.1796 34.1059C43.2997 33.9848 43.3948 33.8411 43.4593 33.6832C43.5238 33.5253 43.5565 33.3562 43.5555 33.1856V32.667ZM37.4858 21.5207H19.5457C19.2483 21.5207 18.9631 21.6436 18.7528 21.8624C18.5426 22.0812 18.4244 22.3779 18.4244 22.6873C18.4244 22.9968 18.5426 23.2935 18.7528 23.5123C18.9631 23.7311 19.2483 23.854 19.5457 23.854H37.4858C37.7832 23.854 38.0684 23.7311 38.2787 23.5123C38.4889 23.2935 38.6071 22.9968 38.6071 22.6873C38.6071 22.3779 38.4889 22.0812 38.2787 21.8624C38.0684 21.6436 37.7832 21.5207 37.4858 21.5207ZM19.5457 27.7429H28.5158C28.8131 27.7429 29.0983 27.8658 29.3086 28.0846C29.5189 28.3034 29.637 28.6001 29.637 28.9096C29.637 29.219 29.5189 29.5157 29.3086 29.7345C29.0983 29.9533 28.8131 30.0762 28.5158 30.0762H19.5457C19.2483 30.0762 18.9631 29.9533 18.7528 29.7345C18.5426 29.5157 18.4244 29.219 18.4244 28.9096C18.4244 28.6001 18.5426 28.3034 18.7528 28.0846C18.9631 27.8658 19.2483 27.7429 19.5457 27.7429Z" fill="#5A6A81"/>
</g>
<rect x="0.5" y="0.5" width="55" height="55" rx="3.5" stroke="#D7DBE0"/>
<defs>
<clipPath id="clip0_4244_282371">
<rect width="56" height="56" rx="4" fill="white"/>
</clipPath>
</defs>
</svg>
