<svg width="24" height="24" viewBox="0 0 24 24" fill="none" xmlns="http://www.w3.org/2000/svg">
<path d="M20.75 5.75H3.25C2.91848 5.75 2.60054 5.8817 2.36612 6.11612C2.1317 6.35054 2 6.66848 2 7V9.08333C2 9.41485 2.1317 9.7328 2.36612 9.96722C2.60054 10.2016 2.91848 10.3333 3.25 10.3333H20.75C21.0815 10.3333 21.3995 10.2016 21.6339 9.96722C21.8683 9.7328 22 9.41485 22 9.08333V7C22 6.66848 21.8683 6.35054 21.6339 6.11612C21.3995 5.8817 21.0815 5.75 20.75 5.75ZM4.70833 8.04167C4.70833 7.83564 4.76943 7.63425 4.88389 7.46295C4.99835 7.29165 5.16103 7.15813 5.35137 7.07929C5.54171 7.00045 5.75116 6.97982 5.95322 7.02002C6.15528 7.06021 6.34089 7.15942 6.48657 7.3051C6.63225 7.45078 6.73146 7.63638 6.77165 7.83845C6.81184 8.04051 6.79122 8.24996 6.71237 8.4403C6.63353 8.63063 6.50002 8.79332 6.32872 8.90778C6.15742 9.02224 5.95602 9.08333 5.75 9.08333C5.47373 9.08333 5.20878 8.97359 5.01343 8.77824C4.81808 8.58289 4.70833 8.31793 4.70833 8.04167ZM9.08333 9.08333C8.87731 9.08333 8.67592 9.02224 8.50461 8.90778C8.33331 8.79332 8.1998 8.63063 8.12096 8.4403C8.04212 8.24996 8.02149 8.04051 8.06168 7.83845C8.10187 7.63638 8.20108 7.45078 8.34676 7.3051C8.49244 7.15942 8.67805 7.06021 8.88011 7.02002C9.08218 6.97982 9.29162 7.00045 9.48196 7.07929C9.6723 7.15813 9.83499 7.29165 9.94945 7.46295C10.0639 7.63425 10.125 7.83564 10.125 8.04167C10.125 8.31793 10.0153 8.58289 9.8199 8.77824C9.62455 8.97359 9.3596 9.08333 9.08333 9.08333Z" fill="#40526D"/>
<path d="M20.9333 3.70833L17.6917 2.09167C17.5756 2.03218 17.4471 2.00078 17.3167 2H6.68333C6.55288 2.00078 6.42444 2.03218 6.30833 2.09167L3.06667 3.70833C2.98165 3.74951 2.91315 3.81835 2.87239 3.90356C2.83164 3.98878 2.82104 4.08531 2.84236 4.17734C2.86367 4.26937 2.91562 4.35142 2.98968 4.41005C3.06375 4.46867 3.15554 4.50039 3.25 4.5H20.75C20.8605 4.52431 20.9761 4.50373 21.0715 4.44278C21.1668 4.38183 21.234 4.28551 21.2583 4.175C21.2826 4.06449 21.2621 3.94885 21.2011 3.85352C21.1402 3.75819 21.0438 3.69098 20.9333 3.66667V3.70833Z" fill="#40526D"/>
<path d="M20.75 11.5833H3.25C2.91848 11.5833 2.60054 11.715 2.36612 11.9494C2.1317 12.1839 2 12.5018 2 12.8333V14.9167C2 15.2482 2.1317 15.5661 2.36612 15.8005C2.60054 16.035 2.91848 16.1667 3.25 16.1667H20.75C21.0815 16.1667 21.3995 16.035 21.6339 15.8005C21.8683 15.5661 22 15.2482 22 14.9167V12.8333C22 12.5018 21.8683 12.1839 21.6339 11.9494C21.3995 11.715 21.0815 11.5833 20.75 11.5833ZM4.70833 13.875C4.70833 13.669 4.76943 13.4676 4.88389 13.2963C4.99835 13.125 5.16103 12.9915 5.35137 12.9126C5.54171 12.8338 5.75116 12.8132 5.95322 12.8533C6.15528 12.8935 6.34089 12.9928 6.48657 13.1384C6.63225 13.2841 6.73146 13.4697 6.77165 13.6718C6.81184 13.8738 6.79122 14.0833 6.71237 14.2736C6.63353 14.464 6.50002 14.6267 6.32872 14.7411C6.15742 14.8556 5.95602 14.9167 5.75 14.9167C5.47373 14.9167 5.20878 14.8069 5.01343 14.6116C4.81808 14.4162 4.70833 14.1513 4.70833 13.875ZM9.08333 14.9167C8.87731 14.9167 8.67592 14.8556 8.50461 14.7411C8.33331 14.6267 8.1998 14.464 8.12096 14.2736C8.04212 14.0833 8.02149 13.8738 8.06168 13.6718C8.10187 13.4697 8.20108 13.2841 8.34676 13.1384C8.49244 12.9928 8.67805 12.8935 8.88011 12.8533C9.08218 12.8132 9.29162 12.8338 9.48196 12.9126C9.6723 12.9915 9.83499 13.125 9.94945 13.2963C10.0639 13.4676 10.125 13.669 10.125 13.875C10.125 14.1513 10.0153 14.4162 9.8199 14.6116C9.62455 14.8069 9.3596 14.9167 9.08333 14.9167Z" fill="#40526D"/>
<path d="M20.75 17.4167H3.25C2.91848 17.4167 2.60054 17.5484 2.36612 17.7828C2.1317 18.0172 2 18.3351 2 18.6667V20.75C2 21.0815 2.1317 21.3995 2.36612 21.6339C2.60054 21.8683 2.91848 22 3.25 22H20.75C21.0815 22 21.3995 21.8683 21.6339 21.6339C21.8683 21.3995 22 21.0815 22 20.75V18.6667C22 18.3351 21.8683 18.0172 21.6339 17.7828C21.3995 17.5484 21.0815 17.4167 20.75 17.4167ZM4.70833 19.7083C4.70833 19.5023 4.76943 19.3009 4.88389 19.1296C4.99835 18.9583 5.16103 18.8248 5.35137 18.746C5.54171 18.6671 5.75116 18.6465 5.95322 18.6867C6.15528 18.7269 6.34089 18.8261 6.48657 18.9718C6.63225 19.1174 6.73146 19.3031 6.77165 19.5051C6.81184 19.7072 6.79122 19.9166 6.71237 20.107C6.63353 20.2973 6.50002 20.46 6.32872 20.5744C6.15742 20.6889 5.95602 20.75 5.75 20.75C5.47373 20.75 5.20878 20.6403 5.01343 20.4449C4.81808 20.2496 4.70833 19.9846 4.70833 19.7083ZM9.08333 20.75C8.87731 20.75 8.67592 20.6889 8.50461 20.5744C8.33331 20.46 8.1998 20.2973 8.12096 20.107C8.04212 19.9166 8.02149 19.7072 8.06168 19.5051C8.10187 19.3031 8.20108 19.1174 8.34676 18.9718C8.49244 18.8261 8.67805 18.7269 8.88011 18.6867C9.08218 18.6465 9.29162 18.6671 9.48196 18.746C9.6723 18.8248 9.83499 18.9583 9.94945 19.1296C10.0639 19.3009 10.125 19.5023 10.125 19.7083C10.125 19.9846 10.0153 20.2496 9.8199 20.4449C9.62455 20.6403 9.3596 20.75 9.08333 20.75Z" fill="#40526D"/>
</svg>
