<svg width="56" height="56" viewBox="0 0 56 56" fill="none" xmlns="http://www.w3.org/2000/svg">
<g clip-path="url(#clip0_4244_282380)">
<rect width="56" height="56" rx="3" fill="#EBEEEF"/>
<g clip-path="url(#clip1_4244_282380)">
<rect width="37.3333" height="37.3333" transform="translate(9.33334 9.3335)" fill="#EBEEEF"/>
<path d="M44.3333 16.3335H11.6667C11.0478 16.3335 10.4543 16.5793 10.0168 17.0169C9.57918 17.4545 9.33334 18.048 9.33334 18.6668V22.5557C9.33334 23.1746 9.57918 23.768 10.0168 24.2056C10.4543 24.6432 11.0478 24.8891 11.6667 24.8891H44.3333C44.9522 24.8891 45.5457 24.6432 45.9833 24.2056C46.4208 23.768 46.6667 23.1746 46.6667 22.5557V18.6668C46.6667 18.048 46.4208 17.4545 45.9833 17.0169C45.5457 16.5793 44.9522 16.3335 44.3333 16.3335ZM14.3889 20.6113C14.3889 20.2267 14.5029 19.8508 14.7166 19.531C14.9303 19.2112 15.2339 18.962 15.5892 18.8148C15.9445 18.6677 16.3355 18.6292 16.7127 18.7042C17.0899 18.7792 17.4363 18.9644 17.7083 19.2363C17.9802 19.5083 18.1654 19.8547 18.2404 20.2319C18.3155 20.6091 18.2769 21.0001 18.1298 21.3554C17.9826 21.7107 17.7334 22.0144 17.4136 22.228C17.0939 22.4417 16.7179 22.5557 16.3333 22.5557C15.8176 22.5557 15.3231 22.3509 14.9584 21.9862C14.5938 21.6215 14.3889 21.127 14.3889 20.6113V20.6113ZM22.5556 22.5557C22.171 22.5557 21.7951 22.4417 21.4753 22.228C21.1555 22.0144 20.9063 21.7107 20.7591 21.3554C20.612 21.0001 20.5735 20.6091 20.6485 20.2319C20.7235 19.8547 20.9087 19.5083 21.1806 19.2363C21.4526 18.9644 21.799 18.7792 22.1762 18.7042C22.5534 18.6292 22.9444 18.6677 23.2997 18.8148C23.655 18.962 23.9587 19.2112 24.1723 19.531C24.386 19.8508 24.5 20.2267 24.5 20.6113C24.5 21.127 24.2952 21.6215 23.9305 21.9862C23.5658 22.3509 23.0713 22.5557 22.5556 22.5557Z" fill="#5A6A81"/>
<path d="M44.6756 12.5224L38.6244 9.50461C38.4077 9.39357 38.168 9.33496 37.9244 9.3335H18.0756C17.832 9.33496 17.5923 9.39357 17.3756 9.50461L11.3244 12.5224C11.1658 12.5992 11.0379 12.7277 10.9618 12.8868C10.8857 13.0459 10.866 13.2261 10.9057 13.3979C10.9455 13.5696 11.0425 13.7228 11.1807 13.8322C11.319 13.9417 11.4903 14.0009 11.6667 14.0002H44.3333C44.5396 14.0455 44.7555 14.0071 44.9334 13.8934C45.1114 13.7796 45.2368 13.5998 45.2822 13.3935C45.3276 13.1872 45.2892 12.9714 45.1754 12.7934C45.0616 12.6155 44.8818 12.49 44.6756 12.4446V12.5224Z" fill="#5A6A81"/>
<path d="M44.3333 27.2222H11.6667C11.0478 27.2222 10.4543 27.468 10.0168 27.9056C9.57918 28.3432 9.33334 28.9367 9.33334 29.5555V33.4444C9.33334 34.0632 9.57918 34.6567 10.0168 35.0943C10.4543 35.5319 11.0478 35.7777 11.6667 35.7777H44.3333C44.9522 35.7777 45.5457 35.5319 45.9833 35.0943C46.4208 34.6567 46.6667 34.0632 46.6667 33.4444V29.5555C46.6667 28.9367 46.4208 28.3432 45.9833 27.9056C45.5457 27.468 44.9522 27.2222 44.3333 27.2222ZM14.3889 31.4999C14.3889 31.1154 14.5029 30.7394 14.7166 30.4197C14.9303 30.0999 15.2339 29.8507 15.5892 29.7035C15.9445 29.5563 16.3355 29.5178 16.7127 29.5929C17.0899 29.6679 17.4363 29.8531 17.7083 30.125C17.9802 30.397 18.1654 30.7434 18.2404 31.1206C18.3155 31.4978 18.2769 31.8888 18.1298 32.2441C17.9826 32.5994 17.7334 32.903 17.4136 33.1167C17.0939 33.3304 16.7179 33.4444 16.3333 33.4444C15.8176 33.4444 15.3231 33.2395 14.9584 32.8749C14.5938 32.5102 14.3889 32.0156 14.3889 31.4999ZM22.5556 33.4444C22.171 33.4444 21.7951 33.3304 21.4753 33.1167C21.1555 32.903 20.9063 32.5994 20.7591 32.2441C20.612 31.8888 20.5735 31.4978 20.6485 31.1206C20.7235 30.7434 20.9087 30.397 21.1806 30.125C21.4526 29.8531 21.799 29.6679 22.1762 29.5929C22.5534 29.5178 22.9444 29.5563 23.2997 29.7035C23.655 29.8507 23.9587 30.0999 24.1723 30.4197C24.386 30.7394 24.5 31.1154 24.5 31.4999C24.5 32.0156 24.2952 32.5102 23.9305 32.8749C23.5658 33.2395 23.0713 33.4444 22.5556 33.4444Z" fill="#5A6A81"/>
<path d="M44.3333 38.1113H11.6667C11.0478 38.1113 10.4543 38.3572 10.0168 38.7947C9.57918 39.2323 9.33334 39.8258 9.33334 40.4447V44.3335C9.33334 44.9524 9.57918 45.5459 10.0168 45.9835C10.4543 46.421 11.0478 46.6669 11.6667 46.6669H44.3333C44.9522 46.6669 45.5457 46.421 45.9833 45.9835C46.4208 45.5459 46.6667 44.9524 46.6667 44.3335V40.4447C46.6667 39.8258 46.4208 39.2323 45.9833 38.7947C45.5457 38.3572 44.9522 38.1113 44.3333 38.1113ZM14.3889 42.3891C14.3889 42.0045 14.5029 41.6286 14.7166 41.3088C14.9303 40.9891 15.2339 40.7398 15.5892 40.5927C15.9445 40.4455 16.3355 40.407 16.7127 40.482C17.0899 40.5571 17.4363 40.7422 17.7083 41.0142C17.9802 41.2861 18.1654 41.6326 18.2404 42.0098C18.3155 42.3869 18.2769 42.7779 18.1298 43.1332C17.9826 43.4885 17.7334 43.7922 17.4136 44.0059C17.0939 44.2195 16.7179 44.3335 16.3333 44.3335C15.8176 44.3335 15.3231 44.1287 14.9584 43.764C14.5938 43.3994 14.3889 42.9048 14.3889 42.3891ZM22.5556 44.3335C22.171 44.3335 21.7951 44.2195 21.4753 44.0059C21.1555 43.7922 20.9063 43.4885 20.7591 43.1332C20.612 42.7779 20.5735 42.3869 20.6485 42.0098C20.7235 41.6326 20.9087 41.2861 21.1806 41.0142C21.4526 40.7422 21.799 40.5571 22.1762 40.482C22.5534 40.407 22.9444 40.4455 23.2997 40.5927C23.655 40.7398 23.9587 40.9891 24.1723 41.3088C24.386 41.6286 24.5 42.0045 24.5 42.3891C24.5 42.9048 24.2952 43.3994 23.9305 43.764C23.5658 44.1287 23.0713 44.3335 22.5556 44.3335Z" fill="#5A6A81"/>
</g>
</g>
<rect x="0.5" y="0.5" width="55" height="55" rx="3.5" stroke="#D7DBE0"/>
<defs>
<clipPath id="clip0_4244_282380">
<rect width="56" height="56" rx="4" fill="white"/>
</clipPath>
<clipPath id="clip1_4244_282380">
<rect width="37.3333" height="37.3333" fill="white" transform="translate(9.33334 9.3335)"/>
</clipPath>
</defs>
</svg>
