<svg width="40" height="41" viewBox="0 0 40 41" fill="none" xmlns="http://www.w3.org/2000/svg">
<path d="M33.3334 10.997H17.5C17.3883 10.9967 17.2777 10.9741 17.1749 10.9303C17.0722 10.8864 16.9792 10.8224 16.9017 10.742L14.6667 8.42864C14.4327 8.18675 14.1525 7.99437 13.8427 7.86295C13.5329 7.73153 13.1999 7.66375 12.8634 7.66364H7.14335C6.35445 7.66452 5.59809 7.97818 5.04009 8.53586C4.4821 9.09355 4.16801 9.84973 4.16669 10.6386V29.6886C4.16801 30.4775 4.4821 31.2337 5.04009 31.7914C5.59809 32.3491 6.35445 32.6628 7.14335 32.6636H32.8567C33.6456 32.6628 34.402 32.3491 34.9599 31.7914C35.5179 31.2337 35.832 30.4775 35.8334 29.6886V13.497C35.8334 12.8339 35.57 12.198 35.1011 11.7292C34.6323 11.2604 33.9964 10.997 33.3334 10.997Z" fill="#47A1DE"/>
<g clip-path="url(#clip0_2398_212342)">
<path d="M23.7667 23.3247L23.3333 23.1803C23.2944 23.1803 23.2389 23.1025 23.2 22.9581C23.107 22.6006 23.1224 22.2234 23.2444 21.8747C23.7722 21.3192 24.2833 20.5803 24.2833 18.8025C24.2833 16.8636 22.9611 16.0247 21.6444 16.0247C21.4255 16.026 21.2075 16.0521 20.9944 16.1025C20.9712 16.1087 20.9499 16.1206 20.9325 16.1371C20.915 16.1536 20.9019 16.1742 20.8944 16.197C20.8837 16.2176 20.8781 16.2404 20.8781 16.2636C20.8781 16.2868 20.8837 16.3097 20.8944 16.3303C21.4759 17.0312 21.7821 17.92 21.7555 18.8303C21.7555 20.6525 21.2444 21.6081 20.6444 22.2914C20.6359 22.3147 20.6359 22.3403 20.6444 22.3636C20.6417 22.3913 20.6417 22.4193 20.6444 22.447C20.6425 22.4766 20.65 22.506 20.666 22.531C20.682 22.556 20.7056 22.5752 20.7333 22.5859C22.0722 23.0636 24.1444 23.8081 24.1444 26.5803V27.3859C24.1444 27.4247 24.1444 27.4692 24.1444 27.5081C24.1416 27.5279 24.1432 27.5481 24.1489 27.5673C24.1547 27.5865 24.1645 27.6042 24.1778 27.6192C24.1901 27.6335 24.2055 27.645 24.2228 27.6527C24.2401 27.6603 24.2588 27.6641 24.2778 27.6636H26.3889C26.4625 27.6636 26.5332 27.6344 26.5853 27.5823C26.6374 27.5302 26.6667 27.4595 26.6667 27.3859V26.5525C26.6667 24.3581 25.1278 23.8136 23.7667 23.3247Z" fill="white"/>
<path d="M23.3333 26.5525C23.3333 24.3581 21.7944 23.8136 20.4333 23.3247L20 23.1803C19.9611 23.1803 19.9055 23.1025 19.8666 22.9581C19.7736 22.6006 19.7891 22.2234 19.9111 21.8747C20.4389 21.3192 20.95 20.5803 20.95 18.8025C20.95 16.8636 19.6278 16.0247 18.3111 16.0247C16.9944 16.0247 15.6944 16.8636 15.6944 18.8025C15.6944 20.5803 16.2055 21.297 16.7333 21.8692C16.8593 22.2267 16.8748 22.6139 16.7778 22.9803C16.7389 23.1247 16.6833 23.1859 16.6444 23.2025L16.2222 23.3525C14.8666 23.8081 13.3333 24.3525 13.3333 26.5525V27.3859C13.3333 27.4595 13.3626 27.5302 13.4147 27.5823C13.4668 27.6344 13.5374 27.6636 13.6111 27.6636H23.0555C23.1292 27.6636 23.1999 27.6344 23.252 27.5823C23.304 27.5302 23.3333 27.4595 23.3333 27.3859V26.5525Z" fill="white"/>
</g>
<defs>
<clipPath id="clip0_2398_212342">
<rect width="13.3333" height="13.3333" fill="white" transform="translate(13.3333 15.1636)"/>
</clipPath>
</defs>
</svg>
