<svg width="24" height="24" viewBox="0 0 24 24" fill="none" xmlns="http://www.w3.org/2000/svg">
<g clip-path="url(#clip0_224_7346)">
<path d="M13.75 7.75C13.7502 8.71872 13.5231 9.67397 13.087 10.539C13.0404 10.6337 13.025 10.7407 13.043 10.8447C13.061 10.9487 13.1114 11.0444 13.187 11.118C14.065 11.9989 15.2563 12.4958 16.5 12.5C17.7598 12.5 18.968 11.9996 19.8588 11.1088C20.7496 10.218 21.25 9.00978 21.25 7.75C21.25 6.49022 20.7496 5.28204 19.8588 4.39124C18.968 3.50045 17.7598 3 16.5 3C15.2546 3.00286 14.0612 3.49992 13.182 4.382C13.1064 4.4556 13.056 4.55126 13.038 4.65526C13.02 4.75927 13.0354 4.86629 13.082 4.961C13.5198 5.82561 13.7486 6.78088 13.75 7.75Z" fill="#9BA4B0"/>
<path d="M16.5 13C15.6915 13.0003 14.8885 13.133 14.123 13.393C14.0427 13.4198 13.9705 13.4665 13.9133 13.5288C13.856 13.5911 13.8154 13.667 13.7955 13.7492C13.7755 13.8314 13.7767 13.9174 13.799 13.9991C13.8213 14.0807 13.864 14.1553 13.923 14.216C15.5736 15.8911 16.4993 18.1483 16.5 20.5C16.5 20.6326 16.5527 20.7598 16.6464 20.8536C16.7402 20.9473 16.8674 21 17 21H23.5C23.6326 21 23.7598 20.9473 23.8535 20.8536C23.9473 20.7598 24 20.6326 24 20.5C23.9979 18.5115 23.207 16.6051 21.801 15.199C20.3949 13.793 18.4885 13.0021 16.5 13Z" fill="#9BA4B0"/>
<path d="M7.5 12.5C10.1234 12.5 12.25 10.3734 12.25 7.75C12.25 5.12665 10.1234 3 7.5 3C4.87665 3 2.75 5.12665 2.75 7.75C2.75 10.3734 4.87665 12.5 7.5 12.5Z" fill="#9BA4B0"/>
<path d="M15 20.5C15 18.5109 14.2098 16.6032 12.8033 15.1967C11.3968 13.7902 9.48912 13 7.5 13C5.51088 13 3.60322 13.7902 2.1967 15.1967C0.790176 16.6032 0 18.5109 0 20.5C0 20.6326 0.0526784 20.7598 0.146447 20.8536C0.240215 20.9473 0.367392 21 0.5 21H14.5C14.6326 21 14.7598 20.9473 14.8536 20.8536C14.9473 20.7598 15 20.6326 15 20.5Z" fill="#9BA4B0"/>
</g>
<defs>
<clipPath id="clip0_224_7346">
<rect width="24" height="24" fill="white"/>
</clipPath>
</defs>
</svg>
