<svg width="48" height="48" viewBox="0 0 48 48" fill="none" xmlns="http://www.w3.org/2000/svg">
<circle cx="24" cy="24" r="24" fill="#DBE5F7"/>
<path d="M29.6416 22C31.8507 22 33.6416 20.2091 33.6416 18C33.6416 15.7909 31.8507 14 29.6416 14C27.4325 14 25.6416 15.7909 25.6416 18C25.6416 18.3175 25.6786 18.6264 25.7485 18.9225C24.6687 19.4957 23.5456 20.0954 22.504 20.6574C21.9098 20.9781 21.3409 21.2871 20.821 21.5724C20.09 20.6165 18.9378 20 17.6416 20C15.4325 20 13.6416 21.7909 13.6416 24C13.6416 26.2091 15.4325 28 17.6416 28C18.9696 28 20.1464 27.3529 20.8739 26.3568L25.7618 29.0229C25.6833 29.3356 25.6416 29.6629 25.6416 30C25.6416 32.2091 27.4325 34 29.6416 34C31.8507 34 33.6416 32.2091 33.6416 30C33.6416 27.7909 31.8507 26 29.6416 26C28.489 26 27.4503 26.4875 26.7203 27.2676L21.6129 24.4817C21.6318 24.3238 21.6416 24.163 21.6416 24C21.6416 23.8051 21.6277 23.6134 21.6007 23.4259C22.162 23.1171 22.7904 22.7755 23.4538 22.4175C24.4896 21.8586 25.6072 21.2618 26.6823 20.6912C27.4139 21.4953 28.4688 22 29.6416 22Z" fill="#264887"/>
</svg>
