<svg width="24" height="24" viewBox="0 0 24 24" fill="none" xmlns="http://www.w3.org/2000/svg">
<path d="M9.75 12H8.75C8.6837 12 8.62011 11.9737 8.57322 11.9268C8.52634 11.8799 8.5 11.8163 8.5 11.75V10.75C8.49741 10.5519 8.41756 10.3626 8.27747 10.2225C8.13737 10.0824 7.94811 10.0026 7.75 10H6.25C6.05189 10.0026 5.86263 10.0824 5.72253 10.2225C5.58244 10.3626 5.50259 10.5519 5.5 10.75V11.75C5.5 11.8163 5.47366 11.8799 5.42678 11.9268C5.37989 11.9737 5.3163 12 5.25 12H4.25C4.05189 12.0026 3.86263 12.0824 3.72253 12.2225C3.58244 12.3626 3.50259 12.5519 3.5 12.75V14.25C3.50259 14.4481 3.58244 14.6374 3.72253 14.7775C3.86263 14.9176 4.05189 14.9974 4.25 15H5.25C5.3163 15 5.37989 15.0263 5.42678 15.0732C5.47366 15.1201 5.5 15.1837 5.5 15.25V16.25C5.50259 16.4481 5.58244 16.6374 5.72253 16.7775C5.86263 16.9176 6.05189 16.9974 6.25 17H7.75C7.94811 16.9974 8.13737 16.9176 8.27747 16.7775C8.41756 16.6374 8.49741 16.4481 8.5 16.25V15.25C8.5 15.1837 8.52634 15.1201 8.57322 15.0732C8.62011 15.0263 8.6837 15 8.75 15H9.75C9.94811 14.9974 10.1374 14.9176 10.2775 14.7775C10.4176 14.6374 10.4974 14.4481 10.5 14.25V12.75C10.4974 12.5519 10.4176 12.3626 10.2775 12.2225C10.1374 12.0824 9.94811 12.0026 9.75 12Z" fill="#40526D"/>
<path d="M24 4.5C24 3.96957 23.7893 3.46086 23.4142 3.08579C23.0391 2.71071 22.5304 2.5 22 2.5H2C1.46957 2.5 0.960859 2.71071 0.585786 3.08579C0.210714 3.46086 0 3.96957 0 4.5V19.5C0 20.0304 0.210714 20.5391 0.585786 20.9142C0.960859 21.2893 1.46957 21.5 2 21.5H22C22.5304 21.5 23.0391 21.2893 23.4142 20.9142C23.7893 20.5391 24 20.0304 24 19.5V4.5ZM2.5 19.5C2.36739 19.5 2.24021 19.4473 2.14645 19.3536C2.05268 19.2598 2 19.1326 2 19V8.5C2 8.36739 2.05268 8.24021 2.14645 8.14645C2.24021 8.05268 2.36739 8 2.5 8H21.5C21.6326 8 21.7598 8.05268 21.8536 8.14645C21.9473 8.24021 22 8.36739 22 8.5V19C22 19.1326 21.9473 19.2598 21.8536 19.3536C21.7598 19.4473 21.6326 19.5 21.5 19.5H2.5Z" fill="#40526D"/>
<path d="M19.25 11.75H14.5C14.3011 11.75 14.1103 11.829 13.9697 11.9697C13.829 12.1103 13.75 12.3011 13.75 12.5C13.75 12.6989 13.829 12.8897 13.9697 13.0303C14.1103 13.171 14.3011 13.25 14.5 13.25H19.25C19.4489 13.25 19.6397 13.171 19.7803 13.0303C19.921 12.8897 20 12.6989 20 12.5C20 12.3011 19.921 12.1103 19.7803 11.9697C19.6397 11.829 19.4489 11.75 19.25 11.75Z" fill="#40526D"/>
<path d="M18 14.75H14.5C14.3011 14.75 14.1103 14.829 13.9697 14.9697C13.829 15.1103 13.75 15.3011 13.75 15.5C13.75 15.6989 13.829 15.8897 13.9697 16.0303C14.1103 16.171 14.3011 16.25 14.5 16.25H18C18.1989 16.25 18.3897 16.171 18.5303 16.0303C18.671 15.8897 18.75 15.6989 18.75 15.5C18.75 15.3011 18.671 15.1103 18.5303 14.9697C18.3897 14.829 18.1989 14.75 18 14.75Z" fill="#40526D"/>
</svg>
