<svg width="56" height="56" viewBox="0 0 56 56" fill="none" xmlns="http://www.w3.org/2000/svg">
<g clip-path="url(#clip0_4244_282376)">
<rect width="56" height="56" rx="3" fill="#EBEEEF"/>
<g clip-path="url(#clip1_4244_282376)">
<rect width="37.3333" height="37.3333" transform="translate(9.33333 9.3335)" fill="#EBEEEF"/>
<path d="M24.5 28.0003H22.9444C22.8413 28.0003 22.7424 27.9593 22.6695 27.8864C22.5965 27.8134 22.5555 27.7145 22.5555 27.6114V26.0558C22.5515 25.7477 22.4273 25.4532 22.2094 25.2353C21.9915 25.0174 21.697 24.8932 21.3889 24.8892H19.0555C18.7474 24.8932 18.453 25.0174 18.235 25.2353C18.0171 25.4532 17.8929 25.7477 17.8889 26.0558V27.6114C17.8889 27.7145 17.8479 27.8134 17.775 27.8864C17.702 27.9593 17.6031 28.0003 17.5 28.0003H15.9444C15.6363 28.0043 15.3419 28.1285 15.1239 28.3464C14.906 28.5644 14.7818 28.8588 14.7778 29.1669V31.5003C14.7818 31.8084 14.906 32.1028 15.1239 32.3208C15.3419 32.5387 15.6363 32.6629 15.9444 32.6669H17.5C17.6031 32.6669 17.702 32.7079 17.775 32.7808C17.8479 32.8538 17.8889 32.9527 17.8889 33.0558V34.6114C17.8929 34.9195 18.0171 35.214 18.235 35.4319C18.453 35.6498 18.7474 35.774 19.0555 35.7781H21.3889C21.697 35.774 21.9915 35.6498 22.2094 35.4319C22.4273 35.214 22.5515 34.9195 22.5555 34.6114V33.0558C22.5555 32.9527 22.5965 32.8538 22.6695 32.7808C22.7424 32.7079 22.8413 32.6669 22.9444 32.6669H24.5C24.8082 32.6629 25.1026 32.5387 25.3205 32.3208C25.5384 32.1028 25.6626 31.8084 25.6667 31.5003V29.1669C25.6626 28.8588 25.5384 28.5644 25.3205 28.3464C25.1026 28.1285 24.8082 28.0043 24.5 28.0003V28.0003Z" fill="#5A6A81"/>
<path d="M46.6667 16.3333C46.6667 15.5082 46.3389 14.7168 45.7554 14.1334C45.172 13.5499 44.3807 13.2222 43.5556 13.2222H12.4444C11.6193 13.2222 10.828 13.5499 10.2446 14.1334C9.66111 14.7168 9.33333 15.5082 9.33333 16.3333V39.6666C9.33333 40.4917 9.66111 41.2831 10.2446 41.8665C10.828 42.4499 11.6193 42.7777 12.4444 42.7777H43.5556C44.3807 42.7777 45.172 42.4499 45.7554 41.8665C46.3389 41.2831 46.6667 40.4917 46.6667 39.6666V16.3333ZM13.2222 39.6666C13.0159 39.6666 12.8181 39.5847 12.6722 39.4388C12.5264 39.2929 12.4444 39.0951 12.4444 38.8888V22.5555C12.4444 22.3492 12.5264 22.1514 12.6722 22.0055C12.8181 21.8597 13.0159 21.7777 13.2222 21.7777H42.7778C42.9841 21.7777 43.1819 21.8597 43.3277 22.0055C43.4736 22.1514 43.5556 22.3492 43.5556 22.5555V38.8888C43.5556 39.0951 43.4736 39.2929 43.3277 39.4388C43.1819 39.5847 42.9841 39.6666 42.7778 39.6666H13.2222Z" fill="#5A6A81"/>
<path d="M39.2778 27.6113H31.8889C31.5795 27.6113 31.2827 27.7342 31.0639 27.953C30.8451 28.1718 30.7222 28.4686 30.7222 28.778C30.7222 29.0874 30.8451 29.3842 31.0639 29.603C31.2827 29.8217 31.5795 29.9447 31.8889 29.9447H39.2778C39.5872 29.9447 39.8839 29.8217 40.1027 29.603C40.3215 29.3842 40.4444 29.0874 40.4444 28.778C40.4444 28.4686 40.3215 28.1718 40.1027 27.953C39.8839 27.7342 39.5872 27.6113 39.2778 27.6113V27.6113Z" fill="#5A6A81"/>
<path d="M37.3333 32.2778H31.8889C31.5795 32.2778 31.2827 32.4007 31.0639 32.6195C30.8451 32.8383 30.7222 33.1351 30.7222 33.4445C30.7222 33.7539 30.8451 34.0507 31.0639 34.2695C31.2827 34.4882 31.5795 34.6112 31.8889 34.6112H37.3333C37.6427 34.6112 37.9395 34.4882 38.1583 34.2695C38.3771 34.0507 38.5 33.7539 38.5 33.4445C38.5 33.1351 38.3771 32.8383 38.1583 32.6195C37.9395 32.4007 37.6427 32.2778 37.3333 32.2778V32.2778Z" fill="#5A6A81"/>
</g>
</g>
<rect x="0.5" y="0.5" width="55" height="55" rx="3.5" stroke="#D7DBE0"/>
<defs>
<clipPath id="clip0_4244_282376">
<rect width="56" height="56" rx="4" fill="white"/>
</clipPath>
<clipPath id="clip1_4244_282376">
<rect width="37.3333" height="37.3333" fill="white" transform="translate(9.33333 9.3335)"/>
</clipPath>
</defs>
</svg>
