<svg width="56" height="56" viewBox="0 0 56 56" fill="none" xmlns="http://www.w3.org/2000/svg">
<g clip-path="url(#clip0_4244_282382)">
<rect width="56" height="56" rx="3" fill="#EBEEEF"/>
<g clip-path="url(#clip1_4244_282382)">
<rect width="37.3333" height="37.3333" transform="translate(9.33331 9.3335)" fill="#EBEEEF"/>
<path d="M14.7778 32.2469C15.1903 32.2469 15.586 32.083 15.8777 31.7913C16.1695 31.4995 16.3333 31.1039 16.3333 30.6913V17.7647C16.3333 17.4882 16.4431 17.2232 16.6386 17.0277C16.8341 16.8322 17.0991 16.7224 17.3756 16.7224H38.6245C38.7613 16.7224 38.8968 16.7494 39.0233 16.8018C39.1497 16.8542 39.2646 16.9309 39.3614 17.0277C39.4582 17.1245 39.535 17.2394 39.5873 17.3658C39.6397 17.4923 39.6667 17.6278 39.6667 17.7647V30.6913C39.6667 31.1039 39.8306 31.4995 40.1223 31.7913C40.414 32.083 40.8097 32.2469 41.2222 32.2469C41.6348 32.2469 42.0305 32.083 42.3222 31.7913C42.6139 31.4995 42.7778 31.1039 42.7778 30.6913V17.7647C42.7737 16.6644 42.3348 15.6104 41.5568 14.8323C40.7788 14.0543 39.7247 13.6154 38.6245 13.6113H17.3756C16.2753 13.6154 15.2213 14.0543 14.4432 14.8323C13.6652 15.6104 13.2263 16.6644 13.2222 17.7647V30.6913C13.2222 31.1039 13.3861 31.4995 13.6778 31.7913C13.9696 32.083 14.3652 32.2469 14.7778 32.2469Z" fill="#5A6A81"/>
<path d="M46.4955 34.9069C46.4239 34.8144 46.3319 34.7396 46.2267 34.6883C46.1215 34.6371 46.0059 34.6107 45.8889 34.6113H33.4444C33.2382 34.6113 33.0403 34.6933 32.8945 34.8391C32.7486 34.985 32.6667 35.1828 32.6667 35.3891C32.6667 36.4936 30.7533 37.7225 28 37.7225C25.2467 37.7225 23.3333 36.4936 23.3333 35.3891C23.3333 35.1828 23.2514 34.985 23.1055 34.8391C22.9597 34.6933 22.7618 34.6113 22.5555 34.6113H10.1111C9.99408 34.6107 9.87849 34.6371 9.77328 34.6883C9.66807 34.7396 9.57608 34.8144 9.50444 34.9069C9.42955 34.9992 9.37777 35.108 9.35342 35.2244C9.32907 35.3407 9.33285 35.4612 9.36444 35.5758C9.84479 37.5223 10.9641 39.2516 12.5434 40.4868C14.1227 41.722 16.0706 42.3918 18.0755 42.3891H37.9244C39.9347 42.3988 41.8898 41.7322 43.4755 40.4964C45.0611 39.2606 46.1851 37.5275 46.6667 35.5758C46.6941 35.4588 46.6929 35.3368 46.6631 35.2204C46.6333 35.1039 46.5758 34.9964 46.4955 34.9069V34.9069Z" fill="#5A6A81"/>
</g>
</g>
<rect x="0.5" y="0.5" width="55" height="55" rx="3.5" stroke="#D7DBE0"/>
<defs>
<clipPath id="clip0_4244_282382">
<rect width="56" height="56" rx="4" fill="white"/>
</clipPath>
<clipPath id="clip1_4244_282382">
<rect width="37.3333" height="37.3333" fill="white" transform="translate(9.33331 9.3335)"/>
</clipPath>
</defs>
</svg>
