<svg width="24" height="24" viewBox="0 0 24 24" fill="none" xmlns="http://www.w3.org/2000/svg">
<g clip-path="url(#clip0_3107_135169)">
<path d="M3.49855 14.98C3.76366 14.98 4.01791 14.8746 4.20537 14.6871C4.39283 14.4996 4.49814 14.2452 4.49814 13.98V5.67C4.49814 5.49231 4.5687 5.32189 4.6943 5.19624C4.8199 5.07059 4.99024 5 5.16786 5H18.8222C18.9102 5 18.9973 5.01733 19.0785 5.051C19.1598 5.08467 19.2336 5.13402 19.2958 5.19624C19.358 5.25845 19.4073 5.33231 19.441 5.4136C19.4746 5.49489 19.4919 5.58201 19.4919 5.67V13.98C19.4919 14.2452 19.5973 14.4996 19.7847 14.6871C19.9722 14.8746 20.2264 14.98 20.4915 14.98C20.7566 14.98 21.0109 14.8746 21.1983 14.6871C21.3858 14.4996 21.4911 14.2452 21.4911 13.98V5.67C21.4885 4.96268 21.2065 4.28509 20.7065 3.78494C20.2066 3.28478 19.5292 3.00263 18.8222 3H5.16786C4.46084 3.00263 3.78352 3.28478 3.28358 3.78494C2.78363 4.28509 2.5016 4.96268 2.49897 5.67V13.98C2.49897 14.2452 2.60428 14.4996 2.79174 14.6871C2.9792 14.8746 3.23345 14.98 3.49855 14.98Z" fill="#40526D"/>
<path d="M23.8803 16.69C23.8343 16.6305 23.7752 16.5824 23.7076 16.5495C23.64 16.5165 23.5657 16.4996 23.4905 16.5H15.4938C15.3612 16.5 15.2341 16.5527 15.1404 16.6465C15.0467 16.7402 14.994 16.8674 14.994 17C14.994 17.71 13.7645 18.5 11.9952 18.5C10.226 18.5 8.99647 17.71 8.99647 17C8.99647 16.8674 8.94382 16.7402 8.85009 16.6465C8.75636 16.5527 8.62923 16.5 8.49668 16.5H0.499986C0.424787 16.4996 0.350507 16.5165 0.282903 16.5495C0.215299 16.5824 0.156187 16.6305 0.110147 16.69C0.0620225 16.7493 0.0287533 16.8193 0.013106 16.8941C-0.00254136 16.9689 -0.000114704 17.0463 0.0201842 17.12C0.328854 18.3714 1.04814 19.483 2.06296 20.2771C3.07779 21.0711 4.3295 21.5017 5.61787 21.5H18.3726C19.6644 21.5062 20.9207 21.0777 21.9396 20.2833C22.9585 19.4888 23.6808 18.3747 23.9903 17.12C24.0079 17.0448 24.0071 16.9664 23.988 16.8915C23.9688 16.8167 23.9319 16.7475 23.8803 16.69Z" fill="#40526D"/>
</g>
<defs>
<clipPath id="clip0_3107_135169">
<rect width="24" height="24" fill="white"/>
</clipPath>
</defs>
</svg>
