<svg width="25" height="25" viewBox="0 0 25 25" fill="none" xmlns="http://www.w3.org/2000/svg">
<path d="M4.09738 11.0917C4.23751 11.0917 4.33942 10.9878 4.35216 10.7802C4.68337 6.67848 5.02731 6.15928 7.65152 5.84776C7.85534 5.8218 7.93177 5.71796 7.93177 5.60114C7.93177 5.45836 7.85534 5.34154 7.63878 5.31558C5.04005 4.99108 4.68337 4.48486 4.35216 0.77258C4.32668 0.564901 4.21203 0.5 4.09738 0.5C3.95725 0.5 3.85534 0.5649 3.82986 0.78556C3.49865 4.47188 3.1547 4.99108 0.543238 5.31558C0.326677 5.34154 0.250244 5.45836 0.250244 5.60114C0.250244 5.71796 0.326677 5.8218 0.543238 5.84776C3.14196 6.15928 3.49865 6.69146 3.82986 10.7802C3.8426 10.9878 3.94451 11.0917 4.09738 11.0917ZM15.4095 23.2669C15.5751 23.2669 15.7025 23.176 15.728 22.9294C16.6324 14.09 17.5623 13.1425 23.9063 12.2339C24.1483 12.195 24.2502 12.0652 24.2502 11.9094C24.2502 11.7407 24.1483 11.6239 23.9063 11.5849C17.5496 10.7023 16.6324 9.71579 15.6643 1.70714C15.626 1.44754 15.5114 1.35668 15.3458 1.35668C15.2057 1.35668 15.0655 1.44754 15.0401 1.70714C14.1483 9.71579 13.142 10.7023 6.79802 11.5849C6.54324 11.6239 6.45407 11.7407 6.45407 11.9094C6.45407 12.0652 6.54324 12.195 6.79802 12.2339C13.142 13.1425 14.1483 14.09 15.1037 22.9294C15.1292 23.176 15.2694 23.2669 15.4095 23.2669ZM7.82986 24.5C7.96999 24.5 8.0719 24.3962 8.08464 24.1885C8.41585 20.0868 8.7598 19.5676 11.384 19.2561C11.5878 19.2301 11.6643 19.1263 11.6643 19.0095C11.6643 18.8667 11.5878 18.7499 11.384 18.7239C8.77254 18.3994 8.41585 17.8932 8.08464 14.1809C8.05916 13.9732 7.94451 13.9083 7.82986 13.9083C7.68974 13.9083 7.58782 13.9732 7.57509 14.1939C7.23114 17.8802 6.89993 18.3994 4.27572 18.7239C4.05916 18.7499 3.98273 18.8667 3.98273 19.0095C3.98273 19.1263 4.05916 19.2301 4.27572 19.2561C6.87445 19.5676 7.23114 20.0998 7.57509 24.1885C7.58782 24.3962 7.677 24.5 7.82986 24.5Z" fill="#007AFF"/>
</svg>
