<svg width="56" height="56" viewBox="0 0 56 56" fill="none" xmlns="http://www.w3.org/2000/svg">
<g clip-path="url(#clip0_4244_282381)">
<rect width="56" height="56" rx="3" fill="#EBEEEF"/>
<g clip-path="url(#clip1_4244_282381)">
<rect width="37.3333" height="37.3333" transform="translate(9.33334 9.3335)" fill="#EBEEEF"/>
<path d="M20.8133 45.7026C20.8093 45.598 20.7649 45.4991 20.6895 45.4266C20.6141 45.3541 20.5135 45.3136 20.4089 45.3137H17.8889C17.6878 45.3102 17.4925 45.246 17.3287 45.1293C17.1649 45.0127 17.0402 44.8492 16.9711 44.6604L14.1556 36.8826C14.1279 36.7955 14.0734 36.7193 14 36.6648C13.9486 36.6421 13.8929 36.6304 13.8367 36.6304C13.7804 36.6304 13.7248 36.6421 13.6733 36.6648C12.9809 37.041 12.3202 37.4728 11.6978 37.9559C11.2102 38.3139 10.8149 38.7827 10.5444 39.3237C10.2739 39.8646 10.136 40.4622 10.1422 41.067V45.8893C10.1421 46.0903 10.2197 46.2835 10.3589 46.4285C10.4981 46.5735 10.6881 46.659 10.8889 46.667H20.4089C20.5135 46.6671 20.6141 46.6266 20.6895 46.5541C20.7649 46.4816 20.8093 46.3827 20.8133 46.2782V45.7026Z" fill="#5A6A81"/>
<path d="M18.48 43.1046C18.5054 43.18 18.5534 43.2458 18.6173 43.293C18.6813 43.3403 18.7583 43.3669 18.8378 43.3691H21.7778C22.0336 43.3691 22.2789 43.4707 22.4598 43.6515C22.6406 43.8324 22.7422 44.0777 22.7422 44.3335V45.6713C22.7473 45.7482 22.7743 45.8221 22.8199 45.8843C22.8656 45.9464 22.9281 45.9942 23 46.022C23.072 46.0498 23.1504 46.0564 23.226 46.0411C23.3015 46.0259 23.3712 45.9893 23.4267 45.9357L26.5378 42.6224C26.5746 42.5889 26.604 42.548 26.6241 42.5025C26.6442 42.457 26.6546 42.4077 26.6546 42.3579C26.6546 42.3082 26.6442 42.2589 26.6241 42.2134C26.604 42.1679 26.5746 42.127 26.5378 42.0935L19.4911 34.6268C19.4448 34.5716 19.3829 34.5317 19.3135 34.5123C19.2441 34.4928 19.1705 34.4948 19.1022 34.5179C18.0878 34.7838 17.0904 35.1111 16.1156 35.4979C16.0677 35.5151 16.0238 35.5418 15.9866 35.5765C15.9494 35.6113 15.9196 35.6532 15.8993 35.6998C15.8789 35.7465 15.8682 35.7967 15.868 35.8476C15.8677 35.8985 15.8779 35.9489 15.8978 35.9957L18.48 43.1046Z" fill="#5A6A81"/>
<path d="M39.0289 44.6603C38.9598 44.8492 38.8351 45.0127 38.6713 45.1293C38.5075 45.2459 38.3122 45.3102 38.1111 45.3136H35.5911C35.4865 45.3136 35.3859 45.354 35.3105 45.4265C35.2351 45.4991 35.1907 45.598 35.1867 45.7025V46.2781C35.1907 46.3826 35.2351 46.4815 35.3105 46.5541C35.3859 46.6266 35.4865 46.667 35.5911 46.667H45.1111C45.3174 46.667 45.5152 46.585 45.6611 46.4392C45.807 46.2933 45.8889 46.0955 45.8889 45.8892V41.0514C45.8951 40.4466 45.7572 39.849 45.4867 39.308C45.2163 38.7671 44.8209 38.2982 44.3333 37.9403C43.7109 37.4571 43.0502 37.0253 42.3578 36.6492C42.3063 36.6265 42.2507 36.6147 42.1945 36.6147C42.1382 36.6147 42.0826 36.6265 42.0311 36.6492C41.9257 36.6934 41.842 36.7772 41.7978 36.8825L39.0289 44.6603Z" fill="#5A6A81"/>
<path d="M26.2111 45.8116C26.1617 45.8685 26.1291 45.9381 26.1171 46.0126C26.1052 46.0871 26.1142 46.1634 26.1434 46.233C26.1725 46.3025 26.2205 46.3626 26.2819 46.4063C26.3434 46.45 26.4158 46.4757 26.4911 46.4804H32.8533C32.958 46.4805 33.0585 46.4401 33.134 46.3675C33.2094 46.295 33.2538 46.1961 33.2578 46.0916V44.3338C33.2578 44.078 33.3594 43.8327 33.5403 43.6518C33.7211 43.4709 33.9664 43.3693 34.2222 43.3693H37.1622C37.2418 43.3671 37.3187 43.3406 37.3827 43.2933C37.4466 43.246 37.4946 43.1803 37.52 43.1049L40.1022 35.996C40.1222 35.9492 40.1323 35.8988 40.1321 35.8479C40.1318 35.797 40.1212 35.7467 40.1008 35.7001C40.0804 35.6535 40.0507 35.6115 40.0135 35.5768C39.9763 35.5421 39.9324 35.5154 39.8845 35.4982C38.9792 35.1412 38.0548 34.8348 37.1156 34.5804C37.0473 34.5573 36.9737 34.5553 36.9043 34.5748C36.8349 34.5942 36.773 34.6341 36.7267 34.6893L26.2111 45.8116Z" fill="#5A6A81"/>
<path d="M26.0711 38.9825C26.0417 39.0524 26.0334 39.1295 26.0472 39.2041C26.061 39.2787 26.0964 39.3477 26.1489 39.4025L27.58 40.958C27.6543 41.0333 27.7543 41.0777 27.86 41.0825C27.9711 41.0817 28.0774 41.0369 28.1556 40.958L29.7111 39.2469C29.7554 39.1858 29.7792 39.1123 29.7792 39.0369C29.7792 38.9615 29.7554 38.888 29.7111 38.8269L28.5911 36.2758C28.519 36.1497 28.4148 36.0449 28.2891 35.9721C28.1635 35.8992 28.0208 35.8608 27.8756 35.8608C27.7303 35.8608 27.5876 35.8992 27.462 35.9721C27.3363 36.0449 27.2322 36.1497 27.16 36.2758L26.0711 38.9825Z" fill="#5A6A81"/>
<path d="M16.8156 24.4383C16.7151 24.4014 16.6049 24.4014 16.5044 24.4383C16.4255 24.5165 16.3808 24.6228 16.38 24.7339V26.445C16.3515 27.0876 16.5116 27.7245 16.8405 28.2772C17.1694 28.83 17.6528 29.2746 18.2311 29.5561C18.2901 29.5862 18.3408 29.6303 18.3788 29.6845C18.4168 29.7387 18.4408 29.8015 18.4489 29.8672C18.4656 30.0758 18.5295 30.2779 18.6356 30.4583C19.2112 31.4263 19.9356 32.2978 20.7822 33.0405C22.7289 34.8149 25.2579 35.8152 27.8917 35.8525C30.5254 35.8897 33.0817 34.9614 35.0778 33.2428C36.0138 32.4614 36.8084 31.5248 37.4267 30.4739C37.5325 30.299 37.5964 30.102 37.6133 29.8983C37.6214 29.8326 37.6455 29.7699 37.6834 29.7156C37.7214 29.6614 37.7721 29.6173 37.8311 29.5872C38.3933 29.3159 38.8679 28.892 39.2007 28.3639C39.5336 27.8358 39.7112 27.2248 39.7133 26.6005V24.8894C39.7068 24.7765 39.6566 24.6705 39.5733 24.5939C39.5256 24.568 39.4721 24.5545 39.4178 24.5545C39.3635 24.5545 39.31 24.568 39.2622 24.5939C35.5514 25.17 31.8019 25.4612 28.0467 25.465C24.2822 25.4104 20.5275 25.0672 16.8156 24.4383V24.4383ZM33.5378 29.5561C33.6023 29.5734 33.6612 29.6069 33.709 29.6536C33.7567 29.7003 33.7917 29.7584 33.8104 29.8225C33.8292 29.8866 33.8311 29.9544 33.8161 30.0194C33.801 30.0845 33.7695 30.1446 33.7245 30.1939C33.2566 30.6729 32.7346 31.0957 32.1689 31.4539C30.9248 32.2507 29.4774 32.6719 28 32.6672C26.496 32.6601 25.0263 32.217 23.7689 31.3916C23.2377 31.0491 22.7471 30.6473 22.3067 30.1939C22.2625 30.1436 22.231 30.0835 22.2147 30.0185C22.1985 29.9536 22.198 29.8857 22.2133 29.8205C22.2396 29.7544 22.2817 29.6957 22.336 29.6496C22.3902 29.6035 22.4549 29.5714 22.5244 29.5561C24.4245 28.8357 26.211 27.8456 27.8289 26.6161C27.8889 26.5694 27.9628 26.5441 28.0389 26.5441C28.115 26.5441 28.1888 26.5694 28.2489 26.6161C29.8671 27.8364 31.6471 28.8259 33.5378 29.5561V29.5561Z" fill="#5A6A81"/>
<path d="M28 16.7226C30.8648 16.7159 33.7231 16.4504 36.54 15.9293C36.6476 15.9006 36.7414 15.8344 36.8045 15.7426C36.8303 15.6948 36.8439 15.6414 36.8439 15.587C36.8439 15.5327 36.8303 15.4792 36.8045 15.4315L35.4978 10.8893C35.2994 10.3037 34.8767 9.8208 34.3225 9.54664C33.7684 9.27248 33.1281 9.22946 32.5422 9.42703C31.0864 9.98656 29.5557 10.3273 28 10.4381C26.4722 10.33 24.9682 9.99983 23.5356 9.45814C23.2488 9.36244 22.9459 9.32418 22.6443 9.34553C22.3427 9.36688 22.0483 9.44743 21.7778 9.58259C21.2212 9.84709 20.7871 10.3147 20.5645 10.8893V10.8893L19.1956 15.4315C19.1732 15.4803 19.1616 15.5333 19.1616 15.587C19.1616 15.6407 19.1732 15.6938 19.1956 15.7426C19.2586 15.8344 19.3524 15.9006 19.46 15.9293C22.2771 16.4492 25.1353 16.7147 28 16.7226V16.7226Z" fill="#5A6A81"/>
<path d="M13.7044 21.8561C13.7703 22.0263 13.8796 22.1762 14.0216 22.2908C14.1636 22.4055 14.3331 22.4809 14.5133 22.5094C18.973 23.3682 23.5051 23.7954 28.0467 23.785C32.5831 23.7946 37.1099 23.3675 41.5645 22.5094C41.7374 22.4842 41.901 22.4152 42.0399 22.3091C42.1787 22.2029 42.2881 22.063 42.3578 21.9028C42.4288 21.7077 42.4517 21.4984 42.4247 21.2926C42.3976 21.0868 42.3213 20.8906 42.2022 20.7205C42 20.3472 42.1089 19.9428 39.0911 17.8739C39.0352 17.8475 38.9741 17.8339 38.9122 17.8339C38.8504 17.8339 38.7893 17.8475 38.7333 17.8739C35.2149 18.6911 31.612 19.088 28 19.0561C24.3372 19.0467 20.6862 18.6399 17.1111 17.8428C17.0149 17.8128 16.9118 17.8128 16.8156 17.8428C15.6363 18.5747 14.6325 19.5572 13.8756 20.7205C13.7603 20.8833 13.6847 21.0708 13.655 21.268C13.6253 21.4652 13.6422 21.6666 13.7044 21.8561V21.8561Z" fill="#5A6A81"/>
</g>
</g>
<rect x="0.5" y="0.5" width="55" height="55" rx="3.5" stroke="#D7DBE0"/>
<defs>
<clipPath id="clip0_4244_282381">
<rect width="56" height="56" rx="4" fill="white"/>
</clipPath>
<clipPath id="clip1_4244_282381">
<rect width="37.3333" height="37.3333" fill="white" transform="translate(9.33334 9.3335)"/>
</clipPath>
</defs>
</svg>
