<svg width="24" height="24" viewBox="0 0 24 24" fill="none" xmlns="http://www.w3.org/2000/svg">
<path d="M7.71233 21.4837C7.71018 21.4277 7.68642 21.3747 7.64605 21.3359C7.60568 21.2971 7.55184 21.2754 7.49583 21.2755H6.14688C6.03925 21.2736 5.93471 21.2392 5.84701 21.1768C5.75932 21.1144 5.69258 21.0269 5.6556 20.9258L4.14844 16.7623C4.1336 16.7157 4.10447 16.6749 4.06517 16.6458C4.03762 16.6336 4.00784 16.6273 3.97774 16.6273C3.94763 16.6273 3.91785 16.6336 3.8903 16.6458C3.51966 16.8471 3.16599 17.0782 2.83279 17.3369C2.57181 17.5285 2.36017 17.7795 2.21538 18.069C2.07058 18.3586 1.99679 18.6785 2.00011 19.0023V21.5836C2.00002 21.6912 2.04159 21.7946 2.11611 21.8722C2.19062 21.9499 2.29229 21.9956 2.3998 21.9999H7.49583C7.55184 22 7.60568 21.9783 7.64605 21.9395C7.68642 21.9007 7.71018 21.8477 7.71233 21.7918V21.4837Z" fill="#40526D"/>
<path d="M6.46268 20.0931C6.47629 20.1335 6.50195 20.1687 6.5362 20.194C6.57045 20.2193 6.61163 20.2335 6.6542 20.2347H8.22798C8.3649 20.2347 8.49621 20.2891 8.59303 20.3859C8.68985 20.4827 8.74424 20.614 8.74424 20.7509V21.4671C8.74695 21.5082 8.76138 21.5478 8.78584 21.5811C8.81029 21.6143 8.84374 21.6399 8.88225 21.6548C8.92075 21.6697 8.96271 21.6732 9.00318 21.665C9.04364 21.6569 9.08092 21.6373 9.11062 21.6086L10.776 19.835C10.7957 19.817 10.8114 19.7952 10.8222 19.7708C10.833 19.7464 10.8385 19.7201 10.8385 19.6934C10.8385 19.6668 10.833 19.6404 10.8222 19.6161C10.8114 19.5917 10.7957 19.5698 10.776 19.5519L7.00393 15.555C6.97914 15.5254 6.946 15.5041 6.90885 15.4937C6.87171 15.4833 6.83229 15.4843 6.79576 15.4967C6.25271 15.639 5.71881 15.8142 5.197 16.0213C5.17135 16.0305 5.14785 16.0448 5.12794 16.0634C5.10803 16.082 5.09213 16.1044 5.08121 16.1294C5.07029 16.1543 5.06459 16.1812 5.06446 16.2085C5.06432 16.2357 5.06976 16.2627 5.08043 16.2878L6.46268 20.0931Z" fill="#40526D"/>
<path d="M17.464 20.9258C17.427 21.0269 17.3602 21.1144 17.2725 21.1768C17.1848 21.2393 17.0803 21.2737 16.9727 21.2755H15.6237C15.5677 21.2755 15.5139 21.2971 15.4735 21.336C15.4331 21.3748 15.4094 21.4277 15.4072 21.4837V21.7918C15.4094 21.8477 15.4331 21.9007 15.4735 21.9395C15.5139 21.9783 15.5677 22 15.6237 22H20.7198C20.8302 22 20.9361 21.9561 21.0142 21.878C21.0922 21.7999 21.1361 21.694 21.1361 21.5836V18.994C21.1394 18.6702 21.0656 18.3503 20.9208 18.0607C20.776 17.7712 20.5644 17.5202 20.3034 17.3286C19.9702 17.0699 19.6165 16.8388 19.2459 16.6375C19.2184 16.6253 19.1886 16.619 19.1585 16.619C19.1284 16.619 19.0986 16.6253 19.071 16.6375C19.0146 16.6611 18.9698 16.706 18.9461 16.7624L17.464 20.9258Z" fill="#40526D"/>
<path d="M10.6019 21.542C10.5754 21.5725 10.558 21.6098 10.5516 21.6496C10.5452 21.6895 10.55 21.7304 10.5656 21.7676C10.5812 21.8048 10.6069 21.837 10.6398 21.8604C10.6727 21.8838 10.7115 21.8975 10.7518 21.9001H14.1575C14.2135 21.9001 14.2673 21.8784 14.3077 21.8396C14.348 21.8008 14.3718 21.7479 14.374 21.6919V20.751C14.374 20.614 14.4283 20.4827 14.5252 20.3859C14.622 20.2891 14.7533 20.2347 14.8902 20.2347H16.464C16.5066 20.2335 16.5477 20.2193 16.582 20.194C16.6162 20.1687 16.6419 20.1335 16.6555 20.0931L18.0378 16.2878C18.0484 16.2627 18.0539 16.2357 18.0537 16.2085C18.0536 16.1813 18.0479 16.1543 18.037 16.1294C18.0261 16.1044 18.0102 16.082 17.9903 16.0634C17.9703 16.0448 17.9468 16.0305 17.9212 16.0213C17.4366 15.8302 16.9418 15.6662 16.439 15.53C16.4025 15.5176 16.3631 15.5166 16.3259 15.527C16.2888 15.5374 16.2556 15.5588 16.2308 15.5883L10.6019 21.542Z" fill="#40526D"/>
<path d="M10.527 17.8864C10.5113 17.9239 10.5068 17.9651 10.5142 18.0051C10.5216 18.045 10.5405 18.0819 10.5687 18.1113L11.3347 18.944C11.3745 18.9842 11.4281 19.008 11.4846 19.0106C11.5441 19.0102 11.601 18.9862 11.6428 18.944L12.4755 18.028C12.4992 17.9953 12.512 17.956 12.512 17.9156C12.512 17.8752 12.4992 17.8359 12.4755 17.8032L11.876 16.4376C11.8374 16.3701 11.7816 16.314 11.7143 16.275C11.6471 16.236 11.5707 16.2155 11.493 16.2155C11.4152 16.2155 11.3388 16.236 11.2716 16.275C11.2043 16.314 11.1485 16.3701 11.1099 16.4376L10.527 17.8864Z" fill="#40526D"/>
<path d="M5.5718 10.1009C5.51804 10.0811 5.45902 10.0811 5.40526 10.1009C5.363 10.1427 5.33905 10.1996 5.33865 10.2591V11.175C5.3234 11.519 5.40908 11.8599 5.58514 12.1558C5.76121 12.4517 6.01996 12.6897 6.32954 12.8404C6.36112 12.8565 6.38826 12.8801 6.40859 12.9091C6.42892 12.9382 6.4418 12.9718 6.44612 13.0069C6.45508 13.1186 6.48924 13.2268 6.54604 13.3234C6.85418 13.8416 7.24196 14.308 7.69515 14.7056C8.7372 15.6555 10.091 16.1909 11.5008 16.2108C12.9107 16.2308 14.279 15.7338 15.3475 14.8139C15.8486 14.3956 16.2739 13.8942 16.6049 13.3317C16.6616 13.2381 16.6958 13.1326 16.7048 13.0236C16.7091 12.9884 16.722 12.9548 16.7423 12.9258C16.7627 12.8968 16.7898 12.8732 16.8214 12.8571C17.1223 12.7118 17.3764 12.4849 17.5545 12.2022C17.7327 11.9195 17.8278 11.5925 17.8289 11.2583V10.3423C17.8254 10.2819 17.7986 10.2251 17.754 10.1841C17.7284 10.1703 17.6998 10.163 17.6707 10.163C17.6416 10.163 17.613 10.1703 17.5874 10.1841C15.6011 10.4925 13.594 10.6484 11.5838 10.6504C9.56869 10.6212 7.55879 10.4375 5.5718 10.1009ZM14.5232 12.8404C14.5577 12.8497 14.5892 12.8676 14.6148 12.8926C14.6404 12.9176 14.6591 12.9487 14.6691 12.983C14.6791 13.0173 14.6802 13.0536 14.6721 13.0884C14.6641 13.1233 14.6472 13.1554 14.6231 13.1818C14.3727 13.4382 14.0932 13.6646 13.7904 13.8563C13.1244 14.2828 12.3496 14.5083 11.5588 14.5058C10.7537 14.502 9.96697 14.2648 9.2939 13.823C9.00953 13.6396 8.74694 13.4245 8.51118 13.1818C8.48753 13.1549 8.47065 13.1227 8.46196 13.0879C8.45327 13.0532 8.45302 13.0168 8.46122 12.982C8.47529 12.9466 8.49784 12.9151 8.52687 12.8905C8.5559 12.8658 8.59054 12.8486 8.62775 12.8404C9.64486 12.4548 10.6012 11.9248 11.4672 11.2666C11.4994 11.2416 11.5389 11.2281 11.5796 11.2281C11.6203 11.2281 11.6599 11.2416 11.692 11.2666C12.5583 11.9199 13.5111 12.4495 14.5232 12.8404Z" fill="#40526D"/>
<path d="M11.5593 5.97079C13.0928 5.96722 14.6228 5.82508 16.1307 5.54612C16.1883 5.53076 16.2385 5.49532 16.2723 5.44619C16.2861 5.42062 16.2934 5.392 16.2934 5.36292C16.2934 5.33385 16.2861 5.30523 16.2723 5.27966L15.5728 2.84821C15.4666 2.53476 15.2404 2.27627 14.9437 2.12952C14.6471 1.98276 14.3043 1.95973 13.9907 2.06549C13.2114 2.36501 12.3921 2.5474 11.5593 2.60674C10.7415 2.54883 9.9364 2.37211 9.16949 2.08214C9.01596 2.03092 8.85385 2.01043 8.6924 2.02186C8.53095 2.03329 8.37334 2.07641 8.22856 2.14876C7.93063 2.29035 7.69823 2.54063 7.57906 2.84821L6.8463 5.27966C6.83432 5.30578 6.82812 5.33418 6.82812 5.36292C6.82812 5.39166 6.83432 5.42007 6.8463 5.44619C6.88005 5.49532 6.93026 5.53076 6.98786 5.54612C8.49585 5.82445 10.0258 5.96658 11.5593 5.97079Z" fill="#40526D"/>
<path d="M3.90617 8.71857C3.94141 8.80967 3.99995 8.88991 4.07594 8.95129C4.15193 9.01266 4.24269 9.05301 4.33917 9.0683C6.72643 9.528 9.15242 9.75666 11.5835 9.7511C14.0119 9.75628 16.4351 9.52762 18.8196 9.0683C18.9121 9.05479 18.9997 9.01787 19.0741 8.96104C19.1484 8.90421 19.2069 8.82935 19.2442 8.74355C19.2822 8.63914 19.2945 8.52711 19.28 8.41694C19.2655 8.30678 19.2247 8.20173 19.161 8.11071C19.0527 7.91086 19.111 7.69437 17.4956 6.58689C17.4656 6.57279 17.4329 6.56548 17.3998 6.56548C17.3667 6.56548 17.334 6.57279 17.3041 6.58689C15.4207 7.02438 13.492 7.23681 11.5585 7.21974C9.59784 7.2147 7.64347 6.99693 5.72975 6.57024C5.67823 6.55422 5.62306 6.55422 5.57154 6.57024C4.94027 6.96203 4.40297 7.48796 3.99777 8.11071C3.93604 8.19781 3.8956 8.29818 3.87969 8.40375C3.86379 8.50932 3.87285 8.61714 3.90617 8.71857Z" fill="#40526D"/>
</svg>
