<svg width="48" height="48" viewBox="0 0 48 48" fill="none" xmlns="http://www.w3.org/2000/svg">
<circle cx="24" cy="24" r="24" fill="#DBE5F7"/>
<path fill-rule="evenodd" clip-rule="evenodd" d="M20.8182 23.1H16.2727C15.67 23.1 15.0919 22.8653 14.6657 22.4476C14.2394 22.0298 14 21.4633 14 20.8725V17.2275C14 16.6367 14.2394 16.0702 14.6657 15.6524C15.0919 15.2347 15.67 15 16.2727 15H20.8182C21.4209 15 21.999 15.2347 22.4252 15.6524C22.8515 16.0702 23.0909 16.6367 23.0909 17.2275V20.8725C23.0909 21.4633 22.8515 22.0298 22.4252 22.4476C21.999 22.8653 21.4209 23.1 20.8182 23.1ZM15.3002 17.8943C15.2614 17.9323 15.2397 17.9838 15.2397 18.0375V20.8725C15.2397 21.141 15.3485 21.3986 15.5422 21.5884C15.736 21.7783 15.9987 21.885 16.2727 21.885H20.8182C21.0922 21.885 21.3549 21.7783 21.5487 21.5884C21.7424 21.3986 21.8512 21.141 21.8512 20.8725V18.0375C21.8512 17.9838 21.8295 17.9323 21.7907 17.8943C21.752 17.8563 21.6994 17.835 21.6446 17.835H15.4463C15.3915 17.835 15.3389 17.8563 15.3002 17.8943Z" fill="#264887"/>
<path fill-rule="evenodd" clip-rule="evenodd" d="M25.5748 22.4476C25.1485 22.0298 24.9091 21.4633 24.9091 20.8725V17.2275C24.9091 16.6367 25.1485 16.0702 25.5748 15.6524C26.001 15.2347 26.5791 15 27.1818 15H31.7273C32.33 15 32.9081 15.2347 33.3343 15.6524C33.7606 16.0702 34 16.6367 34 17.2275V20.8725C34 21.4633 33.7606 22.0298 33.3343 22.4476C32.9081 22.8653 32.33 23.1 31.7273 23.1H27.1818C26.5791 23.1 26.001 22.8653 25.5748 22.4476ZM26.2093 17.8943C26.1705 17.9323 26.1488 17.9838 26.1488 18.0375V20.8725C26.1488 21.141 26.2576 21.3986 26.4513 21.5884C26.6451 21.7783 26.9078 21.885 27.1818 21.885H31.7273C32.0013 21.885 32.264 21.7783 32.4578 21.5884C32.6515 21.3986 32.7603 21.141 32.7603 20.8725V18.0375C32.7603 17.9838 32.7386 17.9323 32.6998 17.8943C32.6611 17.8563 32.6085 17.835 32.5537 17.835H26.3554C26.3006 17.835 26.248 17.8563 26.2093 17.8943Z" fill="#264887"/>
<path fill-rule="evenodd" clip-rule="evenodd" d="M16.2727 33H20.8182C21.4209 33 21.999 32.7653 22.4252 32.3476C22.8515 31.9298 23.0909 31.3633 23.0909 30.7725V27.1275C23.0909 26.5367 22.8515 25.9702 22.4252 25.5524C21.999 25.1347 21.4209 24.9 20.8182 24.9H16.2727C15.67 24.9 15.0919 25.1347 14.6657 25.5524C14.2394 25.9702 14 26.5367 14 27.1275V30.7725C14 31.3633 14.2394 31.9298 14.6657 32.3476C15.0919 32.7653 15.67 33 16.2727 33ZM15.2397 27.9375C15.2397 27.8838 15.2614 27.8323 15.3002 27.7943C15.3389 27.7563 15.3915 27.735 15.4463 27.735H21.6446C21.6994 27.735 21.752 27.7563 21.7907 27.7943C21.8295 27.8323 21.8512 27.8838 21.8512 27.9375V30.7725C21.8512 31.041 21.7424 31.2986 21.5487 31.4884C21.3549 31.6783 21.0922 31.785 20.8182 31.785H16.2727C15.9987 31.785 15.736 31.6783 15.5422 31.4884C15.3485 31.2986 15.2397 31.041 15.2397 30.7725V27.9375Z" fill="#264887"/>
<path fill-rule="evenodd" clip-rule="evenodd" d="M25.5748 32.3476C25.1485 31.9298 24.9091 31.3633 24.9091 30.7725V27.1275C24.9091 26.5367 25.1485 25.9702 25.5748 25.5524C26.001 25.1347 26.5791 24.9 27.1818 24.9H31.7273C32.33 24.9 32.9081 25.1347 33.3343 25.5524C33.7606 25.9702 34 26.5367 34 27.1275V30.7725C34 31.3633 33.7606 31.9298 33.3343 32.3476C32.9081 32.7653 32.33 33 31.7273 33H27.1818C26.5791 33 26.001 32.7653 25.5748 32.3476ZM26.2093 27.7943C26.1705 27.8323 26.1488 27.8838 26.1488 27.9375V30.7725C26.1488 31.041 26.2576 31.2986 26.4513 31.4884C26.6451 31.6783 26.9078 31.785 27.1818 31.785H31.7273C32.0013 31.785 32.264 31.6783 32.4578 31.4884C32.6515 31.2986 32.7603 31.041 32.7603 30.7725V27.9375C32.7603 27.8838 32.7386 27.8323 32.6998 27.7943C32.6611 27.7563 32.6085 27.735 32.5537 27.735H26.3554C26.3006 27.735 26.248 27.7563 26.2093 27.7943Z" fill="#264887"/>
</svg>
