<svg width="14" height="14" viewBox="0 0 14 14" fill="none" xmlns="http://www.w3.org/2000/svg">
<path d="M13.3005 2.46714C13.7886 1.97898 13.7886 1.18753 13.3005 0.699371C12.8123 0.211212 12.0208 0.211212 11.5327 0.699371L6.99992 5.23215L2.46714 0.699371C1.97898 0.211212 1.18753 0.211212 0.699371 0.699371C0.211212 1.18753 0.211212 1.97898 0.699371 2.46714L5.23215 6.99992L0.699371 11.5327C0.211212 12.0208 0.211212 12.8123 0.699371 13.3005C1.18753 13.7886 1.97898 13.7886 2.46714 13.3005L6.99992 8.76767L11.5327 13.3005C12.0208 13.7886 12.8123 13.7886 13.3005 13.3005C13.7886 12.8123 13.7886 12.0208 13.3005 11.5327L8.76767 6.99992L13.3005 2.46714Z" fill="#40526D"/>
</svg>
