<svg width="40" height="40" viewBox="0 0 40 40" fill="none" xmlns="http://www.w3.org/2000/svg">
    <rect width="40" height="40" rx="20" fill="#E8F3FF"/>
    <g clip-path="url(#clip0_9477_3719)">
        <path d="M20.038 29.26C19.1858 29.5761 18.2839 29.7373 17.375 29.736C17.1761 29.736 16.9853 29.815 16.8447 29.9557C16.704 30.0963 16.625 30.2871 16.625 30.486C16.625 30.6849 16.704 30.8757 16.8447 31.0163C16.9853 31.157 17.1761 31.236 17.375 31.236C18.3342 31.2355 19.2875 31.0864 20.201 30.794C20.2516 30.778 20.2957 30.7463 20.327 30.7035C20.3583 30.6607 20.3751 30.609 20.375 30.556V29.5C20.3751 29.4596 20.3654 29.4198 20.3468 29.384C20.3282 29.3482 20.3011 29.3174 20.268 29.2943C20.2349 29.2712 20.1967 29.2565 20.1566 29.2514C20.1165 29.2463 20.0759 29.251 20.038 29.265V29.26Z" fill="#004590"/>
        <path d="M25.1258 17.267V17.343C25.1259 17.38 25.1343 17.4166 25.1503 17.45C25.1662 17.4834 25.1893 17.5128 25.218 17.5363C25.2467 17.5597 25.2802 17.5765 25.3161 17.5854C25.352 17.5944 25.3895 17.5953 25.4258 17.588C25.7365 17.5204 26.0537 17.4869 26.3718 17.488H26.4018C26.4599 17.488 26.5158 17.465 26.557 17.4239C26.5982 17.3829 26.6215 17.3272 26.6218 17.269C26.6312 15.223 25.9549 13.2327 24.7008 11.616C24.641 11.5378 24.5665 11.4722 24.4813 11.4229C24.3962 11.3736 24.3021 11.3416 24.2046 11.3287C24.1071 11.3158 24.008 11.3222 23.9129 11.3477C23.8179 11.3731 23.7288 11.4171 23.6508 11.477C23.5724 11.5367 23.5068 11.6114 23.4577 11.6967C23.4086 11.7821 23.3771 11.8764 23.365 11.9742C23.3529 12.0719 23.3604 12.171 23.3872 12.2658C23.4139 12.3606 23.4593 12.4491 23.5208 12.526C24.5664 13.8848 25.1309 15.5525 25.1258 17.267Z" fill="#004590"/>
        <path d="M14.361 29.129C12.9558 28.5372 11.7567 27.5436 10.9141 26.2728C10.0716 25.002 9.62309 23.5107 9.62501 21.986V20.1C9.62501 19.9011 9.54599 19.7103 9.40534 19.5696C9.26468 19.429 9.07392 19.35 8.87501 19.35C8.67609 19.35 8.48533 19.429 8.34468 19.5696C8.20402 19.7103 8.12501 19.9011 8.12501 20.1V21.988C8.12296 23.8072 8.65829 25.5866 9.66381 27.1027C10.6693 28.6188 12.1003 29.8041 13.777 30.51C13.8693 30.5492 13.9687 30.5693 14.069 30.569C14.2417 30.5685 14.409 30.5085 14.5425 30.399C14.6761 30.2895 14.7678 30.1373 14.8021 29.968C14.8364 29.7988 14.8113 29.6228 14.7309 29.47C14.6506 29.3171 14.5199 29.1967 14.361 29.129Z" fill="#004590"/>
        <path d="M8.8478 17.542H8.8898C9.08146 17.5418 9.26577 17.4682 9.40487 17.3364C9.54397 17.2045 9.62732 17.0244 9.6378 16.833C9.71163 15.5111 10.1229 14.2301 10.8323 13.1122C11.5417 11.9943 12.5256 11.0768 13.6903 10.4471C14.8549 9.81735 16.1615 9.49647 17.4853 9.51502C18.8092 9.53357 20.1062 9.89093 21.2528 10.553C21.4245 10.6436 21.6246 10.664 21.811 10.6101C21.9975 10.5562 22.1558 10.4321 22.2526 10.2639C22.3495 10.0957 22.3774 9.89649 22.3304 9.70817C22.2834 9.51984 22.1653 9.35705 22.0008 9.25402C20.6322 8.46443 19.0841 8.03852 17.5042 8.01686C15.9243 7.9952 14.3651 8.37853 12.9754 9.13031C11.5856 9.88209 10.4116 10.9773 9.56508 12.3115C8.7186 13.6457 8.22792 15.1744 8.1398 16.752C8.1344 16.8504 8.14843 16.9489 8.18109 17.0418C8.21375 17.1347 8.2644 17.2203 8.33015 17.2937C8.39589 17.367 8.47545 17.4267 8.56427 17.4693C8.65309 17.512 8.74943 17.5367 8.8478 17.542Z" fill="#004590"/>
        <path d="M22.4667 19.411C22.517 19.4273 22.5712 19.4272 22.6214 19.4109C22.6717 19.3945 22.7156 19.3627 22.7467 19.32C23.01 18.9587 23.3286 18.6412 23.6907 18.379C23.7216 18.3556 23.7467 18.3254 23.7641 18.2907C23.7814 18.256 23.7905 18.2178 23.7907 18.179V17.267C23.7908 16.2524 23.5505 15.2522 23.0893 14.3485C22.6281 13.4448 21.9593 12.6632 21.1376 12.068C20.316 11.4727 19.3649 11.0807 18.3625 10.9241C17.36 10.7675 16.3347 10.8507 15.3707 11.167C15.2764 11.1972 15.189 11.2459 15.1136 11.3102C15.0383 11.3745 14.9765 11.4531 14.9318 11.5415C14.8872 11.63 14.8605 11.7264 14.8535 11.8252C14.8464 11.924 14.8591 12.0232 14.8907 12.117C14.9538 12.3038 15.0875 12.4585 15.2631 12.5482C15.4387 12.6379 15.6424 12.6554 15.8307 12.597C16.3267 12.4291 16.8471 12.3446 17.3707 12.347C18.6763 12.3473 19.9285 12.8654 20.8526 13.7878C21.7766 14.7102 22.297 15.9614 22.2997 17.267V19.173C22.2992 19.2252 22.3151 19.2761 22.345 19.3188C22.375 19.3615 22.4175 19.3937 22.4667 19.411Z" fill="#004590"/>
        <path d="M20.2451 26.138C20.2059 26.1164 20.1617 26.1057 20.117 26.1071C20.0723 26.1086 20.0288 26.122 19.9911 26.146C19.2089 26.6425 18.3015 26.9061 17.3751 26.906C16.0709 26.9036 14.8209 26.3845 13.8987 25.4623C12.9766 24.5402 12.4575 23.2901 12.4551 21.986V17.267C12.4568 16.0573 12.9015 14.8902 13.7051 13.986C13.7719 13.9134 13.8237 13.8282 13.8574 13.7355C13.8911 13.6427 13.9061 13.5441 13.9014 13.4456C13.8968 13.347 13.8726 13.2503 13.8303 13.1611C13.788 13.0719 13.7285 12.992 13.6551 12.926C13.5061 12.7945 13.3112 12.727 13.1128 12.7382C12.9143 12.7494 12.7283 12.8385 12.5951 12.986C11.5385 14.1615 10.9544 15.6864 10.9551 17.267V21.986C10.9569 23.6881 11.6339 25.32 12.8375 26.5236C14.0411 27.7272 15.673 28.4041 17.3751 28.406C18.3708 28.407 19.3525 28.1712 20.2391 27.718C20.2799 27.697 20.3141 27.6651 20.3381 27.626C20.3621 27.5869 20.3749 27.5419 20.3751 27.496V26.357C20.375 26.3122 20.3629 26.2682 20.3401 26.2297C20.3172 26.1912 20.2844 26.1595 20.2451 26.138Z" fill="#004590"/>
        <path d="M17.3758 13.676C16.4257 13.6787 15.5155 14.0584 14.8451 14.7317C14.1748 15.405 13.7992 16.3169 13.8008 17.267V18.676C13.8008 18.8749 13.8798 19.0657 14.0205 19.2064C14.1611 19.347 14.3519 19.426 14.5508 19.426C14.7497 19.426 14.9405 19.347 15.0811 19.2064C15.2218 19.0657 15.3008 18.8749 15.3008 18.676V17.267C15.3008 16.7154 15.5199 16.1863 15.91 15.7962C16.3001 15.4062 16.8291 15.187 17.3808 15.187C17.9324 15.187 18.4615 15.4062 18.8516 15.7962C19.2416 16.1863 19.4608 16.7154 19.4608 17.267V21.986C19.4608 22.2592 19.407 22.5296 19.3025 22.782C19.1979 23.0344 19.0447 23.2637 18.8516 23.4568C18.6584 23.65 18.4291 23.8032 18.1768 23.9077C17.9244 24.0122 17.6539 24.066 17.3808 24.066C17.1076 24.066 16.8372 24.0122 16.5848 23.9077C16.3324 23.8032 16.1031 23.65 15.91 23.4568C15.7169 23.2637 15.5636 23.0344 15.4591 22.782C15.3546 22.5296 15.3008 22.2592 15.3008 21.986C15.3008 21.7871 15.2218 21.5963 15.0811 21.4557C14.9405 21.315 14.7497 21.236 14.5508 21.236C14.3519 21.236 14.1611 21.315 14.0205 21.4557C13.8798 21.5963 13.8008 21.7871 13.8008 21.986C13.8005 22.7531 14.0467 23.5 14.503 24.1167C14.9593 24.7333 15.6016 25.1871 16.3353 25.4111C17.069 25.6351 17.8552 25.6175 18.5781 25.361C19.3011 25.1044 19.9225 24.6224 20.3508 23.986C20.3759 23.9482 20.3904 23.9044 20.3928 23.859C20.4104 23.4365 20.5728 23.0329 20.8528 22.716C20.8857 22.681 20.907 22.6366 20.9138 22.589C20.9449 22.3905 20.9607 22.1899 20.9608 21.989V17.267C20.9616 16.7957 20.8694 16.3289 20.6896 15.8933C20.5098 15.4576 20.2459 15.0617 19.9129 14.7282C19.5799 14.3946 19.1844 14.13 18.7491 13.9495C18.3137 13.769 17.8471 13.676 17.3758 13.676Z" fill="#004590"/>
        <path d="M18.125 21.514V18.681C18.125 18.4821 18.046 18.2914 17.9053 18.1507C17.7647 18.01 17.5739 17.931 17.375 17.931C17.1761 17.931 16.9853 18.01 16.8447 18.1507C16.704 18.2914 16.625 18.4821 16.625 18.681V21.514C16.625 21.7129 16.704 21.9037 16.8447 22.0444C16.9853 22.185 17.1761 22.264 17.375 22.264C17.5739 22.264 17.7647 22.185 17.9053 22.0444C18.046 21.9037 18.125 21.7129 18.125 21.514Z" fill="#004590"/>
        <path d="M30.589 23.5C30.5295 23.4914 30.475 23.4615 30.4357 23.416C30.3964 23.3704 30.3749 23.3122 30.375 23.252V22.236C30.375 21.3078 30.0063 20.4175 29.3499 19.7611C28.6935 19.1048 27.8033 18.736 26.875 18.736C25.9467 18.736 25.0565 19.1048 24.4001 19.7611C23.7437 20.4175 23.375 21.3078 23.375 22.236V23.254C23.3751 23.3142 23.3536 23.3724 23.3143 23.418C23.275 23.4635 23.2205 23.4934 23.161 23.502C22.8041 23.5535 22.4776 23.7318 22.2414 24.0043C22.0052 24.2769 21.8752 24.6254 21.875 24.986V30.486C21.875 30.8838 22.033 31.2654 22.3143 31.5467C22.5956 31.828 22.9772 31.986 23.375 31.986H30.375C30.7728 31.986 31.1544 31.828 31.4357 31.5467C31.717 31.2654 31.875 30.8838 31.875 30.486V24.986C31.8753 24.625 31.7455 24.2761 31.5092 24.0031C31.273 23.7301 30.9463 23.5515 30.589 23.5ZM26.875 29.234C26.6772 29.234 26.4839 29.1754 26.3194 29.0655C26.155 28.9556 26.0268 28.7994 25.9511 28.6167C25.8754 28.434 25.8556 28.2329 25.8942 28.0389C25.9328 27.845 26.028 27.6668 26.1679 27.5269C26.3077 27.3871 26.4859 27.2918 26.6799 27.2532C26.8739 27.2147 27.075 27.2345 27.2577 27.3101C27.4404 27.3858 27.5966 27.514 27.7065 27.6785C27.8164 27.8429 27.875 28.0362 27.875 28.234C27.8753 28.3655 27.8496 28.4958 27.7995 28.6173C27.7493 28.7389 27.6757 28.8494 27.5828 28.9424C27.4899 29.0355 27.3796 29.1093 27.2581 29.1597C27.1367 29.2101 27.0065 29.236 26.875 29.236V29.234ZM28.375 23.234C28.3751 23.2669 28.3688 23.2995 28.3562 23.3299C28.3437 23.3602 28.3253 23.3879 28.3021 23.4111C28.2788 23.4343 28.2512 23.4527 28.2208 23.4653C28.1904 23.4778 28.1579 23.4842 28.125 23.484H25.625C25.5921 23.4842 25.5596 23.4778 25.5292 23.4653C25.4988 23.4527 25.4712 23.4343 25.4479 23.4111C25.4247 23.3879 25.4063 23.3602 25.3938 23.3299C25.3812 23.2995 25.3749 23.2669 25.375 23.234V22.234C25.375 21.8362 25.533 21.4547 25.8143 21.1734C26.0956 20.8921 26.4772 20.734 26.875 20.734C27.2728 20.734 27.6544 20.8921 27.9357 21.1734C28.217 21.4547 28.375 21.8362 28.375 22.234V23.234Z" fill="#004590"/>
    </g>
    <defs>
        <clipPath id="clip0_9477_3719">
            <rect width="24" height="24" fill="white" transform="translate(8 8)"/>
        </clipPath>
    </defs>
</svg>
