<svg width="17" height="16" viewBox="0 0 17 16" fill="none" xmlns="http://www.w3.org/2000/svg">
<path d="M8.09721 7.83333C10.1223 7.83333 11.7639 6.19171 11.7639 4.16667C11.7639 2.14162 10.1223 0.5 8.09721 0.5C6.07216 0.5 4.43054 2.14162 4.43054 4.16667C4.43054 6.19171 6.07216 7.83333 8.09721 7.83333Z" fill="#40526D"/>
<path d="M8.09725 8.8335C6.41814 8.83544 4.80836 9.50332 3.62105 10.6906C2.43374 11.8779 1.76586 13.4877 1.76392 15.1668C1.76392 15.2552 1.79904 15.34 1.86155 15.4025C1.92406 15.465 2.00884 15.5002 2.09725 15.5002H14.0973C14.1857 15.5002 14.2704 15.465 14.333 15.4025C14.3955 15.34 14.4306 15.2552 14.4306 15.1668C14.4286 13.4877 13.7608 11.8779 12.5734 10.6906C11.3861 9.50332 9.77636 8.83544 8.09725 8.8335Z" fill="#40526D"/>
</svg>
