<svg width="48" height="48" viewBox="0 0 48 48" fill="none" xmlns="http://www.w3.org/2000/svg">
<circle cx="24" cy="24" r="24" fill="#DBE5F7"/>
<path d="M22.4085 20.6669C22.4443 20.6909 22.4863 20.7037 22.5294 20.7037C22.5724 20.7037 22.6145 20.6909 22.6502 20.6669C23.063 20.4371 23.5277 20.3164 24.0002 20.3164C24.4727 20.3164 24.9374 20.4371 25.3502 20.6669C25.3859 20.6909 25.428 20.7037 25.471 20.7037C25.5141 20.7037 25.5561 20.6909 25.5919 20.6669L26.8918 19.3669C26.9132 19.3451 26.9295 19.3189 26.9395 19.2901C26.9496 19.2613 26.9533 19.2306 26.9502 19.2003C26.9496 19.1704 26.9417 19.1411 26.9271 19.1149C26.9126 19.0888 26.8919 19.0666 26.8668 19.0503C26.0266 18.4623 25.0258 18.1469 24.0002 18.1469C22.9746 18.1469 21.9738 18.4623 21.1335 19.0503C21.1085 19.0666 21.0878 19.0888 21.0732 19.1149C21.0587 19.1411 21.0508 19.1704 21.0502 19.2003C21.0471 19.2306 21.0508 19.2613 21.0608 19.2901C21.0709 19.3189 21.0872 19.3451 21.1085 19.3669L22.4085 20.6669Z" fill="#264887"/>
<path d="M21.5367 24.6377C21.5367 24.6808 21.5239 24.7228 21.4999 24.7586L20.2249 26.0586C20.2031 26.0799 20.1769 26.0962 20.1481 26.1063C20.1193 26.1163 20.0886 26.12 20.0583 26.1169C20.0284 26.1163 19.9991 26.1084 19.9729 26.0939C19.9468 26.0793 19.9246 26.0586 19.9083 26.0336C19.3203 25.1933 19.0049 24.1925 19.0049 23.1669C19.0049 22.1413 19.3203 21.1405 19.9083 20.3002C19.9246 20.2752 19.9468 20.2545 19.9729 20.24C19.9991 20.2254 20.0284 20.2175 20.0583 20.2169C20.0886 20.2138 20.1193 20.2175 20.1481 20.2276C20.1769 20.2376 20.2031 20.2539 20.2249 20.2752L21.4999 21.5752C21.5263 21.61 21.5405 21.6524 21.5405 21.6961C21.5405 21.7397 21.5263 21.7821 21.4999 21.8169C21.2701 22.2297 21.1494 22.6944 21.1494 23.1669C21.1494 23.6394 21.2701 24.1041 21.4999 24.5169C21.5239 24.5526 21.5367 24.5947 21.5367 24.6377Z" fill="#264887"/>
<path d="M25.542 23.1669C25.542 24.0184 24.8517 24.7086 24.0003 24.7086C23.1489 24.7086 22.4586 24.0184 22.4586 23.1669C22.4586 22.3155 23.1489 21.6253 24.0003 21.6253C24.8517 21.6253 25.542 22.3155 25.542 23.1669Z" fill="#264887"/>
<path d="M26.4378 21.6889C26.4454 21.6452 26.4672 21.6052 26.5 21.5752L27.7417 20.2752C27.7635 20.2539 27.7897 20.2376 27.8185 20.2276C27.8473 20.2175 27.878 20.2138 27.9084 20.2169C27.9383 20.2175 27.9676 20.2254 27.9937 20.24C28.0199 20.2545 28.0421 20.2752 28.0584 20.3002C28.6464 21.1405 28.9617 22.1413 28.9617 23.1669C28.9617 24.1925 28.6464 25.1933 28.0584 26.0336C28.0408 26.0581 28.0185 26.0789 27.9927 26.0947C27.9669 26.1104 27.9382 26.1208 27.9084 26.1252C27.8774 26.1267 27.8465 26.1215 27.8178 26.11C27.789 26.0985 27.7631 26.0809 27.7417 26.0586L26.4334 24.7502C26.409 24.7194 26.3958 24.6812 26.3958 24.6419C26.3958 24.6026 26.409 24.5644 26.4334 24.5336C26.6663 24.1156 26.7896 23.6454 26.7917 23.1669C26.7988 22.6957 26.684 22.2307 26.4584 21.8169C26.4375 21.7777 26.4303 21.7327 26.4378 21.6889Z" fill="#264887"/>
<path d="M25.5915 25.6669C25.5616 25.6341 25.5216 25.6122 25.4778 25.6047C25.4341 25.5972 25.3891 25.6044 25.3499 25.6252C24.9371 25.8551 24.4724 25.9758 23.9999 25.9758C23.5274 25.9758 23.0627 25.8551 22.6499 25.6252C22.6107 25.6044 22.5657 25.5972 22.5219 25.6047C22.4782 25.6122 22.4382 25.6341 22.4082 25.6669L21.1082 26.9419C21.0873 26.964 21.0714 26.9903 21.0613 27.019C21.0512 27.0477 21.0474 27.0783 21.0499 27.1086C21.0497 27.1386 21.0573 27.1682 21.0719 27.1945C21.0865 27.2208 21.1076 27.2428 21.1332 27.2586C21.9735 27.8466 22.9743 28.162 23.9999 28.162C25.0255 28.162 26.0262 27.8466 26.8665 27.2586C26.8921 27.2428 26.9132 27.2208 26.9278 27.1945C26.9424 27.1682 26.95 27.1386 26.9499 27.1086C26.9524 27.0783 26.9485 27.0477 26.9384 27.019C26.9284 26.9903 26.9124 26.964 26.8915 26.9419L25.5915 25.6669Z" fill="#264887"/>
<path fill-rule="evenodd" clip-rule="evenodd" d="M16.0833 14.0003H31.9166C32.4589 13.9913 32.9827 14.1977 33.3731 14.5741C33.7636 14.9505 33.989 15.4663 34 16.0086V30.3251C34.0026 30.7041 33.8975 31.0762 33.6969 31.3978C33.4962 31.7194 33.2083 31.9774 32.8666 32.1417C32.8309 32.1592 32.801 32.1865 32.7803 32.2205C32.7596 32.2544 32.7491 32.2936 32.75 32.3334V33.1667C32.75 33.3877 32.6622 33.5996 32.5059 33.7559C32.3496 33.9122 32.1376 34 31.9166 34C31.6956 34 31.4836 33.9122 31.3274 33.7559C31.1711 33.5996 31.0833 33.3877 31.0833 33.1667V32.5417C31.0833 32.4864 31.0613 32.4334 31.0223 32.3944C30.9832 32.3553 30.9302 32.3334 30.875 32.3334H17.125C17.0697 32.3334 17.0167 32.3553 16.9777 32.3944C16.9386 32.4334 16.9167 32.4864 16.9167 32.5417V33.1667C16.9167 33.3877 16.8289 33.5996 16.6726 33.7559C16.5163 33.9122 16.3043 34 16.0833 34C15.8623 34 15.6504 33.9122 15.4941 33.7559C15.3378 33.5996 15.25 33.3877 15.25 33.1667V32.3334C15.258 32.2882 15.2509 32.2418 15.2298 32.2011C15.2087 32.1604 15.1748 32.1278 15.1333 32.1084C14.7968 31.9466 14.5122 31.6938 14.3119 31.3786C14.1116 31.0634 14.0036 30.6985 14 30.3251V16.0086C14.011 15.4663 14.2363 14.9505 14.6268 14.5741C15.0173 14.1977 15.541 13.9913 16.0833 14.0003ZM29.5431 26.8706C30.2756 25.7743 30.6666 24.4853 30.6666 23.1668C30.6666 21.3987 29.9642 19.7031 28.714 18.4528C27.4638 17.2026 25.7681 16.5002 24 16.5002C22.6814 16.5002 21.3925 16.8912 20.2962 17.6238C19.1999 18.3563 18.3454 19.3975 17.8408 20.6156C17.3362 21.8338 17.2042 23.1742 17.4614 24.4674C17.7187 25.7606 18.3536 26.9485 19.2859 27.8808C20.2183 28.8131 21.4062 29.4481 22.6994 29.7053C23.9926 29.9625 25.333 29.8305 26.5512 29.3259C27.7694 28.8214 28.8106 27.9669 29.5431 26.8706Z" fill="#264887"/>
</svg>
