<svg width="24" height="24" viewBox="0 0 24 24" fill="none" xmlns="http://www.w3.org/2000/svg">
<path d="M4.16269 9.99609C4.04776 10.1072 3.95655 10.2394 3.89431 10.385C3.83206 10.5306 3.80002 10.6868 3.80002 10.8446C3.80002 11.0023 3.83206 11.1585 3.89431 11.3041C3.95655 11.4497 4.04776 11.5819 4.16269 11.693C4.27609 11.8061 4.41157 11.896 4.56117 11.9574C4.71076 12.0188 4.87144 12.0504 5.03375 12.0504C5.19607 12.0504 5.35675 12.0188 5.50634 11.9574C5.65593 11.896 5.79141 11.8061 5.90482 11.693C7.5319 10.1139 9.73514 9.22729 12.032 9.22729C14.3288 9.22729 16.5321 10.1139 18.1592 11.693C18.2741 11.8053 18.4106 11.8943 18.561 11.9551C18.7113 12.0158 18.8724 12.0471 19.0352 12.0471C19.1979 12.0471 19.3591 12.0158 19.5094 11.9551C19.6597 11.8943 19.7963 11.8053 19.9112 11.693C20.1362 11.4649 20.2619 11.1609 20.2619 10.8446C20.2619 10.5282 20.1362 10.2242 19.9112 9.99609C17.8215 7.96423 14.9896 6.82305 12.0369 6.82305C9.08432 6.82305 6.25234 7.96423 4.16269 9.99609Z" fill="#40526D"/>
<path d="M22.7026 6.30332C19.8719 3.54786 16.0338 2 12.032 2C8.03013 2 4.19204 3.54786 1.36141 6.30332C1.12908 6.53091 0.999077 6.83907 1 7.16002C1.00093 7.48097 1.13272 7.78842 1.36636 8.01472C1.60001 8.24103 1.91638 8.36766 2.24588 8.36676C2.57538 8.36585 2.89101 8.23749 3.12334 8.0099C5.4927 5.72071 8.69475 4.43621 12.032 4.43621C15.3692 4.43621 18.5713 5.72071 20.9406 8.0099C21.1769 8.21453 21.4847 8.32326 21.8008 8.31379C22.1168 8.30431 22.4171 8.17734 22.6401 7.95894C22.863 7.74055 22.9917 7.4473 22.9996 7.13941C23.0075 6.83151 22.8942 6.53235 22.6828 6.30332H22.7026Z" fill="#40526D"/>
<path d="M14.3878 12.0016C13.1146 11.5707 11.7427 11.4967 10.4284 11.7882C9.11409 12.0797 7.91027 12.7249 6.95406 13.6503C6.7261 13.8788 6.59857 14.1849 6.59857 14.5036C6.59857 14.8222 6.7261 15.1283 6.95406 15.3569C7.06936 15.4702 7.2066 15.56 7.35782 15.6213C7.50905 15.6825 7.67125 15.7139 7.83503 15.7136C7.99747 15.7148 8.15846 15.6838 8.3082 15.6225C8.45795 15.5611 8.59333 15.4708 8.70609 15.3569C9.56012 14.5322 10.7061 14.0576 11.9084 14.0307C13.1107 14.0038 14.2778 14.4266 15.1698 15.2122C15.303 15.3605 15.4654 15.4812 15.6473 15.5673C15.8292 15.6534 16.027 15.7032 16.2289 15.7136C16.4733 15.7114 16.7117 15.6393 16.9143 15.5063C17.117 15.3732 17.2751 15.1851 17.3689 14.9653C17.4628 14.7455 17.4883 14.5037 17.4422 14.2699C17.3962 14.0361 17.2806 13.8207 17.1099 13.6503C16.3433 12.906 15.4122 12.3421 14.3878 12.0016Z" fill="#40526D"/>
<path d="M12.032 22C13.3987 22 14.5066 20.9208 14.5066 19.5896C14.5066 18.2583 13.3987 17.1792 12.032 17.1792C10.6653 17.1792 9.55736 18.2583 9.55736 19.5896C9.55736 20.9208 10.6653 22 12.032 22Z" fill="#40526D"/>
</svg>
