<svg width="56" height="56" viewBox="0 0 56 56" fill="none" xmlns="http://www.w3.org/2000/svg">
<g clip-path="url(#clip0_4244_282374)">
<rect width="56" height="56" rx="3" fill="#EBEEEF"/>
<rect width="37.3333" height="37.3333" transform="translate(9.33334 9.3335)" fill="#EBEEEF"/>
<path d="M15.6328 24.7644C15.4521 24.9437 15.3088 25.1569 15.211 25.3919C15.1132 25.6268 15.0628 25.8788 15.0628 26.1333C15.0628 26.3877 15.1132 26.6397 15.211 26.8747C15.3088 27.1096 15.4521 27.3229 15.6328 27.5022C15.811 27.6846 16.0239 27.8297 16.259 27.9287C16.4941 28.0277 16.7466 28.0787 17.0016 28.0787C17.2567 28.0787 17.5092 28.0277 17.7443 27.9287C17.9794 27.8297 18.1923 27.6846 18.3705 27.5022C20.9275 24.9545 24.3899 23.524 27.9994 23.524C31.6089 23.524 35.0713 24.9545 37.6283 27.5022C37.8089 27.6832 38.0235 27.8269 38.2597 27.9249C38.496 28.0229 38.7492 28.0734 39.005 28.0734C39.2607 28.0734 39.514 28.0229 39.7502 27.9249C39.9865 27.8269 40.201 27.6832 40.3816 27.5022C40.7353 27.1342 40.9328 26.6436 40.9328 26.1333C40.9328 25.6229 40.7353 25.1323 40.3816 24.7644C37.0977 21.4862 32.6473 19.6451 28.0072 19.6451C23.3671 19.6451 18.9167 21.4862 15.6328 24.7644Z" fill="#5A6A81"/>
<path d="M44.7683 18.8066C40.32 14.361 34.2884 11.8638 27.9994 11.8638C21.7105 11.8638 15.6789 14.361 11.2305 18.8066C10.8654 19.1738 10.6611 19.671 10.6626 20.1888C10.664 20.7066 10.8711 21.2026 11.2383 21.5677C11.6055 21.9328 12.1027 22.1371 12.6205 22.1357C13.1383 22.1342 13.6343 21.9271 13.9994 21.5599C17.7229 17.8666 22.7549 15.7943 27.9994 15.7943C33.2439 15.7943 38.276 17.8666 41.9994 21.5599C42.3708 21.8901 42.8545 22.0655 43.3511 22.0502C43.8478 22.0349 44.3198 21.8301 44.6701 21.4777C45.0205 21.1254 45.2226 20.6522 45.2351 20.1555C45.2476 19.6588 45.0694 19.1761 44.7372 18.8066H44.7683Z" fill="#5A6A81"/>
<path d="M31.7016 27.9999C29.7007 27.3047 27.5447 27.1854 25.4793 27.6557C23.4139 28.126 21.5221 29.1669 20.0194 30.6599C19.6612 31.0286 19.4608 31.5225 19.4608 32.0366C19.4608 32.5507 19.6612 33.0445 20.0194 33.4133C20.2006 33.596 20.4163 33.741 20.6539 33.8398C20.8916 33.9386 21.1465 33.9893 21.4039 33.9888C21.6591 33.9907 21.9121 33.9407 22.1475 33.8417C22.3828 33.7428 22.5955 33.597 22.7728 33.4133C24.1149 32.0827 25.9158 31.317 27.8052 31.2736C29.6946 31.2302 31.5287 31.9124 32.9305 33.1799C33.1399 33.4191 33.395 33.6138 33.6809 33.7528C33.9668 33.8917 34.2776 33.972 34.595 33.9888C34.979 33.9852 35.3536 33.8689 35.6721 33.6543C35.9906 33.4396 36.239 33.1362 36.3865 32.7815C36.534 32.4269 36.574 32.0368 36.5016 31.6596C36.4293 31.2824 36.2477 30.9348 35.9794 30.6599C34.7747 29.4591 33.3115 28.5493 31.7016 27.9999Z" fill="#5A6A81"/>
<path d="M27.9994 44.131C30.1472 44.131 31.8883 42.3899 31.8883 40.2421C31.8883 38.0944 30.1472 36.3533 27.9994 36.3533C25.8516 36.3533 24.1105 38.0944 24.1105 40.2421C24.1105 42.3899 25.8516 44.131 27.9994 44.131Z" fill="#5A6A81"/>
</g>
<rect x="0.5" y="0.5" width="55" height="55" rx="3.5" stroke="#D7DBE0"/>
<defs>
<clipPath id="clip0_4244_282374">
<rect width="56" height="56" rx="4" fill="white"/>
</clipPath>
</defs>
</svg>
