<svg width="22" height="20" viewBox="0 0 22 20" fill="none" xmlns="http://www.w3.org/2000/svg">
<path d="M21.1777 17.3199L12.622 0.980953C12.4669 0.685058 12.2339 0.437232 11.948 0.26432C11.6622 0.091407 11.3345 0 11.0005 0C10.6664 0 10.3387 0.091407 10.0529 0.26432C9.76706 0.437232 9.53399 0.685058 9.37893 0.980953L0.822282 17.3199C0.67612 17.5989 0.604433 17.9109 0.614153 18.2258C0.623873 18.5406 0.714671 18.8477 0.877766 19.1172C1.04086 19.3867 1.27074 19.6095 1.54516 19.7642C1.81958 19.9188 2.12927 20.0001 2.44427 20H19.5557C19.8707 20.0001 20.1804 19.9188 20.4549 19.7642C20.7293 19.6095 20.9592 19.3867 21.1222 19.1172C21.2853 18.8477 21.3761 18.5406 21.3859 18.2258C21.3956 17.9109 21.3239 17.5989 21.1777 17.3199ZM10.0847 6.72291C10.0847 6.48015 10.1811 6.24733 10.3528 6.07567C10.5244 5.90401 10.7572 5.80757 11 5.80757C11.2428 5.80757 11.4756 5.90401 11.6473 6.07567C11.8189 6.24733 11.9154 6.48015 11.9154 6.72291V12.215C11.9154 12.4578 11.8189 12.6906 11.6473 12.8622C11.4756 13.0339 11.2428 13.1303 11 13.1303C10.7572 13.1303 10.5244 13.0339 10.3528 12.8622C10.1811 12.6906 10.0847 12.4578 10.0847 12.215V6.72291ZM11.0458 17.2585H11.0201C10.6592 17.2574 10.3126 17.1167 10.053 16.8659C9.79333 16.6152 9.64069 16.2737 9.62699 15.913C9.62039 15.7336 9.64961 15.5547 9.71295 15.3867C9.77628 15.2187 9.87246 15.065 9.99586 14.9346C10.1193 14.8043 10.2674 14.6998 10.4316 14.6273C10.5959 14.5548 10.7729 14.5158 10.9524 14.5125H10.978C11.3389 14.5129 11.6857 14.6529 11.9457 14.9032C12.2057 15.1535 12.3588 15.4947 12.373 15.8553C12.3801 16.0351 12.3512 16.2145 12.288 16.383C12.2247 16.5515 12.1285 16.7056 12.0048 16.8363C11.8812 16.9671 11.7326 17.0718 11.5679 17.1443C11.4032 17.2168 11.2257 17.2556 11.0458 17.2585Z" fill="#D32D27"/>
</svg>
