<svg width="12" height="12" viewBox="0 0 12 12" fill="none" xmlns="http://www.w3.org/2000/svg">
<path d="M11.0398 2.37361C11.4303 1.98309 11.4303 1.34992 11.0398 0.959397C10.6493 0.568873 10.0161 0.568873 9.62558 0.959397L5.99935 4.58562L2.37312 0.959397C1.9826 0.568873 1.34943 0.568873 0.958909 0.959397C0.568385 1.34992 0.568385 1.98309 0.958909 2.37361L4.58514 5.99984L0.958909 9.62606C0.568385 10.0166 0.568385 10.6498 0.958909 11.0403C1.34943 11.4308 1.9826 11.4308 2.37312 11.0403L5.99935 7.41405L9.62558 11.0403C10.0161 11.4308 10.6493 11.4308 11.0398 11.0403C11.4303 10.6498 11.4303 10.0166 11.0398 9.62606L7.41356 5.99984L11.0398 2.37361Z" fill="#40526D"/>
</svg>
