<svg width="18" height="18" viewBox="0 0 18 18" fill="none" xmlns="http://www.w3.org/2000/svg">
<rect width="18" height="18" rx="4" fill="#40526D"/>
<g clip-path="url(#clip0_4726_1934)">
<path d="M9.66452 9.83789C9.66452 10.6487 10.0045 11.3801 10.5498 11.8972V13H3.73608C3.67346 13 3.6134 12.9761 3.56912 12.9336C3.52484 12.8911 3.49997 12.8334 3.49997 12.7733V12.0931C3.49997 10.2974 4.8033 9.85298 5.95552 9.48114L6.31441 9.35872C6.34746 9.34511 6.39469 9.29523 6.42775 9.17733C6.51021 8.87823 6.49704 8.56222 6.38997 8.2704C5.94136 7.80334 5.50691 7.21838 5.50691 5.76731C5.50691 4.18473 6.61191 3.5 7.73108 3.5C8.85025 3.5 9.97414 4.18473 9.97414 5.76731C9.97414 7.21838 9.53969 7.82148 9.09108 8.27494C8.98737 8.55956 8.97422 8.86737 9.0533 9.15919C9.08635 9.27709 9.13359 9.34057 9.16664 9.34057L9.53497 9.45848L9.54799 9.46297C9.5929 9.47846 9.63803 9.49402 9.68329 9.50973C9.67089 9.6174 9.66452 9.7269 9.66452 9.83789Z" fill="white"/>
<path fill-rule="evenodd" clip-rule="evenodd" d="M11.8333 11.9352V11.722C11.3885 11.5648 11.0136 11.2554 10.7749 10.8487C10.5362 10.4419 10.449 9.96384 10.5288 9.49903C10.6086 9.03422 10.8501 8.61256 11.2109 8.30859C11.5716 8.00462 12.0282 7.83789 12.5 7.83789C12.9718 7.83789 13.4284 8.00462 13.7891 8.30859C14.1498 8.61256 14.3914 9.03422 14.4712 9.49903C14.5509 9.96384 14.4638 10.4419 14.2251 10.8487C13.9863 11.2554 13.6114 11.5648 13.1666 11.722V14.171C13.1669 14.1928 13.1626 14.2145 13.154 14.2346C13.1454 14.2547 13.1327 14.2727 13.1166 14.2876L12.6166 14.7874C12.6017 14.8033 12.5836 14.8161 12.5635 14.8247C12.5435 14.8334 12.5218 14.8379 12.5 14.8379C12.4781 14.8379 12.4565 14.8334 12.4364 14.8247C12.4163 14.8161 12.3983 14.8033 12.3833 14.7874L11.8833 14.2876C11.8673 14.2727 11.8546 14.2547 11.846 14.2346C11.8374 14.2145 11.833 14.1928 11.8333 14.171V13.7412L11.55 13.4546C11.534 13.4397 11.5213 13.4216 11.5126 13.4015C11.5039 13.3815 11.4995 13.3598 11.4995 13.338C11.4995 13.3161 11.5039 13.2945 11.5126 13.2744C11.5213 13.2544 11.534 13.2363 11.55 13.2214L11.8333 12.9348V12.7416L11.55 12.455C11.534 12.44 11.5213 12.422 11.5126 12.4019C11.5039 12.3819 11.4995 12.3602 11.4995 12.3384C11.4995 12.3165 11.5039 12.2949 11.5126 12.2748C11.5213 12.2548 11.534 12.2367 11.55 12.2218L11.8333 11.9352ZM12.5 10C12.7761 10 13 9.77615 13 9.5C13 9.22386 12.7761 9 12.5 9C12.2238 9 12 9.22386 12 9.5C12 9.77615 12.2238 10 12.5 10Z" fill="white"/>
</g>
<defs>
<clipPath id="clip0_4726_1934">
<rect width="12" height="12" fill="white" transform="translate(3 3)"/>
</clipPath>
</defs>
</svg>
