<svg width="16" height="16" viewBox="0 0 12 14" fill="none" xmlns="http://www.w3.org/2000/svg">
<path d="M11.5638 12.371C11.5638 9.85709 9.81973 9.23338 8.27713 8.67331L7.78602 8.50784C7.74195 8.50784 7.67899 8.41874 7.63491 8.25327C7.52948 7.8437 7.54701 7.41168 7.68528 7.01222C8.28343 6.37578 8.86269 5.52932 8.86269 3.49273C8.86269 1.27157 7.36417 0.310547 5.87195 0.310547C4.37973 0.310547 2.90639 1.27157 2.90639 3.49273C2.90639 5.52932 3.48565 6.35032 4.0838 7.00585C4.22657 7.41542 4.24412 7.85894 4.13417 8.27872C4.0901 8.4442 4.02714 8.51421 3.98306 8.5333L3.50454 8.70514C1.96825 9.22701 0.230469 9.85072 0.230469 12.371V13.3257C0.230469 13.4101 0.263637 13.491 0.322676 13.5507C0.381715 13.6104 0.461789 13.6439 0.545284 13.6439H11.249C11.3325 13.6439 11.4126 13.6104 11.4716 13.5507C11.5306 13.491 11.5638 13.4101 11.5638 13.3257V12.371Z" fill="#D22D27"/>
</svg>
